<?xml version="1.0" encoding="utf-8"?>
<!-- Generator: Adobe Illustrator 27.3.0, SVG Export Plug-In . SVG Version: 6.00 Build 0)  -->
<svg version="1.1" id="Trazo" xmlns="http://www.w3.org/2000/svg" xmlns:xlink="http://www.w3.org/1999/xlink" x="0px" y="0px"
	 viewBox="0 0 1300 1300" style="enable-background:new 0 0 1300 1300;" xml:space="preserve">
<style type="text/css">
	.st0{fill:#02021D;}
</style>
<g>
	<path class="st0" d="M402.8,846.1c-1.2-2.3-1.9-4.5-1.9-7.3c0.1-2.8-0.9-5.5-1.5-8.5c0.3-0.2,0.7-0.6,1.3-1
		c-3.3-3.2-4.1-7.6-5.7-11.6c-1.1-2.8-1.8-5.8-2.5-8.7c-0.4-1.6-1.7-3.1-0.5-5c0.2-0.4-0.2-1.2-0.4-1.8c-1.8-3.7-3.7-7.4-3-11.8
		c0.2-1.2-0.8-2.7-1.5-3.9c-1.4-2.4-2.2-4.9-2.6-7.7c-0.1-0.6-0.1-1.4-0.4-1.8c-2.3-3.1-2.8-7.1-4.5-10.5c-1-2.1-1.5-4.4-2.2-6.7
		c-0.4-1.4-0.4-2.9-1.6-3.9c-0.3-0.3-0.5-0.9-0.5-1.3c0.2-4.6-2.1-8.6-3.2-12.9c-0.6-2.3-2-4.3-2.9-6.5c-0.6-1.5-1.9-3.1,0-4.8
		c0.2-0.2,0.2-1,0-1.4c-1.4-2-1.3-4.5-2.7-6.5c-1.1-1.7-1.6-3.8-2.4-5.7c-0.6-1.5-1.1-3-1.9-4.4c-1.8-3.1-3.2-6.2-3.8-9.7
		c-0.1-0.5-0.2-1-0.4-1.4c-2-2.5-2.3-5.9-3.8-8.6c-0.7-1.3-0.8-3-1.4-4.5c-0.7-1.8-1.7-3.4-2.3-5.2c-0.6-2-0.9-4-1.3-6
		c-0.2-1.1,0-2.3-0.5-3.2c-1.3-2.5-0.8-5-0.7-7.5c0.1-1.7,0.2-3.2-0.3-5c-0.8-2.6-0.3-5.7,1.6-7.7c3-3.2,5.8-6.9,11.2-6.1
		c1.3,0.2,2.8-0.5,4.2-0.9c1.9-0.6,3.7-0.7,5.4,0.7c1.6,1.3,3.4,2.4,5.1,3.5c1,0.7,2.1,1.5,3.2,2.1c5,2.3,9.2,5.8,13.2,9.5
		c2,1.9,3.4,4.5,5,6.8c1.9,2.6,3.7,5.2,5.9,8.1c0.8-1.8,0-3.1-0.2-4.3c-0.2-1.3-0.2-2.5-0.3-4.2c-1.7-1.3-2.6-3.3-3-5.8
		c-1-5.8-1.9-11.6-3.2-17.4c-1.2-5.3-3.1-10.3-4.3-15.6c-0.2-1.1-0.9-2-1.4-3.1c-0.9-1.9-1.3-3.8-0.8-6c0.3-1.2,0.3-2.6,0.1-3.8
		c-0.7-4.1-1.6-8.1-2.4-12.1c-0.2-0.9-0.1-1.9-0.3-2.8c-0.1-0.6,0-1.5-0.4-1.8c-1.9-1.4-1.4-3.4-1.7-5.3c-0.7-5.2-1.4-10.4-2.2-15.6
		c-0.8-4.9-1.8-9.7-2.5-14.5c-0.5-3.8-0.5-7.6-0.8-11.4c-0.1-1.3-0.4-2.5-0.8-3.7c-1.1-3.4-1.5-6.8-1.2-10.4
		c0.3-4.9,0.4-9.9-0.5-14.8c-0.4-2.4,0.8-4.4,1-6.5l-0.1,0.1c0.9-0.4,1.7-0.2,1.9,0.7c0.5,2,0.1,3.8-1.5,4.7
		c0.2,2.1,0.1,3.9,0.5,5.6c0.3,1.5,1.1,2.8,2,5.1c-0.1,1.3-0.5,3.5-0.2,5.7c0.3,1.9,1.4,3.8,2.1,5.5c-1,1.3-2.7,1.8-2,3.9
		c0.6,0.1,1.4,0.1,2.1,0.2c0.2,0.2,0.4,0.5,0.5,0.7c0.1,1.7,1,3.4-0.1,5.1c-0.4,0.6,0,1.5,0.9,2c1.1,0.5,1,1.4,0.6,2.6
		c-1.5,0.3-1.7-1.8-3-1.8c-0.1,0.2-0.3,0.6-0.2,0.7c0.8,1,1.6,2,2.4,3c-0.1,0.9-0.5,2-0.1,2.6c1.1,1.8,1.4,3.5,0.9,5.5
		c-0.2,1,0.2,2.2,0.1,3.3c-0.1,0.9-0.6,1.7-1,2.6c1.7,2,1.9,4.7,2.5,7.3c0.4,1.7,0.8,3.4,1,5.1c0.2,1.3,1.3,2.6,0,4
		c-0.2,0.3,0.4,1.4,0.7,2.1c1.2,2,1.9,4,1.5,6.4c-0.1,0.6,0,1.3,0.2,1.8c0.8,2.3,1.5,4.5,1.2,7c-0.1,0.5,0.1,1,0.2,1.4
		c1.4,4.6,2.8,9.1,4.1,13.7c0.5,1.8,0.7,3.7,1.2,5.6c0.7,2.6,1.6,5.2,2.9,7.6c0.7,1.2,1.1,2.5,0.6,4.1c-0.4,1.2,0.2,2.8,0.6,4.1
		c1.5,4.7,2.4,9.5,3.2,14.4c0.8,4.5,1.2,9.1,3.5,13.2c0.2,0.4,0.5,0.9,0.5,1.3c0.1,3.5,1.7,6.8,1.2,10.3c-0.1,0.5-0.4,1.1-0.2,1.4
		c2.2,3.3,0.6,7.2,2.1,10.7c0.4,0.8,0.2,1.9,0.2,2.8c0,0.5-0.2,1.1,0,1.4c2.1,3.7,1.8,8,3.4,11.9c1.6,3.9,2.7,8.1,3.3,12.4
		c0.8,5.7,2.4,11.2,3.1,16.9c0.2,1.6,0.3,3.2,0.1,4.7c-0.1,0.8-1,1.5-1.7,2.6c-1-1.4-1.1-2.6-1.2-3.7c-0.2-1.3-0.5-2.5-0.7-3.8
		c-0.8-6.2-2.3-12.2-4-18.2c-1.6-5.5-2.9-11.1-3.5-16.8c-0.1-0.9-0.5-1.8-0.7-2.8c-0.5-2-1-4-1.5-6c-0.5-1.8-0.5-3.8-2-5.3
		c-0.6-0.6-0.8-1.7-1.1-2.6c-2.5-7.9-7-14.8-12.1-21.1c-3.6-4.4-8.1-8-12.8-11.3c-3.4-2.4-7.1-4.3-9.9-7.5c-1.1-1.3-2.7-1.3-4-1.1
		c-3.8,0.7-7.5,1.7-11.2,2.8c-0.8,0.2-1.6,1.2-1.8,2c-1.5,4.4-1.8,8.9-1.1,13.6c0.8,6.2,2,12.3,3.7,18.3c0.5,1.8,0.7,3.7,1.1,5.8
		c2.5,1.7,3.7,4.4,4.8,7.3c2.4,6.1,4.6,12.2,7.2,18.2c1.8,4,3.6,8.2,4.4,12.6c0.5,2.6,1.5,5.2,2.4,7.7c1.7,4.6,3.4,9.3,5.3,13.8
		c0.9,2.2,2.1,4.2,2.4,6.7c0.1,0.6,0.5,1.2,0.4,1.7c-0.4,3.6,0.6,6.8,2,10.1c1.6,3.6,2.6,7.5,3.9,11.3c1,2.9,2.5,5.6,2.5,8.7
		c0,0.6,0.3,1.4,0.7,1.8c2.4,2.4,2.4,5.5,2.7,8.4c0.4,3.5,1.1,6.9,2.1,10.3c1.6,5.2,2.7,10.5,4.9,15.5c0.4,1,0.4,2.2,0.7,3.2
		c1.3,4.9,2.6,9.8,3.8,14.8c0.2,0.8,0.2,1.6,0.3,2.3c0.3,1.9,0.4,3.8,1,5.7c1,3.4,1.6,6.8,2.1,10.3c0.3,2.8,1.5,5.5,2.4,8.2
		c1.2,3.3,1.8,6.8,2.1,10.3c0.7,8,1.8,15.9,3.4,23.7c0.4,1.9,0.6,3.8,0.5,5.7c-0.2,2.6-0.1,5,0.9,7.5c0.8,2,0.6,4.3,1,6.8
		c-1.5-0.9-2-1.9-1.9-3.3c0.1-2.1-0.3-4-1.7-5.8c-1.5-2-1.6-4.7-0.5-6.7c0.8-1.3,1-2.2,0.5-3.4c-0.8-1.9-1.3-3.9-1.3-6
		c0-1.1-0.3-2.4-0.9-3.2c-2.4-3.2-2.1-6.9-2.6-10.5c-0.3-2.5-0.3-5-2-7.2c-0.9-1.2-1-3-1.5-4.4c0.5-1,1.2-1.9,1.5-2.9
		c0.2-0.9,0.1-1.9,0.1-2.9c-1-0.2-1.9-0.4-2.9-0.6c-0.3-2.8-2-5.3-0.9-8.4c0.4-1.1-0.3-2.6-1.6-3.2c-1.8-0.8-1.5-2.1-1.1-4
		c1.2,1.1,2.2,2.1,3.4,3.3c0.4-1.8-0.7-2.7-1.4-3.6c-1-1.2-2.4-2.2-2.5-3.9l0.2,0.1C403.8,847.4,403.8,847.4,402.8,846.1
		L402.8,846.1z"/>
	<path class="st0" d="M628.7,809c-0.1-1.9-0.3-3.8-0.5-5.6c-0.3-3-0.5-6-0.9-9c-0.3-3-0.5-6-1.2-9c-0.3-1.3-0.9-2.3,0.8-3.1
		c0.3-0.1,0.2-1.2,0.1-1.8c-0.4-1.7-0.9-3.4-1.5-5c-1-2.6-1.3-5.4-0.9-8c0.5-2.8,0-5.4-0.8-7.9c-0.9-3.1-1.1-6.2-0.9-9.5
		c0.1-0.9,0.3-2-0.1-2.8c-1.8-4.4-1.4-9.1-2.6-13.6c-0.5-1.7-0.1-3.7-0.5-5.6c-0.5-2.3-0.3-4.8-2.2-6.6c-0.2-0.2-0.3-0.6-0.3-0.9
		c-0.4-3.5-1.3-6.9-1.2-10.4c0.2-4.6-1.1-8.8-2.6-13c-0.4-1-0.7-2.1-1-3.2c-0.2-0.6-0.5-1.4-0.3-1.9c0.9-2,0.8-3.9-0.2-5.9
		c-1-1.8-0.5-3.9-1.6-5.9c-1.1-2-1.2-4.6-1.7-6.9c-0.6-2.3-1-4.7-1.8-6.9c-0.9-2.6-1.6-5.2-1.8-7.9c-0.3-2.7-0.4-5.4-2-7.8
		c0-3.4-1.7-6.4-2.2-9.7c-0.5-3.2-1.2-6.2-2.8-9c-0.4-0.7-0.6-1.5-0.9-2.2c-1.7-3.1-0.7-6.8-2.4-10.1c-1.5-2.9-1.8-6.4-1.8-9.8
		c0-0.6-0.1-1.4-0.5-1.8c-2.3-2.9-2.6-6.5-2.8-9.9c-0.2-2.6-0.6-5-1.9-7.3c-0.9-1.6-1.6-3.6-1.6-5.4c0.1-2.5-0.7-4.6-1.7-6.8
		c-0.5-1.1-1-2.4-1.2-3.6c-0.4-3.8-1.8-7.4-2.8-11.1c-0.9-3.2-2.1-6.4-3.2-9.5c-1-3-1.7-6.2-3.5-8.9c-0.3-0.5-0.7-1.2-0.8-1.8
		c-0.2-2.9-2-4.9-3.2-7.3c-1.3-0.1-2.6,0.7-3.7-0.9c-2.6-4-5.5-7.8-9.5-10.6c-0.8-0.6-1.4-1.3-2-2.1c-3.5-4.6-8.5-6.8-13.5-9.1
		c-1.5-0.7-3.4-0.6-5.2-0.8c-0.6-0.1-1.4,0.2-1.8,0c-4.1-2.2-7,0.4-9.2,2.8c-2.3,2.5-5.3,4-7.5,7.3c-0.3-1.5-0.4-2.4-0.6-3.2
		c0.8-1.1,2.7-0.6,2.8-2.8c0-1.2,1.2-2.4,2-3.5c0.8-1.2,1.6-2.2,2.5-3.4c1.9,0.8,3.1-1.3,4.8-1.3c2.4,0,4.8-0.2,7.2,0.1
		c1.9,0.2,3.7,0.7,5.6,0.1c1.1-0.3,2.4-0.1,3.6,0.8c1,0.8,2.2,1.4,3.3,1.8c3.6,1.2,6.5,3.4,9.3,5.8c6.8,5.7,12.6,12.1,16.8,20.1
		c5.2,9.9,5.4,9.8,8.5,22.6c1,4.3,2.9,8.5,2.8,13c0,1.3,0.9,2.7,1.3,4.1c1.4,4.8,2.7,9.5,4,14.3c0.5,1.7,0.5,3.5,1.7,4.9
		c0.5,0.6,0.7,1.5,0.8,2.2c0,2.3,1,4.3,1.6,6.5c2.1,7.7,4.1,15.4,6.1,23.1c0.8,3.1,1.5,6.2,2.1,9.3c0.3,1.4,0.2,2.8,0.4,4.5
		c2.5,2.4,3.7,5.8,4.3,9.5c0.4,2.5,1.2,5,1.7,7.5c0.6,2.6,1.3,5.3,1.7,7.9c0.6,4.8,2.5,9.2,3.4,13.9c0.5,2.8,1.3,5.6,1.9,8.4
		c0.3,1.4,0.5,2.8,0.9,4.2c1.5,5.9,3.5,11.6,2.9,17.8c-0.1,1.2,0.4,2.5,0.9,3.6c0.7,1.8,1.6,3.5,2.2,5.3c0.6,1.6,0.9,3.3,1.2,5
		c0.1,0.7,0.2,1.6,0.1,2.3c-1,4-0.8,7.9,0.1,11.8c0.2,0.9,0.3,1.9,0.3,2.9c-0.1,5,1.1,9.8,1.7,14.7c0.2,1.9,0.5,3.8,0.4,5.7
		c-0.1,2.3-0.2,4.4,1.4,6.4c0.4,0.5,0.4,1.5,0.4,2.3c0.1,1.3,0,2.6,0,3.8c0.2,7.5,0.8,15,1.5,22.4c0.4,4.3,0.8,8.6,1.4,12.8
		c0.6,4.5,1.4,9,2,13.6c0.5,3.6,0.8,7.2,0.7,10.8c-0.1,3,0.3,6,0.5,9.1c0.1,1.6,0.6,3.2,0.3,4.8c-1.1,5.6,0.3,11.1,0.5,16.6
		c0.1,4.8-0.2,9.6-0.8,14.3c-0.8,7.1-1.6,14.3-1.6,21.5c-0.1,8-0.1,8-2.6,15.3c-0.5,1.5-1.2,2.9-1,4.6c0.1,0.6-0.1,1.3-0.3,1.9
		c-0.7,1.6-1.4,3.1-2.3,4.9c-0.5-0.6-1-1-0.9-1.2c0.2-0.7,0.5-1.5,0.9-2.2c1.4-2.1,2.2-4.3,1.6-6.8c-0.5-2.7,1-5,1.3-7.5
		c0-0.1,0.1-0.3,0.3-0.4c2.7-1.5,2.2-3.8,1.6-6.3c-0.3-1.3-0.4-2.9,0-4.3c0.7-2.3,0.4-4.5-0.3-6.6c-0.8-2.2-0.8-4.3-0.3-6.5
		c0.6-3,0.8-6,1.1-9c0.1-0.5,0.1-1,0-1.4c-1.3-2.7-0.9-5.6-1.3-8.7c1.9-1.6,3-3.7,2.4-6.7c-0.7-0.1-1.4-0.3-2.4-0.5
		c0.1-3.2-0.8-6.5,0.5-9.7c0.8-1.9,0.4-3.8-0.8-5.3c-1.1-1.3-1.1-2.5-0.5-4.3c0.5,0.5,1.1,0.8,1.3,1.2c0.5,0.8,0.8,1.7,1.3,2.6
		c1.2-0.6,0.8-1.4,0.5-2c-0.7-1.4-1.6-2.8-2.3-4.2c-0.3-0.7-0.6-1.8-0.2-2.2c1.1-1.4,0.5-2.6,0.1-4c-0.8-2.6-1.1-5.2-0.8-8
		c0.4-3.4-0.6-6.8-1.4-10.1c0.7-0.5,1.2-0.9,2-1.5C630.4,811.3,629.6,810.2,628.7,809L628.7,809z"/>
	<path class="st0" d="M762,577.7c0.1-0.9,0-1.7,0.2-2.6c0.6-2.4,1.1-4.6-0.1-7c-0.8-1.5-0.2-3.2,0.2-4.7c0.4-1.4-0.3-3.4,2-3.9
		c0.3-1.4,1.1-2.8,0.9-4.1c-0.3-2.3,0-4.4,0.6-6.6c0.6-2.2,0.8-4.4-0.1-6.6c-0.3-0.8-0.3-1.9-0.1-2.7c0.6-2.8,1.3-5.6,2.1-8.4
		c0.7-2.3,1.1-4.5,0.9-7c-0.2-2,0.6-4.1,0.9-5.8c0.8-1.4,2.7-0.7,3.1-2.4c0.2-1,1-1.9,1.7-3.2c-1-0.4-1.8-0.8-2.7-1.2
		c-0.1-0.2-0.3-0.5-0.2-0.8c0.3-1.4,0.7-2.8,1.1-4.1c0.4-1.2,0.5-2.7,1.3-3.5c1.7-1.7,1.9-3.5,1.1-5.6c-0.7-1.9,0-3.3,1.8-5.1
		c0.2,2.1,0.4,3.5,0.6,5c1.2,0.2,1.1-0.7,1.1-1.2c0-1.6-0.2-3.2-0.3-4.8c-0.1-1.3-0.1-2.4,1.2-3.4c0.6-0.4,0.8-1.7,0.8-2.6
		c0.1-2.9,0.9-5.5,2.5-8.1c1.7-2.7,2.6-6,3.9-9.2c0.4-0.1,1.1-0.2,2-0.3c0.1-0.4,0.4-1,0.2-1.3c-0.4-0.9-0.7-1.5-0.2-2.6
		c2.3-4.7,3.8-9.8,7-14.1c1.8-2.4,3-5.2,4.6-7.8c0.4-0.7,0.9-1.6,1.4-1.7c2-0.3,3-1.6,4-3.1c3-4.1,6.6-6.8,12-6.8
		c1.7,0,3.4-0.7,5-1.3c3.5-1.3,6.6-0.1,9.6,1.4c1,0.5,1.8,1.4,2.9,1.7c3.2,0.9,5,3.3,6.7,5.8c1.7,2.5,3.1,5.1,3.7,8.2
		c1,5,2,10,1.4,15c-0.5,4.6,0.2,9.2-0.4,13.8c-0.1,1.2,0.6,2.5,0.6,3.7c0.3,5.2,0.6,10.5-0.5,15.7c-0.1,0.6-0.2,1.3,0,1.9
		c1,2.1,0.2,4.1,0.1,6.1c-0.3,4.6-0.9,9.2-1.4,13.8c-0.1,0.8-0.2,1.6-0.4,2.3c-0.9,3.1-2.1,6-1.8,9.3c0,0.2,0,0.4,0,0.5
		c-2.2,3.2-1.4,7.1-2.5,10.6c-0.7,2.3-0.7,5-0.6,7.5c0.1,3.2,0.3,6.3-0.9,9.4c-0.3,0.7-0.6,1.6-0.4,2.3c0.7,4-0.9,7.5-2,11.1
		c-0.2,0.7-0.6,1.6-0.5,2.2c1,3.9,0.2,7.6-1.1,11.2c-0.8,2-1,3.9-0.7,6.1c0.4,2.4,0.2,4.6-0.9,7c-0.8,1.6-0.6,3.7-0.5,5.6
		c0.1,1.6-0.1,3.1-0.4,4.7c-0.5,3.5-0.9,7-0.8,10.5c0.2,6.9,1.1,13.7,1.1,20.6c0,3,0.3,6,0.4,9c0.1,3.2,0.6,6.4,0.8,9.5
		c0.1,1.6,0.2,3.2,0.2,4.8c0.1,5.3-0.1,10.5,0.7,15.8c0.3,2.3,0.1,4.8-0.1,7.1c-0.1,1-0.9,1.9-1.3,2.9c-1.4-0.7-1-1.8-1.1-2.6
		c-0.6-4.1-1.3-8.1-1.3-12.3c0-5.9-0.5-11.8-0.9-17.7c-0.1-1.9-0.3-3.8-0.5-5.7c-0.4-4.1-0.5-8.3-1.3-12.3
		c-1.1-5.4-0.2-10.8-0.3-16.2c-0.1-2.5-0.1-5.2,0.5-7.6c1.4-6.1,0.8-12.4,1.9-18.5c0.3-1.9,0.5-3.8,0.7-5.7c0.2-1.6,0.2-3.2,0.3-4.8
		c0.1-1.1-0.1-2.3,0.1-3.3c1-4.5,1.2-9.1,1.6-13.7c0.4-4,1-7.9,1.5-11.9c0.5-3.8,0.9-7.6,1.5-11.4c0.3-2,1.1-4,1.7-6.3
		c-0.9-2.8-0.8-5.8,0-9c1.5-6.7,2.8-13.5,3.8-20.2c0.5-3.4,0.3-7,0.4-10.5c0.1-3,0.3-6,0.4-9.1c0-0.9,0-1.9,0-2.9c0-2.1,0-4.1,0-6.2
		c0-0.2,0.1-0.3,0.1-0.5c-1.3-6.8,0.3-13.7-1.2-20.5c-0.6-2.6-0.4-5.3-0.3-8c0.1-1.8-0.2-3.4-0.6-5.1c-1.1-4.6-4.4-7.4-7.9-9.8
		c-2.4-1.7-5.6-2.2-8.7-2c-1.9,0.1-3.8,0.5-5.7,0.6c-1.8,0.1-3.4,0.6-4.5,2.3c-0.4,0.6-1.1,1.1-1.9,1.4c-4.3,1.8-7.5,4.8-10,8.7
		c-4.3,6.5-8.6,13.1-11.1,20.6c-0.6,1.6-1.5,3.1-2.1,4.7c-1.7,4.3-3.6,8.5-4.7,13c-0.8,3.1-2.1,6-3.1,9c-0.5,1.4-0.8,2.8-1.2,4.1
		c-0.8,2.6-1.6,5.2-2.4,7.8c-0.7,2.3-1.3,4.5-1.7,6.9c-0.6,4.7-1.5,9.5-3,14c-1.7,5.2-3.3,10.3-4.3,15.7c-0.9,4.5-1.5,9.1-2,13.7
		c-0.3,3-0.8,6-1.7,8.9c-0.7,2.4-1.5,4.8-0.8,7.5c0.5,2.2-0.5,4.3-0.9,6.4C762.8,577.7,762.4,577.7,762,577.7z"/>
	<path class="st0" d="M912.4,732.7c0.3-0.5,0.8-1,1-1.6c0.9-2.4,2.4-4.4,4.4-6.2c3.9-3.5,7.8-7.1,11.4-11c2.6-2.8,5.8-5,7.8-8.4
		c0.7-1.2,1.9-1,3.1-0.8c4.1-5.9,7.9-12.3,14.2-16.3c1.4-4.1,2.8-8,4.2-11.9c0.4-1.2,0.8-2.4,1.1-3.6c0.6-2.4,0.5-4.6-0.6-7
		c-1.4-2.9-2.2-6-3.3-9c-1-2.8-2.6-5-5.5-6.2c-1.4-0.6-2.5-1.9-3.8-2.9c-0.9-0.6-1.9-1.6-2.8-1.6c-2.2,0.1-3.9-1.1-5.7-1.9
		c-5.2-2.3-10.8-3.1-16.4-2.7c-2.8,0.2-5.6,1.1-8.3,2.1c-5.1,1.8-10.4,2.9-15.7,4c-2.9,0.6-5.6,2.2-8.5,3
		c-5.4,1.6-10.3,4.2-14.9,7.5c-2.2,1.6-4.7,2.7-7,4c-1.8,1-3.6,2.1-4.9,3.8c-0.6,0.7-1.3,1.5-2.2,1.8c-2.4,0.8-3.8,2.8-5.5,4.4
		c-2.6,2.5-5.5,4.8-7.8,7.6c-0.7,0.8-1.4,1.7-2,2.6c-0.8,1.2-1.5,2.4-2.3,3.6c-1.9,2.8-3.8,5.5-5.7,8.3c-0.1,3.5-2.9,6-3.7,9.3
		c-0.3,1.4-1.2,2.6-1.9,3.9c-0.3,0.6-1,1.1-1,1.6c0,3.4-2.6,4.9-4.8,6.7c-2.2,1.9-4.8,3.2-7.6,3.8c-2.4,0.5-4.5,1.6-6.3,3.2
		c-1.3,1.2-2.7,2.2-4.2,3.2c-0.8,0.5-1.7,1.2-2.5,1.2c-1.7,0-3.1,0.7-4.5,1.4c-3.7,1.9-7.5,3.4-11.3,5c-1.5,0.6-2.9,1.3-4.5,1.7
		c-2.7,0.6-5,1.9-7.3,3.5c-3.1,2.2-6.4,4.3-9.5,6.4c-2.4,1.6-4.7,3.4-7,5.1c-1.8,1.3-3.7,2.5-5.6,3.7c-5.3,3.4-10.7,6.7-14.3,12.3
		c-3,4.7-6.9,8.8-9.7,13.7c-1.1,1.9-2.2,3.9-3.3,5.8c-1.6,2.9-3.2,5.9-5,8.7c-0.8,1.3-1.9,2.4-3.8,3.5c0.3-2.9,1.3-5.1,2.4-7.2
		c0.8-1.7,2.1-3.2,2.2-5.2c0-0.6,0.5-1.2,0.9-1.7c4.3-6.4,8.5-12.8,12.8-19.1c3.2-4.7,7.2-8.6,12.1-11.5c0.8-0.5,1.6-1.1,2.3-1.7
		c2.8-2.1,5.4-4.4,8.3-6.4c2.9-2,6-3.7,9-5.6c2.6-1.6,5.3-3,7.8-4.7c3.7-2.4,7.9-3.5,12.1-4.3c1.3-0.3,2.3-0.8,3.4-1.4
		c2.4-1.3,4.9-2.4,7.4-3.3c2.3-0.8,4.4-1.8,6.4-3.3c0.9-0.7,1.8-1.4,2.8-1.8c4.8-1.8,8.9-4.9,13.4-7.4c3.4-1.9,5.7-5.1,6.6-9
		c0.1-0.6,0.1-1.3,0.3-1.9c3.6-10,8.3-19.4,16.4-26.7c1.6-1.5,3-3.3,5.2-4.2c0.6-0.2,0.8-1.3,1.2-1.9c1.5-2.7,3.3-5.1,5.9-6.9
		c4.2-2.9,8.2-6.2,12.6-8.7c6.8-3.9,13.7-7.6,21.4-9.2c3.3-0.7,6.4-1.9,9.6-2.8c3.7-1.1,7.3-2.4,11-3.2c4.2-0.9,8.5-1.5,12.8-2.1
		c1.2-0.2,2.6,0.1,3.8,0.3c4.5,0.9,9,1.9,13.5,3c2.5,0.6,5.1,1,6.5,3.5c3.9,0.8,4.9,4.8,7.6,6.9c0.8,0.6,1.3,1.8,1.6,2.9
		c0.5,2,1.3,3.9,2.1,5.8c2.6,6.6,3.2,13.3,0.4,20c-0.7,1.8-1.3,3.6-2.2,5.3c-0.9,1.7-1.9,3.3-3.1,4.8c-1.2,1.6-2.8,2.9-3,5.2
		c-0.1,0.9-1.1,1.9-1.9,2.7c-8,7.8-16.1,15.5-24.1,23.2c-0.6,0.6-1.1,1.2-1.7,1.7c-3.8,2.5-6.8,5.7-9.6,9.3c-0.8,1-1.7,1.5-2.9,0.7
		L912.4,732.7z"/>
	<path class="st0" d="M979.2,880.2c3,0.9,5.7,1.5,7.9,3.6c1,1,2.4,1.5,3.7,2.1c3.6,1.6,6.8,4,10.7,4.7c0.9,0.2,1.6,1,2.4,1.5
		c1.5,0.9,2.8,2.2,4.5,2.8c1.9,0.6,2.8,1.9,3.4,3c2.8,1.3,5.1,2.2,7.4,3.4c1.2,0.6,2.1,2.1,3.8,1.2c0.1-0.1,0.3,0,0.4,0
		c3.1,3.1,7.7,3.7,10.9,6.6c2.1,1.9,5,2.9,6.1,5.8c1.3-0.5,2.5-0.9,3.9-1.4c2.7,2.1,5.5,4.3,8.2,6.4c0.4,0.3,0.7,0.8,1.1,0.9
		c4.2,0.7,7.2,3.7,10.7,5.7c1.4,0.8,3,1,4.3,1.8c2,1.4,4.1,2.3,6.5,2.3c1.5,0,2.3,1.2,2.5,2.5c0.4,2.5,1.9,3.5,4.2,4.4
		c2.5,1,4.9,2.1,7.4,3c1.3,0.4,2.4,1.4,3.7,2.2c0.7-0.3,1.6-0.7,2.2-1c4.3,3.2,8.5,6.4,12.7,9.5c3.3,0.4,5.6,3.4,9.2,3.5
		c1.9,0,4,0.7,5.7,2c0.5,0.4,1.1,0.8,1.7,0.9c2.4,0.2,4.2,1.5,5.6,3.2c1.5,0,2.9,0.1,4.3,0c2.2-0.2,3.9,0.5,5.6,2
		c3.5,3.1,7.3,5.5,12.1,6c1.4,0.2,2.1,0.9,2.7,2.3c0.9,2,1.1,2,4,0.9c1.1,0.7,2.3,1.4,3.5,2.1c-0.8,0.6-1.7,1.3-2.5,1.9
		c-0.8-0.6-1.6-1.5-2.5-1.7c-1.2-0.3-1.8,1-2.6,2.1c-1.1-0.6-2.2-1.2-3.2-1.7c0.4-1.2,0.8-2.3,1.1-3.4c-1.9-0.9-3.8,0.6-5.3-1.1
		c-0.2-0.3-1.3-0.1-1.8,0.1c-1,0.4-1.9,1-2.9,1.5c-1.7-1.2-3.4-2.4-5.2-3.8c-1.5,1.2-3.2,2.1-5.2,1c-0.9-1.3,0.8-1.9,0.9-3.4
		c-0.2-0.4-0.7-1.2-1.1-2c-1.9,1.1-1.8,3.2-3,4.7c-1.1-0.4-2.2-0.8-3.6-1.3c0.1-0.9,0.1-1.6,0.2-2.4c-1-0.8-2.7-0.4-3.1,1
		c-0.2,0.8,0.1,1.5-1,1.4c-1.1-0.1-1.1-1-1.2-1.8c0-0.2,0-0.3-0.1-0.7c1.6-1.2,3.4-2.4,5.4-3.9c-2.1-0.4-2.1-0.4-6.1,2.3
		c-0.2-0.6-0.3-1.1-0.6-2c-0.6,0.2-1.1,0.4-1.6,0.6c-0.6,0.2-1.2,0.5-1.6,0.6c-0.5-0.2-0.8-0.2-1-0.4c-2.3-2.3-2.3-2.3-5.5-3
		c0.5-1,0.9-1.9,1.6-3.3c-2.1,0.3-3.5,1.7-5.3,0.7c-1.4-0.7-2.8-1.3-4.1-2.3c-1.5-1.1-3.6-1.5-5.6-2.3c0.5-0.5,1-1.1,1.7-1.9
		c-2.1-1.5-3.8,0.7-6,0c-0.6-0.7-1.5-1.8-2.6-3.3c-0.9-0.1-2.3-0.3-4.2-0.5c-0.6-0.7-1.4-1.7-2-2.5c-4.3,0.1-7.7-1.3-10.6-3.8
		c-0.8-0.7-0.8-0.7-2.5,0.4c-0.7-3.4-3.9-4.1-6.1-5.9c-0.3-0.2-0.9,0-1.3,0c-2.3,0.2-4.1-0.5-5.6-2.4c-0.5-0.7-1.3-2.3-3.1-1.6
		c-0.5,0.2-1.4-0.6-2.1-0.9c-1.8-0.9-3.6-1.8-6.3-3.2c-0.2-0.4-1.1-1.5-1.9-2.7c-0.7-0.1-1.5-0.3-2.3-0.5c0-0.5,0-0.9,0-1.4
		c-1.2-0.4-2.7-0.2-3.7-1.7c-0.7-1-2-1.5-3.4-1.4c-1.6,0.2-2.7-0.5-3.2-2.1c-0.3-1.1-1-1.2-2.1-1.1c-0.8,0-1.8-1.1-2.4-2
		c-0.5-0.7-0.4-1.7-0.5-2.4c-1.3-0.8-1.3,0.7-2.1,0.7c-2.7-0.5-3.8-2.6-4.4-4.9c-1,0.4-1.7,0.9-2.4,0.8c-0.7,0-1.9-0.5-2-0.9
		c-0.4-1.8-1.2-2.5-3-2c-0.9,0.2-1.3-0.3-2-0.8c-1.6-1.1-3.1-2.4-5.4-2.7c-2-0.3-3.8-1.6-5.8-2.2c-1.7-0.5-2.9-1.4-4.1-2.6
		c-1.4-1.4-3-2.9-5.3-3.1c-0.8-0.1-1.6-0.9-2.4-1.5c-1.5-1-2.8-2.1-4.4-2.9C978,886.3,977.6,885.4,979.2,880.2z M1091.7,945.3
		c0-0.1,0.1-0.3,0.1-0.4c-0.2,0-0.4,0.1-0.5,0.1c0,0.1,0.1,0.3,0.1,0.4C1091.4,945.4,1091.6,945.3,1091.7,945.3z"/>
	<path class="st0" d="M1196.1,815.8c-0.8,0.5-1.7,0.9-2.7,0.4c-1.3-0.7-2.5-1.3-4-2.1c-1.8,0.4-3.1,2.8-5.6,1.5
		c-0.1-1.5,2.1-3.6-1.2-4.7c-0.6,1.7-1.1,3.3-1.6,4.9c-3.5-1-3.5-1-4.3-3.3c-1.3-0.1-2.3,0.1-2.2,1.6c0.1,0.8,0,1.3-0.7,1.3
		c-0.5,0-0.9-0.6-1.3-1.1c-0.2-0.2-0.1-0.6-0.1-1.1c1.3-1.4,2.6-2.9,3.9-4.4c0-0.1-0.1-0.3-0.2-0.7c-2.2,0.3-2.9,2.7-4.7,3.7
		c-0.3-0.4-0.7-0.8-1.1-1.3c-0.9,0.5-1.9,1-3.1,1.6c-1.7-1.3-3.3-2.9-6-1.9c0.3-1.4,0.5-2.6,0.9-4.8c-1.3,1.6-1.9,2.3-2.6,3.1
		c-2.5-0.9-5.2-0.9-7.6-2.4c-1.2-0.7-3-0.4-4.6-0.6c0.4-0.8,0.7-1.5,1.1-2.4c-2.2-0.9-3.5,1.4-5.7,1.3c-0.9-0.7-2-1.6-3.4-2.7
		c-1.8-0.2-4.2,0.7-5.9-1.3c-0.3-0.3-1.1-0.2-1.7-0.2c-3.5,0-6.9-0.1-10.2-2.5c-0.4-0.5-0.8,2.2-1.8,0.4c-1.4-2.3-4.3-2.4-6.5-3.5
		c-0.6-0.3-1.5,0.3-2.3,0.3c-1.4,0.1-2.8,0.3-3.8-1.3c-0.3-0.5-1.6-0.2-2.1-0.7c-1.5-1.4-3.6-0.3-5.3-1.4c-1.4-0.9-3.3-1-5.6-1.7
		c-0.9-1.1-2.3-2.9-4.9-2.5c-0.3,0.1-0.7-0.5-1.1-0.8c0.4-0.1,0.7-0.2,1.1-0.4c-0.1-0.1-0.2-0.2-0.3-0.3c-0.2,0.3-0.5,0.5-0.7,0.8
		c-2.2-1.4-4.3-3.4-7.3-2.2c-0.3,0.1-0.9-0.3-1.3-0.6c-0.4-0.3-0.7-0.7-1-1c-0.3-0.3-0.6-0.8-0.9-1c-3.6-1.6-3.6-1.6-5-4.1
		c-0.4,0.5-0.8,0.9-1.2,1.3c-2.8,0.1-3.7-2-4.7-4.1c-0.7,0.3-1.1,0.4-1.5,0.6c-2.2,0.9-2.2,0.9-3.6-1.7c-0.9,0.1-2,0.4-3,0.2
		c-0.9-0.1-1.6-0.9-2.5-1.3c-1.4-0.6-2.8-1.1-4.5-1.2c-2.5-0.1-5-1-7.4-1.7c-0.4-0.1-0.8-0.5-1.1-0.8c-1.2-1.3-2.7-2.7-4.2-2.8
		c-4.3-0.3-6.9-3.9-10.8-4.8c-1.4-0.3-2.6-1.9-2.4-3.7c0.1-1.1,0.2-2.2,0.3-3.5c2.6,0.5,5.1,0.5,7.2,2.1c1.1,0.8,2.5,1.5,3.8,1.9
		c3.8,1.1,7.2,3.1,11.2,3.7c1.8,0.3,3.4,1.6,5.1,2.4c2.1,1,4.6,1.3,6.1,3.4c0.2,0.3,0.8,0.4,1.3,0.5c2.5,0.1,4.7,1.1,6.8,2.2
		c0.9,0.5,1.7,0.8,2.7,0.2c0.2-0.1,0.7-0.2,0.9-0.1c4.3,2.8,9.6,3.2,13.8,6.1c1.5,1,2.9,1.9,3.6,3.5c1.2-0.7,2.4-1.4,3.7-2.2
		c3,1.6,5.8,3.3,8.8,4.8c0.7,0.4,1.5,0.5,2.2,0.7c2,0.6,4.2,0.8,5.9,1.8c2.4,1.5,4.9,2.1,7.5,2.4c0.3,0,0.7-0.1,0.9,0.1
		c1.9,1.4,4.1,1.1,6.3,0.9c1.4-0.1,2.5,0.8,2.8,2.1c0.4,1.5,1.5,3.1,2.7,3c2.5-0.2,4.4,1.7,6.9,1.5c1.6-0.1,3.5-0.3,5,1.1
		c1.4,1.3,2.3,0,3.4-1c1,0.5,2.2,1,3.3,1.6c0.7,0.4,1.3,1,2,1.3c2.3,1,4.9,1.7,7,3c2.1,1.3,4.6,1,6.6,2.2c2.1,1.2,4.5-0.4,6.5,0.7
		c1.2-0.6,2.1,0,3.1,0.6c0.5,0.3,1.2,0.8,1.8,0.7c2.5-0.5,4.2,1,5.9,2.1c1.7-0.3,3-0.6,4.4-0.8c1.8-0.3,3.4,0.1,5,1.1
		c3.6,2.4,7.5,4,12,4c1.6,0,2.8,0.5,3.5,2c0.3,0.5,0.8,0.9,1.5,1.6c0.8-0.5,1.6-1,2.6-1.6c0.9,0.5,2,1.1,3.2,1.8
		c-0.6,0.9-1,1.5-1.4,2.1c-1.1-0.3-2.2-1.1-3-0.9c-0.9,0.3-1.4,1.5-2.2,2.3c-0.4-0.1-0.9-0.2-1.3-0.4c-0.6-0.2-1.2-0.5-1.8-0.7
		c0.2-1.1,0.5-2.1,0.7-3.5c-2.3,0.1-4.2,0.7-6.2,0.2c-0.4-0.1-1.1,0.8-1.7,1.3L1196.1,815.8z"/>
	<path class="st0" d="M1057.4,485.6c-0.1,0,0.1,1.1,0.2,1.6c-2,2-4.1,0.9-6.1,0.2c-1,3.6-1,3.6-4.3,2.7c-0.9,1.3-1.8,2.6-3.7,2.9
		c-1.4,0.3-2.7,1.3-4,2.4c-2.6,2.2-5.5,4.1-9,4.7c-0.6,0.1-1.4,0.1-1.8,0.5c-2.4,2.3-5.7,2.6-8.6,4c-4.3,2.1-4.6,2.1-8.3-1.7
		c0.9-2,2.5-3.4,4.6-4.2c4.3-1.6,8.2-4.2,12-6.7c1.5-0.9,2.8-2,4.7-2.3c1.4-0.2,2.8-0.9,4-1.6c1.2-0.7,2.3-1,3.6-0.9
		c0.6,0,1.3-0.2,1.7-0.6c1.7-1.5,3.7-2.6,5.9-3.1c1.5-0.3,1.4-2.4,3.3-2.4c1.1,0,2.4-0.8,3.5-1.4c3.6-2,8.4-3.8,12.7-4.4
		c0.4-1,0.8-2.2,1.2-3.5c2.8-1,5.7-2,8.5-3c0.1-0.1,0.3,0,0.5-0.1c2.3-1.4,4.2-3.4,6.8-4.1c2.5-0.7,4.4-2.2,6.5-3.6
		c1.6-1.2,3.5-1.9,4.7-3.6c0.4-0.6,1.8-1,2.5-0.8c1.5,0.4,3,1.7,4.5,0.7c1.8-1.2,4-1.7,5.7-3.2c1.4-1.2,2.7-2.7,4.9-2.8
		c0.5,0,0.9-1.5,1.6-2.7c0.1-0.1,0.7-0.4,1.3-0.5c4-1,8.1-1.8,12-3.1c1.7-0.6,3.5-1.3,5.2-2.2c1.5-0.8,3-1.7,4.2-3
		c0.9-1,1.7-1.7,3.2-1.7c0.4,0,1.1-0.1,1.3-0.4c1.6-1.8,3.7-1.6,5.7-1.7c0.4-0.6,0.7-1.1,1.1-1.7c1.7-2.6,4-3.9,7.2-3.9
		c3.3,0,6.2-1.2,8.8-3.3c1.5-1.2,2.8-2,4.7-1c0.4,0.2,1.3,0,1.7-0.4c2.4-2.3,2.4-2.3,4-2.7c0,1,0,1.9,0,2.8c-0.8,0.4-2,0.5-2.5,1.3
		c-0.5,0.6-0.3,1.8-0.4,3c-0.9,0.3-1.9,0.7-3.2,1.2c-0.1-0.8-0.1-1.3-0.2-1.8c-0.4-1.3-1.2-1.5-2-0.7c-0.5,0.6-0.9,1.6-1.5,1.7
		c-2.5,0.4-2.3,2.3-2.6,4.2c-1.6,0.4-3.2,0.9-5.2,1.4c-0.9,1.2-0.2,3.8-3,4.1c-1.2-0.6-0.7-3.7-3.3-2.9c-0.6,1.9,1.2,3.1,1.3,5
		c-0.9,0.4-1.9,0.9-2.8,1.3c-0.7-0.5-1.3-0.9-1.9-1.3c-2.2,1.2-0.3,2.8-0.5,4.2c-1.5,0.3-2.3-0.4-2.3-1.7c0-1.1,0.4-2.2,0.5-3.3
		c0.1-0.7-0.1-1.4-0.3-2.6c-2.2,1.8-1,4-1.8,5.7c-2.5-0.8-2,1.6-2.5,2.2c-2.6,1.1-4.7,1.9-6.9,2.8c-0.1-0.7-0.3-1.6-0.5-2.6
		c-0.5,0.1-1,0.2-1,0.3c0,2.6-1.8,3.6-3.8,4.3c-1.2,0.4-2.5,0.2-3.6,1.1c-0.8,0.7-1.7,1.4-2.5,2.1c-0.4-0.8-0.7-1.5-1-2.1
		c-2.2,0.6-1.3,3.1-2.9,4.3c-1,0-2.3,0-3.7,0c-0.7,0.8-1.5,1.8-2.3,2.9c-1.7,0.1-3,0.6-4.3,2c-1.8,1.9-3.9,3.6-6.8,4.1
		c-1.2,0.2-2.2,1.4-3.8,1.6c-1.8,0.2-3.9,0.8-5,2.9c-0.8,1.5-1.8,3.3-4,1.6c-0.9,0.4-2.2,0.6-2.7,1.4c-1.7,2.2-5,2.1-6.4,4.6
		c-0.1,0.2-0.6,0.3-0.9,0.3c-1.7,0-3.5-0.3-4.5,1.6c-1.9-0.9-2.9,1.7-4.8,1.4c-0.5-0.1-1.4,0.8-1.8,1.4c-1,1.6-2.1,2.3-4,1.5
		c-0.3-0.1-0.8-0.1-0.9,0.1C1061.5,487.9,1059.2,485.1,1057.4,485.6z"/>
	<path class="st0" d="M845,279.2c-1.3,1.1-2.7,2.2-4,3.4c-0.6,0.5-1.3,1.3-1.3,1.9c0.2,2.1-0.8,2.9-2.6,3.2c-0.3,0-0.7,0.3-0.7,0.5
		c0,3.3-2.9,2.6-4.8,3.4c0.4,0.5,0.7,0.9,1,1.3c-0.5,3.1-3.5,2.2-5.3,3.1c1.3,3.8,0.8,3.4-2.2,4.2c0.2,1.8-0.8,3-2.1,4.3
		c-1,0.9-1.5,2.3-2.1,3.6c-1.3,3-2.4,6.2-5.5,8c-0.5,0.3-1.2,0.8-1.4,1.3c-1,3.2-3.9,4.9-5.9,7.4c-2.9,3.7-3.5,3.8-8.1,1.8
		c-0.2-2.3,1.1-4.1,2.5-5.6c3-3.1,5.2-6.8,7.4-10.5c1.1-1.9,2.2-3.8,3.9-5.3c1.9-1.7,2.8-4.2,5.3-5.3c0.5-0.2,0.7-1,1-1.6
		c0.9-1.3,1.7-2.7,2.6-4c0.6-0.9,1.7-1.5,1.4-2.9c-0.1-0.3,0-0.8,0.2-0.9c2.2-1.3,2.7-3.8,4.3-5.5c2.5-2.6,4.7-5.7,8.4-7.3
		c-0.2-1.2-0.4-2.5-0.6-3.9c2.1-2,4.3-4,6.5-6.1c0.1-0.1,0.3-0.2,0.4-0.3c2-4.9,7-7.6,8.9-12.6c0.6-1.5,2.1-2.7,2.2-4.6
		c0.1-1.6,1.2-2.4,2.6-2.3c2.4,0.1,3.5-1.1,4.7-3.2c1.2-2.1,2.5-4,3.3-6.2c0.2-0.6,0.6-1.2,1-1.5c1.7-1,0.6-2.2,0.3-3.4
		c0.2-0.3,0.4-0.9,0.7-1.1c3.5-2.3,5.6-6,8.8-8.7c0.8-2.5,3.2-4.2,3.8-7c0.5-2.5,2.2-4.5,3.3-6.8c0.9-1.8,2-3.1,3.5-4.1
		c0.2-1.2,0.4-2.3,0.4-3.4c0-2.3,1-3.9,2.8-5.2c3.2-2.2,5.6-5.2,6.5-9.1c0.3-1.4,1.2-2.2,2.7-2.2c1.2,0,2.1-0.9,1.7-1.7
		c-1-2.2,0.6-2.7,1.8-3.8c0.5,0.7,1,1.4,1.4,2c-0.6,0.8-1.5,1.5-1.5,2.2c0,0.8,0.8,1.6,1.4,2.8c-0.6,0.8-1.3,1.8-2,2.8
		c-0.4-0.2-0.6-0.3-0.8-0.5c-0.3-0.4-0.4-0.9-0.8-1.1c-0.7-0.6-1.9-0.2-1.8,0.5c0.2,1.3-0.1,2.3-0.8,3.5c-0.9,1.5-0.1,3,1.8,3.7
		c-1.6,1.4-3.1,2.8-4.7,4.3c0,1.5,1.7,3.2-0.3,5.1c-1.3,0.2-2.6-3.3-4.6-0.7c0,1,1.1,1.2,1.8,1.7c0.6,0.5,1.3,0.9,2.1,1.4
		c-0.5,1-1.1,2-1.6,3c-0.9-0.1-1.6-0.2-2.5-0.2c-0.1,0.4-0.4,0.9-0.2,1.3c0.2,0.5,0.7,1.1,1.2,1.4c0.5,0.3,1.3,0,1.3,0.9
		c0,0.3-0.3,0.7-0.5,0.7c-0.8,0-1.6,0-2.2-0.3c-0.5-0.3-0.6-1.1-1-1.6c-0.6-1.1-1.3-2.1-2.5-4.1c0,1.6-0.2,2.3,0,2.9
		c0.4,1,1,1.9,1.6,2.9c-2.5,1.1-0.5,2.9-1,4.5c-0.7,0.7-1.8,1.4-2.5,2.4c-0.6,0.8-0.7,1.9-1.2,3.3c-0.9-1-1.5-1.7-2.2-2.6
		c-0.2,0.4-0.5,0.6-0.4,0.7c1.5,2.4,0.3,4.6-1.3,6c-1.7,1.4-2.4,3.2-3.3,5c-0.7-0.3-1.4-0.6-2.4-1.1c0.1,1.1,0.2,1.9,0.3,2.6
		c0.1,0.8,0.3,1.5,0.5,2.4c-1.2,0.7-2.2,1.3-3.5,2.1c-0.1,0.5-0.4,1.1-0.4,1.7c0,1.2-0.4,2.2-1.5,2.8c-0.7,0.4-1.2,0.8-1.4,1.8
		c-0.6,3.2-1.9,6-4.4,8.2c-0.2,0.2,0.1,1,0.2,1.7c-4.4,1.2-5.8,4.9-6.4,9.1c-1,0.3-2,0.5-2.7,0.9c-0.6,0.4-1.3,1.2-1.4,1.8
		c-0.1,1.9-1.4,3-2.5,4.3c-0.5,0.6-1,1.3-1.1,2.1c-0.3,1.5-1.4,2.2-2.7,2.4C845.1,277.3,845.1,278.2,845,279.2
		c-0.3,0-0.5,0.1-0.8,0.2c-0.1,0-0.3,0.1-0.4,0.2c0.1-0.1,0.2-0.2,0.4-0.2C844.5,279.3,844.8,279.2,845,279.2z"/>
	<path class="st0" d="M1114.3,620.3c-2.8,1.3-5.2,0.6-7.2-1.5c-1.8,3.1-1.8,3.1-4.3,1.3c-1.2,0.7-2.4,1.7-4.2,1.4
		c-1.3-0.2-2.7,0.2-4.1,0.9c-2,0.9-4.2,1.3-6.4,1.8c-0.4,0.1-0.9-0.1-1.4-0.2c-2-0.5-4-0.4-6.1,0.1c-2.7,0.6-5.7,0.4-8.6,0.4
		c-1.3,0-2.5-0.6-3.1-1.9c-0.5-1-1-2-1.5-3c2-1.4,4.5-2.1,6.4-2.1c4,0.1,8-0.4,11.8-1.6c3.8-1.1,7.6-0.5,11.4-1
		c1.8,1.3,3.6,0.4,5.4-0.2c0.1,0,0.3,0,0.5-0.1c2.1-0.5,4.5,0.6,6.2-1.5c5.8,0.3,11.6-1.5,17.8,0.5c0.6-0.9,1.3-1.8,2.1-2.8
		c2.8,0.3,5.6,0.6,8.5,0.8c0.6,0.1,1.2-0.2,1.8-0.3c2.2-0.2,4.4-0.6,6.6-0.4c3.8,0.2,7.6-0.5,11-2.2c1.7-0.8,3-0.7,4.2,0.6
		c1.3,1.5,2.7,1.4,4.7,1.1c2.2-0.3,4.3-0.8,6.4-1.4c1.2-0.3,2.5-0.3,3.8-0.4c0.4-0.6,0.8-1.2,1.2-1.8c4.3,0.1,8.4,0.5,12.5,0.3
		c2.7-0.2,5.5-0.2,8.1-1.8c1.5-0.9,3.3-1.9,5.3-1.6c0.4,0.1,1.1,0,1.4-0.3c1.7-1.5,3.6-0.8,5.5-0.3c0.5-0.5,0.9-1,1.3-1.4
		c2.2-2.1,4.8-3,7.9-2.2c3,0.8,6,0.4,8.8-0.7c1.8-0.7,3.2-1,4.9,0.3c1.1,0.9,1.4,0.6,2.7-1.5c1.1,0.1,2.1,0.2,3.3,0.3
		c-0.1,1-0.3,1.9-0.4,2.9c-1.2-0.2-2.1-0.3-3.1-0.4c-0.4,1.1-0.7,2.1-1.1,3.2c-1.3,0.1-2.6,0.1-4,0.2c0.6-1.3,1.6-2.4,0-3.6
		c-1.4,0.4-2.2,2-4.1,1.9c-1.2,0-1.6,1.5-1,3.6c-2-0.2-4-0.4-6-0.7c-1.4,1.1-1.4,3.5-3.7,3.5c-1.2-1,0.2-3.9-2.8-3.8
		c-0.8,1.6,0.8,3.3,0,5c-1,1-2.2,1-3.5,0.9c-0.1-0.5-0.2-1.1-0.3-1.9c-1.6,1.7-1.6,1.7-0.7,3.1c-1.2,1.8-1.2,1.8-2.7-0.3
		c0.5-1.9,1.1-3.8,1.6-5.7c-0.2-0.1-0.4-0.2-0.6-0.3c-0.4,0.4-0.9,0.6-1,1.1c-0.4,1.2-0.7,2.4-1.1,3.8c-0.5-0.1-0.9-0.3-1.5-0.4
		c-0.5,0.7-1.1,1.6-1.8,2.5c-1.2-0.1-2.4,0-3.5-0.3c-1.5-0.5-1.7,1.9-3.2,1.3c0-1.1,1.2-2.2-0.3-3.3c-0.7,1.3-0.4,2.4,0.4,3.4
		c-0.8-0.2-1.6-0.7-2.3-0.5c-3,1-6.3,0-9.2,2c-0.1-1-0.2-1.6-0.3-2.4c-2,0.1-2,2.4-3.8,3.1c-0.6-0.1-1.5-0.4-2.4-0.6
		c-0.5-0.1-1.1-0.3-1.4-0.1c-1.7,1-3.2,1.9-5.3,0.9c-0.2-0.1-0.8,0.3-1.2,0.5c-2.5,1.3-5,2.4-8.1,2.2c-1.4-0.1-2.7,0.4-4.3,0.1
		c-2-0.5-4.4-0.6-6.2,1.3c-0.6,0.6-1.7,0.8-2.6,1.2c-0.6-0.7-1.1-1.3-1.8-2.2c-1.6,0.4-3.3,1.1-5.1,1.4c-1.7,0.3-3.5-0.2-5.1,0.7
		c-0.4,0.2-1.3,0.1-1.8-0.1c-1.3-0.7-2.5-1.3-3.9-0.5c-1.3-1.1-2.7,0.5-4.1-0.1c-1.5-0.6-2.7,0.5-3.9,1.1c-0.3,0.1-0.6,0.1-0.9,0.1
		c-1.1-0.1-2.2-1.6-3.4-0.1c-1.1-0.3-2.1-0.6-3.2-0.9c-0.1-0.3-0.1-0.7-0.3-0.9c-0.3-0.3-0.7-0.4-1-0.5c0,0-0.3,0.2-0.2,0.3
		c0.1,0.3,0.2,0.7,0.4,0.8C1113.4,620.3,1113.9,620.3,1114.3,620.3z"/>
	<path class="st0" d="M960.7,381.4c-0.4,0.3-0.7,0.6-1.1,0.9c-2.3,1.9-2.4,1.9-5.5,2c-0.5,0.9,1,2.1-0.4,2.8
		c-0.8,0.4-1.7,0.5-2.7,0.8c-0.6,0.9-0.3,2.2-1.9,2.9c-1.5,0.7-2.5,2.2-3.5,3.7c-1.7,2.6-3.6,5.2-6.8,6.3c-0.4,0.1-1,0.3-1.2,0.7
		c-1.6,2.5-4.3,3.7-6.5,5.5c-3.8,3.1-4,3.2-8.2,0.4c-0.1-0.1-0.2-0.2-0.4-0.5c1.1-2,2.4-3.8,4.5-5.2c3-2,5.4-4.8,7.8-7.6
		c1.1-1.3,2.4-2.6,3.8-3.5c2.2-1.5,3.8-3.8,6.7-4.5c0.8-0.2,1.3-1.7,2.1-2.6c1.5-1.7,3.9-2.6,4.5-5.1c2.1-0.9,3.3-2.8,4.9-4.3
		c2.3-2.1,5.1-3.8,7.8-5.8c-0.1-0.8-0.2-1.9-0.3-3.2c2.2-1.7,4.4-3.4,6.6-5.2c0.5-0.4,0.7-1,1.1-1.5c1.5-1.8,2.5-4,4.9-5
		c1.1-0.4,2-1.6,2.5-2.7c1.1-2.5,3.9-3.8,4.4-6.7c0.2-1,1.5-1.7,2.7-1.3c2.1,0.8,3.4-0.1,5-1.6c1.5-1.4,2.9-2.8,4.4-4.3
		c1-1,2.1-1.8,3.2-2.7c0-0.7,0-1.5,0-2.1c3.2-1.6,6.2-3.4,9.4-4.8c3.7-1.7,6.7-4,9-7.3c0.7-1,1.3-2.1,2.7-2.4
		c0.7-0.2,1.4-0.8,1.7-1.5c0.8-1.6,2.4-1.5,3.8-2.2c0.2-0.4,0.5-1,0.6-1.6c0.7-2.9,2.3-4.8,5.2-5.6c2.7-0.8,4.6-2.7,6.2-5
		c0.5-0.8,1-1.6,1.5-2.4c1.2-0.3,2.3-0.5,3.4-0.8c0.5-1.6,0.5-3.6,3-3.7c0.4,0.8,0.8,1.6,1.2,2.4c-2.5,1.1-2.5,1.1-1.2,4.5
		c-0.7,0.5-1.4,1.1-2.1,1.7c-0.9-0.7-1.7-1.4-2.8-2.2c-1,1.5-0.7,3.2-2.2,4.2c-0.9,0.6-0.4,2.4,0.6,3.7c-1.6,1-3.2,1.9-4.7,2.9
		c-0.3,1.6,1,3.3-0.9,4.6c-1.6-0.1-1.8-3.3-4.4-1.9c0.3,1.8,2.1,2.6,2.9,4.3c-0.7,0.7-1.5,1.4-2.2,2.1c-0.5-0.1-0.8-0.2-1-0.3
		c-0.4-0.1-0.9-0.5-1.1-0.4c-0.3,0.2-0.6,0.9-0.5,1.1c0.4,0.9,0.9,1.8,1.9,3.5c-1.6-0.6-2.3-0.9-2.9-1.2c-0.8-1.9-0.2-4.2-1.9-5.9
		c-1.2,2,0.5,3.5,0.3,5.3c-2.2,0-1.4,1.8-1.9,3.2c-1.3,0.7-3.3,0.8-4.1,2.7c-0.2,0.4-0.6,1-1,1c-2.8,0.1-4,3-6.6,3.6
		c-1.2,0.3-2.2,1.7-3.3,2.7c-0.1-0.3-0.5-1-0.8-1.8c-1.7,1.1-0.9,2.8-1.5,4.3c-1,0.3-2.2,0.6-3.5,1c-1.2,1-1,3.4-3.3,3.5
		c-0.4,0-0.9,0.5-1.1,0.8c-1.3,2.9-2.8,5.7-6.1,6.8c-0.3,1.7-2,1.8-3,2.6c-1.4,1.1-3.2,2.1-3,4.5c0,0.5-0.5,1.1-0.9,2
		c-0.8-0.2-1.5-0.3-2.2-0.5c-1.9,1.2-2.2,3.6-4,5c-1.8,1.4-2.3,4.2-5.1,4.5c-0.8,2.3-3.1,3-4.7,4.4c-0.6,0.5-0.8,1.3-1.2,2
		c-0.3,0.5-0.6,1.1-0.9,1.6c-0.6,1.1-2.7-0.2-2.9,1.7C963.2,380.6,961.3,380.4,960.7,381.4c-0.6-0.2-1.1-0.6-1.6-0.9
		c-0.1,0-0.4,0.1-0.4,0.1c0,0.2,0.1,0.7,0.2,0.7C959.5,381.4,960.1,381.4,960.7,381.4z M1015.8,327.3c-0.1,0.3-0.4,0.7-0.3,0.8
		c0.2,0.3,0.6,0.5,1,0.8c0.1-0.2,0.5-0.6,0.4-0.7C1016.6,327.8,1016.2,327.6,1015.8,327.3z"/>
	<path class="st0" d="M510.9,459.6c-0.5-0.8-0.9-1.8-1.7-2.3c-1.3-0.8-1.7-2.2-2.6-3.2c-1.2-1.3-1-3.3-2.8-4.4
		c-1.6-1-2.6-2.8-3.9-4.2c-0.7-0.8-1.9-1.2-1.8-2.6c0-0.1,0-0.4-0.1-0.4c-4.3-1.8-7.4-6-12.7-5.7c-1.5,0.1-3.1-0.6-4.7-0.8
		c-2.1-0.2-4.1,0.1-5.7,1.8c-0.9,0.9-2,1.5-3,2.3c-1.5,1.1-3.4,1.7-4.2,3.7c-0.3,0.7-1.4,1.3-2.2,1.7c-2.5,1.4-4.2,3.3-4.5,6.3
		c-0.1,0.8-0.7,1.7-1.2,2.5c-1.1,1.7-2.5,3.2-2.3,5.5c0.1,0.7-0.2,1.6-0.6,2.3c-2.3,4-2.4,8.4-2.9,12.7c-0.2,2.1,0.1,4.3-0.6,6.2
		c-1.2,3.8-1,7.6-1.1,11.4c0,2.4-0.4,4.4-2.1,6.1c1.5,8.7,3,17.3,4.5,26.2c1.8,1.2,2.6,3.1,3.3,5.3c1.6,5.3,2.9,10.7,5.5,15.8
		c1.2,2.2,1.6,4.9,2.6,7.2c1.6,3.6,2.8,7.4,4.8,10.9c1.1,1.8,1.7,3.6,1.1,5.9c-0.3,1.3,0,2.9,0.4,4.2c1,3.2,2.2,6.3,3.3,9.5
		c0.5,1.5,0.7,3.1,1.1,4.6c0.1,0.6,0.3,1.4,0.7,1.6c1.6,0.8,1.6,2.3,1.8,3.7c1,6.6,1.8,13.2,2.9,19.8c0.5,3,1.2,6,2.2,8.8
		c0.8,2.2,1,4.3,0.7,6.5l0.1-0.1c-1-0.3-2-0.7-3-1l0.1,0c-0.4-1.7,0.2-3.8-1.6-5.2c-0.4-0.3-0.3-1.2-0.4-1.8
		c-0.2-1.7-0.1-3.5-0.6-5.1c-0.5-1.3,1.7-1.7,0.7-2.9c-0.6-0.7-1.1-1.6-1.4-2.4c-0.5-1.5-0.9-3.1-1.1-4.6c-0.4-1.9-0.6-3.8-0.8-5.7
		c-0.1-0.8-0.3-1.6-0.1-2.3c0.4-1.1,0-1.8-0.5-2.7c-0.5-0.8-1.3-1.6-1.4-2.5c-0.1-3.2-1.3-6.1-2.3-9.1c-0.7-2.3-1.5-4.5-2.5-6.6
		c-2.1-4.3-3.5-8.8-4.8-13.4c-0.7-2.3-1.2-4.7-2.5-6.7c-2.6-3.9-3.7-8.4-5.7-12.5c-1-2.2-1.8-4.4-2.7-6.6c-0.2-0.4-0.5-0.9-0.5-1.3
		c-0.4-3.8-2-7.3-2.9-11c-0.4-1.9-0.8-3.7-1.9-5.3c-0.4-0.6-0.5-1.5-0.6-2.3c-0.2-1.4-0.5-2.8-0.6-4.2c-0.1-2.2,0.3-4.5-0.3-6.5
		c-0.7-2.2-1.3-4.2-0.6-6.5c0.1-0.4,0.1-1,0-1.4c-0.7-2.2-1.1-4.3-0.4-6.5c-1.2-3.6,0-7.2-0.2-10.9c-0.3-5.5,0.7-10.7,2.5-15.9
		c1.5-4.4,3-8.7,5.2-12.8c0.9-1.7,1.7-3.4,3.1-4.8c0.3-0.3,0.9-0.7,0.9-1.1c0.3-2.4,2.3-3.2,3.6-4.7c3.2-3.5,7.3-5.6,11.2-8
		c2.3-1.5,4.9-2.2,7.5-3c1-0.3,2.6-0.3,3.2,0.3c2.4,2.4,5.7,2.7,8.6,3.9c1.8,0.7,3.2,2.2,4.9,2.8c2.1,0.7,3,2.3,4.1,3.8
		c4.2,5.6,8.5,11.1,12.6,16.8c1.6,2.2,2.8,4.5,5,6.2c1,0.8,1.5,2.4,1.8,3.8c0.7,3.1,1.6,6.1,3.3,8.9c1.3,2.1,1.8,4.6,2.7,6.9
		c-0.8,0.9-1.2,0.2-1.4-0.4c-0.3-0.9-1-1.1-1.7-1.5c-0.6-0.4-1.2-1.1-1.3-1.8c-0.4-3.8-0.4-3.8-2.7-6c-0.5-0.5-1-1.3-1.1-2
		c-0.1-2.4-1.6-3.7-3.5-4.8c0.2-1,0.4-1.9,0.8-3.1c-1,0.3-1.8,0.5-2.9,0.8c-0.6-1.2-1.1-2.5-1.6-3.6c-0.7-0.3-1.8-0.5-2-0.9
		c-0.4-1,0.6-1.2,1.4-1.4c0.2,0.2,0.4,0.4,0.7,0.5c0.2,0,0.4-0.2,0.6-0.3c-0.2-0.1-0.4-0.3-0.6-0.3
		C511.5,459.3,511.2,459.5,510.9,459.6z"/>
	<path class="st0" d="M179.8,366.9c-1.2-4.1-4.5-5.5-8.4-6.4c0-1.6-0.3-3.1-1.7-4c-2.2-1.5-4.5-2.9-6.6-4.5
		c-0.5-0.3-0.9-0.9-1.1-1.5c-0.4-1-0.2-2.6-1.7-2.5c-1.7,0.1-0.4-1.8-1.8-2.2c-1.9-0.6-2.9-3.2-5.4-3.4c-0.5,0-1.1-1.1-1.3-1.8
		c-0.2-0.6-0.2-1.2-1-1.4c-2.7-0.5-2.2-2.6-2.1-4.5c-1.4,0.4-2.8,0.3-3.5-1c-0.6-1.1-0.6-2.4-0.9-3.9c-1,0.2-2,0.4-3.2,0.6
		c-0.2-0.9-0.4-1.6-0.6-2.4c-0.2-0.1-0.4-0.4-0.7-0.5c-0.9-0.4-2,0.1-2.8-1.2c-0.9-1.6-2.7-2.5-4.5-3.3c-2.9-1.4-5.8-3.1-7.6-6.1
		c-0.3-0.6-0.6-1.3-1.1-1.5c-3.1-1.3-4.5-4.3-6.8-6.6c-3.2-3.2-3.3-4-0.4-8.2c2,0.9,3.9,1.7,5.2,3.6c1.5,2.1,7.4,6.7,9.8,8.2
		c1.3,0.8,2.6,1.9,3.6,3.1c1.7,2,4.3,3.3,5.3,6c0.2,0.5,0.9,0.8,1.5,1.2c1.5,1.1,3.2,2.1,4.5,3.4c0.9,1,2.1,0.6,2.9,1.1
		c0.9,0.6,1.5,1.6,2.4,2.2c2.2,1.4,4,3,5.6,5c1.5,1.9,3,3.7,4.7,5.7c0.9,0,2,0,3.4,0c1.7,2.2,3.5,4.6,5.5,6.8c0.9,1,2.2,1.7,3.3,2.7
		c0.7,0.6,1.8,1.2,1.9,2c0.6,2.5,2.6,3.6,4.3,4.7c2.1,1.3,3.6,3.5,6.3,3.9c0.6,0.1,1.3,1.4,1.5,2.2c0.2,1.4-0.7,2.9,0.4,4.1
		c1.5,1.6,3.2,2.9,4.8,4.4c1.5,1.3,3.1,2.6,4.9,4.2c0.3,0,1-0.1,1.8-0.2c0.2,0.2,0.6,0.3,0.7,0.5c1.5,4.1,4.9,7,7,10.8
		c2.4,1.4,3.6,4.3,6.6,5.2c1.8,0.5,3.4,2.1,4.9,3.6c1.3,1.2,3.4,1.7,4,3.8c1.1,0.1,2,0.2,2.9,0.2c2.4,0,4.3,0.8,5.7,2.8
		c2.1,3,5,4.8,8.5,5.8c1.8,0.5,3,1.3,3.2,3.5c0.1,2,1.9,1.7,3.3,1.2c0.9,1.2,1.6,2.2,2.5,3.5c-1.2,0.2-2.2,0.4-3.2,0.5
		c-1.4-2.3-1.4-2.3-4.6-0.9c-0.9-0.8-1.8-1.6-2.8-2.4c0.7-1,2.8-0.6,2.1-2.9c-1.4-0.3-3.4,0.4-4.5-1.3c-1.2,0.3-2.4,0.6-4,1.1
		c-0.9-0.8-2.2-2-3.7-3.2c-1.5,0.1-3,2-5,0.3c-0.2-1.4,3.3-2.8,0.3-4.6c-0.9,1.3-1.8,2.5-2.8,3.9c-1.1-0.6-2.2-1.2-3.3-1.8
		c0.3-0.9,0.5-1.6,0.7-2.3c-2.4-1.5-2.7,1.3-3.9,2c-1.4-1-0.7-2-0.3-3c1.7-1.1,4.1-0.8,5.4-2.9c-2.1-0.1-2.1-0.1-5.5,1.2
		c-0.2-0.4-0.3-0.8-0.5-1.4c-0.9,0-2,0-3.2,0c-0.6-1-1.4-2-1.9-3c-0.5-1-2.2-0.7-2.4-2.1c0.5-0.2,1.1-0.3,1.6-0.6
		c0.1-0.1,0.1-0.5,0.1-0.8c-0.3,0-0.6-0.1-0.7,0c-0.3,0.5-0.6,1-0.9,1.5c-1.6-2.1-3.9-3.5-5.2-6c-0.5-1.1-2.2-1.6-3.4-2.4
		c-0.2-1.1,1.1-0.9,1.4-1.5c-0.1-0.2-0.2-0.7-0.4-0.7c-1.4-0.2-2.8-0.4-4.3-0.6c-0.3-0.8-0.7-1.5-0.8-2.3c-0.1-1.3-0.8-2-1.9-2.4
		c-0.6-0.2-1.5-0.4-1.6-0.8c-0.6-2.6-3.1-2.8-4.8-4c-1.7-1.3-3.7-2.3-4.7-4.5c-0.2-0.5-1-0.7-1.6-1L179.8,366.9z"/>
	<path class="st0" d="M441.8,643c-1.4,0.1-2.7-0.2-2.9-1.8c-0.2-1.6-1.4-3.4,0.9-4.7c0.3-0.2,0.4-1.3,0.2-1.8
		c-0.8-1.6-1.3-3.2-1.2-5.1c0-0.6-0.2-1.4-0.6-1.8c-2-2.4-1.9-5.3-2-8.1c-0.1-1.9,0.1-3.7-1.5-5.4c-0.8-0.8-0.8-2.3-1.1-3.5
		c1.5-1.1,2.2-2.3,1.6-4.4c-0.6,0-1.3-0.1-2.1-0.1c-0.1-0.2-0.5-0.4-0.5-0.6c-0.1-2-1.4-3.9-0.1-6c0.4-0.7-0.3-1.7-1.2-2.4
		c-1-0.7-1.4-1.7-0.3-3.1c0.9,0.9,1.8,1.7,2.9,2.7c0.1-0.6,0.4-1.1,0.3-1.3c-0.9-1.3-1.9-2.5-2.9-3.7c-0.1-1.1,0.9-2.1,0-3.2
		c-1.3-1.8-1.4-3.7-0.9-5.9c0.3-1.6-0.3-3.4-0.5-5.3c0.3-0.3,0.6-0.8,1-1.3c0.1-1.3-1.1-1-1.4-1.4c-1.3-5.2-2.6-10.1-3.8-15
		c-0.1-0.3-0.4-0.6-0.4-0.9c1-2.8-0.9-4.7-2.2-6.8c-0.1-0.1-0.1-0.3-0.2-0.4c-1.1-2.2,0-4.8-1.4-6.9c-1.3-2-2.2-4.2-2.4-6.7
		c-0.1-0.8-0.3-1.5-0.7-2.2c-1.8-3.9-3.1-7.9-4.6-11.9c-1.6-4.3-1.6-9.1-3.3-13.3c-0.4-1-0.8-2.1-1.3-3c-3-5.5-5.4-11.1-7.5-17
		c-1.1-3-2.2-5.9-3.3-8.9c-3.4-0.3-5.8,2.1-8.3,3.9c-2,1.5-3.8,3.4-5.3,5.4c-1.2,1.6-1.6,4-2.1,6.2c-0.3,1.2,0.1,2.5-0.2,3.8
		c-0.4,2.1-0.3,4.5-2.7,5.7c-0.3,0.2-0.4,0.8-0.7,1.5c-0.7-0.8-1.4-1.6-2.1-2.5c0.5-0.3,1.1-0.5,1.5-0.8c1.3-1.1,1.2-1.6-0.7-2.7
		c-0.6-2.5,0-4.8,1-7.1c0.8-1.7,1.3-3.6,1.9-5.4c0.9-3,2.9-5,5.6-6.7c3.5-2.3,7.1-4.1,11-5.5c0.7-1.5,0.6-2.9,0.3-4.6
		c-0.4-1.7-0.2-3.4-0.3-5.2c-0.3-3.4-1.6-6.9,0.1-10.3c-0.9-2.8,0.2-5.3,1.5-7.7c0.3-0.6,0.2-1.5,0.3-2.2c0.2-2.4,0.6-4.8,2.6-6.5
		c1-0.9,1.4-2.1,1.5-3.4c0.2-1.6,0.9-3,2.3-4c0.6-0.4,1.3-1.1,1.5-1.8c0.6-2.3,2.4-3.7,4.1-5.1c2-1.5,4-3.2,6.2-4.5
		c1.3-0.8,3-1.2,4.5-1.4c4-0.5,7.9-0.3,11.7,1.4c2.5,1.1,5.1,1.8,7.7,2.7c1.2,0.5,2.3,1.1,3.4,1.8c2.6,1.6,5.2,3.2,7.6,5
		c1.4,1,2.6,2.4,3.6,3.8c0.5,0.6,0.3,1.7,0.5,3.2c-3-1.7-5.3-3.4-7.4-5.2c-5.3-4.3-11.5-6.8-18.2-8.1c-2.3-0.5-4.7-0.7-7.1-0.8
		c-1.2-0.1-2.6,0.1-3.7,0.6c-3.9,1.8-7.8,3.7-9.9,7.8c-0.4,0.9-1,1.6-1.5,2.4c-3.4,5.5-5.4,11.4-6.2,17.8c-0.5,4.3-1,8.6-1,12.9
		c0,1.6-0.3,3.2-0.5,5c1.9,1.8,2.3,4.4,2.7,7.2c0.8,5.5,2.2,10.9,4.5,16.1c1.6,3.5,2.8,7.1,4.2,10.6c2,4.7,2.9,9.7,5.2,14.3
		c0.8,1.6,1.2,3.5,0.9,5.5c-0.2,1.7,0,3.5,0.6,5.1c1.2,3.9,2.8,7.8,4.2,11.7c0.4,1.1,1,2.1,1.1,3.2c0.1,1.8,0.3,3.4,2.1,4.5
		c0.5,0.3,0.6,1.4,0.7,2.2c1.2,6.3,2.2,12.6,3.6,18.8c0.8,3.4,1.4,6.8,2.1,10.3c0.7,3.7,1.5,7.4,1.8,11.2c0.1,1.6,0.5,3.1,0.8,4.7
		c0.2,0.8,0.6,1.6,0.5,2.3c-0.3,3.6,1,6.9,1.9,10.3c0.6,2.1,0.9,4.4,1,6.6c0.1,6.1,0.6,12.1,1.9,18.1c0.4,2.1,0.1,4.4,0.3,6.7
		C441.2,641.3,441.5,642.1,441.8,643C441.7,643.1,441.8,643,441.8,643z"/>
	<path class="st0" d="M488,261.4c1.1,1.4,1.4,3,0.6,4.5c-0.6,1.1-0.1,1.8,0.5,2.5c0.8,0.9,1.2,1.8,0.2,2.9c-0.2,0.2-0.1,1.1,0.1,1.2
		c1.4,0.7,1.3,1.9,1.4,3.2c0.1,1.2,0.5,2.4,1.2,3.5c1.6,2.7,2.7,5.6,2.6,8.9c0,0.5-0.3,1.1-0.1,1.4c1.7,2.6,0.8,5.6,1.3,8.4
		c0.6,3.4,0.3,4.2-2.6,5.8c-0.5,0.3-1.2,0.5-1.9,0.7c-1.3-1.8-1.9-3.8-2.3-6.1c-0.5-3.6-1.6-7.1-2.6-10.6c-1-3.5-1.4-7.1-1.6-10.7
		c0-0.6,0.2-1.4-0.1-1.8c-1.1-1.8-1.1-4.1-1.9-5.8c-0.9-2-1.3-4.1-2.1-6c-1.5-3.9-1.1-7.8-1.4-12.2c-0.6-0.4-1.4-1.1-2.4-1.8
		c-0.1-1.4-0.4-3-0.4-4.6c0-2.7-0.3-5.3-1.4-7.9c-0.3-0.7-0.6-1.6-0.4-2.3c0.3-1.2-0.1-2.2-0.4-3.2c-0.9-2.6-1.3-5.5-3.2-7.7
		c-0.7-0.9-0.8-2.1-0.2-2.6c3.1-2.9,0.9-5.8,0.2-8.7c-0.4-1.7-1.7-3-1.7-4.9c0-0.6-1.2-1.2-2.1-1.9c-0.2-3.2-0.3-6.7-0.5-10.1
		c-0.2-3.1-0.8-6.1-2.4-8.9c-1.4-2.4-2.2-5.2-3-7.9c-0.2-0.8,0.3-1.8,0.5-2.8c-0.5-0.5-0.9-0.9-1.4-1.3c-2.1-1.8-2.9-4-2.4-6.8
		c0.7-3.8-0.5-7.2-2.4-10.4c0.5-1.1,1-2.1,1.6-3.4c-0.7-0.4-1.3-0.7-2.1-1.2c0-0.9,0-2,0-3.1c1.5,0.2,2.7,0.6,2.6,2.4
		c1,0.4,1.9,0.9,3.3,1.5c0,0.4,0.1,1.4,0.2,2.3l0.1-0.1c-1,0.4-2,0.8-3,1.1c0.7,1.5,1.2,3,2.1,4.1c0.8,0.9,2.1,1.4,3.3,2.1
		c0,1.3,0,2.7,0,4c1.3,1.1,3.3,1.1,3.5,3.2c-1.1,1.2-3.7,0.2-3.8,3c1.6-0.3,3-0.5,4.6-0.8c1.2,0.9,1.4,2.3,1.6,3.7
		c-0.4,0-0.9-0.1-1.3,0.1c-0.2,0.1-0.3,0.8-0.2,1c0.9,0.8,1.8,1.1,2.5-0.2c1.3,1,1.3,1.1,0.4,2c-0.3,0.3-0.7,0.6-1.1,0.9
		c-1.7-0.9-3.5-1.7-5.9-1.2c2.5,1.6,2.5,1.6,6,1.1c-0.3,0.5-0.7,1.1-1.2,1.9c0.7,0.6,1.5,1.2,2.5,2.1c-0.5,1.6-0.5,3.4,1.5,5.1
		c-1.4,0.4-2.1,0.6-2.9,0.9c0.1,0.2,0.1,0.5,0.2,0.6c2.1,0.6,2.6,2.6,2.6,4.1c-0.1,2.2,0.8,3.9,2,6c-1.1,0-1.8,0-2.5,0
		c0,0.3-0.1,0.8,0.1,0.9c1,0.7,2.1,1.4,3.3,2.2c-0.3,1.1-0.5,2.1-0.8,3.5c0.3,0.4,0.7,1.1,1.3,1.6c0.7,0.6,0.8,1.3,0.6,2.1
		c-0.3,1,0,1.6,0.7,2.5c1.5,2,2.8,4.2,2.7,6.9c0,0.7,0.9,1.4,1,2.2c0.1,0.7-0.8,1.5-0.7,2.2c0.2,1.7,0,3.5,1.7,4.7
		c1.3,0.9,1.8,2.2,1,3.8c0.9,2.8,1.8,5.5,2.7,8.3c0.2,0.7,0.7,1.6,0.4,2.2c-1.3,2.6,0,5.3-0.2,7.9c-0.1,0.7,0.4,1.5,0.9,2.1
		c0.9,0.9,1.2,1.9,0.7,3c-0.2,0.6-0.7,1,0,1.6c1.2,1.1,0,2.4,0.2,3.6c-0.3,0.1-0.6,0.1-0.8,0.2c-0.2,0.1-0.3,0.4-0.4,0.6
		c0.3,0,0.7,0.2,0.7,0.1C487.8,262.1,487.9,261.7,488,261.4z"/>
	<path class="st0" d="M316.7,291.5c0.2,0.3,0.4,0.5,0.6,0.8c2.2,2.9,2.2,2.9,2.2,6.4c2.3,0.2,2.3,0.2,2.7,2c0.1,0.3,0,0.8,0.1,0.9
		c2.5,0.6,2.2,3.8,4.1,4.7c2,1,2.9,3,4.5,4.2c1,0.8,1.2,1.7,1.3,2.8c0.1,0.8,0.3,1.8,0.9,2.2c2.4,1.7,2.8,4.5,4.2,6.8
		c2,3.1,1.9,3.9-0.6,6.7c-0.3,0.3-0.8,0.5-1.4,0.9c-1.5-1.5-3.1-2.7-4.1-4.9c-1.3-3-3.5-5.6-5.9-8c-2.6-2.6-4.3-5.8-5.6-9.2
		c-0.3-0.7-0.7-1.4-1.2-2c-1-1.3-2.2-2.4-3-3.7c-1-1.6-3.3-2-3.5-4.2c-3.3-3-4.7-7.1-6.3-11.2c-0.9-0.2-1.8-0.4-3-0.6
		c-0.4-0.9-0.7-1.9-1.3-2.8c-1.5-2.7-2.6-5.8-5-8c-0.5-0.4-0.8-1-1-1.6c-1.6-3.9-4.4-6.8-7.8-9.1c-0.2-0.2-0.4-0.5-0.7-1
		c0.1-0.4,0-1.1,0.3-1.6c0.9-1.8,0.3-3-0.9-4.7c-1.5-2.1-4-3.4-4.8-5.7c-0.7-1.9-1.9-1.3-3.1-1.6c-1.4-3.3-2.7-6.7-4.2-10
		c-1.2-2.5-2.6-4.8-4.9-6.7c-2.8-2.4-5-5.5-5.8-9.5c-0.5-0.2-1-0.5-1.6-0.7c-2.4-1.1-3.7-2.8-3.9-5.5c-0.1-2.6-1-5.1-2.9-6.9
		c-1.7-1.7-2.3-3.3-1.1-5.5c-1.7-0.8-3.5-1.5-3-3.8c0.7,0,1.5,0,2.3,0c1.1,2,1.1,2,4.1,1.8c0.3,0.8,0.7,1.6,1.1,2.5
		c-1.1,0.6-2,1-2.9,1.5c0.5,1.7,2.8,1.4,2.8,3.2c1.2,0.3,2.4,0.5,3.9,0.8c0.4,1.2,0.8,2.5,1.3,3.9c1.2,0.9,3.2,0.1,3.9,2
		c-0.3,1.7-3.8,1-2.7,3.9c1.5-0.7,3-1.5,4.6-2.2c0.5,0.8,1,1.4,1.5,2.2c-0.3,0.7-0.7,1.3-1,2c1.4,1.4,2.3-0.7,3.4-0.5
		c0.5,0.8,0.1,2.2-0.7,2.4c-0.6,0.1-1.3,0.1-1.9,0.2c-1.1,0.1-2.2-0.3-3.3,0.8c1.4,1.4,3-0.2,4.4,0.4c0.1,0.4,0.2,0.8,0.3,1.4
		c0.9,0.1,1.8,0.3,2.6,0.5c0.2,0.1,0.4,0.2,0.4,0.3c0,2,1.7,2.9,2.3,4.5c1.3,3.4,3.3,6.3,5.5,9.1c-0.5,0.4-0.9,0.8-1.4,1.2
		c0.3,0.3,0.4,0.7,0.6,0.8c0.9,0.2,1.9,0.3,2.9,0.5c0.2,0.4,0.6,0.7,0.7,1.2c0.4,1.5,0.4,3.2,2.5,3.7c0.4,0.1,0.7,1,0.8,1.6
		c0.2,0.8,0.3,1.5,1.3,1.8c3.3,1.1,4.3,4.4,6.3,6.9c0.7,0.8,0.7,2.1,1.2,3.1c0.4,0.8,1.1,1.5,1.9,2.1c0.9,0.6,1.9,1,2.6,1.4
		c0.7,1.3-0.4,1.7-0.4,2.9c0.2,0.3,0.5,1,1,1.6c1.7,1.8,3.5,3.6,5.2,5.4c0.2,0.2,0.4,0.6,0.4,0.8c-0.4,2.9,2.5,4.4,3,6.9
		c0.1,0.4,0.4,1.1,0.7,1.2c3.2,0.6,2.3,4.1,4.1,5.7C316.8,290.7,316.7,291.2,316.7,291.5c0,0.5,0.1,1.1,0.3,2.4
		c-0.1-1.1-0.1-1.3-0.1-1.5C316.8,292.1,316.8,291.8,316.7,291.5z M276.3,234.4c0.1-0.1,0.2-0.2,0.3-0.3c-0.3-0.1-0.5-0.2-0.8-0.3
		c-0.1,0-0.2,0.2-0.4,0.3C275.8,234.2,276.1,234.3,276.3,234.4z"/>
	<path class="st0" d="M922.1,1019c-2.1-2.4-2.1-2.4-1.7-5.9c-0.7-0.9-2.3,0.8-2.7-0.7c-0.2-0.8,0-1.8,0-2.7
		c-0.6-0.3-1.6-0.4-1.7-0.8c-1.6-4.1-5.3-6.6-7.6-10.2c-0.1-0.1-0.3-0.2-0.3-0.4c0.2-2.7-1-4.7-2.5-7c-1.2-1.9-0.9-4.6-2.2-6.7
		c-0.7-1.1-0.4-2.5,0.6-3.5c0.9-0.9,1.9-1.6,3.1-2.6c1.5,1.6,3,2.9,3.3,5.1c0.6,3.7,2.5,6.9,4.7,9.8c2.3,3.3,3.8,6.9,5.1,10.6
		c0.3,0.7,0.6,1.4,1,2.1c0.2,0.4,0.7,0.7,1,1c1.4,1.4,1.6,3.6,3.8,4.7c1.6,0.8,1.7,3.7,3.6,4.7c1.4,3.2,3.9,5.9,4.2,9.6
		c1.2,0.1,2.3,0.2,3.6,0.3c1.2,2.1,2.4,4.4,3.6,6.6c0.1,0.1,0.1,0.4,0.2,0.4c3.4,2.8,5.1,7.2,8.8,9.6c1.7,1.1,2.8,2.9,5,3.3
		c0.9,0.1,1.4,1.3,1.1,2.4c-0.6,2.2,0.3,3.4,2.1,4.7c1.5,1,2.9,2.4,4.6,3.2c1,0.5,1.7,1.3,2.8,2.1c0.3-0.1,0.7-0.2,1.2-0.3
		c0.3-0.1,0.6-0.1,0.8-0.1c2.5,2.8,4.8,5.6,7.3,8.2c1.9,2,4.1,3.7,6.9,4.6c2.8,0.9,5.4,2.6,7.9,4.1c0.7,0.4,1.1,1.5,1.6,2.2
		c0.5,0.1,0.8,0.2,1.1,0.1c3.3-0.4,5.9,0.4,7.7,3.5c1.3,2.4,3.9,3.3,6.3,3.9c1.7,0.5,3,0.8,3.3,2.8c0.1,0.8,0.9,1,1.9,0.8
		c2-0.4,2-0.3,3.2,2.2c-1.2,0.9-2.4,1.8-3.4-0.6c-1.1,0.8-2,1.5-3,2.2c-0.7-0.5-1.5-1-2.4-1.6c0.6-1,1.1-1.8,1.6-2.5
		c-0.8-1.6-1.8-0.5-2.6-0.6c-1.1,0-1.7-1.7-3-0.8c-0.8,0.5-1.7,0.9-2.7,1.5c-1-1.1-2.1-2.2-3.3-3.5c-1.5,0-3,2-4.7,0.3
		c-0.3-1.5,2.4-2.4,0.7-4.4c-1.7,0.6-1.9,2.7-3.2,3.8c-0.8-0.4-1.6-0.9-2.5-1.3c0-0.9,0-1.6,0-2.4c-1.1-0.6-1.4-0.3-3.1,2.3
		c-0.3-0.4-0.6-0.7-0.7-1c-0.2-1,0.2-1.8,1.2-2.3c1.4-0.7,2.9-1.2,3.9-2.6c-1.4-1-2.2,0.2-3,0.7c-0.9,0.5-1.4,0.9-2.5-0.1
		c-0.6-0.5-2,0-2.8,0.1c-4.9-3.6-8.6-8.4-14.2-11c0.7-0.5,1.2-0.9,2.3-1.7c-2,0-3.3,0-4.8,0c-0.4-0.8-0.8-1.5-1.1-2.2
		c-0.1-0.3-0.2-0.7-0.4-0.8c-1.1-0.5-2.4-0.8-3.4-1.5c-0.9-0.7-0.9-2-2.5-2.5c-1.9-0.5-4-1.7-5.1-3.2c-1.2-1.5-3.6-2.2-3.6-4.6
		c-1.4-1.4-2.1-3.5-4.6-3.7c-1.2-0.1-2.3-0.9-2.4-2.5c0-0.7-0.7-1.7-1.3-1.9c-2.5-1-2.9-4.2-5.5-5.1c-0.4-0.2-0.9-1.1-0.8-1.6
		c0.4-2.1-2.1-2.8-2.2-4.7c0-0.6-1.1-1.1-1.3-1.8c-0.4-1.2-1-1.9-2.2-2.3c-0.5-0.2-1.1-0.7-1.4-1.2c-0.5-1,0.4-2.7-1.6-2.9
		c-0.4-1.2-0.9-2.4-1.3-3.6c0.3-0.1,0.7-0.3,1-0.4c-0.1-0.1-0.1-0.2-0.2-0.4C922.5,1018.3,922.3,1018.7,922.1,1019z M976.5,1072.3
		c-0.5-0.3-0.8-0.5-0.9-0.5c-0.2,0.1-0.5,0.3-0.6,0.6c0,0.2,0.2,0.5,0.3,0.7C975.7,1072.9,976,1072.6,976.5,1072.3z"/>
	<path class="st0" d="M90.6,668.5c1.6-0.4,3.6,0.1,3.8-2.3c1.7,0.2,3.1,0.3,4.7,0.5c0.2,0.3,0.5,1,0.9,1.9c1.7-1.8,3.4-3.1,6.1-2.7
		c1.3,0.2,2.7-0.6,4.2-1c0,0.7,0,1.4,0,2.3c1.8-0.3,1.6-2.4,3.2-3.1c0.7,0.3,1.7,0.7,2.9,1.1c1.3-0.7,2.5-2.2,4.5-1.4
		c0.4,0.2,1.1-0.5,1.6-0.8c2-1.1,3.9-1.9,6.3-1.7c1.2,0.1,2.4-0.6,3.9-0.3c1.6,0.3,3.5,0.2,4.8-1.4c0.4-0.5,1.4-0.6,2.1-1
		c0.5,0.8,0.9,1.4,1.4,2.1c1.4-0.4,2.7-0.8,4.1-1.2c1.4-0.4,2.7-0.7,4.4-1.1c0.8,0.3,2,0.9,3.2,1c1.4,0.1,2.8-0.4,4.1-0.4
		c1.3,0.1,2.5,0.1,3.6-0.8c0.4-0.3,1.3-0.4,1.8-0.3c2.2,0.7,4.4,0.2,6.5,0c1.9-0.2,3.5,0,4.7,1.9c0.5-0.9,0.7-1.6,1.1-2
		c0.6-0.6,1.3-0.8,2,0c0.2,0.3,1.1,0.4,1.2,0.3c1-1.5,2.6-0.8,3.9-1.1c0.8-0.2,1.6-0.3,2.3-0.6c2.9-1.3,5.8-2.4,9.1-1.4
		c0.6,0.2,1.3,0.3,1.9,0c2.8-1.2,5.7,0.4,8.5-0.3c0.9-0.2,2.2,0.5,2.7,1.7c0.5,1.2,0.9,2.3,1.4,3.7c-2,1.1-3.9,1.5-6,1.5
		c-3,0.1-6.1,0.3-9,1.1c-3.5,1-6.9,0.8-10.4,0.8c-1.1,0-2.1-0.1-3.3,0.2c-3.7,0.9-7.3,1.9-11,2.5c-3.3,0.6-6.7,0.4-10.2-0.4
		c-0.6,0.7-1.2,1.6-2,2.7c-2.2-0.1-4.6-0.3-7-0.4c-0.3,0-0.7-0.2-0.9-0.1c-4.3,1.5-9.1,0.6-13.4,2.3c-0.4,0.2-1,0.1-1.3,0.3
		c-2.1,1.7-3.8,2.1-5.5-0.5c-0.3-0.5-1.4-0.8-2.1-0.7c-1.7,0.2-3.4,0.6-5,1c-1.7,0.4-3.3,0.8-5,1.2c-0.2,0.5-0.5,1.1-0.7,1.6
		c-3.2-0.2-6.4-0.5-9.5-0.7c-3.2-0.3-6.1,0.3-9.1,1.5c-3,1.2-6.3,1.9-9.8,1c-0.4,0.3-1,0.6-1.4,1.1c-2.1,2-4.5,2.3-7,1
		c-2.3-1.1-4.7-1-6.9,0c-1.5,0.7-2.7,0.8-4-0.3c-0.7-0.6-1.3-0.4-2,0.3c-1,1-2,0.2-3-0.4c0.2-0.6,0.4-1.1,0.6-1.8
		c0.7-0.1,1.4-0.1,2.2-0.2c0.3-0.8,0.6-1.7,1.1-2.8c0.9,0.1,1.8,0.2,2.7,0.3c-0.1,1.1-0.1,1.9-0.2,3.2c1.3-0.5,2.2-1,3.2-1.3
		c2.1-0.8,2.1-0.7,2-3.6c1.7,0.3,3.4,0.6,5.1,1c1-1,1.9-2,2.8-3c0.5,0.3,0.9,0.4,0.9,0.6c0.2,0.8,0.1,1.6,0.4,2.3
		c0.2,0.5,0.8,0.8,1.6,1.6c0-2.2,0-3.7,0-5.1c1.4-0.9,2.5-1.2,3.4,0.4c0.3,0.6,1.4,0.2,1.4-0.4c0-0.7-0.2-1.5-0.2-2.2
		c0-0.2,0.3-0.6,0.6-0.7c0.2-0.1,0.6,0.1,0.8,0.2C90.9,666.2,90.6,667.5,90.6,668.5c-1.4,2.1-1.4,2.1-0.9,3.7
		C91,671.1,91,669.9,90.6,668.5z M168.4,659.4c-0.1-0.1-0.2-0.3-0.3-0.3c-0.1,0-0.2,0.2-0.3,0.2c0.2,0.1,0.3,0.3,0.5,0.4
		C168.3,659.7,168.4,659.6,168.4,659.4z"/>
	<path class="st0" d="M673.5,181.8c-0.7,0.4-1.3,0.9-2.1,1.4c0.6,0.7,1.1,1.4,1.8,2.3c0,1.5-2.5,2.6-0.9,4.7c-1.2,0.2-2,0.3-2.9,0.4
		c0.3,1.2,1.4,0.8,1.9,1.3c-0.4,1.9-0.1,3.9-1.1,5.8c-0.6,1.1-0.1,2.8-0.1,4.3c-0.6-0.2-1.4-0.4-2.2-0.7c-0.3,1.9,1.6,2.5,2.1,4.1
		c-0.6,0.8-1.2,1.8-2,3c0.4,1.5,1.6,3.2,0,4.8c-0.1,0.1-0.1,0.3-0.1,0.5c1.1,3.1,1.1,6.1,0,9.2c-0.1,0.4,1.1,0.4,0.5,1.3
		c-1,1.6-1.7,3.3-2.5,4.9c0.5,1.3,0.9,2.3,1.3,3.3c0.3,0.8,0.2,1.5-0.5,2.1c-0.9,0.9-1.1,2-0.9,3.3c0.2,2.2-1.1,4.3-0.6,6.5
		c0,0.1-0.1,0.3-0.2,0.4c-0.5,1.2-2.5,1.4-1.7,3.5c0.3,0.8-0.6,2.3-1.2,3.3c-0.7,1-0.9,2.1-0.5,3.1c0.6,1.4,0.5,2.5-0.9,3.2
		c-0.1,0.1-0.4,0.2-0.3,0.3c0.8,2.6-1.2,3.6-2.9,4.7c2,2.2,1.9,2.6-1.5,5.4c1.3,1.8,1.3,1.8,0,3.6c-0.2,0.2-0.5,0.6-0.4,0.7
		c1.3,2.3-1.1,4.2-0.6,6.3c0.6,2.3,0,4.4-0.2,6.6c0,0.6-0.1,1.3-0.5,1.7c-1.3,1.7-1.7,3.6-2,5.6c-0.5,2.6-1.7,5.1-2.8,7.6
		c-0.2,0.5-0.8,1.1-1.4,1.3c-1.6,0.6-3.4,1-5.1-0.1c-0.1-2.1,0.2-4,1-6c1.2-3.1,1.7-6.4,2.3-9.7c0.4-2.2,2.2-9,3.2-10.8
		c0.2-0.4,0.8-0.9,0.7-1.2c-0.6-2.9,1.2-5.5,0.7-8.4c-0.3-1.8,0.9-3.8,1-5.9c0.1-2.1,1.3-4.2,2.2-6.3c0.4-1,1.1-1.9,1.8-3.1
		c-0.5-0.8-1.3-1.8-2-3c1-2.3,2.5-4.6,2.8-7c0.5-4.1,2.2-7.9,2.3-11.9c0-1.4,0.3-2.8,0.2-4.2c0-1.2-0.6-2.4-0.8-3.4
		c0.2-0.4,0.3-0.6,0.4-0.6c1.1-0.9,2.8-1.5,3.3-2.6c0.7-1.8,0.8-3.9,1-6c0.1-1.7,0-3.4,0-5.7c-0.1-0.1-0.6-0.7-1.2-1.4
		c0.1-0.4,0.1-0.9,0.3-1.3c2.2-4.1,3.3-8.5,4-13.1c0.2-1.4,0-2.7-0.2-4.2c-0.5-3.7-0.7-7.5,1.3-11.1c-0.3-0.6-0.6-1.1-0.9-1.7
		c-1.3-2.3-1.3-4.3,0.2-6.7c1.6-2.5,2.5-5.5,1.8-8.6c-0.3-1.4,0.1-2.3,1.4-3.1c1.4-0.9,1.3-1.1-0.4-3c0.3-0.8,0.6-1.7,0.9-2.8
		c1,0.6,1.8,1.1,2.6,1.6c-0.9,2-0.9,2,1.9,4c-0.2,0.8-0.4,1.7-0.6,2.6c-1.1-0.2-2-0.4-3.3-0.6c0.3,1.9,0.2,3.6,0.9,4.9
		c0.6,1.2,2.1,1.9,3.1,2.8c0,0,0.1-0.1,0.1-0.1c-0.4,0.2-1,0.2-1.2,0.5c-0.6,1.1-1.1,2.2-1.6,3.3c0.7,1.4,3,1.9,2,4.1
		c-1.2,0.7-3.1-1.4-4.2,1.1c1.6,0.5,3.1,1,4.9,1.5c-0.1,1.2-0.3,2.4-0.4,3.6c-0.6-0.4-1.2-1.4-1.8-0.3c-0.4,0.8,0.5,1.5,1.2,1.6
		c0.7,0,0.7-0.8,0.5-1.4c0.5,0.7,1.1,1.4,1.8,2.2C675.1,180.8,674.3,181.4,673.5,181.8c-2.7-2.7-2.7-2.7-5.9-2.9
		C670,180.3,671.3,181.8,673.5,181.8z"/>
	<path class="st0" d="M122.4,956.6c0.3-0.7,0.7-1.4,1-2c1.4,0.1,2,0.8,1.9,1.9c0,1.1-0.4,2.2-0.5,3.3c-0.1,0.6,0,1.2,0.7,2.2
		c0.2-0.4,0.5-0.8,0.6-1.2c0.5-2,0.6-1.9,2.2-4.4c0.7-1,1.1-1.6,2.5-1.6c1.1,0,2.2-1,3.6-1.7c0.2,0.7,0.5,1.4,0.7,2.1
		c0.2,0,0.5,0,0.6-0.1c0.5-1.5,1.9-2.6,3.2-2.4c2,0.2,3.2-1.2,4.8-1.5c0.4,0.6,0.8,1,1.4,1.8c0.7-1.2,1.2-2.3,1.9-3.4
		c0.4-0.1,0.8-0.3,1.3-0.2c1.2,0.2,2.5,0.8,3.4-0.7c1-1.5,3,0,4.2-1.6c0.8-1.1,2.2-1.9,3.6-2.3c2-0.6,3.8-1.7,6-1.6
		c2,0.1,4-0.6,5.3-2.6c0.2-0.4,0.7-0.6,1.1-0.8c1.2-0.1,1.6,2.2,3.3,1c1-0.7,2.2-1,3.3-1.5c1-0.4,2-0.9,3-1.3
		c0.7-0.2,1.5-0.4,2.2-0.4c3.5,0.4,5.9-0.2,9.2-2.1c0.6-0.3,1.5-0.2,2.2-0.4c0.9-0.2,1.8-0.4,2.7-0.6c0.9-0.2,1.9-0.3,2.8-0.4
		c-0.1,0.3-0.2,0.6-0.2,0.9c0,0.2,0.4,0.3,0.6,0.4c0-0.1,0.1-0.3,0.1-0.4c-0.1-0.3-0.4-0.5-0.5-0.8c2.9-0.7,2.9-0.7,5.7,0.3
		c0.6-0.6,0.2-2.4,1.5-2c1.5,0.5,2.7,0.6,3.5-0.9c2.8,0.1,4.6-1.8,6.9-2.8c2.1-0.9,4.1-2.3,6.7-1.9c0.6,0.1,1.4,0.1,1.9-0.3
		c1.6-1.1,3.3-1,5-1.1c0.5,0,1-0.1,1.4-0.2c4.5-0.9,4.5-0.9,6.8,3.7c-1.1,1.7-2.9,2-4.7,2.5c-3.2,0.8-6.7,1.2-9.6,2.8
		c-3.2,1.7-6.7,1.9-10,2.6c-1.2,0.3-2.5,0-3.6,0.8c-1.7,1.3-4.6,0.4-5.7,2.9c-2.2-0.2-3.9,1.3-5.9,1.7c-3,0.6-6,0.7-9.3,1.1
		c-0.3,0.6-0.6,1.4-1.1,2.5c-1.2,0.2-2.6,0.5-4,0.6c-2.7,0.3-5.3,0.6-7.8,1.9c-0.7,0.4-1.6,0.2-2.3,0.4c-3.5,0.9-7,1.6-9.7,4.4
		c-0.3,0.3-0.9,0.3-1.2,0.5c-0.3,0-0.5,0-0.6-0.1c-2.6-2.9-5.6-1.4-8.2-0.4c-1.7,0.7-3.2,2-5.1,2.4c-0.6,0.1-1,1.5-1.4,2.1
		c-3.2,0.3-6.4,0.4-9.5,0.9c-2.9,0.5-5.8,0.9-8.2,3.1c-0.9,0.9-2.2,2-4.1,1.9c-1.4-0.1-2.5,1.8-4.4,1.3c-0.5-0.2-1.4,0.5-2,0.9
		c-0.6,0.5-1.1,1.2-1.7,1.7c-1,0.9-2.1,1.4-3.5,1.1c-4-0.8-7.9-0.1-11.4,1.9c-1.1-0.6-2.1-1.1-3.1-1.7c-0.8,2.1-2.3,2.1-4.2,1.7
		c0.3-1,0.6-2,0.9-3c1.2,0.2,2.4,0.5,2.6-1.4c0.2-1.7,1.2-1.6,2.5-1.1c0.2,0.8,0.5,1.7,0.8,2.7c1.2-0.6,2.3-1.2,3.3-1.7
		c1.7-0.9,1.8-1.2,1.3-3.9c1.6,0.1,3.2,0.2,4.8,0.4c1.6-0.7,0.6-3.3,2.9-3.5c0.6,1.1,1.4,2.4,2.3,4.1c1.2-2.3-0.3-3.8-0.2-5.7
		c1.1-0.4,2.3-0.8,3.4-1.2c-0.1,0.3-0.2,0.6-0.1,0.9c0,0.3,0.3,0.5,0.5,0.8c0.2-0.3,0.4-0.7,0.7-1
		C123.1,957,122.7,956.8,122.4,956.6z"/>
	<path class="st0" d="M796.7,1054.1c-1.4-0.8-1.9-2.3-1.8-3.7c0.1-1.3-0.1-2.1-1-2.9c-1-0.8,0.6-2.1,0-2.5c-1.9-1.3-1.6-3.7-2.9-5.3
		c-0.9-1.1-1.5-2.4-2.3-3.6c-0.6-0.9-0.8-1.9-0.9-3.1c-0.3-3-1-5.9-1.6-8.8c-0.6-3.1-0.5-3.5,2-5.1c0.4-0.3,0.8-0.5,1.3-0.7
		c0.3-0.1,0.6-0.1,1.2-0.2c1.1,1.2,1.9,2.5,2.2,4.3c0.4,2.5,1.1,5.1,2.4,7.2c1.3,2.1,2,4.3,2.4,6.6c0.7,3.9,2.1,7.3,4.2,10.7
		c2.1,3.4,3.5,7.5,3.4,11.7c1,0.4,1.9,0.8,3,1.3c0.8,3.5,2.1,7,3.4,10.5c1.4,3.7,3.5,6.6,6.2,9.2c0,0.3,0.2,0.8,0.1,0.9
		c-2.6,2.4-0.8,4.7,0.3,6.8c0.8,1.5,2.1,2.8,3.3,4c0.5,0.5,1.4,0.6,2.2,0.9c0.2,4.1,1.7,7.7,3.5,11.2c0.4,0.8,1,1.7,1.8,2.2
		c2.6,1.4,3.1,4.3,5,6.3c0.4,0.5,0.3,1.5,0.5,2.3c0.7,0.3,1.3,0.5,1.9,0.7c1.8,0.6,2.9,1.6,3.1,3.8c0.2,2.8,1.4,5.2,3.7,6.9
		c1.1,0.8,0.9,1.9,0.3,3.1c0.7,1.1,3.5,0.5,2.7,3.1c-0.6,0.3-1.4,0.6-2,0.8c-1.1-0.3-0.5-2.5-2.2-1.8c-0.4,0.2-0.9,0.4-1.4,0.3
		c-0.4-0.1-0.9-0.4-1-0.8c-0.2-0.4-0.1-1,0.1-1.3c0.5-0.6,1.1-1,1.7-1.5c-3.1-2.6-3.1-2.6-6.3-2.4c-0.3-1.2-0.6-2.4-0.9-3.6
		c-1.3-0.3-2.5-0.5-4.3-0.9c1.4-1.3,2.4-2.1,3.8-3.3c-2.5-0.7-3.5,1.4-5.4,1.4c-0.1-0.5-0.2-1-0.4-1.6c0-0.8,0-1.6,0-2.3
		c-0.6,0-1.3-0.4-1.5,0.7c0.5,0.5,1,1.1,1.5,1.6c-1.1-0.5-2.2-1-3.7-1.7c0.8-0.8,1.3-1.6,2.1-1.9c0.8-0.3,1.9-0.1,2.4-1.2
		c0.6,0.1,1.3,0.1,2.5,0.2c-1.2-1.1-1.8-0.8-2.4-0.1c-0.9-0.2-2.2,1-2.6-1c-0.1-0.4-1.6-0.6-2.4-0.8c-0.4-1.1-0.9-2.2-1.4-3.6
		c0.3-0.3,0.7-0.8,1.4-1.6c-0.6,0-1.1,0-1.6,0c-2.5-1.6-2.4-4.9-4.7-6.6c0.6-0.4,0.9-0.7,1.6-1.2c-1.1-0.4-2.1-0.7-3.3-1.2
		c-0.6-1.4-0.1-3.8-2.6-4.4c0.3-2.4-2-2.9-3-4.4c-0.7-1-1.1-2.3-1.9-3.2c-0.8-0.9-1.4-1.6-1.4-3c0-2.4-0.4-2.6-3.7-5.1
		c0.7-2.6-0.9-4.6-2.2-6.6c-0.6-1-0.8-1.9-1.1-3c-0.6-2.6,0.1-5.9-3-7.5c-0.2-0.1-0.4-0.6-0.3-0.8c0.7-1.4-0.6-2.5-0.6-3.8
		C796.1,1054.8,796.5,1054.4,796.7,1054.1c0.1-0.6,0.1-1.2,0.2-1.9c-0.1,0-0.2,0-0.3,0C796.6,1052.9,796.7,1053.5,796.7,1054.1z"/>
	<path class="st0" d="M199.6,1064.7c-0.3-1.2,0.9-0.6,1.1-1c0.3-0.5,0.3-1.2,0.5-1.8c0.1-0.3,0.3-0.7,0.5-0.7c1.8,0,2.6-2,4-2.2
		c1.6-0.2,2.5-1.6,3.9-1.7c1.8-0.1,2.6-1.6,3.8-2.7c0.4,0.6,0.8,1.1,1.4,2c0.4-1.3,0.7-2.3,1-3.3c0.3-0.1,0.6-0.4,0.8-0.4
		c1.1-0.1,2.2,0.2,3-1c0.4-0.6,1.2-0.8,1.9-1.2c0.5-0.3,1.3-0.4,1.5-0.8c1.4-3.1,4.4-4.2,7.2-5c2.7-0.8,4.5-2.1,5.5-4.9
		c0.7,0.5,1.2,0.8,1.7,1.1c0.4,0.2,0.9,0.3,1.2,0.2c0.8-0.5,1.3-1.4,2.1-1.7c2.5-0.8,3.9-3.9,7.1-3.1c1.4-1.9,4.7-1.1,5.6-3.8
		c1.3-0.7,2.6-1.5,4-1.9c0.8-0.2,1.8,0.2,2.8,0.3c0.3-0.5,0.5-1.7,1.1-1.9c0.9-0.4,2.1-0.2,3.4-0.3c0.4-0.4-0.7-1.6,0.6-2.2
		c2.8-1.2,4.8-2.8,6.4-4.8c1.1-1.4,2.3-2.6,3.5-3.9c0.1-0.1,0.2-0.3,0.3-0.3c4.3,0.1,6.3-3.9,9.8-5.3c1.3-0.5,2.4-0.8,3.6,0.1
		c1,0.7,2,1.5,3,2.4c-1.2,1.7-2.4,2.9-4.2,3.9c-2.3,1.3-4.7,3-6.3,5c-2,2.6-5,3.4-7.3,5.3c-3.1,0.1-4.7,2.7-6.6,4.3
		c-5.2,4.2-6.9,5.5-13.2,7.2c-0.2,0.8-0.4,1.7-0.6,2.8c-1.4,0.5-2.8,1.3-4.3,1.6c-1.6,0.3-2.9,1.1-4.3,2c-0.8,0.5-1.6,1.2-2.4,1.5
		c-3.8,1.1-6.6,3.5-8.8,6.5c-0.5,0.1-0.8,0.2-1.1,0.1c-3.7-1.6-3.7-1.6-6.8,0.6c-1.5,1.1-3.1,2.2-4.5,3.4c-0.4,0.3-0.4,1.2-0.5,1.8
		c-2.7,0.8-5.4,1.6-8.1,2.4c-2.7,0.7-4.7,2.3-6.5,4.4c-2,2.3-4.7,4-7.8,4.9c-0.4,1-0.9,2-1.2,3c-0.4,1.2-1.3,1.8-2.5,1.9
		c-3.5,0.3-5.9,2.2-7.8,5.1c-1.1,0-2.2,0-3,0c-0.6,1-0.9,1.9-1.5,2.5c-0.2,0.2-1,0.3-1.3,0c-0.3-0.2-0.5-0.9-0.4-1.2
		c0.2-1,0.7-3.7,0.5-4.6c0.7-0.4,1.5-0.9,2.3-1.3c0.5,1,0.9,1.8,1.6,3.3c0.9-2.8,3.9-4.3,1.3-7.1c1.4-0.5,2.7-1,4.2-1.6
		c1-1.1-1.1-3.3,1.2-4c0.8,0.7,1.5,1.5,2.3,2.2c0.1,0.1,0.3,0,0.7-0.1c0.1-1.5-1.3-2.4-1.8-4c0.5-0.4,1.1-1.1,1.7-1.2
		c0.6-0.1,1.4,0.4,2.5,0.8c-0.4-1.4-0.6-2.5-1.1-4.2C197.9,1063.1,198.8,1063.8,199.6,1064.7c-0.6,1.1-1.1,2.3,0.3,3.5
		C200.5,1066.9,200,1065.8,199.6,1064.7z"/>
	<path class="st0" d="M111.8,816.4c0.4-0.5,0.7-1,1.2-1.8c1.3,0.6,1.7,2.2,2.9,3c0.2-0.3,0.5-0.6,0.8-0.8c0.3-0.3,0.8-1,0.9-0.9
		c1.5,0.6,2.7-0.2,3.8-0.9c0.2,0.4,0.4,0.7,0.6,1.1c-0.1,0.3-0.2,0.6-0.2,0.8c0,0,0.2,0.1,0.2,0.2c0-0.4-0.1-0.8-0.1-1.1
		c3-0.4,5.9-0.7,8.8-1.6c-0.2,0.5-0.3,0.9-0.5,1.4c0.2,0,0.4,0,0.7,0.1c-0.1-0.5-0.2-1-0.3-1.5c1.2,0.1,2.3-1.4,3.6-0.3l5.5-1.6
		c2.3-1.8,4.8-2.1,7.6-1.7c1.6,0.2,3.1,0.2,4.3-1.3c0.3-0.4,1.3-0.9,1.6-0.7c1.6,1,2.7-0.2,4.1-0.5c1.5-0.3,3.1-0.5,4.6-0.7
		c1.4,1.4,3,0.2,4.5,0.5c1.3,0.3,2.5,0.5,3.5-0.8c0.2-0.3,1.2-0.1,1.8,0c0.3,0,0.7,0.4,0.9,0.3c1.4-0.8,2.7,0.6,4.1,0.1
		c1.6-0.5,2.7,0.5,3.8,1.3c0.6-0.8,0.8-1.8,2.1-1.5c1.1,0.3,5.5-0.3,6.4-0.8c2.4-1.3,4.9-2.3,7.7-1.2c2.3-0.7,4.7-0.1,7-0.4
		c2-0.2,3.1,0.6,3.8,2.2c0.4,1,0.7,2.1,1.1,3.3c-1.6,1.2-3,1.5-4.9,1.4c-2.3-0.1-5-0.1-7,0.9c-2.6,1.3-5.4,0.4-7.9,1.2
		c-1.5-0.8-3-0.4-4.5,0.2c-1.3,0.5-2.9-0.2-3.9,1.3c-4.1,0.6-8.1,1.3-12.2,0.2c-0.7,0.8-1.3,1.5-2,2.4c-3.4-0.6-6.9-0.1-10.3,0
		c-3.6,0.1-6.7,1.3-10.3,3.2c-0.6-1.1-1.2-2.3-1.5-2.8c-4.1-0.4-6.9,1.3-9.8,2.2c-0.3,0.1-0.4,0.8-0.7,1.3c-2.5-0.2-5-0.4-7.6-0.5
		c-2.4-0.1-4.8-0.1-6.7,1.5c-1.7,1.4-3.8,1.6-5.6,1.7c-1.9,0.1-3.3,0.6-4.5,1.9c-0.3,0.3-0.7,0.6-1.2,1c-0.9-0.2-1.8-0.4-2.7-0.5
		c-1.6-0.2-3.2-0.5-4.7-0.2c-1.6,0.3-3.1,1.7-4.8,0.1c-0.2-0.1-0.8,0.4-1.3,0.5c-0.9,0.2-1.8,0.2-3.2,0.4c0.5-1.1,0.7-2.3,1.2-2.3
		c1.9-0.4,2.1-1.7,2-3.3c0.8,0,1.4,0,2.1,0c0.1,1,0.2,1.9,0.4,3.2c1.9-1.5,4.8-1.6,3.9-5c1.4,0.2,2.6,0.4,4,0.6c0.6-1,1.3-2,2-3
		c1.8,0.7,0.6,3,2.3,3.5c0.1-0.2,0.5-0.4,0.4-0.5c-0.1-1.2-0.3-2.5-0.5-3.9c1.1-0.3,2-0.6,2.8-0.8c0.1,0.5,0.1,1,0.3,1.8
		C113,817,112.7,816.6,111.8,816.4z M113.6,821.8c1.3-1.4,1.2-2.3,0.5-3.9C113.9,819.3,113.8,820.2,113.6,821.8z"/>
	<path class="st0" d="M673.6,1133.6c0.4-0.5,0.7-1,1.2-1.7c-0.5-0.5-1.7-1.4-1.6-1.7c0.6-1.6-1-3.2,0.1-4.7c0.4,0.7,0.9,1.1,1.9,0.1
		c-0.9,0-1.4,0-2,0c-0.3-2.6-0.4-5.3-1.2-7.8c-0.4-1.1-0.3-2.5,0-3.7c0.4-1.4-1.5-2.2-0.7-3.5c0.5-0.9,0-1.5-0.6-2.1
		c-1.8-2-1.4-4.7-2-7.1c1.5-2.4,0.1-4.2-1.3-5.7c-0.4-1.4,1.5-2,0.5-3.7c-0.9-1.6-1.3-3.6-1.4-5.4c0-1.1,1-2.1,0.7-3.5
		c-0.3-1.7,1.2-3.7-0.8-5.3c-0.1-0.1,0-0.6,0-0.9c0.2-1.5,0.5-3.1,0.6-4.6c0.2-2.6,0.1-2.6,1.4-4.6c-0.5-0.5-1-0.9-1.5-1.4
		c1.4-1.3-0.2-2.6,0-3.9c0.1-1.3-0.6-2.4-1-3.6c-0.7-2-1.9-4.2-0.5-6.4c-0.6-2.3,0.2-4.7,0.1-7c-0.1-2.3,0.9-3.3,2.7-3.9
		c0.9-0.3,1.8-0.4,2.8-0.6c1.1,1.5,1.4,3,1.3,4.9c-0.2,2.2,0.1,4.5,0.7,6.6c0.5,1.7,0.6,3.4,0.6,5.2c0,3.8-1,7.8,1.4,11.3
		c0.1,3.8,1.4,7.6-0.6,11.1c1,0.8,1.7,1.4,2.5,2.1c-0.5,3.4-0.2,6.8-0.1,10.3c0.1,3.4,1,6.4,2.4,9.3c-0.1,0.3,0,0.7-0.2,0.9
		c-2.5,2.6-2.5,2.6-1.8,5.7c0.4,1.5,0.8,3.1,1.4,4.5c0.3,0.8,1.2,1.4,1.8,2.1c-0.9,3.1-1.4,6.3-1,9.5c0.2,1.4,0.3,2.7,1.2,4
		c1.7,2.4,1.6,5.3,1.2,8.1c0.9,1,1.8,2.1,2.8,3.3c-0.4,1.7-1,3.3-1.1,5c-0.1,1.7,0.5,3.4,0.8,5.7c0,0-0.3,0.5-0.7,1
		c-0.6,0.7-0.6,1.2,0.2,1.9c0.7,0.6,0.6,0.7,0.1,2.3c-1-0.1-2.1,0-2.4-1.6c-0.1-0.5-1.5-0.8-2.7-1.4c0-0.4,0.1-1.1,0.1-1.8
		c1-0.1,1.7-0.2,2.8-0.3c-0.4-1.1-0.6-2.2-1.2-2.9c-0.7-0.8-1.8-1.2-2.9-1.8c0.1-1,0.2-2.1,0.3-3.1c-1-0.8-2-1.5-2.9-2.2
		c1.2-1.3,3.2,0,4.1-2.2c-1.8,0.1-3.3,0.2-4.9,0.3c-0.4-1-0.7-1.9-1-2.8c0.7,0,1.4-0.1,2.4-0.1c-1.3-1.1-2-1.2-2.4,0.2
		c-0.6-0.5-1.1-1-2-1.7C672.4,1134,673,1133.9,673.6,1133.6c1.5-0.4,3,1.3,4.6,0.1C676.7,1132.7,675.1,1133.7,673.6,1133.6z
		 M673.5,1117c-0.4,0.2-0.7,0.3-0.9,0.3c0.2,0.2,0.3,0.6,0.5,0.7c0.2,0.1,0.5,0,0.8,0C673.7,1117.6,673.6,1117.3,673.5,1117z"/>
	<path class="st0" d="M108.2,533.4c0.1,0.1,0.3,0.2,0.4,0.2c2.3,0.9,5,0.5,7.3,1.3c2.4,0.8,4.8,1.3,7.3,1.2c1.3,0,2,0.7,2.7,1.6
		c-0.9-0.6-1.7-1.3-2.3,0.5c0.9-0.2,1.6-0.4,2.3-0.6c-0.1-1,0.4-1.8,1.3-1.2c1.3,0.9,2.5,0.7,3.9,0.8c1.2,0.1,2.3,0.4,3.6-0.1
		c2.4-0.9,4.7,0,6.9,0.6c1.7,0.4,3.3,0.9,4.9-0.4c0.3-0.3,1.5-0.2,1.7,0.1c1.1,1.4,2.4,1.1,3.9,0.8c2.5-0.4,5-0.9,7.3,0.6
		c2-0.3,3.9,1.6,6,0.2c0.3-0.2,0.9,0,1.4,0.2c1.1,0.4,2.6,0.5,3.3,1.3c1.2,1.4,2.1-0.8,3.1,0.1c0.7,0.6,1.5,1,2.2,1.6
		c0.4-0.6,0.6-1.5,1.6-1.2c2.6,0.7,4.9,0.8,7,0.2c2.3-0.7,4.5-0.9,6.9,0.2c2,0.9,4.3,0.5,6.5,1.2c3.6,1.2,3.7,1,4,4.7
		c0,0.5-0.1,0.9-0.1,1.6c-1.3,0.8-2.7,1.1-4.4,0.5c-2.7-1.1-5.6-0.8-8.5-0.7c-2.2,0.1-4.6,0.1-6.5-0.7c-2.7-1.1-5.3-0.4-7.9-0.4
		c-0.8,0-1.5,0-2.3,0.2c-3.6,0.8-6.9-0.3-10.3-1.7c-0.6,0.6-1.2,1.3-2,2.2c-4-1.7-8.5-1.7-12.8-2.5c-2.1-0.4-4.4-0.1-6.5,0.6
		c-0.6,0.2-1.2,0.3-1.6,0.4c-0.4-0.2-0.5-0.3-0.6-0.4c-0.7-1-1.2-2.4-2.2-2.9c-1.2-0.6-2.7-0.5-4.1-0.5c-1.4,0-2.7,0.5-4.2,0.2
		c-0.5-0.1-1.2,0.8-1.7,1.2c-2.5-1-4.8-1.9-7.2-2.8c-2.1-0.8-4.2-0.9-6.4-0.3c-2.8,0.8-5.6,0.4-8.4-0.5c-1.2,0.7-2.5,1.3-3.8,2.1
		c-0.7-0.3-1.5-0.5-2.2-1c-2.1-1.4-4.3-2.1-6.8-1.3c-0.3,0.1-0.7,0.2-0.9,0.1c-0.9-0.5-1.8-1.7-2.6-1.6c-1,0.2-1.9,1.1-3,0.4
		c-0.1-0.1-0.2-0.2-0.5-0.6c0.4-0.5,0.8-1.4,1.4-1.5c1-0.3,1.7-0.7,2.1-1.6c0.7-1.5,1.8-0.9,2.8-0.5c-0.2,0.9-0.3,1.8-0.5,3.1
		c2.2-1,4.8-0.7,5.1-3.9c1.2,0.4,2.2,0.8,3.4,1.2c0.8-0.8,1.7-1.6,2.9-2.8c0.2,1.8,0.3,2.9,0.4,4.2c2.2-0.8,1-3,2.3-4.3
		c0.7,0.1,1.6,0.1,2.5,0.2c0,0.5,0,1-0.1,1.5c0.1,0,0.3,0,0.4,0c0.6-0.7,0.8-1.3-0.4-1.4c0.4-0.6,0.9-1.1,1.7-2.2
		c0.2,1.2,0.3,1.9,0.4,2.5c-0.1,0.9-0.2,1.7-0.3,2.5c-0.2,0.2-0.6,0.3-0.7,0.5c-0.1,0.2,0.1,0.5,0.1,0.8c0.2-0.2,0.4-0.3,0.5-0.5
		c0.1-0.3,0-0.6,0-0.9C109.4,535.2,108.7,534.3,108.2,533.4z"/>
	<path class="st0" d="M544.7,1146.3c-0.2-1.3-1.1-1.3-1.8-1.5c-0.6-0.1-1.2-0.3-2.2-0.5c0.5-1.1,1-2,1.4-3c-0.4-0.2-1.1-0.6-2.1-1
		c1.4-0.5,2.5-0.8,4-1.3c-0.6-0.8-1-1.4-1.5-2.2c0.6-2.5,1.2-5.1,1.7-7.6c0.2-0.9,0.1-1.8,0.1-2.8c0-1.5-0.4-3.1,0.8-4.4l0.2-5.3
		c-1-2.9-1.1-5.6,0.4-8.4c0.8-1.5-0.6-2.7-0.8-3.4c-0.2-1.7,1.6-2,1.2-3.4c-0.3-1.2-0.4-2.5-0.3-3.7c0.2-1.2,0.9-2.3,1.1-3.4
		c0.3-1.8,1.6-3.6,0.2-5.5c0.6-2.4,1.2-4.8,1.7-7.3c1.8-0.9,0.5-2,0.2-3c1.6-1,0.4-2.5,0.5-3.8c0.1-0.9-0.2-1.8-0.4-2.7
		c-0.5-2.1-1.1-4.1,0-6.4c0.8-1.8,0.3-4,0.7-6c0.4-2.1,1.2-3.2,3.3-3.5c0.9-0.1,1.8-0.3,2.7-0.5c0.8,1.5,1.2,2.6,1,4.2
		c-0.3,2.2-0.6,4.5-0.2,6.6c0.3,1.9,0.4,3.7-0.1,5.6c-0.9,3.3-0.9,6.6-0.3,10c0.7,3.4,0,7-1.9,10c0.8,0.9,1.4,1.6,2,2.3
		c-2.4,9.3-3.1,14.5-1.2,18.7c-1,0.7-2,1.3-3.3,2.2c-0.3,1.5-0.5,3.2-0.3,4.9c0.3,2.9,0.2,2.9,1.3,4.6c-0.9,2.3-1.8,4.5-2.6,6.8
		c-0.7,2-1.1,4-0.3,6c0.8,2-0.3,3.9-0.2,5.9c0,0.4-0.5,0.8-0.9,1.3c0.6,1.2,1.1,2.5,1.7,3.8c-0.2,0.5-0.2,1-0.5,1.4
		c-1.8,2.3-3,4.9-2.3,7.9c-0.8,0.6-1.4,1-1.8,1.4c0,1.1,0,2.1,0,3c-1,0.5-2.7-0.3-2.5-0.9c0.7-1.9-0.8-2.1-1.9-2.8
		c0.1-0.6,0.3-1.2,0.4-1.9c1.1,0.2,2,0.4,3.1,0.6c-0.9-3.9-0.9-3.9-3.2-5.2c0.4-0.7,0.8-1.3,1.2-2c0.2-0.3,0.3-0.6,0.4-0.9
		c-0.7-0.9-1.5-1.8-2.6-3.3C542.6,1146.1,543.6,1146.2,544.7,1146.3z M546.4,1141.9c-0.5-1.1-1.1-1.9-2.6-1.3
		C545,1141.1,545.7,1141.5,546.4,1141.9z"/>
	<path class="st0" d="M694.5,426.6c0.2,1.1,0.3,2.2,0.5,3.5c-1.1,1.5-2.6,3.1-3.5,4.9c-0.8,1.6-1.1,3.5-1.6,5.3
		c-1.4,0.4-3.1-0.2-3.5,1.9c0.5,0.5,1.1,1,1.9,1.7c-0.9,1.5-1.9,3.1-2.9,4.6c-0.7,1.1,1.4,2.5-0.8,3.8c-0.3-0.6-0.6-1.1-0.9-1.6
		c-0.3-0.5-0.7-0.9-1.3-1.7c-0.1,0.9-0.3,1.6-0.1,1.8c2,2.1,0.1,4.8,0.9,7.1c0.4,1.1-0.6,2.7-1,4.1c-0.3,1.1,0.4,2.4-1.3,3.2
		c-1.1,0.5,0.8,0.9,0.7,1.7c-0.3,1.9-0.5,3.8-0.9,5.7c-0.4,1.9-1.1,3.7-1.3,5.6c-0.2,1.4-1.2,2.2-1.4,3.4c-0.3,1.2,0.7,2.8,0.2,3.7
		c-1.6,3.3-0.7,6.9-1.7,10.2c-0.3,1-0.3,2.2-0.3,3.3c0.1,4.1-0.8,8.2-0.2,12.3c-1.1,2.3-0.8,4.7-0.8,7c0,0.5-0.2,1-0.1,1.4
		c1.6,6.7,0.8,13.6,1.1,20.4c0.2,3.7-0.9,7.5-0.9,11.3c0,1.7,0.2,3.5,0.2,5.2c0,3-0.1,6-0.1,9c0,1.2-0.5,2.4,0.4,3.7
		c0.5,0.7,0.5,1.9,0.4,2.8c-0.4,2.2-0.8,4.3,0.7,6.4c0.3,0.4,0,1.2-0.1,1.8c-0.1,0.5-0.4,1-0.2,1.4c1.3,2.9,0.6,6,0.9,8.9
		c0.3,2.4,0.7,4.7,1.1,7.1c0.5,2.5,0.5,5.1,0.6,7.6c0.3,4.8,1,9.5,1.4,14.2c0.1,1.4,0.2,2.9,0,4.3c-0.1,0.8-1,1.4-2,2.6
		c-0.6-2.6-1.2-4.6-1.5-6.6c-0.9-6-1.7-12-2.3-18c-0.5-5-1.1-10.1-0.5-15.2c0.1-0.8,0-1.6-0.2-2.4c-0.1-0.8-0.4-1.6-0.5-2.3
		c-0.6-4.7-1.2-9.4-1.9-14.1c-0.7-5.1-0.5-10.2,0.1-15.3c0.1-1,0.3-1.8-0.3-2.7c-0.8-1.1-1-2.3-0.8-3.6c1.1-9.4,0.9-18.8,0.5-28.2
		c-0.1-2.2-0.1-4.4-0.5-6.6c-0.3-1.7-0.3-3.4,0.8-5.1c0.6-0.9,0.9-2.1,1.1-3.1c0.4-3.3,0.7-6.6,1-9.9c0.1-1.3,0.4-2.5,0.6-3.8
		c0.1-0.6,0.5-1.3,0.3-1.8c-1-2.3,0.2-4.3,0.8-6.4c2.1-7,4.3-14,4.2-21.5c-0.1-4,0.7-8.1,2.3-11.6c1.7-3.6,3.1-7.3,4.7-10.9
		c0.3-0.6,0.6-1.1,1-1.6c1.7-2.3,3.3-4.7,5.1-6.9C693.1,427.8,693.9,427.3,694.5,426.6C694.6,426.7,694.5,426.6,694.5,426.6z"/>
	<path class="st0" d="M367.9,1119c0.1-1.1,0.1-2.4,1-3c1.6-1.2,0.5-3.8,2.7-4.5c-1.3-2.4,2.4-3.5,1.6-5.8c0.9-0.9,0.8-1.9,0.8-3.1
		c0.1-2.8,0.6-3.8,2.5-6.6c0.3-0.5,0.7-1.1,0.9-1.7c0.6-1.4-1.7-3.6,1.2-4.4c0.6-1.6,1.1-3.3,1.7-4.9c0.2-0.5,0.7-1,1.1-1.5
		c1.4-1.8,3.3-3.3,3.3-6c0-0.6,0.8-1.3,1.2-1.9c0.7-1.2,1.6-2.3,2.2-3.6c0.5-1.2,1.7-1.2,2.5-1.8c0-0.7-1.3-1-0.5-2
		c1.1-1.5,2.2-4.5,2.3-6.2c0.1-2.1,0.7-3.9,1.9-5.7c1.6-2.3,2.7-5,3.9-7.3c2.3-1.2,4.2-0.2,6.1-0.1c0.3,1.7,0.3,2.8-0.4,4
		c-1.1,1.9-2.3,4-2.6,6.1c-0.3,2.4-1.2,4.4-2.5,6.1c-1.7,2.4-2.4,5-3,7.7c-0.7,3.6-2.7,6.7-5.4,9.5c0.4,0.8,0.8,1.6,1.3,2.6
		c-2.1,2.5-3.5,5.5-5.1,8.3c-1.7,2.9-2.2,5.8-2.2,9c-1.4,0.3-2.6,0.5-3.6,0.7c-2,2.5-1.8,5.3-2.6,7.8c-0.1,0.4,0.6,1.1,0.8,1.4
		c-1.5,1.9-2.9,3.6-4.3,5.4c-1.5,1.9-2.3,4-2.5,6.5c-0.2,2.5-1,4.9-3.1,6.7c0.1,0.6,0.1,1.2,0.3,1.8c0.7,1.6,0.2,2.7-1.2,3.7
		c-1.8,1.2-3.1,2.8-3.4,5c-0.2,1.2-0.6,2.1-2,2.3c-0.1,0-0.2,0.7-0.3,1.1c-0.1,0.6,0,1.2-0.3,1.7c-0.3,0.5-1,0.8-1.6,0.2
		c-0.2-0.2-0.6-0.6-0.5-0.8c0.6-1.8-1.4-2.6-1.4-4.1c0-0.4,0.5-0.8,0.9-1.4c0.8,0.4,1.5,0.8,2.4,1.3c1.2-2.1,0.2-3.9-0.9-5.5
		c0.7-0.9,1.2-1.6,1.9-2.4c-0.4-0.8-0.9-1.6-1.3-2.4c0.9-1.8,2,0.5,3-0.4c-0.2-1.4-1.9-1.2-2.5-2.1c0.5-1.6,0.5-1.6,2.4-2.2
		c-0.9-0.7-1.6-1.3-2.7-2.2c1.4-0.3,2.3-0.4,3.4-0.6c0.1-2,0.7-3.8,2.7-4.8c0.2,0.2,0.4,0.3,0.6,0.5c0,0,0.2-0.1,0.3-0.2
		C368.6,1119.1,368.2,1119.1,367.9,1119z"/>
	<path class="st0" d="M718,501.1c-0.3-1.1-1.2-1.9-0.8-3.5c1-4.1,1.5-8.4,2.2-12.7c0.2-1.2,0.8-2.3,0.9-3.5c0.1-1.2-0.5-2.5-0.5-3.8
		c0-1.2,0.4-2.5,0.7-3.7c0.3-1,0.9-2,1.1-3.1c0.4-2.7,0.6-5.3,1.7-7.9c0.8-1.8,0.7-4,0.9-6.1c0.3-2.8,0.8-5.7,2.1-8.3
		c0.8-1.4-0.4-3.1,0.9-4.5c1.1-1.1,1.5-2.7,2-4.3c0.9-3.1,1.4-6.2,1.9-9.3c0.7-4.2,1.9-8.3,3.7-12.2c0.9-1.9,1.7-3.8,2.6-5.7
		c0.3-0.7,0.6-1.5,1.1-2.1c3.4-3.5,5.4-8.2,8.8-11.7c1-1,1.4-2.5,2.2-3.6c0.5-0.8,1.1-1.7,1.9-2.1c2.8-1.5,4.2-4.8,7.3-5.9
		c1.1-0.4,2-0.8,2.6-1.8c0.3-0.5,1-0.8,1.5-1.1c0.7-0.4,1.4-1,2.2-1c3.1,0.1,5.8-1.3,8.7-1.9c2.5,1.3,5.4,0.2,7.9,1.1
		c3.1,1.2,6.1,2.8,9.1,4.3c0.4,0.2,0.8,0.5,1.2,0.8c3.9,3.7,7.7,7.6,10.1,12.5c1.6,3.3,3.2,6.6,4.6,10c1.3,3.1,1.9,6.4,1.1,9.8
		c-0.3,1.2-0.3,1.2-2.5,2.9c-0.1-0.9-0.4-1.6-0.4-2.3c0-4.7-0.6-9.2-3.3-13.2c-0.6-0.9-1-2-1.5-3c-1.1-2.5-2.3-4.9-4.6-6.5
		c-1-0.7-1.9-1.7-2.6-2.8c-2.4-3.8-5.8-6.2-9.6-8.4c-1.5-0.8-2.8-1.3-4.5-1.4c-1,0-1.9-0.1-2.9-0.1c-2.8,0.1-5.5-0.1-8.3,1.5
		c-2.5,1.4-5.1,2.3-7.2,4.4c-3.2,3.2-6.4,6.2-9.6,9.3c-0.9,0.9-1.9,1.7-3.1,2.7c0.1,2.6-1.1,4.8-2.8,7.1c-3.3,4.7-5.9,9.7-7.7,15.3
		c-1.8,5.6-3.1,11.3-4.9,16.9c-0.4,1.2-0.4,2.5-0.6,3.8c-0.4,2.5-0.7,5-2.7,7c-0.8,0.9-1.3,2.2-1.6,3.4c-1,4.2-1.9,8.4-2.8,12.6
		c-0.3,1.2-0.7,2.4-1,3.7c-0.1,0.6-0.5,1.4-0.3,1.8c1.4,1.9,0.4,3.7,0.1,5.5c-1.3,6.9-2.7,13.7-4,20.6c-0.6,0.1-1.1,0.1-1.5,0.2
		C717.9,501,718,501.1,718,501.1z"/>
	<path class="st0" d="M612.4,647.8c-0.5-0.8-0.9-1.2-0.9-1.6c0.2-1.3,0.4-2.4-0.7-3.5c-1-1-1-2.7,0.1-3.4c1.5-1,1.2-1.9,0.8-3.2
		c-0.5-1.7,0.3-4-2-5c0.6-3.5,1.2-6.9-1.2-10.1c0.7-0.6,1.2-1,1.7-1.4c0.3-0.3,0.6-0.7,1.1-1.4c-0.8-0.3-1.5-0.6-2.4-1
		c-0.5-1.6-0.9-3.4,1-4.8c-0.7-1-1.3-1.7-2-2.6c0.2-0.4,0.3-0.8,0.6-1.2c1.1-1.4,2.1-2.8,0.9-4.7c-0.3-0.5-0.3-1.3,0-1.8
		c0.9-1.8,0.4-3.7,0.4-5.5c0.5-0.1,0.9-0.2,1.6-0.3c-1-2.4-1-4.8-0.4-7.3c0.4-1.5,0.3-3.2,0.7-4.7c0.2-0.8,1-1.6,1.1-2.4
		c0.1-0.9-0.4-1.9-0.6-2.8c0-0.2-0.1-0.3,0-0.5c1.3-2.7,0.7-5.6,1.4-8.3c0.4-1.6,0.6-3.1,0.8-4.7c0.5-4.2,1.1-8.4,3.1-12.3
		c0.8-1.7,1.2-3.7,1.3-5.5c0.2-2.3,0.8-4.2,1.8-6.3c1.4-2.8,2.1-5.9,3.1-8.9c0.2-0.8,0.2-1.7,0.7-2.3c2.2-2.6,2.7-6.1,4.7-8.8
		c0.4-0.5,0.8-1.1,0.8-1.7c0.1-3.1,2.1-5.4,3.8-7.5c2.1-2.6,2.8-6.2,5.8-8.1c0.4-0.3,0.4-1.1,0.7-1.7c0.4-0.9,0.5-2,1.2-2.5
		c1.1-0.9,1.2-2.2,1.9-3.1c2.6-3.6,4.4-7.7,7.7-10.9c3.4-3.3,7.6-3.7,11.9-4c0.9-0.1,1.8,0.5,2.7,1c2.3,1.3,4,3.2,5.4,5.3
		c1.2,1.8,1,3.1-0.7,5.1c-1-1.4-2-2.8-3-4.2c-2.9-4.1-6.4-4.8-10.7-2.1c-0.5,0.3-1.1,0.7-1.6,1.1c-5.9,4.8-9.9,10.9-13.1,17.9
		c-2.6,5.6-6,10.9-9,16.3c-0.3,0.5-1,1.1-1,1.6c0.5,4.5-2.5,7.7-4.1,11.5c-0.2,0.6-0.5,1.2-0.7,1.8c-0.9,2.7-1.8,5.4-2.8,8.1
		c-1.3,3.5-1.8,7.4-2.7,11.1c-0.3,1.2-0.2,2.9-1,3.6c-2.7,2.6-2.6,6.1-3.4,9.2c-0.6,2.3-1.4,4.8-1,7c0.9,5.3-2,9.8-2.4,14.9
		c-0.3,3.9-0.9,7.8-0.7,11.8c0.2,3.8-0.1,7.6-0.1,11.4c0,1.2,0.1,2.5,0.4,3.7c0.8,2.5,0.9,5,0.4,7.6c-0.8,3.8-0.8,7.6-0.3,11.4
		c0.1,0.6,0.4,1.4,0.2,1.9c-0.9,2.3-0.6,4.7-0.4,7C613.1,646.3,612.7,646.8,612.4,647.8z"/>
	<path class="st0" d="M514.2,569.6c-0.1,0.9-0.5,2.1-0.1,2.8c0.9,1.3,1.1,2.6,0.9,4.1c-0.2,1.3,1.2,2.7-0.1,4
		c-0.1,0.1,0.2,0.7,0.3,1.1c0.6,1.8,1.5,3.6,1.6,5.4c0.1,2.2,1.3,4.3,0.6,6.6c-0.1,0.5,0.4,1.1,0.6,1.7c0.3,0.9,0.9,1.8,0.8,2.7
		c-0.1,1.6,0.6,3.1,0.8,4.6c0.6,4.8,3.3,9,3.6,13.8c0.1,0.8,0.5,1.5,0.5,2.2c0,2.3,0.9,4.3,1.8,6.4c0.7,1.6,1.8,3,1.1,5
		c-0.2,0.5,0,1.3,0.3,1.9c2.5,5.9,2.9,12.3,3.5,18.6c0.1,0.5,0,1.1,0.2,1.4c1.7,2.3,0.8,5.2,2,7.6c-0.5,3.1,2.1,5.7,1.4,8.8
		c-0.1,0.3,0.1,0.7,0.3,0.9c1.6,1.4,0.8,3.7,1.7,5.2c1,1.6,0.8,3.3,1.2,5c0.7,2.9,1.5,5.9,2.2,8.8c0.2,0.6,0.4,1.2,0.4,1.9
		c0.2,5.1,0.5,10.2,0.6,15.3c0,1.2-0.4,2.5-0.8,3.7c-0.1,0.4-0.9,0.6-1.7,1.1c-0.8-2.1-1-4-1-5.9c0.1-4.5-0.7-8.9-1.4-13.3
		c-0.6-3.5-1.4-6.9-1.5-10.4c-0.1-3.9-1.5-7.5-2.8-11.1c-2.1-5.7-3.7-11.5-4.1-17.6c-0.1-1.3-0.1-2.5-1.3-3.4
		c-0.9-0.8-1-1.9-1.1-3.1c-0.5-8.3-3.2-16.2-5.4-24.2c-0.2-0.9-0.9-1.7-1.3-2.6c-0.3-0.9-0.8-2-0.5-2.8c0.9-2.8,0.1-5.4-0.6-7.9
		c-0.9-3.2-1.2-6.5-2.8-9.5c-0.3-0.5-0.3-1.2-0.4-1.8c-0.3-2.5-0.6-5.1-0.7-7.6c-0.3-4.8-1.3-9.4-2.3-14.1
		c-0.8-3.4-1.3-6.8-0.9-10.3c0.1-1-0.3-2.2-0.6-3.2c-0.7-2.3-1-4.6-0.4-7.1c0.8-3.3,0.9-6.6,0.6-10c-0.1-1.1-0.3-2.3,0.1-3.3
		c0.6-1.6,0.8-3,0.3-4.6c-0.2-0.7,0.4-1.7,0.7-3.1c0.5,0.9,1,1.3,0.9,1.6c-0.2,1.1-0.4,2.2,0.6,3.1c1.1,0.9,1,2.2,0.2,3
		c-2.2,2.5-1.4,5-0.1,7.3c0.6,1.1,0.9,2.1,0.6,3.1c-0.8,2.3-0.2,4.3,0.9,6.3c0.1,0.2,0,0.6,0,0.9c-0.8,0.6-1.6,1.3-2.9,2.4
		c1.4,0.3,2.1,0.4,2.8,0.6c0.8,0.7,0.7,1.7-0.1,4.5c0.5,0.7,1.1,1.4,1.7,2.3c-0.4,0.5-0.8,0.9-1.3,1.4c-0.1-1.2-0.8-1.8-2.2-1.9
		C512.2,569.2,513,569.7,514.2,569.6z"/>
	<path class="st0" d="M912.3,732.6c-0.3,1.7-1.3,2.8-2.5,3.9c-2.3,2.2-4.7,4.3-7,6.4c-1.3,1.2-2.7,2.3-3.9,3.5c-1,1-2.3,1.6-2.8,3.2
		c-0.2,0.8-1.2,1.4-2,2c-3.5,2.9-6.5,6.1-8.8,10c-1,1.6-2,3.4-3.3,4.7c-4.6,4.5-6.8,10.3-9.2,16c-1.6,3.8-3.1,7.7-4.5,11.6
		c-1.3,3.8-2.7,7.6-3.4,11.4c-1,5.2-1.5,10.4-2.1,15.6c-0.4,3.6-0.6,7.3-1.3,10.9c-0.5,2.8-1.5,5.5-2.4,8.2
		c-1.2,3.2-2.6,6.3-2.5,9.9c0.1,3-1.7,5.6-2.7,8.6c-1.3-1.3-0.9-2.3-0.6-3.1c0.8-1.9,1.6-3.8,2.4-5.7c0.3-0.7,0.5-1.7,0.3-2.3
		c-1.8-3.9,0.9-7.1,1.3-10.6c0-0.3,0.3-0.7,0.5-0.8c2.9-1.4,2.4-4.1,2.7-6.6c0.2-2.5,0.6-5,0.8-7.6c0.2-2.8,0.8-5.7-0.2-8.5
		c-0.5-1.3-0.3-2.5,0-3.7c1.2-4.6,1.7-9.4,3.5-13.9c0.4-0.8,0.5-1.9,0.3-2.8c-0.4-3.2,1.4-5.8,2.1-8.8c0.1-0.4,0.5-1.1,0.8-1.1
		c3-0.5,3.6-3.3,5.3-5.1c0.1-0.1,0.1-0.3,0.2-0.4c0.1-1.6-1.5-1.3-2.3-1.9c1.4-2.5,2.8-5,4.3-7.4c0.6-0.9,1.3-2,2.2-2.5
		c2.8-1.5,3.8-3.8,4-6.8c0.1-1.8,1.3-3.1,3-3.7c0.7,1.2,0.1,2-0.2,2.8c-0.3,0.8-0.6,1.7-1,3c2.4-1.9,2.4-1.9,5-9.5
		c2.5-0.5,4-2.3,5.4-4.6c1.6-2.8,3.5-5.3,6.8-6.4c0.8-0.3,1.3-1.6,2.1-1.8c1.9-0.5,2.4-2.5,3.9-3.4c1.4-0.9,2.5-2.3,3.6-3.3
		c0.9,0.3,1.8,0.5,2.6,0.8C912.4,732.7,912.3,732.6,912.3,732.6z"/>
	<path class="st0" d="M822.9,959.4c-0.8-3.9-1.5-7.8-2.3-11.6c-0.3-1.5-0.8-3.1-1.3-4.5c-0.5-1.3-1.2-2.6-1-4.1
		c0.3-2.1-1.3-3.8-1.4-5.9c-0.1-2.1,0.9-4.1,0.3-6.1c-0.5-1.6-0.1-3.1,0.1-4.7c0.3-1.9,0.4-3.7,0.1-5.6c-0.5-3.6-0.3-7.3,0.2-10.9
		c0.1-0.6,0.3-1.3,0.7-1.7c0.4-0.3,1.2-0.4,1.7-0.4c0.3,0,0.9,0.6,0.9,1c-0.3,3.3,1.3,6.5,0.1,9.8c-0.4,1.3-0.2,2.8-0.1,4.2
		c0.1,2.2,0.2,4.4,0.4,6.7c0.2,2.3,0.5,4.7,0.8,7c0.3,2.4,0.3,4.8,1.4,7c0.2,0.4,0.5,1,0.3,1.3c-1.5,2.3-0.1,4.3,0.7,6.3
		c0.4,1,0.6,2.1,0.6,3.2c-0.1,4.2,1.4,8.1,2.5,12c0.1,0.5,0.5,0.9,0.6,1.3c0.2,3.1,0.3,6.2,0.5,9.3c-1.6,0-1.7-1.4-2.2-2.2
		c-0.5-0.9,1.2-2.4-0.1-3c-1.6-0.8-0.9-2.2-1.5-3.2c-0.6-0.9-1.2-1.7-1.7-2.6c-0.6-0.9-0.6-1.8,0-2.7c0.2-0.1,0.4-0.3,0.6-0.4
		C823.3,959,823.1,959.2,822.9,959.4z"/>
	<path class="st0" d="M669.9,924.7c-0.8,0.9-1.2,1.8-1.6,1.7c-1.8-0.3-3.4,0.5-5.1,0.8c-1,0.2-2.2,0-3.2-0.3
		c-2.7-0.8-5.4-1.8-8.3-2.1c-1.3-0.1-2.7-0.9-3.9-1.6c-2-1.3-3.9-2.7-5.7-4.3c-1.3-1.2-2.5-2.4-4.1-3.2c-1.6-0.8-2.8-2-3.5-4
		c0.5-0.7,1-1.4,1.4-2.1c4.2,3,8.2,5.7,12.1,8.6c1.9,1.4,4.5,1.5,6.1,3.5c2.6-0.5,4.6,1.7,7.3,1.2
		C664.1,922.6,666.8,923.4,669.9,924.7z"/>
	<path class="st0" d="M713.2,529.5c0.4-2.1-0.2-4.3,1.3-6.1c0.7-0.9,0.2-2.1-0.8-2.9c-0.9-0.8-0.5-1.7,0.3-2.6
		c1.7,0.9,1.5,3.9,4.1,3.2c0,0.9,0.1,1.4,0,1.8c-1.1,3.1-0.9,6.2-0.1,9.4c0.6,2.4,0.7,4.7,0.3,7.1c-1,6.5-2.1,12.9-1.6,19.5
		c0.1,0.9-0.3,1.9-0.6,2.8c-0.4,1.3-0.5,2.5,0.2,3.7c0.9,1.5,0.7,3-0.1,4.8c-0.4-0.5-0.8-0.8-0.8-1.1c0.2-1.6,0-3-0.9-4.5
		c-1.1-1.8-1.6-3.9,0.7-5.4c0.3-0.2,0.6-1,0.5-1.2c-1.1-2.3,0.1-4.8-0.8-7c-1-2.5-0.8-4.9-0.3-7.4c0.4-2,0.8-3.9-0.5-6
		c-0.8-1.4-1.5-3.7,1.2-4.8c0.3-0.1,0.5-1.6,0.1-2.2C715.2,529.9,714.2,529.9,713.2,529.5z"/>
	<path class="st0" d="M485.3,628.2c1.5,1.3,1.6,3,1.6,4.8c-0.1,1.8,0.4,3.4,1.1,5.1c1.5,3.4,2.1,7,2,10.7c0,4,0.6,7.9,1.5,11.8
		c0.3,1.4,0.7,2.8,0.6,4.2c-0.1,2.1-0.2,4.1,0.9,6c0.4,0.7,0.1,1.5-1.1,3.2c-0.2-1.6-0.2-2.8-0.6-3.9c-0.3-1-1.3-1.8-1.7-2.8
		c-0.6-1.5-0.3-2.3,1.2-4c-0.5-1.9-0.9-3.7-1.4-5.5c-0.1-0.5-0.2-1.1-0.5-1.3c-2.3-1.9-1.8-4.6-1.9-7c-0.1-1.6-0.2-3-1.5-4.3
		c-0.7-0.7-0.8-2-1.2-3c1.2-1,2.3-1.9,1.7-3.8c-0.6,0-1.4,0-2.1,0c-0.2-0.2-0.6-0.4-0.6-0.7c-0.1-1.7-1.3-3.3-0.2-5.1
		c0.4-0.7-0.3-1.3-1-1.9c-1.5-1.3-1.4-1.4,0.2-3.3c0,0-0.1,0-0.1,0c0.1,1.5,1.2,2.1,2.4,2.7C484.9,629.3,485.1,628.8,485.3,628.2
		L485.3,628.2z"/>
	<path class="st0" d="M717.9,501c0.4,0.7,1.1,1.4,1,2c0,3.9-0.2,7.9-0.4,11.8c-0.1,1.4-0.5,2.8-0.9,4.8c-1.6-2-3.5-3.1-2-5.6
		c0.2-0.4-0.3-1.2-0.4-1.8c-0.3-1.4-0.3-2.7,0.2-4.1c0.7-1.9,0.7-4,1-6.1c0.3-0.2,1-0.5,1.6-0.9C718,501.1,717.9,501,717.9,501z"/>
	<path class="st0" d="M697.3,422.7c0.6-2.3,3.3-2.4,4.5-3.9c1.1-1.4,1.5-3.4,3.6-4c0.1,0,0.2,0.1,0.4,0.1c0.1,0.1,0.2,0.3,0.2,0.4
		c0,1.6-1.9,1.6-2.4,2.7c-0.4,1-0.5,2.1-1,3c-0.5,0.8-1.3,1.7-2.7,1.2c-0.8-0.2-1.7,0.2-2.6,0.4L697.3,422.7z"/>
	<path class="st0" d="M622.2,935.7c-0.1,1.4,1.5,3.3-1.1,4.4C620.3,938.3,622,937.1,622.2,935.7z"/>
	<path class="st0" d="M759.6,591.3c0.1-1.3,0.2-2.6,0.3-4c1.3,0.6,1.4,1.9,1.6,2.9C761.7,591,760.9,591.6,759.6,591.3z"/>
	<path class="st0" d="M847.3,870.3c0.2,0.4,0.5,0.8,0.6,1.3c0.4,1.8-0.1,2.1-2.4,1.6c0.1-1.3,0.5-2.4,1.9-2.8L847.3,870.3z"/>
	<path class="st0" d="M377.4,518.2c-0.9-1.7-1.4-3.5-0.2-5.3C378.3,513.9,378.3,513.9,377.4,518.2
		C377.4,518.3,377.4,518.2,377.4,518.2z"/>
	<path class="st0" d="M906,177c1,0.5,1.7,0.9,2.5,1.3c-0.4,0.9-0.6,1.6-1.2,3C906.7,179.5,906.4,178.5,906,177z"/>
	<path class="st0" d="M492.4,679.1c0.3,0.1,0.6,0.2,0.8,0.4c0.3,0.3,0.4,0.7,0.6,1.1c-0.4,0.1-1,0.3-1.3,0.2
		c-0.3-0.1-0.2-0.8-0.3-1.2C492.2,679.4,492.4,679.3,492.4,679.1z"/>
	<path class="st0" d="M442.3,648c-0.4,0-1.2,0.1-1.2,0c-0.4-1.7-0.6-3.4,0.7-4.9c0,0-0.1,0-0.1,0C441.9,644.7,442.1,646.4,442.3,648
		L442.3,648z"/>
	<path class="st0" d="M697.2,422.6c0.8,2.5-1,3.2-2.7,4c0,0,0.1,0.1,0.1,0.1c0.1-1.9,1.5-2.9,2.7-4
		C697.3,422.7,697.2,422.6,697.2,422.6z"/>
	<path class="st0" d="M248.7,419c0.7,0.2,1.3,0.4,2,0.6c0.2,0.1,0.3,0.6,0.2,0.7c-0.1,0.2-0.5,0.5-0.7,0.4c-0.7-0.3-1.3-0.6-1.9-1
		C248.5,419.5,248.6,419.2,248.7,419z"/>
	<path class="st0" d="M443.5,656.8c-1,0.1-1.5,0.2-2,0.3c0-0.9,0-1.6,0-2.7C442.1,655.2,442.6,655.8,443.5,656.8z"/>
	<path class="st0" d="M252.8,196.2c0.4,0.4,0.9,0.7,1.3,1.1c0.1,0,0,0.4-0.1,0.4c-0.5,0-1.1,0.2-1.6,0c-0.2-0.1-0.3-0.7-0.3-1.1
		C252.1,196.5,252.6,196.3,252.8,196.2z"/>
	<path class="st0" d="M716,575c0.4,0.5,0.7,0.7,0.8,0.9c0.2,0.5,1.3,0.5,0.7,1.3c-0.1,0.2-0.7,0.4-0.8,0.3c-0.4-0.4-0.7-0.8-0.9-1.3
		C715.8,576,715.9,575.7,716,575z"/>
	<path class="st0" d="M1179.1,427c0.4-1.6,0.5-2.2,0.7-2.6c0.2-0.2,0.7-0.2,1.1-0.3c0,0.4,0.2,0.9,0,1.2
		C1180.8,425.6,1180.3,425.9,1179.1,427z"/>
	<path class="st0" d="M1162.8,979.1c0.6-1.1,1.5-0.8,2.4-0.4c0.2,0.1,0.3,0.5,0.3,0.8c0,0.1-0.2,0.3-0.3,0.3
		C1164.2,980.1,1163.4,979.9,1162.8,979.1z"/>
	<path class="st0" d="M459,145.7c-0.5,0.3-0.9,0.6-1,0.6c-0.4-0.3-0.8-0.8-1.2-1.2c0.3-0.2,0.6-0.5,0.8-0.4
		C458,144.9,458.5,145.3,459,145.7z"/>
	<path class="st0" d="M675.4,146.3c-0.3,0.5-0.5,0.8-0.7,1.2c-0.4-0.4-0.8-0.8-1.2-1.2c0.3-0.3,0.6-0.8,0.9-0.8
		C674.6,145.6,675,146,675.4,146.3z"/>
	<path class="st0" d="M1050.5,296.8c-0.1-0.7-0.4-1.1-0.3-1.5c0.1-0.4,0.7-0.9,0.9-0.9c0.8,0.1,0.7,0.8,0.4,1.4
		C1051.4,296.2,1051,296.4,1050.5,296.8z"/>
	<path class="st0" d="M610.5,651.4c0.2,0.2,0.6,0.3,0.7,0.5c0.2,0.3,0.2,0.7,0.3,1.1c-0.3,0-0.7,0.1-0.8,0c-0.2-0.3-0.3-0.8-0.4-1.2
		C610.3,651.6,610.5,651.5,610.5,651.4z"/>
	<path class="st0" d="M1016.5,1095c-0.6-0.3-1-0.5-1.4-0.7c0.3-0.3,0.5-0.9,0.9-0.9c0.3-0.1,0.7,0.3,1.1,0.5
		C1016.9,1094.3,1016.7,1094.6,1016.5,1095z"/>
	<path class="st0" d="M1242.7,600.2c0.4,0.4,0.7,0.6,0.7,0.9c0.2,0.7-0.8,1.4-1.6,1.1c-0.2-0.1-0.4-0.6-0.3-0.7
		C1241.8,601,1242.3,600.7,1242.7,600.2z"/>
	<path class="st0" d="M1168.8,978.3c0.2-0.2,0.3-0.5,0.5-0.7c0.1,0.2,0.3,0.5,0.3,0.7c0,0.1-0.1,0.3-0.2,0.4
		C1169.2,978.6,1169,978.4,1168.8,978.3z"/>
	<path class="st0" d="M1214.5,819.5c0.8-0.1,1.5-0.3,2.2-0.3c0.1,0,0.3,0.4,0.4,0.6c0,0.1-0.2,0.3-0.3,0.3
		C1216,820.5,1215.3,820.7,1214.5,819.5z"/>
	<path class="st0" d="M88.3,824.7c-0.2-0.4-0.5-0.8-0.4-0.9c0.3-0.3,0.7-0.5,1-0.7c0.1,0.2,0.5,0.6,0.4,0.7
		C89,824.1,88.7,824.4,88.3,824.7z"/>
	<path class="st0" d="M761.3,596.8c0.1,0.5,0.1,0.8,0.1,1.2c0,0.1-0.6,0.2-0.6,0.2c-0.2-0.2-0.3-0.5-0.3-0.8
		C760.6,597.1,760.9,597,761.3,596.8z"/>
	<path class="st0" d="M176.7,1082.7c0.2,0.6,0.5,1,0.4,1.3c-0.1,0.3-0.5,0.4-0.8,0.7c-0.1-0.3-0.4-0.5-0.4-0.7
		C176.1,1083.6,176.4,1083.3,176.7,1082.7z"/>
	<path class="st0" d="M1220.7,818.5c-0.3,0-0.4,0-0.5,0c0.1-0.4,0.2-0.7,0.4-1.1c0,0,0.2,0,0.4,0
		C1220.9,817.8,1220.8,818.2,1220.7,818.5z"/>
	<path class="st0" d="M1052,290.7c0,0.1,0,0.2,0,0.3c-0.3-0.1-0.5-0.2-0.8-0.3c-0.1,0,0-0.2,0-0.3
		C1051.5,290.5,1051.8,290.6,1052,290.7z"/>
	<path class="st0" d="M513.4,529.1c-0.3,0.4-0.4,0.6-0.6,0.9c-0.2-0.3-0.5-0.7-0.7-1c0,0,0.2-0.3,0.3-0.3
		C512.7,528.7,513,528.9,513.4,529.1z"/>
	<path class="st0" d="M421.6,940.6c-0.3,0.1-0.6,0.3-0.7,0.2c-0.2-0.1-0.4-0.6-0.3-0.7c0.1-0.2,0.5-0.2,0.8-0.3
		C421.4,940,421.5,940.3,421.6,940.6z"/>
	<path class="st0" d="M93.6,966.3c0.3,0.3,0.7,0.4,0.8,0.6c0.2,0.5-0.7,1.3-1.1,1.1c-0.2-0.1-0.5-0.6-0.4-0.7
		C93,966.9,93.4,966.6,93.6,966.3z"/>
	<path class="st0" d="M58.5,673.5c-0.4-0.2-0.7-0.2-0.9-0.4c-0.3-0.4,0.3-1.1,0.9-1.1c0.2,0,0.6,0.4,0.6,0.5
		C58.9,672.9,58.7,673.2,58.5,673.5z"/>
	<path class="st0" d="M843,881.6c-0.3-0.3-0.6-0.5-0.6-0.6c0.2-0.3,0.4-0.6,0.7-1c0.2,0.2,0.6,0.4,0.5,0.5
		C843.5,880.9,843.2,881.2,843,881.6z"/>
	<path class="st0" d="M843.8,1135.3c0.5,0.1,1,0.3,1.4,0.4c-0.1,0.3-0.2,0.5-0.3,0.8c-0.5-0.2-0.9-0.5-1.4-0.7
		C843.7,1135.6,843.8,1135.5,843.8,1135.3z"/>
	<path class="st0" d="M442.3,648.1c0,0.3,0.1,0.6,0.1,0.9c0,0.1,0.1,0.3,0.2,0.4c-0.1-0.2-0.2-0.3-0.2-0.5
		C442.3,648.6,442.3,648.3,442.3,648.1C442.3,648,442.3,648.1,442.3,648.1z"/>
	<path class="st0" d="M710.6,413c-0.1-0.3-0.3-0.6-0.2-0.8c0.2-0.2,0.5-0.3,0.8-0.5c0.1,0.3,0.3,0.6,0.2,0.8
		C711.2,412.8,710.8,412.9,710.6,413z"/>
	<path class="st0" d="M671.8,142.9c0.2-0.1,0.3-0.2,0.4-0.1c0.1,0.1,0.2,0.3,0.3,0.4c-0.1,0-0.3,0-0.4,0
		C671.9,143.1,671.9,143,671.8,142.9z"/>
	<path class="st0" d="M542.1,1163.9c-0.2,0.2-0.3,0.4-0.5,0.6c-0.2-0.3-0.5-0.6-0.7-0.9c0.2-0.1,0.5-0.4,0.7-0.3
		C541.9,1163.3,542,1163.7,542.1,1163.9z"/>
	<path class="st0" d="M527.1,488.9c-0.1-0.2-0.3-0.3-0.4-0.5c0.3,0,0.5-0.1,0.8-0.1c0.1,0,0.2,0.2,0.3,0.2
		C527.5,488.7,527.3,488.8,527.1,488.9z"/>
	<path class="st0" d="M419.7,933.7c0.4,0.2,0.6,0.3,0.9,0.4c-0.3,0.3-0.5,0.7-0.8,1c-0.1,0.1-0.4-0.2-0.7-0.3
		C419.3,934.4,419.5,934,419.7,933.7z"/>
	<path class="st0" d="M81.9,535.3c0.3,0.3,0.5,0.5,0.6,0.7c-0.3,0.3-0.7,0.5-1,0.8c-0.1-0.1-0.3-0.3-0.3-0.4
		C81.4,536,81.6,535.7,81.9,535.3z"/>
	<path class="st0" d="M847.4,870.3c0-0.8,0-1.5,0.1-2.7c1.1,1.3,0.7,2-0.2,2.6C847.3,870.3,847.4,870.3,847.4,870.3z"/>
	<path class="st0" d="M1117,963.7c0.1-0.1,0.3-0.1,0.4-0.2c0.1,0.2,0.1,0.4,0.2,0.6c-0.1,0-0.3,0-0.4-0.1
		C1117,963.9,1117,963.8,1117,963.7z"/>
	<path class="st0" d="M443.6,661.2c0,0.1,0,0.3-0.1,0.4c-0.1,0.1-0.2,0.1-0.4,0.1c0-0.2,0.1-0.4,0.1-0.6
		C443.4,661.1,443.5,661.2,443.6,661.2z"/>
	<path class="st0" d="M418.8,931.9c-0.1,0-0.3,0.1-0.3,0.1c-0.1-0.1-0.1-0.3-0.2-0.4c0.2,0,0.3-0.1,0.5-0.1
		C418.8,931.6,418.8,931.7,418.8,931.9z"/>
	<path class="st0" d="M402.5,848.1c1.3-0.5-0.1-1.4,0.3-2c0,0-0.1,0-0.1,0c0,0.7,0,1.4,0,2.1L402.5,848.1z"/>
	<polygon class="st0" points="1263,597.2 1262.6,597 1263,596.9 	"/>
	<path class="st0" d="M620.5,946.3c-0.2,0.2-0.3,0.3-0.5,0.5c-0.1-0.2-0.2-0.5-0.3-0.7c0-0.1,0.2-0.2,0.3-0.3
		C620.2,945.9,620.3,946.1,620.5,946.3z"/>
	<polygon class="st0" points="1143.7,973.2 1143.9,973.1 1143.9,973.4 	"/>
	<path class="st0" d="M1217.3,817.8c-0.1,0-0.2-0.1-0.3-0.1c0.1-0.1,0.3-0.1,0.4-0.2C1217.4,817.6,1217.4,817.7,1217.3,817.8z"/>
	<path class="st0" d="M1196.2,815.9c-0.1,0.2-0.2,0.4-0.3,0.6c0.1,0,0.3,0,0.4,0c-0.1-0.2-0.1-0.5-0.2-0.7
		C1196.1,815.8,1196.2,815.9,1196.2,815.9z"/>
	<path class="st0" d="M179.7,366.8c0.1,0.3,0.2,0.5,0.2,0.8c0,0.1-0.3,0.2-0.5,0.3c0-0.1-0.1-0.3-0.1-0.4c0.1-0.2,0.3-0.4,0.5-0.6
		C179.8,366.9,179.7,366.8,179.7,366.8z"/>
	<path class="st0" d="M1021,1092.5c-0.4,0.6-0.5,0.7-0.6,0.8c-0.1-0.1-0.1-0.3-0.1-0.4C1020.3,1092.9,1020.4,1092.8,1021,1092.5z"/>
	<polygon class="st0" points="249,195.6 249.1,195.9 248.7,195.8 	"/>
	<path class="st0" d="M674.8,164.1c0.1-0.2,0.1-0.4,0.2-0.6c-0.2,0.1-0.4,0.1-0.6,0.2c0.2,0.1,0.4,0.2,0.6,0.4
		C675,164.1,674.8,164.1,674.8,164.1z"/>
	<path class="st0" d="M628.8,809c0,0.2,0,0.5,0,0.7c0,0,0.1,0,0.2,0C628.9,809.5,628.8,809.3,628.8,809
		C628.7,809,628.8,809,628.8,809z"/>
	<polygon class="st0" points="612.5,656.5 612.2,656.7 612.2,656.3 	"/>
	<path class="st0" d="M461.5,155.7c0,0.2,0,0.5,0,0.7c-0.1-0.1-0.2-0.3-0.2-0.4C461.4,155.9,461.5,155.8,461.5,155.7
		C461.6,155.6,461.5,155.7,461.5,155.7z"/>
	<path class="st0" d="M357.1,1146.1c0.1,0.2,0.4,0.5,0.4,0.7c0,0.2-0.3,0.4-0.4,0.6c-0.1-0.2-0.4-0.4-0.4-0.6
		C356.6,1146.5,356.9,1146.3,357.1,1146.1z"/>
	<path class="st0" d="M454.9,145.6c0,0.1,0.1,0.2,0.1,0.3c-0.2-0.1-0.3-0.1-0.5-0.2C454.7,145.7,454.8,145.7,454.9,145.6z"/>
	<path class="st0" d="M679.8,1158.8c0.2-0.2,0.4-0.4,0.5-0.4c0.2,0,0.4,0.3,0.5,0.4c0,0-0.2,0.3-0.2,0.3
		C680.3,1159.1,680.1,1159,679.8,1158.8z"/>
	<path class="st0" d="M454.9,142.9c0,0.1,0,0.2,0,0.3c-0.1,0.1-0.3,0.1-0.4,0.1c0-0.2,0-0.3,0.1-0.5
		C454.7,142.8,454.8,142.8,454.9,142.9z"/>
</g>
</svg>
