<?xml version="1.0" encoding="utf-8"?>
<!-- Generator: Adobe Illustrator 27.3.0, SVG Export Plug-In . SVG Version: 6.00 Build 0)  -->
<svg version="1.1" id="Layer_1" xmlns="http://www.w3.org/2000/svg" xmlns:xlink="http://www.w3.org/1999/xlink" x="0px" y="0px"
	 viewBox="0 0 1300 1300" style="enable-background:new 0 0 1300 1300;" xml:space="preserve">
<style type="text/css">
	.st0{fill:#02021D;}
</style>
<g>
	<path class="st0" d="M371.6,708.9c-0.4-0.1-1.1-0.1-1.3-0.4c-0.6-1.1-1-2.3-1.6-3.7c-0.7-0.1-1.4-0.2-2.2-0.2c-2,0-3.3-1-4-2.8
		c-0.4-0.9-0.8-1.2-1.7-1.3c-0.6,0-1.3-0.2-1.8-0.5c-2.6-2.1-3-2.5-5.8-3.1c-2.1-0.5-3.9-1.4-4.9-3.4c-0.8-1.5-2-2.5-3.7-2.7
		c-0.2,0-0.3-0.1-0.5-0.1c-0.6-0.3-1.4-0.4-1.6-0.9c-1.5-2.7-4.8-3.3-6.5-5.6c-0.8-1-0.7-2.7-1-4.2c-0.6-0.2-1.2-0.5-1.8-0.6
		c-2.3-0.5-4-2-4.9-4c-0.6-1.3-0.9-2.3-2.5-2.1c-0.2,0-0.6-0.4-0.6-0.6c0.2-1.7-1.1-2-2.1-2.7c-2.7-2-5.2-4.2-7.8-6.4
		c-0.6-0.5-1.4-1.2-1.4-1.9c-0.2-3.6-1.9-7.2-1.1-10.9c0.2-1.2,1.2-2.2,1.8-3.3c-7.2-10.8-12.5-22.7-14.3-35.8
		c-0.7-5.4-1.2-10.8-1.6-16.2c-0.1-1.6,0.1-3.2,0.5-4.7c2-7.8,3.2-15.9,6.8-23.2c0.6-4.6,3.7-7.7,6.8-10.7c2-1.9,3.8-3.9,4.7-6.6
		c3.7-3.9,4.7-8.9,6-13.9c0.2-0.7,0.3-1.5,0.2-2.3c-0.4-1.9,0.1-3.8,0.4-5.7c1.1-6,3.9-11.4,6.1-17c0.6-1.4,1.8-2.6,2.8-3.7
		c1.2-1.4,3-2.3,3.7-4.3c0.2-0.6,1.1-1.1,1.8-1.5c5.6-2.8,9.7-3.5,16.2-3.1c6.6,0.4,12.4,2.8,17.4,7.1c3.2,2.7,6.4,5.3,9.6,8
		c2,1.7,3.5,3.7,4.4,6.2c0.4,1.2,0.8,2.4,1.3,3.9c0.9-0.2,1.6-0.3,2.3-0.4c3.8-1,7-0.1,9.3,3.1c2.2,3,4.5,5.8,5,9.7
		c0.1,0.7,0.7,1.4,1,2.1c0.4,1,1,2,1.3,3.1c0.4,1.9,0.7,3.8,2.3,5.1c0.2,0.2,0.4,0.5,0.5,0.8c1.2,3.5,2.4,6.9,3.5,10.4
		c0.3,0.9,0.5,1.9,0.4,2.8c-0.6,6.5-0.9,13-3.3,19.3c-1.7,4.6-2.9,9.4-5.3,13.8c-1.5,2.6-2.5,5.5-3.6,8.3c-0.9,2.4-2.3,4.1-4.5,5.4
		c-2.8,1.6-5.5,3.3-8.5,5.1c0.4,1.8,1.6,3.8,0.1,5.5c0.6,1.2,1.2,2.1,1.6,3.1c1.3,3.4,3.5,6.1,6.3,8.4c2.1,1.7,4.1,3.6,6.4,5.1
		c2.2,1.5,4.6,2.8,7,4c1.9,1,4.4,0.8,5.9,2.8c0.2,0.3,0.9,0.2,1.3,0.3c1.3,0,2.5,0.1,3.8,0c4.8-0.2,9.6-0.3,14-2.4
		c0.4-0.2,0.9-0.4,1.4-0.4c5.6-0.2,10.8-2.4,16.3-3.5c2.3-0.5,4.4-1.8,6.5-2.8c3.4-1.7,6.6-3.8,10.4-4.7c0.8-0.2,1.5-0.6,2.2-0.9
		c3.4-1.7,6.3-4.3,9.5-6.3c3-1.9,5.3-5,7.8-7.5c0.2-0.2,0.4-0.5,0.6-0.8c2.2-5.7,6.3-10.3,9-15.8c0.6-1.3,1.1-2.7,1.4-4.1
		c0.4-1.9,0.6-3.8,2.5-5c0.4-0.2,0.5-1.2,0.4-1.7c-0.4-1.4,0.3-2.4,0.8-3.6c0.6-1.3,1.7-1.2,2.9-1.6c-0.3-3.8-1.7-8,2.5-10.6
		c0.3-5.1,1-9.9,2.9-14.4c0.5-1.2,1-2.4,0-3.8c0.7-0.8,1.4-1.7,2.2-2.4c0.7-0.6,1.6-1,2.5-1.5c0.2-2.5,0.3-5,2.5-6.9
		c0.6-0.5,0.5-1.8,0.6-2.7c0.2-1.6,0.5-3.1,1.8-4.3c1.2-1.1,2.2-4.5,2.6-6.7c0.1-0.7,0.6-1.4,1-2.1c1.3-2.4,3-4.5,3.5-7.3
		c0.3-1.6,1.3-3,2.8-3.8c1.6-0.9,2.5-2.3,3.6-3.6c0.6-0.8,1.2-1.4,1.1-2.4c-0.2-1.9,0.7-3.4,1.6-4.9c0.8-1.3,1.5-2.7,1.4-4.4
		c-0.2-2.3,1.3-3.8,3.5-4.8c-0.2-3.6,0.8-6.5,5-7.6c0-1.3-0.1-2.5,0-3.8c0.1-1.8,0.5-3.3,2.7-4c1.7-0.5,2.9-1.8,3.1-3.9
		c0.1-1.3,0.7-2.6,2.2-2.9c3-0.5,3.7-2.7,3.9-5.4c2.2-1.1,4.3-2.1,6.4-3.2c0.6-0.3,1.1-0.6,1.6-1c3.6-2.8,7.5-3.9,12-3.1
		c1.1,0.2,2.2,0.1,3.3,0.2c0.2,0,0.4-0.2,0.5-0.1c1.3,0.8,2.5,1.6,4.3,1.1c1.5-0.4,3.2-0.5,4.7-0.3c1.6,0.3,3.1,0.2,4.7-0.1
		c0.7-0.1,1.6,0.1,2.3,0.5c1.8,1,4,0.8,5.6,2.4c0.1,0.1,0.3,0.2,0.4,0.2c3.1-1.1,5.5,1,8.4,2.2c0-1,0.1-1.8-0.1-2.4
		c-2.1-4.5-3.6-9.2-4.3-14.1c-0.1-0.5-0.2-0.9-0.4-1.4c-3.3-6.3-5.1-13.4-8.3-19.8c-1.3-2.5-1.7-5.5-2.4-8.2
		c-0.3-1.1-0.2-2.4-0.8-3.2c-2.3-3.6-2.4-7.9-4.1-11.6c-0.6-1.3-1.1-2.8-1.1-4.1c0-3-0.9-5.7-2.1-8.3c-2.2-5.1-3-10.3-2.5-16.2
		c-1.1,0.5-2,0.7-2.8,1.2c-2.8,2-5.7,3.5-9.3,3c-1-0.1-2.1,0.5-3.1,0.7c-0.8,1.5-0.4,2.7,0.2,3.8c1,1.6,1.9,3.5,3.2,4.7
		c5.1,4.7,9.1,10.1,12.7,16.1c1.1,1.9,0.2,3.8,1.2,5.4c0.9,1.5,2.4,2.6,2.4,4.6c0,3.3,1.1,6.3,2.8,9c1.5,2.4,1.3,4.8,0.3,7.2
		c-1.8,0.2-2.9-0.2-3.3-2c-0.9-3.9-2-7.7-2.9-11.5c-0.7-2.9-1.4-5.9-3.4-8.3c-0.5-0.5-0.5-1.4-0.8-2.1c-0.4-0.9-0.6-1.8-1.1-2.5
		c-1.7-2.5-3.5-4.9-5.2-7.4c-2.1-3.2-4.2-6.3-7.5-8.6c-2.1-1.5-3.8-3.4-5-5.7c-0.5-1-1.3-1.8-2-2.6c-1.9-2-1.9-2-2.6-4.8
		c-1.8,0-3.4,0.4-4.7,1.8c-1.1,1-2.3,1-3.6,0.6c-2.3-0.8-4.4-1.8-6.2-3.5c-1.1-1.1-2.2-2.4-3.6-3.2c-2.2-1.3-4.5-2.2-6.9-3.3
		c-0.5-2.1-1.5-4.1-4.1-4.5c-1.2-0.2-1.8-1.1-2.5-2c-1.1-1.7-2.3-3.5-3.6-5.1c-2.1-2.5-2.1-6-4.2-8.4c0.5-1.8-0.6-3.2-1.2-4.8
		c-0.4-0.8,0.8-2.4,0.4-3.1c-1.1-1.7-1-3.7-1.5-5.5c-0.7-2.3-1.7-4.4-1.2-7c0.1-0.7-0.3-1.6-0.7-2.2c-1.3-2.3-1.2-4.5,0.5-7
		c-1.1-0.4-1.9-1-2.7-1c-3.5-0.2-6.9-1.2-10.2-2.2c-3.3-1-5.6-3-7.1-6c-2.5-5.5-5.2-10.9-5.4-17.1c0-0.6-0.4-1.2-0.6-1.8
		c-0.2-0.4-0.6-0.9-0.6-1.3c0.1-6.3-2.4-12.4-1-18.9c0.8-3.5,0.4-7.3,0.5-11c0.2-3.9,1.3-7.5,3-11.2c-0.9-0.3-1.7-0.5-2.7-0.8
		c-1.3-5.3-1.3-10.6-0.5-16.1c0.8-5.9,2.5-11.5,4-17.3c0.2-0.9,0.4-2.2,1-2.6c2.4-1.6,2.1-4.2,2.6-6.4c0.3-1.6,0.3-3.2,1.6-4.4
		c0.3-0.3,0.5-0.8,0.7-1.3c3.4-8.7,9.8-15.3,15.8-22.1c2.4-2.7,5.5-4.8,8.5-7c7.6-5.8,15.9-10.6,23.8-16c2.6-1.8,5.3-3.6,8.7-3.9
		c0.3,0,0.7-0.1,0.9-0.3c1.6-2.2,4.5-2.2,6.4-3.9c1.9-1.7,4.3-2.4,6.6-2.2c3.5,0.3,6.7-0.6,9.7-2.1c3.6-1.8,7.4-2.3,11.1-2.3
		c6,0,11.7-1.3,17.5-2.2c4.1-0.6,8.2-1.6,12.4-0.7c1.1,0.2,2.3,0.3,3.3,0.1c8.1-1.8,15.9-0.3,23.7,1.5c4.4,1,8.4,2.8,12.3,5.1
		c1.1,0.6,2.3,1.2,3.2,2.1c5.6,5.3,12,9.5,18.4,13.7c4.4,2.9,7.7,6.6,10.3,11.2c2.5,4.5,5,8.9,7.9,13.1c2.2,3.1,5.1,5.7,7.8,8.5
		c1.4,1.4,2.8,3,4.7,4c1.3,0.7,2.3,2.2,3.4,3.3c0.4,0.5,0.7,1.3,1.2,1.4c4.1,0.9,4.2,4.8,5.7,7.5c1.1,2.1,1.3,4.5,2.8,6.5
		c0.9,1.3,1,2.6,0.2,4.4c-0.8,1.8-0.7,4.4-0.1,6.3c0.7,2.1,1,3.9,0.7,6c-0.2,2,0.2,4.1-1,6c-0.4,0.6-0.2,1.5-0.2,2.3
		c0.1,1.1,0.4,2.2,0.5,3.3c0,1.6,0.3,3.2,1.5,4.4c1.3,1.5,1.4,3.2,0.8,4.9c-1.7,5.8-1.6,11.6-0.3,17.5c1.5,6.9,2.5,13.8,3,20.9
		c0.2,3,0.5,6,0.3,9c-0.2,3.5,0.5,7,0.8,10.5c0.2,2.4,0.4,4.8,0.4,7.1c0.1,6.1,0.1,12.2-0.8,18.2c-0.1,0.8-0.3,1.7-0.1,2.4
		c1.2,3.8,0.2,7.6-0.2,11.4c-0.2,1.3-0.3,2.5-0.5,3.8c-0.5,4.4-1.1,8.9-1.5,13.3c-0.4,4.8-0.7,9.6-0.8,14.4c-0.1,2-0.4,3.7-1.4,5.5
		c-0.8,1.5-1.4,3.2-1.8,4.9c-1,4.3-1.1,8.9-2.9,13.1c-0.3,0.7-0.2,1.6,0,2.3c0.5,1.7,0,3.1-1,4.5c-2.5,3.5-5.7,6-9.8,7.4
		c-2.9,0.9-5.8,1.7-8.7,2.6c-1,0.3-2,0.9-3.3,1.4c1,4.2,2,8.3,3,12.5c0.5,2,0.7,4.1,1.3,6.1c0.7,2.1,1.6,4.1,2.7,6.1
		c0.9,1.6,2.1,3,3.3,4.7c1.5-0.6,2.3-2.2,4.1-2.3c1.7-0.1,3.3-1,5-1.3c1.6-0.2,3.1,0.1,4.6,0.8c1.4,0.7,3.1,0.7,4.8,1.1
		c1.2-0.8,2.5-1.7,3.9-2.4c0.8-0.4,2.2-1,2.6-0.6c1.7,1.2,2.9,0.4,4.4-0.2c1.1-0.5,2.5-0.7,3.7-0.4c3.7,0.9,7.5,1.2,11.2,2.6
		c4.3,1.6,8.8,2.6,13.6,2.2c0.9-0.1,1.9,0.3,2.7,0.7c2.2,1,3.9,2.7,5.5,4.6c1.9,2.2,4,4.1,6.9,5c2.1,0.7,3.7,1.9,4.3,4.1
		c0.3,1,1.1,1.4,2.1,1.7c2.7,0.8,4.8,2.4,5.5,5.4c0.1,0.5,0.6,1.3,1.1,1.4c2.3,0.4,2.9,2.4,3.8,3.9c0.4,0.7,0.5,1.5,0.8,2.3
		c0.8,0,1.6,0,2.6,0c1.4,1.6,2.4,3.6,3.1,5.7c1.2,3.4,3.1,6.3,4.9,9.3c4.4,7.4,8.9,14.8,13.3,22.2c0.3,0.5,0.5,1.2,1,1.7
		c3.6,3.8,5.5,8.6,7.4,13.3c1.5,3.9,3.6,7.4,5.4,11.1c0.6,1.3,1.2,2.7,1.2,4.1c0,1.9,1,2.9,2.1,4.1c3.6,3.8,7.2,7.7,10,12.1
		c1.3,2,2.7,3.9,4.3,5.6c1.7,1.8,3.5,3.8,3.9,6.5c0.3,2,1.8,2.9,3.3,3.8c1.1,0.6,2.4,1,3.5,1.6c0.6,0.4,1.5,1.1,1.5,1.7
		c0,2,1.5,2.6,2.7,3.6c1.7,1.4,2.4,3.6,4.5,4.8c1.2,0.7,1.7,2.4,3.8,2.2c0.7-0.1,1.8,1.2,2.4,2.1c2.5,3.8,6.3,5.8,10.2,7.6
		c1.6,0.7,3.1,1.5,4.5,2.6c1.3,1,2.5,2,3.9,2.8c3.2,2,6,4.5,10.3,4.5c2.3,0,4.5,1.3,6.8,2.1c0.5,0.2,0.9,0.6,1.3,0.5
		c3.7-0.3,7.2,1.6,10.9,1.4c2.2-0.1,4.5-0.2,6.6-0.8c4.8-1.4,9.6-3.2,14.1-5.5c2.3-1.1,2.3-1.1,3.6-3.7c0.5,0.1,1.1,0.1,1.7,0.2
		c2.6,0.3,5.3-1.1,6.5-3.5c1.2-2.3,1.2-2.3,4-3.3c0.2-2.5,1.5-4.6,4.1-5.6c-0.1-3.5,1.7-6.5,1.3-9.7c2.3-1.2,3.2,1.3,4.9,1.3
		c0.1-1.9,0.1-3.8,0.5-5.6c0.3-1.7,1.1-3.2,1.8-5c-3.1-1.5-6.1-2.4-9.2-0.8c-1.3,0.7-2.4,0.6-3.5-0.4c-0.4-0.4-1.3-0.7-1.7-0.5
		c-2.2,1-3.5-0.1-5-1.6c-0.8-0.8-2.1-1.1-3.7-1.8c1.8-0.9,3.2-1.6,4.8-2.3c2.2,2.4,5,2.8,8.2,2.4c2-0.3,4.1,0.1,6.2,0.3
		c2.5,0.2,4.7,1.9,5,4.3c0.4,3,1.4,5.9,0.9,9c-0.2,1.2,0,2.6,0.4,3.7c0.9,3.1,1.9,6.1,3.1,9.1c1.2,3.1,4,3.9,6.9,4.3
		c2.5,0.3,5.1,0.3,7.7,0.4c0.4,0,0.9,0.2,1.3,0.3c-0.1,0.4,0,0.8-0.1,1c-2.2,2.3-5.2,2.2-8,2.6c-0.5,0.1-1.1-0.6-1.7-0.8
		c-0.9-0.3-1.8-0.7-2.7-0.7c-0.5,0-1.1,0.6-1.4,1.1c-0.1,0.2,0.1,1,0.4,1.2c0.6,0.5,1.3,1,2.1,1.1c1.3,0.2,1.9,1,2.3,2.1
		c0.6,1.8,2.1,2.7,3.7,3.5c0.7,0.4,1.7,0.4,2.1,1c2.5,3.2,6.2,4.6,9.8,5.8c5.4,1.8,10.7,4.3,16.8,3.2c2.1-1.5,3.3-3.8,4.5-6.1
		c1.6-3.3,3.1-6.7,4.7-10c0.5-1.1,1.2-2.2,1.7-3.2c1.5,0,1.5,1,1.3,1.6c-0.7,2.2-0.7,4.4,0,6.6c0.5,1.6,0.3,3.2-0.4,4.7
		c-0.8,1.6-1.5,3.2-2.5,4.6c-3.5,5-6.7,10.1-9.5,15.5c-1.4,2.7-3.4,5-4.7,7.7c-2.3,4.8-6,8.6-8.4,13.2c-1.2,2.3-3.3,3.6-4.6,5.7
		c-0.4,0.6-1.6,0.8-2.5,1.2c0.3,0.7,0.6,1.3,0.8,1.8c-0.1,0.3-0.1,0.7-0.3,0.8c-2.5,1.7-2.5,1.7-3.7,4.2c-0.7-0.2-1.4-0.4-2.1-0.5
		c-1.3,1-2.6,1.9-3.8,2.9c-0.4,0.3-1,0.4-1.2,0.8c-1.6,3.6-5.4,4.8-7.8,7.5c-0.4,0.5-1,1-1.5,1.1c-2.5,0.4-4.2,2.1-6.3,3.2
		c-3.2,1.7-5.2,4.6-7.5,7.3c-0.4,0.5-0.5,1.2-0.7,1.8c0.6,2,1.2,3.9,2.8,5.4c1.1,1,1.3,2.5,1.5,3.9c0.3,2.4,0.8,4.7,1,7.1
		c0.1,2,0,4.1-0.1,6.2c-0.1,1.4-0.6,2.8-0.6,4.2c-0.2,7-2,13.6-4.6,20c-2.2,5.3-4.3,10.7-6.5,16c-2.1,5.2-5.3,9.8-8.1,14.6
		c-2.3,4-4.3,8.2-7.4,11.8c-0.9,3.9-4,6.4-6.2,9.5c-1.7,2.4-3.1,4.8-4.4,7.4c-1.7,3.4-3.9,6.6-5.8,9.9c-2,3.5-4.1,6.9-5.8,10.4
		c-4.8,9.7-10.9,18.4-17.6,26.8c-3.3,2.4-4.1,6-4.5,9.7c-0.4,4.2-1,8.2-3.1,11.9c-0.4,0.8-0.4,1.9-0.5,2.8c-0.3,2.2-0.3,4.4-1.3,6.5
		c-0.5,1.1,0.1,2.6-0.3,3.7c-1,3.2-2.1,6.3-3.3,9.4c-2.2,5.5-5.5,10.4-9.1,15.1c-0.6,0.7-1,1.7-1.3,2.6c-1,2.8-3,4.5-5.7,5.5
		c-2.4,0.9-4.6,2.1-6.5,3.9c-0.6,0.5-1.3,1-2,1.2c-3.5,1.1-6.7,2.9-10.3,3.6c-3.6,0.7-7,2.2-10.7,2.3c-0.9,0-1.8,1.1-2.7,1.8
		c-0.7,0.6-1.3,1.4-2,2c-1.4,1.4-1.7,1.4-4.2,0.3c-0.5,0.7-1.1,2-1.6,2c-2.6-0.2-3.5,1.7-4.7,3.4c-0.8-0.2-1.5-0.4-2.4-0.7
		c-1.2,1.6-2.5,3.3-3.7,4.9c-0.8,1-1.6,2-2.2,3.1c-1,2-3.2,2.6-4.6,3.9c-1.5,1.3-2.2,3.5-3.5,5.1c-0.5,0.7-1.6,1-2.6,1.5
		c0,0.9,0.2,1.9-0.1,2.7c-0.2,0.7-1.1,1.1-1.6,1.7c-0.3,0.3-0.7,0.6-1.1,0.9c-1.9,1.7-2.1,2.6-1.2,5c0.2,0.6,0.5,1.1,0.8,1.7
		c0.7,1.9,0.7,3.7,0,5.6c-1.1,2.8-1.8,5.8-4.4,7.8c-0.5,0.3-0.7,1.1-0.9,1.7c-0.7,1.7-0.4,2.8,1.2,3.6c1.1,0.6,2.4,0.9,3.6,1.4
		c0.9,0.4,1.8,0.8,1.9,1.9l0,0c-0.4,0.2-0.7,0.4-1.5,0.8c1.9,1.1,3.6,1,5.3,1.2c1.6,0.2,3.2,0.4,5.1,0.7c0.8,1,1.8,2.2,2.9,3.4
		c-0.3,1.3-0.6,2.5-0.9,3.6c5.5,1.4,9.3,4.3,10.8,10c2.1-0.3,3.4,0.7,4.7,2c1.6,1.7,3.6,3.2,5.1,5c1,1.1,1.7,2.5,1.8,4.2
		c0.1,2.2,0.8,4.1,3.7,3.8c0.3,1.5,0.4,2.8,0.8,4c0.4,1,1,1.9,1.7,2.8c0.6,0.8,1.7,1.3,1.9,2.1c1.5,5.1,5.6,8.9,7.4,14
		c-0.6,0.7-1.1,1.5-1.8,2.4c-0.1,1.9,1.4,3.8,0.6,5.9c0,0.1,0,0.3,0,0.5c3,6.3,0.3,12.5-0.1,18.8c-0.1,0.8-0.8,1.7-1.4,2.4
		c-0.7,0.8-1.5,1.8-2.4,2.2c-2.8,1.2-4.4,3.6-6.1,5.9c-0.2,0.2-0.5,0.3-0.9,0.5c-0.4-0.3-0.9-0.7-1.6-1.3c-0.5,0.6-0.9,1.2-1.4,1.8
		c-0.9,1.2-2.2,1.9-3.7,1.9c-2.6,0-4.6,1.4-6.3,2.9c-3,2.8-6.2,3.6-10.2,1.9c-1.7,0.7-3.4,2.2-5.6,1.3c-1.8-0.7-3.5-1.4-5.6-2.2
		c-0.5,0.6-1.2,1.4-1.9,2.2c-3.2,0.8-6.3,0.8-9.1-0.7c-3.4,0.5-6.3,3.5-9.6,0.7c-1.2,0.8-2.3,1.2-3.1,2c-1,0.9-2.1,1.1-3.4,1.4
		c-2.8,0.5-5.5,1.4-8.2,2.4c-3.6,1.4-7.2,1.4-10.8,0.7c-2.5-0.5-5-1.2-7.5-1.8c-0.7-0.2-1.6-0.5-2.1-1c-3.3-2.7-7.2-4-11.3-4.6
		c-1.6-0.2-3.2-0.6-4.5-1.3c-4.4-2.2-9-4-13.8-5.3c-3.5-0.9-6.9-2-9.9-4.3c-1.6-1.3-3.5-2.2-5.3-3.3c-2.8-1.6-5.1-3.7-7.2-6
		c-1.9,0.3-2.1,1.6-2,2.9c0.2,1.6,0.6,3.1,0.9,4.7c-1.1,1.5-2.2,2.5-3.9,3.3c-5.8,2.7-12,2.8-18.1,3.2c-2.7,0.2-5.4,0.2-7.8,1.8
		c-0.9,0.6-2.1,0.8-3.2,1c-3.3,0.6-6.5,1.2-9.6,2.8c-1.7,0.9-4,0.9-6.1,1c-2.3,0.1-4.5,0.2-6.6,1c-5.2,1.9-10.7,2-16.1,2.1
		c-2.9,0.1-5.8,0.2-8.4,1.6c-1.3,0.8-2.8,0.9-4.2,0.6c-2.2-0.5-4.3-0.6-6.6-0.7c-1.9,0-3.7-0.9-5.6-1.1c-3.1-0.4-6-1.9-9.2-0.7
		c-0.7,0.2-1.6,0.1-2.3-0.2c-1.3-0.5-2.6-1.2-3.9-1.8c-1.7-0.8-3.4-1.4-5.5-1.1c-1.8,0.3-3.8-0.4-5.3-0.6c-1.5-1.9-2.7-3.5-3.9-5.1
		l0.1,0.1c-1.7-1.1-3.3-2.2-5.1-3.3c-0.4-0.2-1-0.1-1.8-0.2c0.4,1.4,0.6,2.5,0.9,3.5l0.1-0.1c-1,0-1.9-0.4-2.5-1.3
		c-1.2-1.9-2.5-3.7-3.7-5.6c-0.7-1.2-1.3-2.5-3-2.8c-0.1,0.8-0.2,1.5-0.3,2.3c-0.3,0-0.7,0.2-0.8,0c-1.8-2.3-3-4.8-3.1-7.8
		c0-1.3-0.4-2.4-1.1-3.6c-1.2-2.1-2.4-4.2-3.1-6.5c-0.8-2.2-1.2-4.6-1.5-7c-0.3-3-0.4-6-0.9-9c-0.5-2.8-0.2-5.7,0.2-8.6
		c0.5-3.7,2.5-6.8,5.5-9.2c-0.1-1.1-0.1-2.2-0.2-3.3c0.1-1.3,1.7-0.8,2.3-2.1c1-2.3,2.7-4.3,4.3-6.3c1.4-1.8,2.1-4.5,4.9-4.9
		c1-2.3,3.3-2.9,5.1-4.2c2.7-2.2,5.7-3.9,7.6-7.1c0.9-1.5,2.6-2.7,3.4-4.5c0.3-0.8,1.3-1.4,2.1-1.8c1.6-1,3.3-1.8,4.9-2.7
		c0.3-2.1,2.2-2.6,3.5-3.7c2.9-2.4,5.9-4.7,8.1-7.9c1-1.4,2.1-2.8,3.9-3.1c1,0.3,0.6,0.9,0.6,1.5c0,1.8,0.5,2.2,2.2,2.2
		c0.8,0,1.5-0.1,2.2-0.2c7.7,13.9,11.1,18.6,16.1,21.9c0.9-0.4,0.5-0.9,0.1-1.4c-0.1-0.1-0.2-0.3-0.3-0.4c-0.9-4.4-3.8-7.5-6.5-10.9
		c-4-5-7.6-10.2-11-15.6c-1.2-1.8-1.5-4.1-2.3-6.7c1.3,0.4,2.2,0.6,3.4,0.9c-0.6-1-1-1.7-1.5-2.6c0.5-0.2,1-0.5,1.3-0.4
		c0.9,0.4,1.9,0.8,2.4,1.5c2.4,3.4,6.3,4.8,9.4,7.2c1.4,1.1,2.8,2.1,4.2,3.1c1.6,1.1,3.1,2.3,4.8,3.2c4.1,2.1,7.9,4.7,12.3,6.4
		c2.2,0.9,4.1,2.5,6.1,3.7c1.9,1.2,3.8,2.3,5.8,3.4c0.5,0.3,1.2,0.5,1.8,0.6c3.2,0.4,6.4,0.6,9.5,1c1.9,0.3,3.8,0.7,5.6,1.2
		c3,0.8,5.9,1.2,9,0.8c0.4-0.1,0.9,0.2,1.3,0.3c0.2,0.7,0.4,1.2,0.6,1.8c0.5,0.1,0.5,0.1,1.9-2.4c0.3-0.1,0.6-0.3,0.9-0.3
		c1.7,0.1,3.5,0.2,5.2,0.3c3.3-2.7,7.8-2.9,11.1-5.4c3.7-2.8,5.6-6.5,4.5-11.3c-2.2-9.3-6-17.8-13-24.6c-1.5-1.4-2.5-3.3-3.6-5
		c-1.9-2.9-3.9-5.7-5.2-9c-0.6-1.6-2.1-2.8-3.1-4.2c-1.8,0.3-1.6-0.9-2-2.2c-1.6-5.3-3.6-10.6-6.2-15.5c-1-2-2.4-3.8-3.7-5.6
		c-1.5-2.1-3-4-3.3-6.7c-0.2-1.5-1.2-2.9-2-4.3c-1.2-1.9-2.4-3.7-3-6c-0.3-1.1-0.7-2.3-1.5-3c-2.4-2.1-3.1-5.2-4.6-7.8
		c-5.3-9.3-10.6-18.6-15.9-27.9c-0.6-1.1-1.5-2.1-2.3-3.1c-3.3-3.9-6.3-8-9.2-12.3c-2.5-3.7-5.4-7.1-8.3-10.6
		c-6.1-7.3-10.6-15.6-15.8-23.5c-1.5-2.3-2.9-4.6-4.2-7c-3.1-5.6-6.6-10.9-10.7-15.9c-3.3-4.1-6.1-8.6-8.5-13.3
		c-0.9-1.9-2-3.6-3.6-5c-1-1-1.9-2.2-2.6-3.4c-2.4-4-4.7-8-8-11.3c-0.8-2.9-3.4-3.9-5.4-5.7c-2.9-2.5-5.3-5.5-7.8-8.4
		c-2.7-3-5.3-6-8-8.9c-2.7-2.9-5.5-5.8-8.2-8.7c-0.9-0.9-1.8-1.8-2.7-2.7c-0.6-0.6-1.3-1-1.7-1.7c-7-10.2-16.5-17.7-26.1-25.1
		c-1.1-0.9-2.4-1.5-3.7-2.2c-4.3-2.4-8.7-4.8-13-7.2c-0.6-0.3-1.1-0.7-1.7-0.9c-11.2-4-16.2-6.5-25-12.7c-3.3-2.3-6.7-3-10.8-2.4
		c-6.9,1-13.1,3.4-18.4,7.5c-4,3-7.7,6.6-10.1,11.2c-0.1,0.3-0.2,0.6-0.4,0.9c-4.5,4.8-6.5,10.8-8.2,17c-0.2,0.6-0.3,1.3-0.6,1.8
		c-2.3,4.1-2.1,8.5-2.1,13c0,10.5,2.5,20.2,7.1,29.5c2.4,4.9,4.6,9.8,6.9,14.8c3.8,8.3,8.4,16.2,13.7,23.6c1.7,2.3,3.1,4.7,4.1,7.5
		c0.7,2,2.2,3.8,3.5,5.7c0.7,1,1.6,1.9,1.3,3.4c-0.2,1.6,0.8,2.7,2.3,3.3c0.3,0.1,0.6,0.1,0.9,0.2c2.4,0.5,2.4,3.2,4.2,4.3
		c1.8,1.1,3.2,2.4,3.4,4.9c0.1,1.6,1.1,3.2,1.4,4.9c0.3,1.5,1.9,3.1,3.4,3.8c3,1.6,5.4,3.7,7.8,5.9c1.3,1.2,3.4,1.8,3.3,4.3
		c0,0.6,0.9,1.2,1.5,1.7c2.3,2,4.6,3.9,6.8,5.9c1.1,1,1.9,2.2,2.8,3.3c0.7,0.8,1.4,1.8,2.2,2.5c5.5,4.8,11.7,10.9,15.6,16
		c1,1.3,2,2.6,3.3,3.4c3.6,2.3,6.4,5.3,9.1,8.5c0.9,1.1,1.9,2.2,2.9,3.2c1,1.1,1.8,2.4,3.8,2.5c1.2,0.1,2.5,1.4,3.4,2.4
		c4.9,5.5,10.1,10.6,16.1,15c1.9,1.4,3.8,2.8,4.6,5.3c0.3,0.9,1.5,1.6,2.3,2.4c2.1,1.9,4.3,3.8,6.5,5.6c0.9,0.8,2.4,1,3.2,1.9
		c3.4,3.6,7.3,6.7,10.1,11.2c3.7,0,6,2.9,8.5,5.2c0.4,0.4,0.4,1.1,0.6,1.7c-0.9,0.3-1.8,0.6-3.3,1.1c2.8,0.6,2.8,0.6,3.1-1.3
		c2,0.1,3.1,1.5,4.1,3c1.2,1.7,2.7,2.6,4.8,2.2c1.6,2,3.1,3.8,4.6,5.7c0.5,0.6,0.7,1.4,1.1,2.1c1.6,3.4,4.2,4.7,7.7,3.6
		c0.6-0.2,1.2-0.4,1.8-0.7c3.4-2,7.2-2.6,10.9-3.3c3.2-0.6,6.2-1.5,9-3c3-1.6,6.4-2.5,9.3-4.5c0.6-0.4,1.5-0.2,2.5-0.2
		c1.5-3,4.1-4.8,7.1-6.6c5.3-3.2,10.5-6.7,15-11c0.2-0.2,0.6-0.3,0.9-0.3c1.6-0.2,0.9-1.3,0.9-2.3c2.4-1.6,4.9-3.2,7.7-5.1
		c0,0.8,0.2,1.3,0,1.6c-2.5,3.7-5.1,7.3-8.9,9.9c-1.9,1.3-3.6,3.2-4.9,5.1c-2.8,4.2-6.9,6.5-10.9,9.2c-3.9,2.5-7.7,5-11.6,7.6
		c-0.4,0.2-0.5,0.7-0.9,1.3c2.9,3.3,7.8,4.6,9.6,8.9c0.1,0.2-0.1,0.6-0.1,1.2c-3.2,0.2-6.1-0.9-8.9-2.2c-3-1.4-4.8-4.1-6.6-6.9
		c-2.7,0.1-4.8,1.6-7.5,1.8c0.9,3.2,2.2,5.4,5,6.5c1,0.4,1.8,1.3,2.7,1.8c1.2,0.7,1.8,2.2,3.6,2.2c0.8,0,1.4,0.8,1.2,1.7
		c-0.2,0.9-0.9,1.4-1.7,1.3c-2.7-0.2-5.3-0.7-7.7-2.1c-3.6-2.3-6.5-5.1-7.6-9.4c-0.1-0.3-0.4-0.5-0.7-0.8c-2.9,0.5-5.8,0.9-8.8,1.4
		c-0.3,0-0.6,0.3-0.9,0.5c-0.3,1.3,1.3,2.7-0.2,4.1c1.4,1.4,2.7,2.8,4,4.2c1.2,1.3,1.4,2.4,0.6,2.9c-1.1,0.6-1.8-0.2-2.4-0.9
		c-3.6-3.6-7.3-7.2-10.8-10.9c-1.8-1.9-4.2-3.3-5.7-5.5c-0.1-0.4-0.3-0.9-0.4-1.3c1.3,0.6,2.6,0.8,4.2,0.3c-0.5-0.8-0.8-1.4-1.2-1.8
		c-1.2-1.2-2.1-1-2.7,0.7c-0.1,0.3-0.1,0.6-0.1,0.9c-0.6,0-1.4,0.3-1.8,0c-0.9-0.6-1.8-1.4-2.5-2.2c-2.4-3-5.4-5.4-8.6-7.6
		c-1.3-0.9-2.4-2.1-3.5-3.2c-0.9-0.9-1.8-1.8-2.8-2.6c-1.4-1.1-2.7-2.1-3.5-3.8c-0.3-0.8-1.3-1.4-2.1-1.8c-4.6-2.4-5.9-2.9-7.7-5.8
		c-1.8-2.8-4.3-4.8-7.1-6.2c-3.1-1.6-5.5-3.7-8-6c-2.1-2-4.7-3.6-6.2-6c-1.6-2.5-4-3.8-6.1-5.6c-0.6-0.5-1-1.2-1.6-1.8
		c-0.9-0.9-1.7-2-2.7-2.7c-3.2-1.8-5.2-4.8-7.2-7.6c-2-2.8-4.3-5.1-6.8-7.4c-4.7-4.3-9.7-8.3-13.7-13.4c-0.5-0.6-1.2-1.1-2.2-0.1
		c0.5,1.7,1.1,3.5,1.7,5.3c1.5,4.8,3.1,9.7,4.4,14.5c1.6,5.7,2.9,11.5,4.4,17.2c1.8,6.7,5.2,12.6,8.5,18.6c0.8,1.4,2.6,2.2,3.9,3.4
		c0.3,0.3,0.6,0.7,0.8,1.1c1.5,3.2,4.3,5,6.7,7.4c0.8,0.8,1.9,1.3,2.4,2.2c0.9,1.5,2.2,2.2,3.5,3.2c5.7,4.2,12.1,7.1,18.3,10.4
		c6.3,3.3,13,5.3,20.2,5.4c1.9,0,3.8,0.3,5.7,0.3c4.5,0.2,8.9-0.2,12.3-3.8c0.3-0.3,0.9-0.2,1.4-0.3c-0.1,2.1-0.6,3.8-3.2,3.9
		c-0.9,0.1-1.9,0.3-2.8,0.7c-4.9,2.5-10,2.6-15.3,2.1c-1.1-0.1-2.2-0.2-3.3-0.2c-0.5,0-1,0.1-1.4,0c-2.8-0.6-5.6-1.3-8.4-1.8
		c-2.9-0.4-5.7-0.8-7.9-3c-0.4-0.4-1.1-0.8-1.7-0.8c-4.4-0.3-7.7-3-11.3-4.9c-5.5-2.9-10.7-6.5-14.6-11.5
		c-3.8-4.7-7.7-9.4-11.4-14.2c-1.1-1.4-1.7-3-2.4-4.7c-1.2-3.1-2.4-6.3-3.5-9.4c-0.6-1.8-1.3-3.6-1.8-5.5
		c-1.9-7.6-3.8-15.2-5.6-22.8c-0.8-3.6-1.4-7.2-2.1-10.8c-0.1-0.7-0.2-1.8,0.2-2.3c1.9-1.9,0.6-3.6-0.5-5c-1.5-1.9-3.1-3.7-5-5.1
		c-3.5-2.6-6.4-5.8-9-9.3c-1.5-2.1-2.9-4.2-4.5-6.2c-1.9-2.4-4-4.6-6-6.9c-3.4-3.8-7-7.4-10.2-11.4c-4-5-8.3-9.7-11.6-15.2
		c-2.3-3.8-4.4-7.8-5.8-12c-2.9-3.2-5.6-6.5-7.7-10.2c-2.1-3.8-4.3-7.5-6.3-11.3c-0.6-1.1-1-2.3-1.5-3.5c-1.4-3.5-2.9-7.1-4.3-10.7
		c-0.2-0.4-0.3-0.9-0.6-1.3c-4.6-4.9-5.7-11.3-7.2-17.5c-0.8-3.1-1.2-6.3-1.8-9.4c-0.1-0.6-0.3-1.2-0.6-2.1
		c-3.2-0.3-5.4-2.8-8.6-3.6c-3.1-0.8-6-2.8-8.9-4.4c-2.8-1.5-5.5-3.2-8.2-4.8c-0.7,0.2-1.3,0.4-1.9,0.5c-0.4-0.5-0.8-1-1.3-1.7
		c-0.9,0.6-1.8,1.1-2.6,1.7c-1.8-0.5-1.6-2.2-2.2-3.5c-1.6,2.6-1.6,2.6,1,5.2c-1.3,0.4-2.5,0.8-3.7,1.2c-0.2-0.2-0.6-0.4-0.7-0.6
		C372.4,711.8,372.7,710,371.6,708.9c0.2,0.1,0.4,0.4,0.7,0.4c0.2,0,0.4-0.2,0.6-0.4c-0.1,0-0.2-0.1-0.4-0.1
		C372.2,708.8,371.9,708.8,371.6,708.9z M819.9,999.7c0.1-0.3,0.3-0.6,0.3-0.9c0-0.2-0.3-0.3-0.5-0.5c0,0.1-0.1,0.3-0.1,0.4
		C819.7,999.1,819.9,999.4,819.9,999.7c0.1,0.2,0,0.6,0.1,0.8c0.1,0.2,0.3,0.6,0.4,0.6c0.2,0,0.6-0.2,0.7-0.4
		c0.1-0.2-0.1-0.6-0.3-0.8C820.5,999.8,820.2,999.8,819.9,999.7z M627.7,1031.5c0.4,2.6,0.9,5.2,1.3,7.9c0,0.2,0.4,0.3,0.6,0.4
		C630.2,1036.4,629.9,1035.3,627.7,1031.5c-1.6-2.3-3.8-4.2-4-7.3c-0.2-2.8-1.9-5.4-1-8.5c0.8,0.3,1.5,0.4,1.9,0.7
		c1.5,1.4,3.1,2.8,4.5,4.3c2,2.3,3.8,4.7,5.7,7.1c1.3,1.6,2.5,3.5,4.2,4.5c3.6,2.1,6.7,4.8,9.9,7.5c0.5,0.4,1.4,0.4,2.2,0.6
		c0.4-2.9,0.2-5.4-0.8-7.8c-1.3-3.1-2.7-6.1-4-9.2c-0.4-0.9-1-1.7-0.3-2.6c0.3-0.1,0.7-0.3,0.9-0.2c2.8,1.7,5.8,3.3,7.3,6.6
		c0.5,1,1.3,1.9,2.2,2.5c3.4,2.5,7,4.9,9.8,6.9c1.7-0.1,2.6-0.2,3.5-0.2c0.8,0,1.3,1.4,2.6,0.3c-1-0.9-1.8-1.8-2.8-2.7
		c-4.2-3.5-8.3-7-12.5-10.4c-1.9-1.5-3.8-3-6-3.8c-5.2-1.9-8.5-6-12.2-9.7c-1.7-1.7-3.4-3.2-5.7-4.3c-0.1,0.5-0.4,1-0.3,1.4
		c0.7,2.4,1.3,5,2.3,7.2c1.5,3.2,3.4,6.1,5.2,9.2c0.9,1.6,1.8,3.2,2.1,5.5c-0.8-0.3-1.3-0.4-1.6-0.6c-1.8-1.6-3.4-3.3-5.3-4.8
		c-3.1-2.5-5.9-5.3-8.2-8.7c-0.5-0.8-1.3-1.5-2.1-1.9c-1.7-0.7-3.1-1.6-4.3-2.9c-0.7-0.7-2-0.1-2.3,0.9c-0.8,2.9-0.7,5.8,0.8,8.3
		c1.6,2.7,2.7,5.4,3.5,8.3c0.3,1.2,1,2.3,1.7,3.4C625.5,1032,626.6,1032,627.7,1031.5z M722.9,906.6c-0.4,0-1.2-0.3-1.3-0.1
		c-1.4,2.5-2.8,5-3.9,7.6c-0.6,1.5-1.2,2.8-2.3,4.1c-0.9,1-0.9,2.9-2.5,3.9c-0.8-1-1.5-2-2.3-2.9c-1-1.1-1.7-2.3-1.5-3.9
		c0.1-1.3,0.1-2.6,0.4-3.8c0.3-1.3,0.9-2.5,1.4-3.7c-2.6,1.7-6.2,1.5-8,4.4c0.8,3.1,3.1,5.2,4.9,7.4c0,1.2,0,2.3,0,3.2
		c1.1,0.7,2.2,1.1,2.9,1.9c1.5,1.8,3.1,3.7,4.2,5.8c3.4,6.9,8.3,12.8,12.6,19.2c1,1.5,2.2,2.6,3.5,3.8c2.1,1.9,3.6,4.4,5.4,6.7
		c0.6,0.7,1.3,1.5,2.1,1.8c4.1,1.7,8.3,3.2,11.9,6c0.5,0.4,1.5,0.2,2.2,0.2c0.6,0,1.5-0.3,1.8,0c1.4,1.5,3.8,1.6,4.8,3.8
		c0.7,1.4,2.1,1.9,3.7,1.2c0.5-2.3,0.5-2.3,3.4-3.6c1.3,1.8,0,3.6-0.4,5.7c1.1,0,1.9-0.2,2.6,0c0.9,0.3,1.6,1,2.3,1.4
		c2.5-0.9,4.8-1.8,7.5-2.8c0.5-0.9,0.9-2.1,1.6-3.2c0.7-1,1.7-1.8,2.4-2.8c1-1.5,2.3-2.4,3.9-2.4c1.4,0,2.4-0.5,3.4-1.5
		c2-1.9,4.2-3.5,6.9-4.4c2.7-1,5.4-2.1,8.3-3.3c-0.1-0.2-0.1-0.6-0.3-1c-0.8-1.7-0.7-2.5,0.3-3.3c1.3-1,1.9,0.3,2.7,0.7
		c2-0.7,2.1-3,4-4c1.5-0.8,2.2-2.8,2.1-4.9c-2.3,0.6-4.3,1.2-6.3,1.7c-3.4,0.9-6.8,1.7-10.1,2.7c-2.5,0.8-4.9,1.2-7.5,0.6
		c-1.4-0.3-2.8-0.7-4.1,0.4c-0.8,3.7-0.9,3.7-3.2,6.8c-1.1,1.4-2.1,2.9-3.2,4.2c-2.8,3.1-5.6,6.2-8.4,9.2c-0.6,0.6-1.6,0.7-2.6,1.1
		c-0.2-1-0.4-1.7-0.3-2.2c0.3-1.2,0.6-2.5,1.1-3.6c2-4,5-7.4,7.7-10.9c0.5-0.7,1.6-1,2.3-1.6c1.1-0.7,2-1.6,2-3.3
		c-2.4,0.3-4.5-1.4-6.9-0.7c-3.9-1.3-7.9-2.4-11.8-3.8c-4.6-1.7-9-4-13.7-5.5c-3.2-1-6-3-8.3-5.6c-0.5-0.6-1.1-1.5-1.7-1.6
		c-2.6-0.2-4.1-2.3-6.2-3.3c-0.6-0.2-1.4-0.7-1.4-1.1c-0.5-2.7-3-4.1-3.9-6.5c-1.8-4.6-3.9-9.1-4.2-14.2c0.3-1.1,1.4-2.1,0.2-3.5
		C721.9,904.4,722.1,905.5,722.9,906.6z M717.1,276.9c2.2,1,3.7-0.3,5.2-1.5c1.5-1.3,1.8-2.9,1.6-4.8c-0.7-5.6-1.9-11-4-16.4
		c-0.8-0.2-1.9-0.9-2.6-0.6c-3,1.2-5.9,0.5-8.9,0.1c-1.2-0.2-2.6,0-3.8,0.3c-4.1,0.9-7.6-0.6-10.9-2.6c-1.6-1-3-2.3-4.3-3.8
		c-1.1-1.2-0.5-2.4,1.5-3.7c0.7,0.6,1.4,1.2,2,1.9c1.8,1.7,3.9,2.8,6.3,3.1c4.4,0.5,8.9,0.9,13.3,1.4c1.6,0.2,3.2,0.3,4.8,0.4
		c0.7,0,1.5-0.1,2.1-0.1c0.8-3.6,1-6.8-1.6-9.7c-1.7,1-3.3,1-5.1,0.3c-2-0.7-3.7-1.7-5.3-3.2c-1.4-1.3-2.8-2.6-4.5-3.5
		c-1-0.6-1.8-1.1-2.6-1.9c-3-2.9-7.5-4.5-11.6-4.4c-3.3,0.1-6.6,0-9.5-2.1c-0.5-0.3-1.2-0.4-1.8-0.4c-2.7,0-5.2,1.6-8,1.1
		c-0.7-0.1-1.5,0.5-2.3,0.7c-3.4,0.9-6.6,2.4-10.2,2.5c-1.9,0.1-3.7,0.9-5.2,2.2c-0.8,0.7-1.8,1.5-2.8,1.8c-3.3,1-6,3-8.8,4.8
		c-5.7,3.6-11.4,7.1-17,10.8c-5.6,3.8-10.8,8-15.4,13c-1.6,1.8-3.3,3.4-5,5.1c-2.5,2.4-5.1,4.7-7,7.8c-1.7,2.9-4.1,5.3-6.1,8
		c-2.6,3.3-4.5,6.8-4.2,11.2c0.2,2.5-0.1,5.1,0,7.7c0.2,4.4,2.1,8.3,3.4,12.4c0.9,2.8,2.6,4.2,5.5,4.5c1,0.1,2,0.7,3,1
		c-0.1,2.9-1.6,5-2.3,7.9c1.1-0.5,1.7-0.9,2.4-1.1c1.7-0.5,2.9,0.3,2.9,2.1c0,1.1-0.3,2.2-0.4,3.6c3.4,1.9,3.9,5,2.8,8.6
		c-0.3,0.8-0.9,1.5-1.6,2.7c-0.9-1.6-1.6-2.8-2.2-3.8c0.8-1.1,2.5-1.1,2-3c-1.1-0.6-2.3-1.2-3.6-1.9c0.2-2,0.5-3.8,0.7-5.9
		c-1.4,0.5-2.4,1-3.5,1.3c-1.3,0.4-2.6-0.8-2.4-2.2c0.2-1.1,0.5-2.2,0.9-3.2c0.3-0.9,0.6-1.7,0.9-2.8c-4.1-1.5-6.6-4.6-7.7-8.3
		c-1.7-5.6-3.6-11.3-3.2-17.4c0-0.4-0.3-0.7-0.4-1.1c-0.4,0.3-0.8,0.4-0.9,0.7c-2.4,5-4.8,10.1-7.1,15.2c-0.9,2.1-2,4.4-0.8,7.2
		c1.1,0.3,2.3,0.8,3.5,1c4.2,0.5,7.3,3.1,10.4,5.5c0.5,0.4,0.6,1.3,1.2,2.4c-1.3,0-2.1,0.2-2.8,0c-1.2-0.5-2.2-1.2-3.3-1.9
		c-4.2-2.6-9.1-2-12.7,1.2c-4.8,4.4-6.9,10.3-9,16.1c-0.2,0.4-0.1,1,0,1.4c0.2,1.6,0.2,3.2-0.5,4.7c-0.2,0.5,0,1.2,0.1,1.8
		c0.2,1.7,0.5,3.4,0.7,5.2c0.1,0.8-0.1,1.8,0.4,2.3c1.9,2.2,2.2,4.9,3.1,7.4c0.6,1.8,1.3,3.6,2.3,5.3c0.8,1.3,1.8,2.9,3.1,3.5
		c2.7,1.3,5.6,2,8.8,0.9c3.8-1.3,6.8-3.3,8.3-7c3.8-0.4,3.9-0.4,4.6,2.5c1,4.2,1.8,8.4,2.7,12.6c0,0.2-0.3,0.4-0.7,0.9
		c-1.4-1.5-0.9-3.7-1.9-5.3c-1-1.6-1.7-3.3-2.5-4.9c-1.4,0-1.8,0.8-1.6,1.6c0.2,1.2,0.5,2.5,1,3.6c2,4.2,3.5,8.5,5.1,12.8
		c0.9,2.4,1.5,4.8,2.2,7.3c1.2,3.9,1.4,8.3,4.3,11.5c0.2,0.3,0.3,0.9,0.1,1.3c-0.4,1,0.2,1.8,0.4,2.7c1.1,4.7,3.6,8.8,5.1,13.4
		c3.4,10,5.9,20.2,7.5,30.6c0.2,1.4,0.6,2.7,1,4.3c1-0.2,1.8-0.3,2.5-0.4c1.3-0.1,5.4,0.8,5.7,1.4c0.6,0.9,1.1,1.7,2.2,2.3
		c1,0.5,1.7,1.7,2.4,2.7c2.1,2.6,4.8,4.6,7.3,6.8c2,1.7,3.6,4.2,6.8,3.7c0.5-0.1,1.1,0.6,1.6,0.9c0.7,0.4,1.3,0.8,2.1,1.1
		c2.2,0.9,4.4,1.8,6.6,2.7c2.9,1.3,5.7,2.9,9,3.1c1.4,1.2,3.3,0.2,4.6,1c3,1.7,5.8,0.6,8.8,0.4c2.5-0.2,4.4-1.7,6.8-2.1
		c2.7-0.6,4.9-2.1,7-4c1.5-1.4,3.2-2.6,4.8-3.9c3.9-3,8.5-5.1,11.3-9.4c1.1-1.7,2.2-3.5,3.5-5.1c2.3-2.9,2.9-6,1.7-9.4
		c-3.1-3.1-7.2-5.5-8.1-10.3c0-0.1-0.1-0.3-0.2-0.4c-2.6-2.6-3.1-5.8-3.2-9.2c-0.1-1.7-0.4-3.5-0.6-5.2c-0.3-2-0.5-4-0.8-5.9
		c-0.6-0.1-0.9-0.2-1.2-0.1c-5.6,1.3-11.2,2.6-17,2.3c-0.9-0.1-1.9,0.3-2.9,0.3c-1.6,0.1-3.2,0.4-4.8,0.3c-4.9-0.3-9.9-0.5-14.8-0.5
		c-4.4-0.1-8.9-0.6-13.3-1c-0.8-0.1-2,0-2-1.8c1.1,0.2,2.1,0.5,3.2,0.4c1.1-0.1,2.2-0.6,3.2-0.7c0.9-0.1,2,0,2.8,0.4
		c3.2,1.9,6.4,1.2,9.7,0.4c1.2-0.3,2.5-0.8,3.7-0.7c2.8,0.3,5.4,0.2,8-0.9c1.5-0.6,2.8-0.4,3.6,1.3c0.1,0.3,0.7,0.5,1.3,0.8
		c0.7-0.9,1.3-1.8,1.9-2.8c2,0.3,3.8,0.6,5.7,0.9c0.6-0.6,1.1-1.2,1.8-1.6c0.8-0.5,1.5-0.2,2,0.6c-0.3,0.3-0.6,0.7-0.8,1
		c-0.1,0.1,0.1,0.4,0.2,0.7c0.2-0.2,0.5-0.3,0.5-0.5c0.1-0.4,0-0.9-0.1-1.3c1.8,0.3,3.4,0.3,5-0.8c0.6-0.5,1.4-0.9,2.2-0.9
		c4.8-0.6,9.2-2.5,13.8-3.8c2.7-0.8,4.9-2.1,7-3.8c1.3-1.1,2.4-2.2,2.8-3.8c0.8-3,3-5.7,2.2-9.1c-0.1-0.5,0.2-1.3,0.5-1.8
		c0.8-1.1,0.8-2.3,0.8-3.6c0-1.9,0.2-3.8,0.6-5.7c0.5-2.3-0.1-4.8,1.5-6.9c0.3-4.4,0.6-8.9,0.8-13.3c0.1-1.3-0.3-2.8,0.3-3.7
		c1.4-2.1,1.4-4.1,0.9-6.4c-0.3-1.1-0.1-2.2-0.1-3.3c-0.1-4.7,1.3-9.1,1.8-13.7c0.2-2.1,0.6-4.3,1-7c0,0.1-0.1-0.3-0.3-0.8
		c-1-2.1-1.3-4.2,0.1-6.4c0.3-0.4,0.4-1.3,0.2-1.7c-1-2-0.2-3.7,0.3-5.6c0.2-0.6,0.6-1.4,0.4-1.8c-1.9-2.7-0.5-5.1,0.6-7.5
		c-1.1-2.4-1.1-2.4-1-5.4c0-0.5,0-1-0.1-1.4c-0.5-3.5-1-6.9-1.7-10.3c-0.4-2.2-1.1-4.3-1.7-6.4c-0.8,0.1-1.3,0.1-1.7,0.3
		c-1.4,0.8-2.7,1.8-4,2.6c-1.1,0.7-2.1,1.6-3.3,1.9c-4,1-7.2-1.3-10.5-3c-0.3-0.1-0.5-1-0.3-1.2c0.3-0.4,1-0.9,1.5-0.8
		c1.1,0.2,2.1,0.7,3.1,1.2c3.9,1.6,9.6-0.2,11.8-3.6c1.1-1.7,2.1-3.6,3.1-5.4c0.4-0.7,0.6-1.5-0.6-2c-2,3.1-5.5,2.6-8.5,3.2
		c-0.6,0.1-1.5-0.7-2.3-1.1C715,278.2,716.1,277.5,717.1,276.9L717.1,276.9z M867.9,889.1L867.9,889.1c0.4-0.7,0.8-1.3,1.2-2
		c1.8-3.3,4.6-5.7,7.5-8c3.1,0,4.3-2.4,5.7-4.5c1.7-2.6,3.7-4.8,5.9-6.9c2.5-2.4,4.9-5,6.1-8.4c0.3-0.7,0.7-1.4,1.2-2
		c3.1-3.6,6.2-7.3,9.4-10.8c2.1-2.4,3.7-5.1,5.2-7.9c1.9-3.7,2.7-8.7,8-9.7c1.4-1.7,3.1-3.2,3.7-5.4c-0.6-0.8-1-1.4-1.5-2
		c1.2-2.3,2.3-4.7,3.6-6.8c1-1.6,2.3-3,3.5-4.5c0.7-0.9,1.5-1.7,1.9-2.7c0.6-1.4,1.2-2.8,1.2-4.6c0-1.8,0.3-3.8,2.9-4.8
		c0,1.8,0,3.4,0,5.6c0.6-0.8,1.1-1.1,1.2-1.5c0.6-2,1.2-4,1.7-6c0.5-2.2,0.8-4.4,3.3-5.5c0.7-0.3,1.1-1.5,1.5-2.4
		c1.7-4.3,3.7-8.4,6.9-11.9c3.1-3.5,5.9-7.5,7.5-12.1c0.9-0.2,1.7-0.4,2.6-0.5c0.7-1.9-0.8-4.1,1.2-5.4c2.7-6.8,5.4-13.7,7.9-20.6
		c0.7-1.8,0.8-3.7,1.4-5.5c1.2-3.9-0.4-8.3,2.2-12c0.3-0.4,0.2-1.3,0.1-1.9c-0.3-1.9-0.4-3.9-1.1-5.6c-1.4-3.5-2-7-2.5-10.7
		c-0.2-1.7-0.5-3.5-0.9-5.2c-0.2-0.7-0.5-1.5-1-2c-2.3-2.4-4.7-4.8-7.1-7.1c-1-1-2.3-1.8-3.1-2.9c-2.9-3.6-5.1-7.7-8.7-10.7
		c-2.7-4.8-6.9-8-11.3-10.8c-3.7-2.4-7.7-2.8-11.8-1.1c-3.9,1.7-7.8,3.7-11.8,5.3c-4.4,1.7-8,4.7-12,6.9c-0.5,0.3-1,0.8-1.3,1.4
		c-2,3.7-5.5,6.1-8.3,9.2c-1.5,1.6-3,3.3-5.2,4.1c-0.7,0.3-1.4,0.9-1.7,1.6c-0.9,2-2.1,3.5-4.1,4.4c-0.5,0.2-1,0.9-1.2,1.4
		c-1.1,2.6-3.4,4.2-5.3,6.1c-2.2,2.3-4.4,4.6-6.5,7c-3.4,4-6.9,7.9-11.3,11c-2.3,1.6-4.5,3.5-6.3,5.8c-1.9,2.5-3.9,5-6.7,6.7
		c-0.8,0.5-1.3,1.4-1.9,2.1c-3.1,3.8-5.8,8-9.6,11.2c-1.1,0.9-1.9,2.1-2.9,3.2c-2.8,3.5-5.6,7-8.5,10.4c-0.9,1.1-2.1,2-3.3,2.8
		c-1.5,1-0.7,2.7-1.6,3.9c-0.3,0.4-0.6,0.8-0.9,1.1c-1.4,1.7-2.6,3.7-4.3,5.2c-3.4,3.2-5.9,6.9-8,11.1c-2.4,4.8-6,9-9.1,13.4
		c-0.6,0.9-1.2,1.8-1.3,3c-0.2,3.4-1.9,6.1-4.3,8.3c-2,1.9-3.5,4.1-4.9,6.5c-1.4,2.3-2.8,4.7-4.4,6.9c-3.6,4.9-7.5,9.6-11,14.5
		c-6.3,8.9-12.8,17.6-20.1,25.6c-0.5,0.6-1.1,1.2-1.5,1.9c-3.1,4.9-6.2,9.7-8.4,15.1c-2.1,5.2-4,10.4-6.9,15.3
		c-1.1,1.8-1.5,3.8-1.4,6c0.1,2.6,0,5.1,0.1,7.7c0.1,1.1,0.5,2.1,0.8,3.1c0.8,2.2,1.7,4.5,2.5,6.7c0.3,0.7,0.6,1.5,1,2.1
		c2,3.2,4.5,5.7,8.1,7.1c2.7,1,5.4,2.2,6.2,5c1.5,0.6,3.3,0.7,4,1.6c1.3,1.8,2.8,2.4,4.9,2.3c0.7,0,1.6,0.3,2.2,0.8
		c3.7,3.2,8.7,2.6,12.8,4.6c1.7-0.4,3.1,0.5,4.6,0.8c2.3,0.5,4.4,1.6,7,1c1.5-0.3,3.2,0.1,4.7,0.5c7,2,13.8,0.9,20.4-1.7
		c2.1-0.8,4.3-1.7,6.4-1.7c1.5,0,2.7,0,3.8-1.1c0.4-0.4,1.1-0.4,1.7-0.6c1.9-0.6,3.9-1.4,5.2-3c1.3-1.6,2.4-3.3,3.6-5
		c2.5-3.4,6.1-5.4,10.5-5.4c4,0,7.9-0.3,11.8-1.6c3-1,6-2.1,9-2.8c3.2-0.8,6.2-2,9.1-3.7c2.3-1.3,4.5-2.8,6.7-4.2
		c1-0.6,2.3-0.4,2.8-2.1c0.4-1.2,2.1-1.9,2.4-3.1c0.5-1.6,1.4-2.8,2.5-4c0.8-1,1.5-2.1,2.1-3.2c1-1.8,2-3.6,2.8-5.5
		c1.7-4,3.6-7.9,4.8-12c1.8-5.8,3.3-11.6,5.6-17.2c0.6-1.5,1.2-3.2,0.6-5c-4,2-4,2-5.8,4.3c-1.5,1.9-2.9,3.8-4.6,5.5
		c-5,5.4-10.1,10.7-15.2,15.9C871.3,887.9,869.8,888.9,867.9,889.1z M321.5,646.7c2.2-0.7,4.3-1.9,6.4-1.9c2.7-0.1,4.2-2.2,6.4-2.9
		c0.8-0.2,1.5-0.4,2.3-0.6c0.8-0.2,1.6-0.1,2.3-0.4c2.9-1.3,5.7-2.8,8.8-3.5c2.5-2.6,6.2-2.2,9.2-3.6c1.1-0.6,2.5-0.9,3.5-1.6
		c5.1-3.8,10-7.9,14.3-12.7c1.9-2.1,3.2-4.4,3.5-7.2c0.2-1.4,0.5-2.8,0.7-4.3c0.2-1.2,1-2,2.3-2.1c0.3,0.3,0.7,0.7,0.8,1.1
		c0.3,1.1,0.4,2.2,0.7,3.3c0.2,0.9,0.6,1.7,1.1,2.8c1.2-0.7,2.2-1.1,3.1-1.7c0.9-0.6,1.5-1.7,2.5-2.2c3.2-1.7,5-4.9,7.8-6.9
		c0.4-0.3,0.7-0.7,0.8-1.2c1.3-3.9,2.6-7.8,3.9-11.8c0.5-1.4,0.9-2.7,1.4-4c0.3-0.7,0.8-1.4,1-2.2c0.8-5.3,1.6-10.7,2.4-16
		c0.2-1.3,0.2-2.6,0.4-3.8c0.5-3.3,0-6.4-1.4-9.4c-2.8-6.1-5.4-12.3-7.2-18.8c-0.5-1.8-1.4-3.1-2.7-4.4c-3.8-3.6-7.3-1.5-8.4,1.7
		c-1.1,2.9-3,4.8-5.5,6.2c-0.2,2.6-0.6,4.9-0.6,7.3c0,2.7,1,5.3,0.5,8.1c-0.1,0.5,0.3,1.2,0.6,1.7c3.4,5.7,4.4,11.9,4,18.4
		c-0.2,4.6-1.3,8.8-5.1,12c-0.7,0.6-1.5,1.2-2.3,1.7c-1.8,1.1-2.8,2.6-2.9,4.7c-0.2,3.5-1.7,6.5-4.1,9c-1.3,1.4-1.9,2.9-2.2,4.7
		c-0.3,1.9-0.5,3.8-1.1,5.6c-1.7,5.6-6.6,8.8-12.4,8.5c-2.3-0.1-4.2-1.3-6.4-1.9c-3.8-1.1-5.5-3.5-5.6-7.3c0-0.3-0.3-0.5-0.6-1.1
		c-1.1-0.5-2.4-0.9-3.7-1.6c-1.2-0.6-1.3-2.6-0.2-3.2c0.8-0.4,1.9-1,2.7-0.8c2.6,0.6,5.3,1,7.6,2.6c1.2,0.9,1.6,2,1.3,3.3
		c-0.3,1.1-0.6,2.1-0.8,3c0.3,0.5,0.4,0.9,0.6,1.1c5.4,5.1,4.3,5.1,11.1,0.7c0.7-0.5,1.4-1.4,1.6-2.3c1.6-7.4,0.3-14-5.3-19.4
		c-0.9-0.8-2.1-1.5-3.3-1.9c-3.6-0.9-7.1-1.8-10.9-0.8c-1.2,0.3-2.5,0.2-3.8,0.1c-0.8,0-1.6-0.3-1.7-1.7c2.8-2.3,6.2-3.6,9.9-3.5
		c3,0.1,6.1,0.7,8.9,1.6c2.4,0.7,4.4,2.2,6,4.4c2.2,2.9,4,6,5.8,9.6c1.2-2.8,1.9-5.2,2.7-7.6c1-3.2-0.8-5.8-1.1-8.7
		c-2.7-4.9-5.6-9.7-9.8-13.5c-2.2-1.9-4.6-3.6-7.6-3.6c-3.8,0.1-7.6-0.5-11.4,0.9c-1.8,0.6-3.8,0.6-5.7,0.7c-0.5,0-1-0.5-1.4-0.7
		c0.1-0.5,0.1-0.7,0.2-0.8c0.3-0.3,0.6-0.7,1-0.9c5.2-3.2,10.7-4.7,16.9-4.1c7.2,0.6,9.3,2.6,14.4,7c4,3.4,6.2,8.1,7.8,13
		c0.4,1.3,0.5,2.8,2,3.8c1.6-1.1,2.5-2.7,3.4-4.4c2.8-5.2,1.9-10.7,0.2-15.8c-2.1-6.4-5.7-12.2-10.3-17.1c-2.8-3-6.5-4.1-10.3-4.4
		c-5.1-0.4-9.7,1.3-13.9,4.3c-2,1.5-4.2,2.9-6.3,4.3c-0.4,0.2-0.9,0.3-1.4,0.3c-0.3,0-0.6-0.2-0.8-0.4c-0.2-0.2-0.3-0.6-0.2-0.8
		c0.3-0.6,0.6-1.1,1-1.6c2.9-3.8,6.4-7.1,10.2-9.6c0.2-3.7,0.5-4.6,2.3-7.4c0.4-0.7,0.8-1.4,1.3-2c2.7-4.6,6.2-7.5,12.1-6.1
		c1.9,0.4,3.6,0.8,5.2,1.9c2.4,1.7,4.8,3.2,7.9,3.8c0.9-0.7,2-1.4,2.9-2.2c0.5-0.5,1-1.3,1.2-2c0.4-2-0.3-3.8-1-5.6
		c-0.6-1.5-1.2-3.1-3-3.5c-2.9-0.7-2-4.6-4.3-5.3c-2.4-0.7-4.5-1.4-5.9-3.6c-0.3-0.4-0.6-0.8-0.9-1.1c-0.6-0.5-1.3-1.1-2-1.2
		c-4.5-1-8.6-3.1-13.4-3.1c-3.8,0.1-7.3,0.6-10.4,2.8c-3.6,2.5-6.8,5.4-8.9,9.3c-2,3.7-4.7,7.3-4.7,11.9c0,0.9-0.5,1.8-0.7,2.8
		c-0.2,1.2-0.4,2.5-0.6,3.8c-0.5,3.8-1,7.5-1.6,11.3c-0.1,0.8-0.7,1.4-0.9,2.2c-1.2,3.6-4.5,6.2-5.1,10.1c-0.1,0.6-1,1.2-1.6,1.7
		c-4.3,3.7-6.9,8.3-8.5,13.6c-0.7,2.1-1.4,4.3-2,6.4c-0.9,3.2-1.1,6.8-2.5,9.7c-1.6,3.3-1.5,6.4-1.2,9.7c0.1,0.7-0.5,1.5-0.7,2.2
		c-0.4,1.4-0.3,2.7,0.6,4.1c0.9,1.3,1.7,2.8,1.9,4.3c0.2,1.5-0.4,3-0.6,4.5c0.7,0.5,1.8,0.6,1.5,1.6c-0.3,1.1-0.7,2.6,0.3,3.1
		c2.2,1.1,1.9,3.4,2.7,5.1c2,4.4,3.9,8.7,5.8,13.2C315.9,641.2,318.3,644.3,321.5,646.7z M673.3,494.5c0.9,1.4,1.5,2.4,2.2,3.2
		c2.2,2.9,4.5,5.8,6.8,8.7c4.7,6.2,8.2,13,10.2,20.5c1.6,5.9,2.6,11.9,2.9,18c0.7,12,0.4,24-1.1,35.9c-1.8,13.8-3.9,27.5-5.9,41.3
		c-1.5,10.1-2.7,20.3-3,30.5c-0.2,5.1,0.3,10.2,1.1,15.3c1.1,8,4.4,15.3,8.6,22.2c3.8,6.1,8.4,11.6,13.1,17.1
		c4.2,4.8,8.2,9.8,11.9,15c4,5.6,7.1,11.8,8,18.8c1.4,10.3,2.6,20.6,3.6,31c0.5,5.2,0.6,10.6-0.5,15.8c-1.2,5.5-2.6,10.9-3.6,16.4
		c-2.1,11-6.4,21-11.7,30.8c-3.2,5.9-6.3,11.9-9.4,17.8c-0.9,1.8-1.6,3.8-2.5,5.8c1.7,0.5,3.1,0.8,4.3,1.4c2.4,1.4,4.8,1.1,7.2,0.6
		c0.8-2,1.4-3.8,2.3-5.5c4.9-9.9,10-19.7,14.9-29.6c1.5-3,2.6-6.2,3.4-9.5c1.9-7.9,3.7-15.9,5.2-23.9c1.5-7.6,1.9-15.3,1.1-22.9
		c-1-10-2.3-20-3.3-30c-0.5-5.5-2.4-10.6-5.1-15.3c-3.5-6.1-7.5-12-12.1-17.3c-4.6-5.4-8.6-11.1-11.7-17.5c-0.8-1.7-1.4-3.6-4-3.6
		c-0.6,0-1.2-0.9-1.7-1.6c-4.4-6.4-7.1-13.6-7.8-21.4c-0.3-3.7-0.2-7.3-0.2-11c0-0.6,0.2-1.2,0.3-1.7c1.9-0.2,2.2-0.4,2-1.4
		c-1.2-4.9-1.2-9.8-0.3-14.7c2.5-14.3,4.8-28.7,7.2-43c0.9-5.5,1.8-11,1.3-16.7c-0.4-4.6-0.5-9.2-0.6-13.9
		c-0.1-4.6-0.1-9.3-0.2-13.9c-0.6-18.6-6.3-35.4-18-50.1c-1.2-1.5-2.5-2.8-3.7-4.2C680.8,492.8,677.4,493.6,673.3,494.5z
		 M697.1,907.8c0.4-2,0.7-3.2,0.9-4.5c0.4-2,1.3-3.6,3.3-4.4c0.6-0.2,1.1-0.7,1.6-1.1c1.9-1.6,4.1-2,6.6-2.3c2.9-0.4,6-1.1,8.6-2.5
		c5.1-2.8,8.7-7.3,11.6-12.4c3.6-6.4,6.9-12.9,10.4-19.4c1.1-2,2.2-3.8,4.1-5.3c1.5-1.2,1.4-1.3,1.8-3.7c-3.4,1.6-7,3-10.2,5
		c-4.3,2.6-9.4,4.1-12.7,8.2c-0.7,0.8-1.8,1.2-2.9,1.9c-0.7-0.5-1.3-1.1-2-1.4c-0.8-0.3-1.9-0.7-2.7-0.5c-3.8,1-7.3,0.1-10.5-1.9
		c-2.2-1.3-4.8-1.7-6.5-3.9c-0.2-0.3-0.8-0.4-1.3-0.6c-2.7-1-5.4-1.9-8-2.9c-1.3-0.5-2.7-1.1-3.7-2c-3.5-2.8-7.5-4.5-11.2-6.9
		c-4.9-3.2-10.3-5.9-15.3-8.9c-3.3-2-7.1-2.7-10.2-5.1c-0.6-0.5-1.5-0.4-2.3-0.7c-0.9-0.3-1.9-0.4-2.7-0.9
		c-4.4-2.9-9.7-3.8-14.5-5.8c-0.7-0.3-1.5-0.5-2.3-0.6c-1-0.1-1.9,0-2.5,1.4c1,2.1,2,4.4,4.3,5.9c0.7,0.4,1.5,0.8,1.8,1.5
		c1.6,3.4,4.9,5.5,6.6,8.7c0.7,1.4,1.1,3.2,2.2,4.1c2.9,2.6,4.8,5.8,7,8.9c4.1,5.9,7.7,12.1,10.6,18.6c0.3,0.6,0.6,1.2,1,1.6
		c2.3,2.3,3.5,5.3,4.7,8.3c0.8,2.1,1.5,4.2,3.1,5.7c1.4,0,2.6,0,3.9,0c1.2,0,2.5-0.1,3.7,0.1c2.4,0.4,4.5,1.5,6.5,2.9
		c0.7,2.8,3.4,3,5.4,4.3c1.6,1,3.2,2.2,4.4,3.6c1.1,1.2,2,2.3,3.4,3.2C694.4,905,695.4,906.2,697.1,907.8z M800.2,643.8
		c0.5,3.1,1.5,5.7,2.5,8.1c0.7,1.6,1.3,3.2,1.2,5c-0.2,2.8,0.7,5.3,1.9,7.8c0.6,1.3,1,2.7,1.3,4c0.6,3.1,0.7,6.4,1.7,9.4
		c1.1,3.2,1.9,6.3,2.1,9.6c0.1,0.9,0.5,1.8,0.9,2.7c0.9,2.2,1.7,4.5,2.8,6.5c2.8,5.3,3.3,11.7,7.5,16.4c0.6,0.7,0.8,1.7,1.2,2.6
		c0.4,0.9,0.8,1.7,1.3,2.6c2.5,4.4,5,8.9,7.5,13.3c0.4,0.7,1.2,1.2,2,1.9c1.3-1.6,2.3-3.1,3.5-4.3c4.5-4.6,9-9.1,13.5-13.6
		c1.9-1.9,4-3.7,6.1-5.4c2.5-2,4.8-4.2,6.7-6.8c1.2-1.7,2.6-3.2,4.1-4.7c4.2-4.2,8.4-8.3,12.6-12.5c1.4-1.5,2.7-3.1,3.9-4.8
		c0.4-0.5,0.7-1.1-0.3-1.9c-0.7,0.6-1.6,1.2-2.4,1.8c-1.4,1-2.8,1.2-3.9,0.2c-2.5-2.3-5.5-2.5-8.8-2.8c-3.8-0.2-7.6-0.8-11.2-2
		c-2.9-0.9-5.6-2.1-8.7-2.3c-2.1-0.1-4-0.6-5.7-2c-1.6-1.3-3.6-2.2-5.8-1.6c-1.4,0.3-2.4-0.4-3.6-1c-3.6-1.9-6.5-5.2-10.8-6
		c-0.6-3.1-2.6-4.7-5.4-5.1c-0.4-1.2-0.7-2-1.1-3.4c-2.4,0.3-4.1-1.1-5.4-3c-0.2-0.3-0.5-0.5-0.7-0.6c-2.9-1.5-5-3.9-6.7-6.6
		C803.2,644.5,802.1,643.9,800.2,643.8z M559,735.2c1.7-0.7,2-1.7,2-2.9c0-2.5,0.1-5.1,0-7.6c0-1-0.1-1.9,0.8-2.6
		c1.2-0.9,1.3-1.9,0.6-3.3c-0.4-0.7-0.2-1.8-0.1-2.7c0.4-2.4,1.6-4.8,1.2-7c-0.6-2.9,0.1-5.3,1.1-7.9c0.5-1.3,0.3-2.7-0.1-4.2
		c-0.6-2.6-0.8-5.3-1-8c0-0.4,0.3-0.9,0.4-1.3c0.3-0.9,0.6-1.8,0.9-2.5c-1.9-2.1-2.5-2.3-4-1.3c-1,0.7-1.7,1.9-2.8,2.4
		c-2.4,1-4.5,2.2-6.5,3.8c-0.6,0.4-1.7,0.9-2.1,0.7c-1.6-1-2.7-0.1-4,0.6c-3.6,1.9-7.4,3.6-11.2,5c-2.8,1-5.8,2.6-6.4,6.3
		c0.8,0.9,1.4,1.6,2,2.3c2.1,2.4,4.3,4.7,6.5,7.1c3.7,4.1,7,8.7,11.2,12.4c3,2.6,5.7,5.6,8.6,8.4C557,733.5,558,734.3,559,735.2z
		 M720.8,987.8c0.9,1.2,0.7,2.3,0.1,3.5c-0.8,1.7-2.1,3.4-2.3,5.2c-0.4,3.8-2.4,6.9-3.6,10.3c-2,5.3-5.6,10-6.2,15.9
		c-0.1,0.7-0.6,1.5-1,2.2c-0.7,1.4-1.5,2.8-2.2,4.2c-1.6,3.2-1.3,4,2.5,5.8c2.5-2.9,5.1-5.9,7.7-9c3.1-3.7,6.1-7.4,9.2-11.1
		c0.7-0.8,1.3-1.7,2.7-1.8c-0.4,1.5-0.6,2.7-1.1,3.9c-1.5,3.4-2.2,6.9-3.1,10.5c-0.7,2.8-0.6,5.5,0.7,8.3c0.6-0.4,1.1-0.6,1.4-0.9
		c2.7-2.5,5.3-5.1,7.9-7.6c0.9-0.9,1.9-1.8,2.4-3c1.4-3.6,4.1-6.5,6.1-9.6c1.4-2.1,2.9-4.2,4.5-6.2c0.5-0.7,1.4-1.2,2.5-2.1
		c0,3.1,0.4,5.7-0.1,8.1c-0.5,2.7-0.2,5.8-2.4,8.1c-0.4,0.5-0.9,1.4,0,2.2c0.3-0.3,0.8-0.5,1-0.9c2.4-5.3,3.7-10.8,4.8-16.5
		c0.4-2.2,0-4.4-2.2-6.1c-3,2.8-6,5.2-8.2,8.7c-2.8,4.4-6.3,8.4-9.5,12.6c-0.6,0.8-1.3,1.5-2.5,0.4c0.2-0.6,0.3-1.4,0.6-2.1
		c1.4-3.2,2.7-6.5,4.2-9.7c2.5-5.2,2.3-10.8,2.9-16.4c-0.7,0-1.4-0.2-1.6,0c-3.1,3.1-6.7,5.9-9,9.9c-1.5,2.6-3.5,4.9-5.6,7.1
		c-1.1,1.1-1.9,2.1-1.8,3.7c0,0.8-0.1,1.8-0.5,2.3c-1.5,1.5-3.2,2.9-4.9,4.4c-0.8-1.3-0.4-2.5,0.2-3.7c0.7-1.4,1.8-2.7,2.3-4.2
		c3.2-8.3,6.6-16.6,8.9-25.3c1.3-5.1,1.4-5.1-0.4-9.6c-0.1-0.3-0.3-0.5-0.6-0.9c-3.5,1.6-6.5,3.7-8.3,7.4c-2.4,4.9-5.1,9.6-7.5,14.4
		c-0.6,1.2-0.9,2.6-1.3,4c1.4-0.6,2.3-1.4,2.9-2.4c0.8-1.2,1.4-2.5,2-3.8C714.4,994,717.4,990.4,720.8,987.8z M377,536.9
		c-4.1-0.7-7.1-3.2-10.4-5.2c-3.5-2.1-3.4-2.1-7.5-0.9c-2.9,0.8-4.6,2.6-5.2,5.3c1.7,3,4.1,3.9,7.3,4c2.8,0.1,5.6,1,8.4,1.6
		c0.3,0.1,0.7,0.3,0.8,0.5c0.7,1.4,1.9,2,3.3,2.4c1.4,0.4,1.5,2.5,3.3,2.6C377,543.9,377,540.7,377,536.9z M680.8,1048.5
		c1,1.7,2.2,3.4,3,5.2c1.1,2.4,2.9,4.1,5.1,5.4c0.5,0.3,1.1,0.6,1.7-0.1c-0.8-2.5-1.3-3.8-2.8-4.7
		C685.1,1052.9,683.4,1050.4,680.8,1048.5z M691.5,1060.7c3.4,3.9,6.8,6.4,9.8,9c0.5,0.4,1,0.6,1.6-0.2c-2.2-3.5-5.2-6.2-8.4-8.8
		C694.1,1060.4,693.2,1060.7,691.5,1060.7z M718.4,1079.2c1.7,1.7,3.3,3.2,5.5,3.6c0.7,0.2,1.2-0.4,1.1-1.1c0-1.2-0.8-2.2-1.6-1.8
		c-1.6,0.8-2.3-0.3-3.3-0.8C719.6,1078.9,719,1079.1,718.4,1079.2z M594.8,946.9c0.1,1.8,1.1,2.5,2.4,2.5c0.2,0,0.3-0.4,0.6-0.8
		C596.8,948,595.8,947.5,594.8,946.9z M799.9,991.1c1.6,1.4,1.6,1.4,3.6,1.6C802.5,991.5,801.8,990.6,799.9,991.1z M816.7,941.4
		c-0.2,0.3-0.5,0.7-0.6,1c-0.1,0.2,0.2,0.6,0.4,0.7c0.5,0.3,1-0.4,0.9-1.1C817.3,941.8,817,941.7,816.7,941.4z M586.3,938
		c-0.3,0.1-0.5,0.2-0.8,0.3c0.1,0.1,0.2,0.3,0.3,0.3c0.3,0,0.6-0.1,0.9-0.1C586.5,938.3,586.4,938.1,586.3,938z M319,654.5
		c-0.1-0.2-0.2-0.5-0.3-0.7c-0.1,0.1-0.2,0.3-0.2,0.4c0.1,0.2,0.2,0.5,0.3,0.7C318.9,654.7,319,654.6,319,654.5z M600,950.3
		l-0.2,0.3l0.3,0.1L600,950.3z"/>
	<path class="st0" d="M1005.2,425c-4.1-2.2-7.8-4-12-4.4c-0.6-0.1-1.4-0.4-1.8-0.2c-2.6,1.2-5.3,0.5-8,0.6c-0.5,0-1,0.3-1.4,0.1
		c-3.3-1.8-6.8-1.1-10.3-1.6c-3.6-0.5-7.2-0.9-10.5-2.6c-0.5-0.3-1.2-0.5-1.8-0.5c-1.4-0.2-2.9-0.3-4.3-0.3c-2.1-0.1-4.2,0-6.2-0.1
		c-2.1-0.1-3.7-1.6-5.9-1.7c-1.3-0.1-2.7-0.8-4.2-0.7c-0.9,0.1-1.8-0.4-2.8-0.6c-1.2-0.2-2.5-0.7-3.7-0.6c-3.2,0.4-5.3-2-7.8-3.1
		c-0.7-0.3-1-1.8-1.5-2.9c1.5-1.4,3.2-1.3,4.7-1c2.2,0.4,4.3,0.8,6.6,0.4c1.1-0.2,2.2,0.1,3.3,0.4c4.5,1.2,9,2.2,13.6,2.6
		c4.6,0.4,9.1,1.3,13.6,2c0.6,0.1,1.3,0.3,1.9,0.3c5.7-0.8,7.6-0.5,13.2,0.4c4.5,0.8,9,2.2,13.7,2.1c1.1,0,2.3,0.3,3.2,0.8
		c2.8,1.6,5.8,1.6,8.8,1.7c4.5,0,8.9,0.5,13.3,1.5c0.6,0.1,1.3,0.5,1.9,0.4c1.7-0.2,3.4-0.7,5.1-0.7c1.7,0,3,1.6,5,1.4
		c1.2-0.1,2.5,0.3,3.8,0.5c0.8,0.1,1.6,0.5,2.3,0.4c3.6-0.7,7,0.4,10.4,1c3.6,0.6,7.2,1.3,10.8,2c1.3,0.2,2.6,0.3,3.7,0.8
		c1.5,0.7,2.9,1.3,4.4,0c0.2-0.2,0.7-0.3,0.9-0.2c3.3,1.7,7-0.5,10.3,0.8c0.4,0.2,1,0.2,1.4,0c2.7-1.4,4.9-0.3,7,1.3
		c1.1,0.8,2.4,1.1,3.6,0.7c1.6-0.6,3-0.9,4.1,0.9c0.2,0.3,0.9,0.4,1.3,0.3c2.3-0.3,4.4,0.6,6.6,1c2.3,0.4,4.7,0.6,7.1,0.9
		c1.9,0.2,3.8,0.2,5.7,0.7c5.6,1.4,11.2,2.3,17,2.2c0.8,0,1.7-0.1,2.4,0.2c3.4,1.6,6.9,0.9,10.3,0.8c3.6-0.1,6.9,0.6,9.9,2.4
		c3.5,2,7.1,2.8,11,1.7c1.8-0.5,3.4,0.3,5.1,1c1.2,1.7,0.7,3.6,0.5,5.5c-2.2,1.5-4.4,2.6-7.2,1.3c-0.5-0.2-1.2,0-1.9,0.1
		c-3.6,0.4-7.2-0.4-10.8-0.5c-0.9,0-1.8-0.6-2.7-0.9c-0.8-0.2-1.7-0.7-2.3-0.5c-2.4,1.2-4.3-0.3-6.4-0.8c-4.1-0.8-8.1-1.7-12.2-2.4
		c-1.1-0.2-2.2,0.2-3.3,0.3c-2.4,0.1-4.8,0.2-7.2,0.3c-0.8,0-1.8,0-2.3-0.4c-1.8-1.7-4.2-1.3-6.2-2.1c-1.1-0.5-2-0.7-3.1,0.1
		c-0.5,0.3-1.2,0.6-1.8,0.4c-5.6-1.4-11.3-1.7-17-2.1c-0.5,0-1-0.1-1.4-0.2c-3.4-1.2-6.9-2.4-10.6-2c-0.6,0.1-1.2-0.3-1.8-0.6
		c-1.5-0.9-3-0.7-4.7-0.7c-4.2,0-8.3,0-12.5-0.1c-2.1-0.1-4-0.6-6-1.3c-3.6-1.3-7.4-1.8-11-2.7c-5.9-1.5-12-1.8-18.1-1.8
		c-1.1,0-2.2-0.4-3.2-0.7c-1.5-0.5-3.1-0.9-4.5-1.7C1010.2,422.9,1007.7,423,1005.2,425z M1021.6,423.9c-0.4-0.5-0.7-0.9-1.1-1.1
		c-0.3-0.1-0.8,0.1-1.2,0.2c0.3,0.3,0.5,0.8,0.8,1C1020.5,424.2,1021,424,1021.6,423.9z"/>
	<path class="st0" d="M971.7,555.9c-1-0.2-2.2-0.1-2.6-0.6c-1.8-2.5-5.1-3.9-5.8-7.3c-1.9-2.2-1.5-4.8-1.2-7.3
		c0.3-2.8,1.2-5.6,1.5-8.4c0.6-4.6,1-9.2,1.6-13.8c0.4-3.3,0.7-6.7,1.7-9.9c1.5-4.7,0.3-8.1-3.7-11.1c-2.6,0.3-4.5,2-6.2,3.9
		c-3.8,4.4-7,9.1-8.6,14.8c-0.4,1.4-0.4,2.8-0.7,4.2c-0.3,1.2-0.4,2.6-1.1,3.6c-1.3,1.8-1.5,3.8-1.5,5.9c0.1,3.7,0.9,7.2,2.9,10.4
		c0.5,0.8,0.8,1.7,0.9,2.6c0.4,2,0.5,4.1,0.9,6.2c0.5,2.7,1.1,5.3,1.7,7.9c0.7,2.9,1.7,5.4,4.3,7.3c1.2,0.8,1.8,2.2,1.9,4.1
		c-0.8,0-1.6,0.3-2.2,0c-2.5-1.2-4.6-2.9-5.4-5.7c-1.5-5.3-3.8-10.5-4.3-16.1c-0.2-2.5-2-4.8-1.2-7.5c0-0.1-0.1-0.3-0.2-0.4
		c-2.9-2.4-2-5.8-2.6-8.9c-0.6-3.1-0.1-6,0.8-8.9c0.7-1.9,0.7-4.1,1.4-6c0.7-1.9,2.1-3.5,1.8-5.7c0-0.3,0.1-0.7,0.3-0.9
		c3.1-3.2,4.4-7.7,7.6-10.9c2.6-2.6,5.4-4.3,9.2-4.4c0.5-1.8,0.8-3.7,1.4-5.4c1.2-3.5,3.4-6.4,6.3-8.8c2.5-2,4.8-4.2,7-6.5
		c3-3.2,6.9-4.5,10.8-6c0.3-0.1,0.6-0.2,0.9-0.2c5.1,1.3,10.2-0.3,15.3-0.1c3.5,0.1,6.6,0.9,9.5,2.8c1.4,1,2.8,2.2,3.8,3.6
		c2.3,3.2,4.6,6.5,6.5,10c2,3.8,3.3,7.9,4.1,12.2c0.5,2.6,0.5,5.3,2.6,7.5c0.6,0.7,0.5,2.1,0.6,3.2c0.1,2.5,0,5.1,0,7.7
		c0.7,0.5,1.3,1,2,1.3c2.9,1.3,5,3.4,6.8,6c0.8,1.2,1.5,2.6,2.7,3.3c2.4,1.4,3,3.5,3.5,5.9c0.5,2.2,1,4.4,2,6.3
		c1.4,2.5,1.8,5.4,3.8,7.6c0.6,0.6,0.7,1.8,0.8,2.7c0.4,3.6,0.7,7.3,1,11c0.1,1.4,0,2.9,0.2,4.3c0.9,5.2,0.1,10.2-1.5,15.1
		c-0.1,0.5-0.4,0.9-0.4,1.4c0.1,4.1-2.1,7.3-4.2,10.5c-1.2,1.9-1.9,4-2.8,6c-0.4,0.9-0.6,1.8-1.1,2.7c-1,1.9-2.2,3.7-3.4,5.8
		c-0.6-3.8-0.5-5,1.2-6.7c1.7-1.7,2.3-3.8,2.4-6c0.1-1.5,0.1-2.9,1.2-4c1-1.1,1.2-2.6,1.2-4.1c0.1-1.6,1.3-2.1,2.6-2.8
		c-0.4-0.8-1-1.6-1-2.4c0-0.9,0.8-1.7,1-2.5c0.2-1,0.2-2.1,0.3-3.2c0.6,0.1,1.2,0.3,1.8,0.4c0.9-0.8-0.2-1.3-0.3-1.9
		c-0.5-2-0.8-4-0.2-6.1c0.8-2.7,0.5-5.3-0.2-7.9c-0.3-1.1-0.4-2.2-0.5-3.3c-0.2-1.7,0-3.6-0.6-5.2c-0.6-1.6-1.1-3.3-1.6-4.9
		c-0.6-2.1-2.1-3.9-3-5.9c-2.3-5.1-5.9-9.4-9-14c-1.6-2.3-4-3.6-6.6-4.6c-2.3-0.9-3.2-2.5-3.2-4.8c0-1.4-0.2-2.9,0-4.3
		c0.6-4.1-0.4-7.9-2.1-11.5c-0.4-0.9-0.6-1.8-0.8-2.7c-0.4-2-0.3-4.3-1.2-6c-1-1.9-0.9-4.1-1.7-5.8c-2-3.9-4.2-7.9-8.4-10
		c-2.6-1.2-5.4-2-8.1-3c-0.7-0.2-1.6-0.4-2.3-0.2c-4.1,1-8.3,0.6-12.4,0.9c-1.1,0.1-2.2,0.5-3.1,0.9c-5.7,2.8-10.6,6.6-14.1,11.9
		c-2.2,3.3-3.5,7.1-3.3,11.3c1.8,1.6,3.5,3.1,5.4,4.8c4-1.3,7.7-2.9,10.5-6.3c1.5-1.8,3.7-2.4,5.8-3.1c4.4-1.5,4.5-1.6,8.4,0.8
		c1.9,1.1,4.1,2,4.9,4.3c0.1,0.4,0.2,0.9,0.3,1.4c-2.3,0.6-2.7-1-3.2-2.7c-1.4-0.3-3-0.6-4.5-0.9c-0.6-0.1-1.4-0.2-1.9,0
		c-2.9,1.3-6.2,1.7-8.7,3.9c-3.2,2.7-6.5,5.1-10.7,6.2c0,1.3,0.1,2.6,0,3.7c-0.1,1.1-0.6,2.1-0.9,3c0.7,0.9,1.3,0.6,1.8,0.3
		c2.8-1.9,6-2.1,9.2-2.2c2.7-0.1,5.4,0,8.2,0c3.3,0,6.2,1.2,9.2,2.3c1.2,0.4,1.2,1.3,0.2,3c-3.5-0.4-7-0.6-10.4-1.4
		c-4.6-1.2-8.8,0.7-13.2,1.4c-0.4,0.1-0.9,0.4-1.2,0.7c-3,3-6.3,5.7-7.8,10.1c-0.6,1.8-1.4,3.4-1.7,5.3c-0.2,1.7-1,3.4-1.9,4.9
		c-2.6,4.3-1.4,8.7,0,12.9c0.9,2.8,2.1,5.7,4.6,7.7C971.8,554.7,971.7,555.2,971.7,555.9z"/>
	<path class="st0" d="M1063.4,250.6c-0.6-0.9-1.2-1.8-1.9-2.9c-1.8,1.3-3,3.1-5.2,3.5c-1,0.2-1.5,1.5-1.5,2.8c0,0.6,0.5,1.2,0.1,1.6
		c-2.4,0.2-4.6,0.5-6.7,0.7c-1.6,1.7-1.7,4.5-4.9,4.7c-0.4-0.7-0.7-1.6-1.3-2.3c-0.5-0.5-1.3-1.1-1.9-1c-1,0.2-0.9,1.2-0.6,1.9
		c0.3,0.9,0.8,1.7,1.4,2.9c-1.1,0.6-2.2,1.2-3.3,1.6c-0.5,0.2-1.2-0.1-1.8-0.3c-2.3-0.9-2.5-0.8-2,2c0.1,0.7,0.1,1.3-0.5,1.6
		c-0.4,0.2-1,0.1-1.3-0.1c-0.4-0.4-1-1-0.9-1.5c0.1-1.3,0.6-2.5,0.9-3.7c0.1-0.5-0.1-1.1-0.1-1.8c-2.6,1-1.6,3.5-2.8,4.9
		c-0.6,0-1.2,0.1-2,0.1c-0.5,1-1.1,2.2-1.6,3.2c-0.4,0.1-0.7,0.3-1,0.3c-1.8-0.1-3.4,0-5,1.1c-0.9,0.6-2,0.9-3.1,1.2
		c-1.2,0.4-2.4,0.8-3.6,1.2c-0.8,0.3-1.5,0.8-2.2,0.8c-2.8,0.1-5.1,1.6-7.6,2.9c-0.4-0.6-0.6-1.3-1-1.5c-0.4-0.2-1.3,0-1.6,0.4
		c-0.7,0.8-1.2,1.9-1.8,3c-1.4,0.9-3.2,0.3-5.6,0.1c-0.5,0.6-1,1.7-1.8,2.4c-0.7,0.6-1.7,1.2-2.5,1.1c-1.9-0.3-2.8,0.8-4.1,1.7
		c-2.5,1.7-5.3,2.9-8,4.3c-0.6,0.3-1.6,0.2-1.8,0.6c-0.7,1.6-1.9,1.5-3.2,1.2c-3.1-0.7-5.6,0.7-7.8,2.4c-1.9,1.5-3.5,3.1-6.3,2.4
		c-0.8-0.2-2.2,0.1-2.7,0.7c-2.2,2.5-6,2.1-8.3,4.4c-0.6,0.6-1.8,0.7-2.7,0.6c-2.1-0.2-4,0.3-6,0.9c-3.1,0.9-6.2,1.4-8.5,3.9
		c-0.3,0.3-0.8,0.4-1.3,0.6c-1.7,0.6-3.9-0.7-5.4,1c-1.7-0.1-3.5-0.2-5.6-0.3c-0.8,0.7-1.3,2.6-3.1,2.7c-1.4,0.1-2.8-0.3-4.6-0.5
		c-0.3,0.4-0.8,1-1.2,1.7c-0.5,1-1.3,1.3-2.3,1.3c-0.6,0-1.5-0.3-1.8,0c-3.4,3.1-8.7,2.3-11.9,5.8c-3.6,1.1-6.7,3.6-10.7,3.6
		c-0.8,0-1.7,0-2.3,0.4c-3.7,2.4-8.2,2.6-12.2,4c-1.4,0.5-3.1,0.3-4.7,0.4c-0.5,0-0.9-0.2-1.4-0.4c-1.1-0.5-1.8-1.4-1.7-2.6
		c0-1.1,0.7-1.7,1.6-2.1c1.2-0.5,2.3-1,3.5-1.4c3-1.1,6-2.2,9-3.1c3.7-1.1,7.1-2.9,10.6-4.2c4.3-1.6,8.7-3.2,13.3-3.6
		c0.9-0.1,1.8-0.6,2.6-1c1.7-0.8,3.4-1.7,5.2-2.3c1.7-0.6,3.5-0.6,4.5-2.3c0.1-0.2,0.5-0.4,0.8-0.5c6-1.1,11.1-4.8,17.3-5.2
		c1.6-0.1,3.1-0.4,5-0.6c0.5-2.5,2.2-3.8,5.1-4.3c5-0.9,9.9-2.2,14.4-4.7c0.7-0.4,1.5-0.5,2.3-0.6c3.2-0.5,6.2-1.5,8.9-3.2
		c0.7-0.4,1.4-0.9,2.1-1c1.6-0.2,2.6-0.9,3.6-2.1c1.5-1.9,3.5-2.3,5.6-1.3c2.4,1.1,4.4,0.7,6.8-0.5c2.7-1.3,5.6-2.3,8.1-3.9
		c0.8-0.5,1.8-0.7,2.7-0.9c1-0.2,1.8-0.5,2.2-1.5c0.5-1.4,1.7-1.8,3-2c4.5-1,9.2-1.5,13.5-3c3.5-1.3,7.3-2,10.4-4.6
		c1.7-1.4,3.8-2.8,6.3-2.9c1.2-0.1,2.3-1.1,3.5-1.5c1.8-0.5,3.9-0.5,5.5-1.3c1.6-0.9,2.7-2.8,4.3-3.7c1.4-0.9,3.2-1.2,4.9-1.6
		c2.5-0.6,5-0.8,7.5-1.5c1.7-0.4,3.5-1,4.8-2c1.8-1.4,3.6-1.9,5.8-1.8c1.7,0.1,3.1,0,4.1-1.7c0.3-0.5,1.4-0.7,2.1-0.7
		c0.5,0,1.3,0.3,1.5,0.7c0.4,0.9-0.2,1.5-1,1.8c-0.9,0.3-1.8,0.6-2.7,0.9c-0.2,1.2-0.4,2.2-0.5,3.2c-1.2,0.9-2.4,1-3.7,0.7
		C1063.3,250.5,1063.4,250.6,1063.4,250.6z"/>
	<path class="st0" d="M289.5,330.9c-0.9,0.5-1.6,0.9-2.3,1.3c-1.1,0.5-2.2,0.4-3.2-0.2c-2.3-1.4-4.6-2.7-7-4.1
		c-0.1-0.1-0.3-0.2-0.4-0.2c-3.1-0.7-6.1-1.7-9-3.2c-2.8-1.4-6-1.9-9.1-2.7c-0.4-0.1-1-0.1-1.4-0.1c-2.5,0.3-4.3-0.6-5.2-3.1
		c-0.2-0.7-0.9-1.4-1.6-1.7c-2.4-0.8-4.8-1.5-7.2-2.2c-1.7-0.5-3.3-0.9-5-1.4c-0.4-0.1-1-0.4-1.3-0.2c-1.9,1.3-3.3,0-4.8-0.9
		c-3.1-1.7-6.1-3.6-9.3-4.9c-3-1.2-6-2.7-9.6-2.3c-1.9,0.2-3.8-0.1-5.5-1.3c-0.9-0.6-2.1-0.7-3.1-1c-0.5-0.1-1.1,0-1.4-0.3
		c-2.2-2-4.8-2.1-7.6-1.5c-1.8,0.4-3.4-0.4-4.8-1.7c-2.6-2.5-5.9-3.9-9.3-4.6c-2.5-0.4-4.5-1.5-6-3.3c-2,0-4,0.6-5.6-1.4
		c0.3-0.4,0.7-1,1.1-1.4c0.7-0.6,1.5-0.4,2.2,0c0.9,0.6,1.9,0.5,2.6-0.2c1.2-1.2,2.3-0.7,3.7,0c0,1-0.1,2-0.2,3.2
		c1,0,2.2-0.4,2.9,0.1c2.3,1.4,3.9,0.4,5.5-1.3c1.9,1.1,3.7,2,5.4,2.9c1.7-0.9,3.1-2.2,4.9-1.1c0.9,1.4-1.6,3.5,1.2,4.7
		c0.3-0.8,0.6-1.5,0.8-2.2c0.8-1.9,2.1-2.4,3.7-1.2c0.4,0.3,0.6,0.7,1,1c1.4,1.4,1.4,1.4,2.7-0.2c0.1-0.1,0.1-0.4,0.2-0.4
		c0.4-0.1,1.1-0.3,1.2-0.2c0.2,0.5,0.5,1.4,0.3,1.6c-0.9,0.9-2,1.6-2.9,2.4c-0.5,0.5-1.3,1.1-0.6,2.1c1.8,0.3,2.5-2,3.9-2
		c1.6,0,3.1,0.1,4.4-0.8c6.1,3.4,12.8,4.7,19,7.5c0.1,0.6,0.1,1.2,0.2,1.8c0.2,0.1,0.4,0.3,0.5,0.2c1.2-0.5,2.3-1,3.6-1.5
		c1.2,1,2.3,1.9,3.5,2.8c1.7,0.2,3.7-0.4,5.3,1.2c0.5,0.5,1.5,0.6,2.2,0.6c3.9,0,7.4,1.5,11.1,2.4c2.9,2.9,6.8,2.9,10.5,3.4
		c0.5,0.1,1.1,0.1,1.3,0.4c2.8,3.1,7,2.8,10.5,3.9c1.4,0.5,2.6,0.9,3.7,1.9c2.8,2.5,6,3.9,9.8,4.1c0.9,0,1.9,0.3,2.7,0.8
		c1.2,0.7,2.4,1.4,3.8,1.8c1.2,0.4,2,1.8,3.4,3.1c0.4-0.1,1.1-0.4,1.8-0.5c1-0.2,1.9,0.2,2.5,1.1c0.5,0.8,1,1.6,1.6,2.7
		c1.2-0.2,2.4-0.4,3.7-0.6c0.8,1.1,1.6,2.4,3.3,1.8c0.1,0,0.3,0,0.5,0c2.5,0.7,4.6,2.4,7.7,2.1c2.4-0.2,4.9,1.1,7.3,1.9
		c0.7,0.2,1.2,1,1.9,1.3c1.9,0.8,3.4,2.4,5.6,2.4c1,0,2,0.9,3,1.4c1.3,0.7,2.5,1.5,3.8,2c1.3,0.4,2.3,1.1,3,2.2
		c0.8,1.3,1,2.6,0.4,4.2c-2.1,1-4.3,0.8-6.3-0.3c-4.8-2.6-9.9-4.2-15.2-5.5c-3.7-0.9-7.2-2.6-10.3-4.8c-1.1-0.8-2.1-1.4-3.4-1.5
		c-0.6,0-1.3-0.1-1.9-0.4c-4.2-2-8.9-2.4-13.3-3.6C296.6,336.3,292.7,334.6,289.5,330.9z"/>
	<path class="st0" d="M275.6,472.6c-2.6,0.6-5.3,1.2-7.9,1.9c-1.1,0.3-2.1,0.9-3.1,1.3c-2.1,1-4.3,1.9-6.6,2.7
		c-3.4,1.2-6.5,3.1-9.2,5.6c-0.6,0.5-1.2,1-1.9,1.6c-0.8-0.3-1.6-0.5-2.2-0.9c-1.5-0.9-2.9-0.8-4.4,0.1c-3,1.8-6.1,3.4-9.1,5
		c-0.3,0.2-0.7,0.3-0.8,0.5c-0.7,2.9-3.2,2.6-5.3,3.2c-4.3,1.1-8.7,1.8-12.6,4.2c-1.3,0.8-2.6,1.9-3.9,2.7c-1.5,1-2.5,3-4.8,2.8
		c-0.3,0-0.6,0.2-0.8,0.4c-1.5,1.3-3.2,2-5.1,1.5c-0.9,1-1.5,1.8-2.1,2.5c-1.7,2.2-3.7,3.2-6.6,3.3c-4.1,0.2-7.7,1.9-10.8,4.6
		c-1.2-0.1-2.3-0.2-3.5-0.3c-0.3,0.3-0.7,0.6-1,0.9c-0.4,0.5-0.8,1.1-1.3,1.3c-0.5,0.2-1.1-0.2-1.7-0.3c0.1-0.4,0.1-1.1,0.3-1.2
		c1.4-0.6,1.8-1.6,1.7-3c-0.1-1.1,0.7-1.7,1.8-1.9c0.9-0.2,1.4,0.3,1.8,1.2c0.2,0.5,0.7,0.9,1.1,1.3c1.4-1.1,2.7-2,3.8-3
		c0.4-0.4,1-1,1-1.5c0-2.6,1.7-3.2,3.7-3.5c0.5-0.1,0.9-0.1,1.4-0.2c1.3-1.1,0.4-3.6,2.8-4.2c1.8,0.1,0.8,3.5,3.6,3
		c-0.2-0.8-0.3-1.5-0.5-2.3c-0.5-2.1,0-3,1.8-3.7c0.9-0.3,1.8-0.5,2.6-1c0.6-0.4,0.8-1.3,1.7-1.7c1.5,1.8,0,3.9,0.8,5.6
		c0.8,0.2,1.1-0.3,1.2-1c0.3-2.3,2-4,3.4-5.5c1.6-1.6,4.2-2.5,6.6-0.6c0.8-1.1,1.3-2,2-2.9c0.8-1.1,1.8-1.7,3.2-1.8
		c1.2-0.1,2.4-0.6,3.7-0.8c1.1-0.1,2.2,0,3.4,0c0.5-1.2,1-2.3,1.6-3.7c1.3,0.1,2.6,0.2,4.2,0.2c1-1.9,2.1-4,4.9-3.7
		c0.3,0,0.8-0.4,1-0.8c1.3-2.1,3.4-2.7,5.6-3.4c1.2-0.4,2.5-0.6,3.2-1.8c0.3-0.4,1.1-0.8,1.6-0.7c1.9,0.5,3.3-0.9,5.1-1.1
		c0.9-1.3,1.7-2.6,2.8-4.1c0.8,0.2,1.5,0.6,2.3,0.6c0.9,0,2.2,0,2.7-0.5c1.9-2.2,4.8-2.4,7-4.1c0.5-0.3,1.2-0.5,1.8-0.5
		c3.2,0.3,5.8-1.6,8.7-2.2c0.3-0.1,0.7-0.2,0.8-0.4c1.5-2.6,4.3-2.4,6.6-3.2c2.2-0.8,4.7-0.5,6.8-2.1c0.8-0.7,2.4-0.3,3.8-0.4
		c0.4-0.6,0.8-1.3,1.4-2.2c1.6,0,3.4,0.6,4.9-1.3c0.9-1.1,3.4-0.8,4.2-1.9c1.7-2.1,4.3-2.7,6.3-4.1c0.6-0.4,1.4-0.8,2.2-0.8
		c2.1-0.1,4.1-0.7,5.8-2c0.6-0.5,1.5-0.5,2.2-0.7c1.4-0.4,2.8-0.6,4.1-1.1c4.8-1.7,5.1-1.7,8.7,2.5c-1.2,1.9-2.9,3.3-5.1,3.7
		c-4.9,1-9.3,3.1-13.5,5.9c-0.9,0.6-2,0.9-3,1.3c-1.5,0.5-3,1-4.5,1.5c-0.5,0.1-0.9,0.5-1.3,0.5c-4-0.1-6.6,3-10.1,4.1
		c-1,0.3-1.6,1.6-2.6,2c-3.4,1.4-6.8,2.7-10.2,3.9c-1.9,0.6-4,0.8-6.3,1.3C277.1,470,276.4,471.3,275.6,472.6z"/>
	<path class="st0" d="M986.4,575.5c-0.5-0.1-1.3-0.1-1.5-0.4c-1.4-1.9-2.8-3.9-4-5.9c-1.1-1.9-1.1-3.8-0.2-5.9
		c1.2-2.9,1.9-6.1,2.8-9.2c2-6.8,6.1-12.2,11.5-16.6c2.9-2.4,6.6-3.1,10.1-4.1c2.3-0.7,4.8,0,6.9,1.2c0.6,0.3,0.8,1.5,1.2,2.2
		c-1.6,1.1-3.1,0.6-4.5,0.5c-4.4-0.6-8.2,0.7-11.5,3.6c-0.6,0.5-1.2,1.1-1.7,1.7c-2.6,3.4-5,7-7.8,10.2c-0.3,0.4-0.7,0.8-0.7,1.2
		c0,3.7-2.9,6.8-2.6,10.6c0.2,3.5,0.8,6.9,2.2,10.2C986.7,574.9,986.6,575.1,986.4,575.5z"/>
	<path class="st0" d="M1017.8,558.3c-2.4,0.1-4.4,0.2-6.4,0.3c-2.1,0.1-4,1.1-5.6,2.4c-2.1,1.7-4.2,3.4-6.1,5.3
		c-1.7,1.8-2.5,4.1-3.9,5.9c-1.8,2.4-1.9,4.5-0.9,7c0.2,0.6,0.3,1.2,0.4,1.8c3.9,2.9,7.8,2.4,11.5,0.4c0.9,0.8,1.1,1.6,0.5,2.2
		c-1.7,1.7-3.8,2.9-6.1,3.6c-1.6,0.4-3.1,0.1-4.6-0.7c-3.4-2-5-5.3-6.4-8.7c-0.2-0.4-0.2-1-0.1-1.4c1.6-7.9,5.1-14.3,12.8-17.8
		c2.3-1,4.4-2.5,6.7-3.7c2.3-1.2,6-0.7,8,1.2C1017.9,556.5,1017.7,557.5,1017.8,558.3z"/>
	<path class="st0" d="M950.9,877.8c0.2-1.9,0.3-3,0.5-4.1c2.2-8.9,5.3-17.4,9.7-25.5c1.7-3.1,3.2-6.3,5-9.3c1-1.8,2.3-3.4,3.5-5.1
		c0.3-0.4,0.7-0.7,0.9-1.1c3.3-6.7,9.1-11.5,13-17.8c1.3-2.1,3.1-4,5.9-5.7c-0.2,1.1-0.1,1.7-0.4,2.1c-2.2,2.7-4.2,5.6-6.5,8.2
		c-4.1,4.9-7.7,10.2-11.2,15.5c-2.7,4.1-4.9,8.6-7.4,12.9c-4.2,7.4-7.6,15.1-9.8,23.4c-0.4,1.5-0.9,3.1-1.4,4.6
		C952.5,876.4,951.9,876.7,950.9,877.8z"/>
	<path class="st0" d="M407.4,936.8c2.3,2.1,3.6,4.6,4.7,7.2c1.8,4.4,3.9,8.7,6.1,13c3.5,6.7,6.1,13.7,7.6,21
		c0.7,3.6,1.4,7.2,2.2,10.8c0.3,1.4,0.5,2.7,0.1,4.5c-1.9-2.5-2.7-5.1-3.4-7.7c-0.5-2-0.9-4.1-1.3-6.1c-1.5-7.4-4.5-14.3-7.6-21.1
		c-1.8-3.9-3.7-7.7-4.6-12c-0.3-1.4-1-2.7-1.6-4C409,940.6,408.2,938.7,407.4,936.8z"/>
	<path class="st0" d="M375.7,774.9c1.6,0.2,2.3,1.5,3.2,2.7c10.1,14.2,15.1,30.4,19.3,47c0.1,0.3-0.1,0.6-0.1,0.9
		c-0.8,0.6-1.2,0-1.4-0.6c-1-2.2-1.9-4.4-2.7-6.6c-1.2-3.4-2.4-6.9-3.5-10.4c-2.7-8.9-7-17.1-10.6-25.6c-0.5-1.3-1.5-2.4-2.2-3.7
		c-0.7-1.2-1.2-2.6-1.8-3.8L375.7,774.9z"/>
	<path class="st0" d="M737.4,1117.8c-0.8,0.8-1.4,1.7-2.3,2.4c-5.5,4.2-9.8,9.6-14.4,14.6c-2.6,2.9-4.1,6.4-5.2,10.2
		c-1.3,4.9-2.6,9.9-3.8,14.8c-0.2,0.9-0.6,1.8-0.9,2.6c-1,0.2-1.2-0.3-1.2-1c0.1-4.7,1.1-9.2,2.3-13.6c0.8-2.8,1.5-5.6,2.6-8.2
		c1.7-3.8,3.9-7.3,7-10.2C726.4,1124.9,731.4,1120.8,737.4,1117.8z"/>
	<path class="st0" d="M676.8,1124.6c1.8,1.1,3.5,2.1,5.3,3.2c7.5,4.3,10.9,11.3,12.4,19.5c1.2,6.4,0.5,12.7-0.3,19.6
		c-0.7-0.8-1.3-1.1-1.3-1.5c-0.2-2.5-0.3-5.1-0.3-7.6c0-5.3-0.7-10.4-2.5-15.5c-1.9-5.3-4.9-9.6-9.4-12.9
		C679,1128.1,677.1,1127.1,676.8,1124.6L676.8,1124.6z"/>
	<path class="st0" d="M519.6,1048.2c2.4,0.2,3.8-0.9,5.4-1.6c2.1-0.9,4.3-1.3,6.3,0.4c-0.2,0.2-0.4,0.6-0.6,0.6
		c-2.9,0.2-5.5,0.7-8.1,2.4c-1.6,1.1-3.9,1.3-5.9,0c-0.9-2.2,0.4-4.4-0.1-7.1c-0.6,0.7-1.1,1.1-1.5,1.6c-0.7,0.8-1.3,1.7-1.9,2.5
		c-1.3-0.6-1-1.4-0.8-2.1c1.2-4.9,4.3-8.5,7.9-11.6c0.9-0.8,2.1-0.9,3,0.3C522.8,1038.4,520,1042.8,519.6,1048.2z"/>
	<path class="st0" d="M999.7,827.4c-1.7,1.7-3.2,3.6-5.1,5.1c-5,4-8.6,9-11.8,14.4c-3.3,5.6-7,11.1-9.4,17.2c-0.4,1-0.7,2.6-2.4,2.5
		c-0.8-1-0.1-1.9,0.2-2.7c3-7.3,6.4-14.3,10.8-20.8c3.6-5.2,8.1-9.8,12.8-14.1c1.5-1.3,3.2-1.2,4.9-1.5
		C999.8,827.6,999.7,827.4,999.7,827.4z"/>
	<path class="st0" d="M993.6,722.8c1.5-4.4,2.7-8.1,4.1-11.9c0.7-1.8,1.4-3.5,2.3-5.3c3-6,6.2-11.9,10.1-17.3
		c1.1-1.5,2.1-3.2,3.7-4.1c1,0.5,0.6,1.2,0.3,1.6c-0.8,1.6-1.6,3.1-2.5,4.6c-2.7,4.9-5.4,9.8-8,14.7c-1.1,2-2,4-3.1,6
		c-1.3,2.6-2.6,5.1-3.9,7.7C996,720.1,995.4,721.6,993.6,722.8z"/>
	<path class="st0" d="M676.1,939.1c-0.6-0.1-1,0-1.2-0.2c-5.4-3.4-9.3-8-11.2-14.3c-0.1-0.3-0.3-0.6-0.2-0.9
		c0.1-0.6,0.2-1.5,0.5-1.7c0.6-0.3,1.5-0.3,2.2-0.3c0.3,0,0.6,0.3,0.8,0.5c3.5,3.7,7,7.4,9,12.2
		C676.6,935.9,677.5,937.3,676.1,939.1z"/>
	<path class="st0" d="M389.1,960.2c10.1,9.2,15.7,20.9,19.9,33.6c-1.2,0.5-1.8-0.3-2.1-0.9c-0.9-1.5-1.6-3.1-2.4-4.7
		c-1.5-3-2.8-6.1-4.4-9c-3.2-5.7-6.6-11.3-9.9-17C389.8,961.6,389.5,960.9,389.1,960.2z"/>
	<path class="st0" d="M475.5,883.7c2.5-3.3,3-7.7,7.3-8.6c1.6,0.8,2.2,2.1,2.3,3.6c0.2,2.9,0.3,5.9,0.4,8.8
		c-1.3,0.1-1.6-0.8-1.7-1.5c-0.3-1.4-0.2-2.9-0.5-4.2c-0.1-0.7-0.7-1.2-1.3-2.2c-2.1,2.1-3,4.5-4.2,6.7c-1.1,2.1-2.1,4.2-3.1,6.2
		c-0.6-0.2-1-0.2-1.1-0.4c-1.6-3.7-1.1-7.3,0-11.7C474.4,881.8,474.8,882.5,475.5,883.7z"/>
	<path class="st0" d="M1032.2,690.2c-2,2.6-3.9,4.9-5.7,7.4c-3.6,5.1-7.2,10.2-10.8,15.3c-0.8,1.1-1.4,2.5-3.3,2.6
		c-0.2-2.6,0.6-4.8,2.4-6.5c1.4-1.4,2.3-3,3.4-4.6c2.7-3.9,5.6-7.8,8.5-11.6C1028.4,690.8,1028.7,690.8,1032.2,690.2z"/>
	<path class="st0" d="M937.2,874.2c-0.8-1.2-0.4-2.5-0.2-3.6c0.9-7.9,1.8-15.9,2.7-23.8c0-0.3,0.1-0.6,0.1-1
		c-0.2-2.9,0.5-5.6,2.1-8.1c1.1,0.3,0.5,1.2,0.5,1.9c-0.2,3.2-0.5,6.4-0.8,9.5c-0.1,0.8-0.3,1.6-0.3,2.4c0.2,6.3-1.3,12.4-2,18.6
		C939.1,872,939,871.9,937.2,874.2z"/>
	<path class="st0" d="M724.4,1158.2c0.1-0.9,0-1.9,0.5-2.7c2.6-4.4,5.1-8.9,8.7-12.5c2.9-2.9,6.2-5.4,11-6.9c-1.5,2.9-3.7,4-5.3,5.6
		c-1.8,1.9-3.6,3.7-5.2,5.6c-1.6,1.8-2.9,3.8-4.4,5.7C728.3,1154.9,727.1,1157,724.4,1158.2z"/>
	<path class="st0" d="M1011.7,578c1.3-4.6,4.2-6.5,7.9-8.2c0.2,1.6,0.3,2.7,0.4,3.8c0.2,2.4,1,4.3,3.8,4.7c0.6,0.1,1.1,0.6,1.8,1
		c-0.4,0.6-0.6,1.4-1,1.6c-2.2,0.8-4.4,1.9-6.5-0.5c-0.6-0.7-1.9-0.9-2.9-1.3C1014.2,578.7,1013.1,578.4,1011.7,578z"/>
	<path class="st0" d="M452.5,991.4c-0.2-1.8-0.5-2.6-0.3-3.3c2.4-8.5,5.5-16.6,9.4-24.5c0.1-0.3,0.8-0.3,1.5-0.6c0,0.8,0,1.5-0.1,2
		C459.4,977.1,455.9,985.9,452.5,991.4z"/>
	<path class="st0" d="M495.3,1053.3c-0.7-1.4-0.5-2.8,0-4.1c2.4-6.9,4.9-13.8,7.4-20.7c0.3-0.9,0.7-1.8,1.9-1.9
		c0.2,4.4-2.9,15.3-6.9,24C497.2,1051.7,497,1053.1,495.3,1053.3z"/>
	<path class="st0" d="M473.5,708.7c-2,3.5-5,6-9.2,6.8c-0.9,0.2-1.7,0.8-2.6,1.1c-2.7,1-5.5,1.8-8.4,1.7c-3.5-0.1-7-0.3-10.5-0.4
		c-0.8,0-1.5-0.3-2.1-1.5c1.3-0.1,2.3-0.3,3.3-0.3c4.3-0.1,8.6,0,12.9-0.6c3.7-0.5,7-1.9,10.3-3.5
		C469.3,711,471.4,709.8,473.5,708.7z"/>
	<path class="st0" d="M407.6,802.8c2.1,0.1,2.3,1.3,2.5,2.4c0.7,3.4,1.4,6.9,2,10.3c0.6,3.4,1.2,6.9,1.7,10.3
		c0.1,0.5-0.2,1.1-0.6,2.4C409.6,819.6,408.1,811.4,407.6,802.8z"/>
	<path class="st0" d="M973.1,841.7c1-2.5,2.3-4.3,4-5.7c3.7-3,7.5-5.9,11.3-8.9c0.6-0.5,1.4-0.8,2.1-1c0.3-0.1,0.8,0.3,1.2,0.4
		c-0.2,0.4-0.3,0.7-0.4,0.9c-2.4,2.8-6.1,3.9-8.5,6.8c-2.2,2.7-5.1,4.8-7.7,7.1C974.7,841.8,974,841.6,973.1,841.7z"/>
	<path class="st0" d="M461.4,891c-0.8-1.5-1.4-2.2-1.4-2.8c-0.4-6.3-0.7-12.6-1.1-19c0-0.1,0.2-0.2,0.3-0.4
		C462.2,871.8,463.5,882.4,461.4,891z"/>
	<path class="st0" d="M438.4,975c2.3,2.3,2.8,3.2,3.4,8.4c0.5,3.8,1.5,7.7,0.1,12.2C439.5,990.9,437.9,981.1,438.4,975z"/>
	<path class="st0" d="M646.2,945.5c-0.8-1.6-1.6-2.9-2.2-4.4c-0.4-0.9-0.4-1.9,0.5-2.6c0.8-0.7,1.7-0.8,2.7-0.4
		c2.6,1.2,4.1,3.4,5.2,5.9c0.4,0.8-0.5,2.1-1.4,2C649.4,946,647.9,945.8,646.2,945.5z"/>
	<path class="st0" d="M384.9,990.8c5.8,2.8,8.5,7,9.9,12c0.1,0.3-0.3,0.8-0.6,1c-0.2,0.1-0.6,0-0.9-0.1c-0.1,0-0.3-0.1-0.4-0.3
		C390.3,999.7,387.3,996,384.9,990.8z"/>
	<path class="st0" d="M866.3,962.6c-3.1-3-2.6-6.5-2.1-9.9c0.4-2.3,0.4-5,3-7c0.7,3.3-0.9,6-0.9,8.8
		C866.3,957.2,866.3,959.9,866.3,962.6z"/>
	<path class="st0" d="M463.7,989.7c0-0.7-0.2-1.5,0-1.8c3.1-3.2,6-6.6,9.8-8.9c0.2-0.1,0.5,0,0.8,0
		C473.2,983.6,469.5,987.3,463.7,989.7z"/>
	<path class="st0" d="M934.2,999.5c4.5,5.4,7.4,10.7,7.6,14c-2.9-1.4-3.8-4.3-5.4-6.5c-1.4-1.9-2-4.3-2.9-6.5
		C933.4,1000.3,933.8,1000,934.2,999.5z"/>
	<path class="st0" d="M957.5,1014.5c-3.3-4.6-5.1-11.6-4.2-16.8c0.4,0.8,0.7,1.2,0.9,1.6c1.2,4.4,2.4,8.8,3.5,13.2
		C957.8,1013,957.6,1013.6,957.5,1014.5z"/>
	<path class="st0" d="M441.9,813.4c-0.9,4.9-4.3,7.3-8.7,9.2c-0.1-0.7-0.5-1.3-0.3-1.5C435.4,818,438.1,815.2,441.9,813.4z"/>
	<path class="st0" d="M676.9,1161.2c-3.2-1.4-6-4.8-7.7-9.4c2.3,0.2,3.1,0.7,5.3,3.6C675.8,1157,677.7,1158.6,676.9,1161.2z"/>
	<path class="st0" d="M968.1,1009.8c-3.4-4.5-4.7-8.5-4.7-13.3C966.1,998.8,967.7,1003.3,968.1,1009.8z"/>
	<path class="st0" d="M426.9,808.3c1.2,3.8,0.2,7.1-2.1,10.1c-0.1,0.2-0.7,0.3-0.9,0.1c-0.3-0.2-0.8-0.7-0.8-1
		C423.8,814.3,424.9,811.2,426.9,808.3z"/>
	<path class="st0" d="M745.6,1151.5c1.9-3.5,4.5-5.9,8.3-8.3c-0.3,3.4-1.7,5.2-3.6,6.7C749.1,1150.8,747.9,1152.3,745.6,1151.5z"/>
	<path class="st0" d="M384.2,814.6c2.6,3.4,2.9,5.1,1.6,9.5C383.5,821.7,383.1,820.1,384.2,814.6z"/>
	<path class="st0" d="M924.9,875.1c-2.8-1.8-4.3-3.4-5.8-5.8c0.9-0.2,1.6-0.5,1.9-0.3C923.2,870,924.9,871.4,924.9,875.1z"/>
	<path class="st0" d="M373.5,822.1c2.5,1.5,3,2.6,2.3,4.9c-0.1,0.2-0.5,0.5-0.7,0.5c-0.4-0.1-1-0.2-1.2-0.5
		C372.9,825.5,373,823.9,373.5,822.1z"/>
	<path class="st0" d="M878.5,949.4c0.7,2.7,0.6,4.9,0.6,7.4c-2-0.5-2.1-2-2.5-3.4C876.3,952,876.4,950.6,878.5,949.4z"/>
	<path class="st0" d="M685.2,940.7c0.5,0.4,0.9,0.6,1.2,0.9c0.5,0.8,0.8,1.6,1.4,3C685.6,942.9,685.6,942.9,685.2,940.7z"/>
	<path class="st0" d="M367.8,707.1c-0.1,0.4-0.1,0.7-0.2,0.7c-0.2,0.1-0.6,0.3-0.8,0.2c-0.4-0.2-0.8-0.5-1-0.8
		c-0.2-0.3-0.1-0.8,0.1-1.1c0-0.1,0.6-0.1,0.8,0C367.2,706.4,367.5,706.8,367.8,707.1z"/>
	<path class="st0" d="M579.4,1087.5c-2.7,2.2-2.7,2.2-5.8,0c0,0-0.1,0.1-0.1,0.1c2,0,4,0,5.9,0L579.4,1087.5z"/>
	<path class="st0" d="M984,1000.5c0.8,1.6,0.7,2.6-0.8,2.9c-0.4,0.1-1-0.2-1.1-0.5c-0.2-0.3,0-0.9,0.2-1.2
		C982.7,1001.2,983.3,1001,984,1000.5z"/>
	<path class="st0" d="M1078.4,244.3c-0.5,0.5-0.8,1-1.3,1.2c-0.3,0.1-0.9-0.1-1.1-0.4c-0.4-0.6,0.4-1.8,1-1.7
		C1077.5,243.4,1077.8,243.8,1078.4,244.3z"/>
	<path class="st0" d="M355,699.2c1.9-0.1,2.5,0.3,2.2,2C356.5,700.6,355.9,700.1,355,699.2z"/>
	<path class="st0" d="M167.9,285.9c-0.4-0.4-0.7-0.7-1-1c0.3-0.2,0.7-0.5,1-0.6c0.2,0,0.5,0.2,0.8,0.4
		C168.5,285,168.2,285.4,167.9,285.9z"/>
	<path class="st0" d="M375.8,774.8c-0.7-0.6-1.7-0.8-1.6-2.6c0.7,1.2,1.1,2,1.5,2.7C375.7,774.9,375.8,774.8,375.8,774.8z"/>
	<path class="st0" d="M166.3,516.5c-0.2,0.2-0.4,0.4-0.5,0.6c-0.2-0.3-0.3-0.6-0.5-0.9c0.3-0.1,0.5-0.3,0.8-0.4
		C166.1,516,166.2,516.2,166.3,516.5z"/>
	<path class="st0" d="M333.8,682.7c-0.2,0.1-0.5,0.2-0.7,0.3c-0.1-0.3-0.3-0.6-0.2-0.8c0-0.1,0.6-0.3,0.6-0.3
		C333.7,682.1,333.7,682.4,333.8,682.7z"/>
	<polygon class="st0" points="545.4,483.8 545.1,483.8 545.2,483.5 	"/>
	<path class="st0" d="M812,989.2c0.3,0,0.5-0.1,0.8-0.1C812.6,989.1,812.3,989.1,812,989.2C812,989.2,812,989.2,812,989.2z"/>
	<path class="st0" d="M1063.3,250.5c-0.1,0.1-0.2,0.2-0.3,0.3c-0.1,0-0.2,0-0.3-0.1c0.2,0,0.4-0.1,0.6-0.1
		C1063.4,250.6,1063.3,250.5,1063.3,250.5z"/>
	<path class="st0" d="M676.9,1124.7c-0.2,0.1-0.5,0.1-0.7,0.2c0.1,0,0.2,0.1,0.3,0C676.6,1124.9,676.7,1124.7,676.9,1124.7
		C676.8,1124.6,676.9,1124.7,676.9,1124.7z"/>
	<path class="st0" d="M999.8,827.6c0.1-0.2,0.3-0.5,0.4-0.7c-0.2,0.2-0.4,0.4-0.5,0.6C999.7,827.4,999.8,827.6,999.8,827.6z"/>
	<path class="st0" d="M932.1,706c-1.1,1.8-2.3,2.2-3.6,2c-6-0.6-11.5-2.6-16.2-6.4c-0.3-0.3-0.4-0.8-0.7-1.6c0.8,0,1.5-0.1,1.9,0.1
		c2.5,1.1,5,2.2,7.3,3.5c2.6,1.4,5.3,2.2,8.3,2C929.9,705.6,930.7,705.9,932.1,706z"/>
	<path class="st0" d="M867.9,889.1c0,1.6-0.1,3.1-1.2,4.4c-1.8,2.1-3.8,4.1-5.8,5.9c-1.1-0.5-1.1-1.1-0.7-1.6
		c2.2-2.3,4.4-4.5,6.6-6.7C867.5,890.5,868.1,890,867.9,889.1C867.9,889.1,867.9,889.1,867.9,889.1z"/>
	<path class="st0" d="M848,912c-0.4,0.3-0.8,0.8-1.3,1c-0.2,0.1-0.8-0.5-0.9-0.8c-0.2-0.7,1-1.4,1.7-1.1
		C847.7,911.1,847.8,911.5,848,912z"/>
	<path class="st0" d="M841.1,920.2c-0.2,0.2-0.4,0.5-0.7,0.6c-0.1,0-0.4-0.3-0.6-0.4c0.2-0.2,0.4-0.5,0.6-0.6
		C840.6,919.7,840.9,920,841.1,920.2z"/>
	<path class="st0" d="M600.2,287.1c-0.2-1.1-0.4-1.7-0.2-1.9c1.6-2.3,3.3-4.6,5.1-6.9c0.4-0.5,1.1-0.6,1.6-1
		c3.1-2.2,6.6-3.9,9.6-6.2c2.1-1.5,4.9-2.1,7.4-3.1c2.5-1,5.1-1.9,7.6-2.9c1.5-0.6,2.9-1.4,3.8-2.8c1.2-1.9,3.1-2.8,4.9-3.8
		c1.1-0.6,2.2-0.4,3,1c-0.7,2.1-2.6,3.4-4.2,4.7c-2.1,1.7-4.4,3.2-6.7,4.6c-4.2,2.7-8.2,4.2-13.6,5.6c-0.7,0.2-1.6,0.5-2.1,1
		c-1.1,1-2.2,1.7-3.6,2.2c-1.3,0.4-2.5,1.4-3.5,2.5C606.8,282.7,603.7,284.7,600.2,287.1z"/>
	<path class="st0" d="M612.5,313.5c4.2-1.3,8.5-2.6,12.7-4c3.5-1.2,6.6-3.1,9.6-5.2c2.3-1.7,4.5-3.6,7.1-4.8
		c1.1-0.5,1.9-1.7,2.7-2.6c1.4-1.5,2.7-3.1,4.1-4.9c0.8,0.5,1.4,0.8,2.3,1.4c-2.6,3.3-5,6.4-8.1,8.9c-2.5,2-5.4,3.4-7.4,5.9
		c-0.4,0.5-1,0.9-1.6,1.1c-4.3,1.5-8.7,2.9-13,4.4C618.2,314.6,615.4,314.5,612.5,313.5z"/>
	<path class="st0" d="M690.7,301.4c0.2,0.9,0.4,1.8,0.7,2.6c0.4,1.2,0.6,2.5,1.2,3.6c2.1,3.9,5.8,5,9.7,3c1-0.5,1.9-1.1,2.9-1.7
		c2.5-1.6,4.6-1.5,6.2,1.9c1.1,2.4,1.9,5.1,2.1,7.8c0.5,5.8-1,11-5.2,15.4c-0.9-0.8,0.1-1.4,0.2-1.9c1-3.2,2.4-6.3,3-9.5
		c0.9-4.4-0.5-8.4-3.8-11.9c-1.4,0.7-2.6,1.4-3.8,2c-4.8,2.4-7.2,2-11.2-1.7C689.8,308.3,688.8,305.2,690.7,301.4z"/>
	<path class="st0" d="M701.4,384.9c2.4,1.8,3.1,4,1.8,6.4c-1.2,2.4-2.9,4-5.8,4.4c-4.7,0.5-6.1-0.5-6.6-5.1
		c-0.3-3.3,0.6-6.3,2.3-9.1c0.8-1.2,1.3-2.4,1.5-3.9c0.3-1.5,1.2-2.9,2-4.2c0.1-0.3,0.8-0.3,1.5-0.5c-0.1,2.2-0.8,3.9-1.8,5.5
		c-2,3.4-2.7,7.1-2.9,10.9c0,0.8,0,1.6,0.3,2.4c1,3.2,2.5,3.1,4.6,2.2c2.5-1,3.4-2.7,3.3-5.2C701.6,387.4,701.5,386.1,701.4,384.9z"
		/>
	<path class="st0" d="M685.7,465c-1.6-2.4-2.4-4.9-1.9-7.9c0.5-2.8,2.1-5.3,1.6-8.4c-0.1-0.6,0.6-1.5,1-2.1c0.6-0.9,1.3-1.8,1.9-2.8
		c1.3-2.1,1.7-4.4,0.9-6.8c-0.5-1.8-1.8-3.4-0.9-5.8c0.5,0.4,1.1,0.7,1.3,1.1c0.7,1.8,1.5,3.5,1.8,5.4c0.6,3.2,0.3,6.4-1.8,9.1
		c-3.1,4-3.5,8.6-3.7,13.4C685.7,461.8,685.7,463.4,685.7,465z"/>
	<path class="st0" d="M575.8,338c0.3,0,0.5-0.1,0.6-0.1c4.5,3.5,6.2,8.3,6.3,13.8c0,0.6-0.3,1.2-0.5,1.8c-0.9,2.8-2.1,3.7-4.4,3.2
		c-2.8-0.5-4.1-2.2-3.8-5c0-0.4,0.3-0.9,0.6-1.7c1,2.2,1.7,4.3,4.2,4.7c1.4-1,1.5-2.5,1.3-4.2c-0.4-3.6-1.1-7.2-3.6-10.1
		C575.9,339.8,575.4,338.9,575.8,338z"/>
	<path class="st0" d="M635.2,293.7c0,3.6-3.1,4.7-5.1,6.5c-2.2,1.9-5.1,3.1-8.3,3c0.2-2.2,2.1-1.9,3.2-2.7c1.2-0.8,2.5-1.4,3.7-2.2
		c1.1-0.7,2.1-1.5,3.1-2.3C632.8,295.2,633.4,293.7,635.2,293.7z"/>
	<path class="st0" d="M622.9,389.2c0.1-1-0.1-2.2,0.4-2.7c0.7-0.7,1.9-1,2.9-1.3c0.5-0.2,1.1,0.9,0.8,1.4
		C626.2,388,626.2,388,622.9,389.2z"/>
	<path class="st0" d="M703.5,403.9c0.5,0.5,1.1,0.9,1,1.2c-0.1,0.8-0.2,1.7-0.7,2.2c-0.4,0.5-1.5,0.8-2,0.6
		c-0.8-0.3-0.9-1.4-0.4-2.1C702,405.1,702.8,404.6,703.5,403.9z"/>
	<path class="st0" d="M702.6,359.3c-1,0.8-1.6,1.4-2.4,1.7c-0.7,0.2-1.6-0.8-1.5-1.5c0.1-0.8,1.1-1.7,2.1-1.5
		C701.3,358.2,701.7,358.7,702.6,359.3z"/>
	<path class="st0" d="M685.4,389.1c-0.1,1.1-1.1,1.7-1.9,1.3c-0.5-0.2-1-0.8-1.1-1.3c-0.2-0.7,0.9-1.5,1.6-1.2
		C684.6,388.2,685,388.8,685.4,389.1z"/>
	<path class="st0" d="M614.1,372.7c-0.3,0.7-0.5,1.5-1,2c-0.3,0.3-1.3,0.3-1.6,0c-0.3-0.3-0.3-1.3-0.1-1.6c0.4-0.5,1.2-0.7,1.9-1
		C613.6,372.3,613.8,372.5,614.1,372.7z"/>
	<path class="st0" d="M663.1,412.7c0.3,0.4,1,0.9,1,1.5c0,0.8-0.6,1.5-1.5,1.4c-0.5-0.1-1.2-0.5-1.3-0.9
		C660.9,413.8,661.8,412.8,663.1,412.7z"/>
	<path class="st0" d="M666.5,376.1c0,1.3-0.7,2-1.8,2c-0.4,0-0.9-0.4-1-0.7c-0.2-0.8,0.6-1.9,1.5-1.9
		C665.7,375.5,666.2,375.9,666.5,376.1z"/>
	<path class="st0" d="M684.3,363.6c-1.1,0-1.7-0.7-1.5-1.6c0.1-0.3,0.6-0.6,0.9-0.8c0.4,0.5,0.8,0.9,1,1.4
		C684.9,362.9,684.5,363.3,684.3,363.6z"/>
	<path class="st0" d="M650.9,399.5c-0.7,0.7-1,1.4-1.4,1.4c-0.4,0-1.2-0.6-1.2-1c0-0.4,0.5-1.1,0.9-1.3
		C649.6,398.5,650.1,399,650.9,399.5z"/>
	<path class="st0" d="M687.2,403.4c0.5-0.5,0.8-0.9,1.1-1.1c0.1-0.1,0.6,0.3,0.6,0.5c0.1,0.2-0.1,0.7-0.2,0.8
		C688.3,403.7,688,403.6,687.2,403.4z"/>
	<path class="st0" d="M655.5,378.6c-0.5,0.7-0.7,1.2-1,1.3c-0.7,0.2-1.2-0.1-1.3-0.9c0-0.2,0.3-0.6,0.4-0.6
		C654.1,378.3,654.7,378.4,655.5,378.6z"/>
	<path class="st0" d="M669.2,397.4c-0.2,0.1-0.5,0.3-0.7,0.4c-0.1-0.3-0.2-0.7-0.4-1c0.3-0.1,0.6-0.3,0.8-0.2
		C669.1,396.8,669.1,397.2,669.2,397.4z"/>
	<path class="st0" d="M643.2,375.4c-0.2,0-0.5,0.1-0.7,0.1c0-0.2,0-0.5,0.1-0.7c0-0.1,0.4-0.1,0.4-0.1
		C643,374.9,643.1,375.2,643.2,375.4z"/>
	<path class="st0" d="M675.2,412.1c-0.2,0.4-0.4,0.6-0.5,0.8c-0.3-0.2-0.7-0.5-1-0.7c0.2-0.2,0.4-0.7,0.5-0.7
		C674.5,411.6,674.8,411.9,675.2,412.1z"/>
	<path class="st0" d="M634.6,422.1c-0.1,0.1-0.2,0.1-0.4,0.2c0-0.2-0.1-0.3-0.1-0.5c0.1,0,0.3-0.1,0.4,0
		C634.6,421.8,634.6,422,634.6,422.1z"/>
	<path class="st0" d="M643.9,388.2c-0.3,0.1-0.5,0.4-0.8,0.4c-0.2,0-0.5-0.3-0.7-0.5c0.2-0.1,0.5-0.4,0.7-0.4
		C643.4,387.8,643.7,388.1,643.9,388.2z"/>
	<path class="st0" d="M717.2,276.9c-0.2,0.1-0.5,0.2-0.7,0.3c0.1,0,0.1-0.1,0.2-0.1C716.8,277,716.9,277,717.2,276.9
		C717.1,276.9,717.2,276.9,717.2,276.9z"/>
	<path class="st0" d="M562.1,924.5c0.9-0.4,1.2,0.2,1.5,0.7c0,0.1,0,0.3-0.1,0.4c-0.1,0.1-0.3,0-0.4-0.1
		C562.7,925.2,562.4,924.8,562.1,924.5z"/>
	<path class="st0" d="M748.5,964.8c0-0.9-0.2-1.7,0-2.1c2.9-4.8,5.7-9.7,10.2-13.2c0.6-0.5,1.3-1,2-1.3c0.5-0.2,1.4-0.2,1.7,0.1
		c0.5,0.5,1,1.4,0.9,2c-0.2,1-0.7,2.1-1.4,2.9c-1,1.1-1.8,2.2-2.4,3.5c-0.5,1.1-1.4,2.1-2.4,2.9c-1.8,1.6-3.7,3.1-5.6,4.4
		C750.7,964.5,749.7,964.5,748.5,964.8z"/>
	<path class="st0" d="M738.7,944.5c-0.4-3.4,4.4-4.6,6.4-3.3c0.9,0.6,1.2,2,0.6,3c-0.9,1.6-2.4,2.5-4,3.1c-1.7,0.7-2.9,0.1-3-1.6
		C738.7,945.2,738.7,944.7,738.7,944.5z"/>
	<path class="st0" d="M728.5,929.2c-0.1,2.1-2.2,3.8-4.2,3.5c-1.4-0.3-2.2-2.1-1.8-3.8c0.4-1.4,2.2-2.6,3.7-2.3
		C727.5,926.8,728.6,928,728.5,929.2z"/>
	<polygon class="st0" points="621,1014.8 621.2,1014.5 621.4,1014.9 	"/>
</g>
</svg>
