<?xml version="1.0" encoding="utf-8"?>
<!-- Generator: Adobe Illustrator 27.3.0, SVG Export Plug-In . SVG Version: 6.00 Build 0)  -->
<svg version="1.1" id="Layer_1" xmlns="http://www.w3.org/2000/svg" xmlns:xlink="http://www.w3.org/1999/xlink" x="0px" y="0px"
	 viewBox="0 0 1300 1300" style="enable-background:new 0 0 1300 1300;" xml:space="preserve">
<style type="text/css">
	.st0{opacity:0.25;fill:#01031C;enable-background:new    ;}
</style>
<g id="Relleno">
	<path class="st0" d="M874.8,694.4l-4.2-3.2c0,0-8.2,2.2-9.3,7.2c-0.7,3.3-5.5,18.1-9,29c-1.7,5.5-2.5,10.1-3.4,11.7
		c-2.5,4.7-11.3,13.4-10.1,16.1c1.2,2.7,5.1,4.3,6,4.5s11.3-4.2,12.7-5.5s22.1-24.2,22.1-24.2l1.7,15.3l-7,15.8l-4.9-1.3l-5.2,0.6
		l-1.7,3.7l5.8,9.1l-8.9,10.3l3.1,10.3l4.3-0.2c0,0,7.6-3.3,8.9-3.9s16.3-15.4,16.3-15.4l2.9-3c0,0,17.3-4.6,22.8-38.2
		c5.4-33.6-1.8-50-1.8-50S878.8,695.3,874.8,694.4L874.8,694.4z"/>
	<path class="st0" d="M837.8,438l-7.1,4.3L825,449c0,0-12.5,7.9-14.6,8.9s-14.9,3.1-14.9,3.1l14.6,83c0,0,2-6.2,10,7.1
		s12.2,21.5,12.2,21.5l4.9,32.5l26.3,40.5l22.8-6.9l18.9-2.9l-16.4-52.8l-19.3-87.5L837.8,438L837.8,438z"/>
	<path class="st0" d="M530,503.4c-13.5,3.8-37.4-20-37.4-20l-3.6,1.1l5.2,17.5l0.2,17.4c0,0,11.2,25.8,11.8,27.9s-1.8,9.8-4.8,9.8
		s-10.8-6.8-10.8-6.8l-3.4,4.6l-8.6-3.1l-16.6-13.6l-5.7,0.3l-11.8-24.7l-5.2-1.2l-0.8-7l6-39.3l-1.8-17.6l2.6-16.8
		c0,0-21.1-60.6-21-62.6s0.5-7.2,2.4-11.4s8.3-12,10.3-14.6c1-1.3,18.7-15.6,35.8-30.1s32.7-28.1,32.7-28.1s1.2-1.5,2.3-0.4
		c0.5,0.5,13.3,11.4,22.5,23.8c10.9,14.8,18.4,31.4,18.4,31.4l-20,3.5l-39.9,27.9l-2.4,21.1l1.5,16.1l12.5,41.6
		c0,0,14.6,26.1,16.4,27.8c1.8,1.7,13.6,14.4,13.6,14.4L530,503.4L530,503.4z"/>
	<path class="st0" d="M729,247.7c0,0-1.4,5.3-5.4,11.2c-7.2,10.6-20.3,27.2-31.8,27.3c-8.6,0.1-29.2-2.8-42.2-15
		c-8.3-7.9-15.4-20.5-18.7-29.1c-2.3-6-2-9.7-2-9.7l11.8,2.8l8.1-4.7l-22.6-24.8l-3.9-22.8l-12.8-12l-3.8-6.2l1.2-14l6.7,0.7
		l-2.7-10l10.7-10.7l30.8-10.9l38-0.7l8.5,1.4l25.3,13.6l3.3,23.4l-11.9,23.5l-3.3,41.6L729,247.7L729,247.7z"/>
</g>
<g>
	<path d="M842.2,600.6c-1.1,1.6-0.7,3.2,0.6,4.2c1.8,1.4,2.7,3.1,3,5.2c0.3,1.5,1,2.6,2,3.7c2,2.4,4.6,4.5,5.3,7.8
		c0,0.1,0.1,0.3,0.3,0.4c3.5,2.9,4.5,7.2,6.2,11.2c1.5,3.5,3.7,6.6,5,10.3c0.4,1,1.4,1.3,2.4,1.1c1.1-0.2,2.1-0.7,3-1.4
		c3.7-3,7.9-5.3,11.9-7.8c2.8-1.7,5.7-1.9,8.7-1.3c2.4,0.5,4.7,0.7,7-0.2c1.2-0.5,2.1-0.1,3.1,0.5c1.1,0.6,1.4,0.3,2-1
		c0.7-1.6,0.7-2.9-0.3-4.4c-1.3-1.8-2.6-3.9-2.2-6.2c0.4-2.5-0.5-4.3-1.9-6.1c-0.6-0.7-1.2-1.7-1.2-2.5c-0.2-4.2-2.7-7.4-4.1-11.1
		c-1-2.7-2.4-5.1-2.7-8.1c-0.2-1.6-1.9-2.7-1.6-4.7c0.2-1.5-0.4-3.1-1-4.6c-1-2.9-1.9-5.8-3.6-8.3c-1.4-2.1-1.3-4.5-2.1-6.8
		c-1.7-4.6-3.3-9.2-5.2-13.7c-0.6-1.5-0.9-3-1.2-4.6c-1.1-5.1-2.3-10.2-3.4-15.3c-0.2-1.1-0.6-2.1-1.2-3.1c-0.5-0.8-0.8-1.8-0.9-2.7
		c-0.4-2.5-0.9-4.8-1.6-7.2c-0.8-3-1.3-6.1-2.9-8.9c-0.4-0.7-0.8-1.5-0.7-2.3c0.1-3-0.9-5.6-2.6-8c-0.5-0.7-0.6-1.5-0.4-2.3
		c0.2-0.8,0.1-1.6-0.4-2.3c-2.2-3-2.6-6.8-4.5-9.9c-2-3.5-3.6-7.1-5.6-10.6c-1.5-2.5-2.1-5.3-3.3-7.9c-0.5-1.1-0.8-2.5-1.5-3.5
		c-3-4.4-4.8-9.4-7.4-14c-1.4-2.6-2.2-5.3-1.5-8.3c0.2-0.7,0-1.6,0-2.4c-0.1-0.9-0.9-1.3-1.7-0.8c-2.3,1.4-4.5,3.1-6.1,5.3
		c-1.5,2.1-3.5,3.1-5.9,3.6l0.1,0.1c-0.3-1.4,0-3.2,1.4-3.1c3.3,0.2,3.8-2.2,4.5-4.3c0.3-0.8,0.6-1.5,1.2-1.9
		c1.6-1.1,3.2-2.1,3.3-4.3c0.1-1,1.1-0.9,1.9-1c0.5-0.1,0.9-0.7,0.7-1.1c-1.1-1.9,0-2.9,1.5-3.7c0.8-0.4,0.6-1,0.3-1.6
		c-0.2-0.5-0.3-1,0.3-1.2c0.8-0.2,1.1,0.3,1.3,1c0.1,0.3,0.2,0.5,0.4,0.8c1-0.5,0.1-1.4,0.5-2c1.1-1.9,1.9-3.8,4.3-4.7
		c3.7-1.3,7-3.5,10.9-4.4c0.7-0.2,1.8,0.4,2-0.6c0.2-0.9,0.4-2.3-0.1-2.8c-1.6-1.6-1.8-4-3.3-5.7c-1.6-1.9-3-4.2-4-6.5
		c-1.1-2.7-2.2-5.3-4.2-7.4c-1.2-1.2-0.8-3-1.6-4.4c-2.5-4.4-4-9.3-6.2-13.9c-1.6-3.5-3-6.9-4.2-10.5c-1.3-4-2.8-7.9-4.2-11.8
		c-0.4-1.2-0.9-2.4-1.4-3.6c-1-2.7-1.9-5.4-2.5-8.2c-0.7-3.3-1.9-6.4-3-9.5c-0.4-1.2-0.8-2.4-0.4-3.7c0.1-0.4,0.5-0.8,0.9-1
		c0.5-0.3,0.9,0.1,1.1,0.5c0.6,1.3,1.6,2.3,2.1,3.7c1.2,3.8,2.6,7.5,3.9,11.3c0.3,0.9,0.6,1.8,0.8,2.8c1,6.7,3.5,12.8,6.6,18.8
		c1.3,2.4,2,5,3,7.6c0.7,1.7,0.4,3.9,2.7,4.7c0.9,2,1.7,4.1,2.7,6.1c2.2,4.6,3.4,9.6,6.5,13.8c0.7,0.9,1.4,1.7,2,2.7
		c0.4,0.7,1,1.5,0.9,2.1c-0.6,2.7,1.1,4.6,2.2,6.7c1.3,2.5,2.7,5,4.2,7.4c0.9,1.5,0.5,3.3-1.2,3.9c-1.3,0.5-2.7,0.8-4.2,1.1
		c-4.8,0.9-4.8,0.9-3.2,5.3c1.8,4.8,3,9.8,5.8,14.2c-0.1,2.6,1.9,4.2,2.7,6.3c2.3,5.8,4.9,11.4,6.4,17.5c0.4,1.7,1,3.4,1.9,4.9
		c2.8,4.7,4.9,9.7,6.9,14.7c1.2,3.1,2.4,6.1,4.7,8.6c0.7,0.7,0.9,1.7,0.3,3c-0.6,1.2,0.4,2.9,1.6,3.7c2.5,1.8,3.3,4.3,3.5,7
		c0.2,3,2,5.3,2.9,8c0.9,2.7,2.4,5.1,2.4,8.1c0,0.9,0.6,1.8,0.9,2.7c2.2,5.1,4,10.4,5.5,15.8c2.1,7.8,4.1,15.7,5.9,23.6
		c0.3,1.4,0.9,2.7,1.3,4.1c0.4,1.4,1.2,2.6,0.7,4.2c-0.1,0.4,0.1,0.9,0.2,1.4c1.7,5.7,1.9,11.6,2.4,17.5c0.1,1.4,0.2,2.5,1.8,2.9
		c2,0.5,2.9,2,3.2,3.8c1,4.7,2.8,9.1,5.4,13.2c1.4,2.3,1.4,5.3,3.2,7.4c-0.8,2.8,1.9,4.9,1.3,7.7c-0.1,0.5,0.3,1.2,0.5,1.8
		c1.4,3.8,1.3,7.8,1.2,11.8c-0.1,2.6-0.3,5.1-0.3,7.7c0,2.9-0.4,5.7-0.6,8.6c-0.4,5.2-2.2,9.9-4.2,14.6c-0.5,1.2-0.8,2.4-1.2,3.6
		c-0.3,0.9-0.3,1.8,0,2.8c1.4,5.3,1.7,10.6,1.8,16.1c0.1,4.6,0.2,9.2,0.7,13.8c0.3,3.1,0.2,6-0.6,9c-0.2,0.8-0.3,1.6-0.4,2.4
		l0.1-0.1c-0.9-0.1-1.7-0.5-1.8-1.3c-0.1-1.8-0.9-3.8,1.1-5.2c0.7-0.5,0.7-1.4,0.5-2.2c-0.4-1.9-0.9-3.7-0.4-5.7
		c0.2-0.7-0.1-1.6-0.5-2.3c-1.8-3.2-1.9-6.6-1.7-10.2c0-0.5,0.1-1,0-1.4c-0.2-0.6-0.5-1.1-1.4-0.9c-0.9,0.3-1.7,0.8-2.5,1.4
		c-0.7,0.6-1.6,1.4-2.5,1.3c-1.6-0.1-2.7,0.4-3.7,1.6c-0.3,0.3-0.9,0.7-1.3,0.6c-2.8-0.9-4.8,0.6-6.8,2.2c-0.4,0.3-1.2,0.4-1.9,0.3
		c-1.6-0.2-3.1,0-4.6,0.7c-0.5,0.3-1.3,0.4-1.9,0.2c-2.1-0.8-4-0.6-5.8,0.8c-0.6,0.5-1.6,0.2-2.3-0.3c-0.9-0.6-1.9-1.3-2.7-2
		c-0.7-0.7-1.5-1-2.5-1c-2.8,0.2-5.4-0.4-6.7-3.4c-0.4-0.8-1.3-0.7-2.1-0.3c-6.1,3.5-8.7,9.3-9.8,15.7c-0.9,5.1-2.1,10.1-3.9,14.8
		c-1.7,4.6-3.1,9.4-4.7,14c-1.7,4.9-4.6,9-7.2,13.3c-0.5,0.8-1.1,1.6-1.5,2.5c-1.2,2.4,0.4,5,3,5.2c0.2,0,0.4,0,0.5,0
		c2.7-2.4,6.5-2.4,9.5-4.5c3-2,5.3-4.5,7.3-7.5c2.5-3.9,4.8-7.9,7.5-11.6c1.8-2.4,4-4.6,6.1-6.7c1.4-1.3,4.2-1.2,5.7,0
		c0.4,0.3,0.6,0.7,0.8,1.2c0.7,2.6,1.6,5.2,2,7.8c0.2,1.8-0.3,3.8-0.5,5.7c-0.3,2.7-0.1,5.5-1.6,7.9c-0.2,0.4-0.5,1-0.3,1.4
		c1.3,2.3-0.3,4.1-1.3,5.8c-2.5,4.3-5,8.5-7.8,12.6c-3.2,4.7-7,9-9.7,14.1c-0.5,1-1.3,1.9-0.9,3.1c0.5,1.5,0.9,3.1,2,4.3
		c0.8,0.9,2.7,1,4,0.2c2.7-1.6,5.3-3.5,8.1-5c3-1.7,5.4-3.9,7.3-6.7c0.4-0.7,1-1.3,1.7-1.7c1.8-1.1,3.2-2.4,3.8-4.7
		c0.2-0.8,1.2-1.4,1.9-2.1c0.1-0.1,0.6,0,0.8,0.2c0.2,0.2,0.2,0.6,0.1,0.8c-0.1,0.3-0.3,0.6-0.5,0.8c-1.1,1-1.9,1.9-1.9,3.6
		c0.1,1.5-1.3,3.1-2.5,3.1c-2.1,0-2.5,1.2-3.4,2.6c-1.3,2-3.3,3.3-4.1,5.8c-0.2,0.8-1.8,1.1-2.8,1.7c-1.9,1.1-4,2-4.8,4.4
		c-0.2,0.5-0.9,0.9-1.4,1.3c-1,0.9-1.3,0.8-2.6-0.4c-0.5-0.4-1-0.7-1.5-1.1c-0.5-0.4-0.9-0.2-1.3,0.2c-1.8,1.5-1.8,1.4-3.4,0.2
		c-1-0.8-1.9-1.5-1.8-3.1c0.1-1.3-0.9-2.3-2.2-2.8c-1.3-0.5-1-1.5-0.8-2.4c0.1-0.3,0.3-0.5,0.6-0.7c0.3-0.3,0.6-0.1,0.8,0.2
		c0.4,0.8,0.8,1.6,1.7,1.9c0.6-1.1-0.2-1.6-0.4-2.3c-0.4-1.1-0.8-2,0.4-2.9c0.5-0.4,0.6-1.4,0.8-2.2c0.3-1.3,0.8-2.5,2.1-3
		c1.6-0.6,2.5-2,3.2-3.4c0.6-1,1.1-0.8,1.9-0.7c0.4,0.1,0.7-0.1,0.6-0.5c0-0.3-0.2-0.6-0.5-0.7c-1.5-0.4-3.1-0.8-4.6-1.2
		c-2.5-0.7-4-2.8-3.8-5.2c0.3-3.9,3.9-7.4,7.8-7.6c0.8,0,1.6-0.1,2.4-0.1c1.5,0,2.5,0.6,2.7,1.5c0.3,1.4-0.9,1.9-1.7,2.7
		c-0.6,0.6-1.5,0.5-2.2,0.7c-0.6,0.1-1.4,0.3-1.7,0.7c-0.7,1-1.9,2.1-1.5,3.4c0.4,1.3,1.9,1.5,3.1,2c0.3,0.1,1-0.1,1.3-0.4
		c1.4-2.1,2.8-4.3,4.2-6.4c0.9-1.4,1.1-3.1,2.7-4.3c1.5-1.1,0-3.6,0.9-4.9c2.4-3.2,1.6-7,2.8-10.4c0.9-2.8,0.3-5.3-0.6-7.9
		c-0.8-2-1.9-2.3-3.7-1.1c-2.3,1.6-4,3.6-5.1,6.1c-1,2.2-1.8,4.3-3.7,6c-0.7,0.6-1.5,1.7-1.9,2.7c-1.5,3.9-5.1,6.1-7.6,9.1
		c-0.3,0.3-0.7,0.6-1.2,0.8c-3.3,1-6.3,2.7-9.9,3c-3,0.2-5.6-0.6-8-2.4c-2.2-1.7-2.9-4.4-1.4-6.7c1.7-2.5,2.3-5.7,5.1-7.3
		c0.6-0.3,0.8-1,1-1.6c0.5-1.2,0.9-2.5,1.8-3.4c1.4-1.6,2.6-3.2,2.5-5.4c0-0.5,0.1-1.1,0.4-1.4c2.6-2.2,1.3-5.8,2.9-8.3
		c0.1-0.2-0.1-0.6-0.2-0.9c0.2-0.1,0.6-0.2,0.6-0.4c0.1-0.3-0.2-0.5-0.4-0.2c-0.1,0.2,0,0.5-0.1,0.8c-0.3,0.1-0.7,0.1-0.8,0.3
		c-1,2.5-2.7,4.7-3.9,7.1c-0.7,1.3-1.5,2.4-2.5,3.3c-0.8,0.8-1.7,1.5-2.4,2.3c-2.4,3.1-5.2,5.5-8.8,7.1c-0.8,0.4-1.5,1.2-2.3,1.7
		c-4.2,3.2-8.7,5.1-14.1,5c-7.4-0.2-14.5-1.6-20.8-5.7c0.4-0.1,0.9-0.3,1.4-0.3c2-0.1,3.5,1.5,5.3,1.9c2.1,0.5,4.1-0.7,6.1,0.1
		c0.6,0.2,1.2,0.4,1.8,0.5c1.1,0.2,2.2,0.4,3.3,0.5c2.1,0.2,3.9,0.1,5.8-1.3c1.6-1.2,3.8-2.3,6-0.5c0.4,0.3,1.2,0,1.9-0.1
		c1.1-0.1,1.3-0.9,0.9-1.7c-0.7-1.2-0.5-1.7,0.9-2.3c1.8-0.8,3.2-2.5,5.5-2.6c0.7,0,1.2-1,1-1.9c0.8-0.3,0.6-0.7,0-1
		c0.2-0.3,0.4-0.5,0.6-0.8c0.2-0.2,0.4-0.6,0.7-0.7c0.4-0.2,0.9-0.2,1.3-0.3c0.1,0.4,0.3,0.9,0.2,1.3c-0.1,0.9-1.2,2.3-0.2,2.5
		c1.2,0.3,1.3-1.4,1.6-2.4c0.2-0.8,0.3-1.6,0.6-2.3c0.1-0.4,0.4-1.1,0.7-1.1c1.9-0.3,2-1.9,2.3-3.2c0.2-1.1,0.7-2.3,1.5-2.9
		c2.2-1.6,3-4,4.1-6.2c0.3-0.6,0.4-1.2,1.2-1.1c1.4,0.2,1.6-0.6,1.5-1.7c-0.1-1.1,0-2.2,0.3-3.3c1.5-5.2,4.3-10,4.7-15.5
		c0-0.3,0.2-0.7,0.5-0.8c1.7-0.6,1.5-2,1.2-3.2c-0.7-3.2-0.4-6.3,0.9-9.4c0.1-0.3,0.3-0.6,0.3-0.9c-0.4-4.1,0.2-8.3-0.1-12.3
		c-0.4-5.3-1.7-10.6-2.1-16c0-0.5,0-1.1-0.3-1.4c-1.4-1.3-0.8-3-1-4.5c-0.1-1.6-0.4-3.1-0.8-4.7c-0.9-2.9-1.5-5.9-3.3-8.4
		c-1.9-2.5-1.9-5.7-3.4-8.3c-2-3.6-6-9.7-8.6-12.4c-0.6-0.6-1.1-1.1-1.6-1.8c-1.2-1.6-2-3.8-4-4.7c-2-0.9-2.8-3.5-5.4-3.5
		c-0.4,0-0.9-0.5-1.1-0.9c-0.8-1.5-2.3-1.7-3.6-2c-3.1-0.8-6.3-0.8-9.3-2.1c-0.5-0.2-1.2,0.3-1.8,0.3c-2.4,0-4.9-0.4-7.2,0.1
		c-2.3,0.5-4.3,2-6.5,2.9c-0.9,0.4-1.9,0.4-2.8,0.8c-0.7,0.3-1.5,0.7-1.9,1.3c-1.5,1.9-2.9,3.8-5.4,4.4c-0.4,0.1-0.8,0.6-1,1
		c-1,2.2-2.7,3.9-4.3,5.6c-1.3,1.4-2.4,3-3.2,4.7c-2.8,5.6-5,11.4-7.5,17c-1.2,2.7-2.4,5.6-2.5,8.7c-0.1,1.4-0.6,2.8-1,4.2
		c-0.8,3.3-1.6,6.5-1.7,9.9c-0.1,2.5-0.5,5.1-1.8,7.4c-0.6,1-0.7,2.1-0.7,3.2c-0.2,6.3,0.5,12.5,1.3,18.6c0.7,5.2,1.6,10.4,3.8,15.3
		c2,4.5,4.1,9,6.1,13.5c1,2.2,2.1,4.3,3.7,6.1c2.2,2.5,4.1,5.3,6.2,7.9c0.4,0.5,0.8,1,0.4,1.7c0.3-0.1,0.4-0.1,0.2,0.1
		c0-0.1-0.1-0.2-0.1-0.3c2.8,0.9,4.7,2.9,6.4,5.1c-0.3,1.8,1.1,2.9,2,4.2c-2.2-0.3-3.7-1.8-4.9-3.5c-1.2-1.5-2.4-2.8-4.2-3.7
		c-2.7-1.3-4.1-4-5.1-6.7c-0.6-1.6-1.3-2.9-2.7-3.8c-0.5-0.4-1.5,0-1.5,0.5c-0.1,1-0.1,1.9-0.1,2.9c0.5,11.7,1,23.3,1.5,35
		c0.1,2.6,0.1,5.1,0,7.7c-0.2,5.8-0.5,11.5-0.6,17.3c-0.1,6.7,1,13.4,1.4,20.1c0.7,10.9,2.2,21.6,3.5,32.4c0.4,3.7,0.8,7.3,1.4,10.9
		c0.4,2.7,0.4,5.4,0.1,8.1c-0.8,7.3-1.6,14.6-2.4,21.9c-0.2,2.2-0.1,4.4,0.6,6.6c1.2,4,2.2,8,3.3,12c0.4,1.4,0.4,2.8-0.1,4.2
		c-0.8,2.4-1.4,4.9-2.3,7.3c-0.5,1.5-0.5,2.7,0.1,4.2c1.2,3,2.1,6,3.3,9c0.7,1.7,0.8,3.4,0.5,5.2c0,0.2,0,0.3-0.1,0.5
		c-2.3,7.6-1.5,15.2-0.3,22.8c0.5,3.3,0.6,6.7,0.9,10c1.5,16.4,1.7,32.9,1.5,49.4c-0.2,15.5-0.9,31-1.5,46.5c-0.1,1.6-0.1,3.2,0,4.8
		c0.4,8.5,1,16.9,1.3,25.4c0.2,4.8,1,9.5,1.9,14.3c0.4,2.3,0.5,4.5-0.5,6.6c-2.6,5.5-2.3,11.1-1.4,16.9c0.8,5.1,2.4,10,3.2,15
		c1.2,8.4,4.4,16,7.9,23.5c1.3,2.8,2.5,5.5,3.9,8.2c0.7,1.4,0.9,2.7,0.2,4.1c-0.3,0.6-0.5,1.2-0.7,1.8c-0.9,2.5-0.9,3,1.1,4.5
		c3.9,2.9,6.9,6.5,9.6,10.5c1.1,1.6,2.5,2.9,3.7,4.4c1.3,1.7,3.8,2.5,4,5.1c0,0.4,0.9,0.9,1.4,1.1c2.4,1.1,4.1,2.8,6,4.5
		c5.7,5.2,10.5,11.1,15.2,17.2c2.2,2.8,4.4,5.5,6.9,7.9c1.3,1.2,2.4,2.6,3.3,4.1c1,1.6,2.1,3.1,3.4,4.6c1.7,2,2.2,4.4,1.9,7.1
		c-0.6,5.1-2.5,9.9-3.4,14.9c-0.2,1.1-0.9,2.1-1.9,2.7c-1.6,1-2.3,2.5-2.9,4.2c-1.6,4.7-4.5,5.7-8.8,3.1c-0.4-0.3-0.8-0.6-1.3-1
		c-1.4,1.4-2.9,2.8-4.4,4.2c-1.6,0-3.2,0-4.8,0c-0.8-1.1-1.6-2.2-2.5-3.2c-0.8-0.9-1.6-0.9-2.1,0.2c-0.5,1.2-1.3,2-2.1,2.9
		c-1.6,0-3.2,0-4.8,0c-2.8-1.8-5.4-3.8-7.2-6.7c-0.3-0.5-0.9-1-1.4-1.2c-3-1-5.5-3-8.4-4.1c-5.7-2.1-10.6-5.7-15.1-9.8
		c-2.7-2.4-4.8-5.4-7.9-7.4c-0.7-0.5-1.4-0.6-2.2-0.4c-0.1-0.9,0-2.1-0.9-2.5c-2.3-1-4.2-2.5-6.6-4.2c0.1,3.5,1.6,5.5,4,6.9
		c0.6,0.3,1.2,0.2,1.8,0c0.6-0.2,1.2-0.2,1.8-0.4c-0.6,1.7-2.1,1.8-3.5,1.9c-1.4,0.1-2.5-0.6-3.3-1.7c-1.1-1.7-2.4-3.4-2.8-5.5
		c-0.2-1.1-0.6-2.2-1.4-3c-1.2-0.4-1.6,0.8-2.3,1.3c-2.5,1.9-4.5,2-7,0.4c-2.6-1.6-4.2-3.9-5.4-6.6c-0.5-1.1-0.5-2.5-1.7-3.7
		c-1.1,0.5-2,1.8-3.5,1.6c-1-0.1-1.8-0.5-2.7-0.9c-1.2-0.6-2-1.6-2.7-2.6c-1-1.5-1.9-2.9-2.8-4.5c-0.5-0.8-1.1-1.7-1.1-2.6
		c-0.4-5.7-2.7-10.8-4.3-16.1c-1.2-3.7-0.8-7.5-0.6-11.2c0-0.3,0.2-0.6,0.2-0.9c-0.5-3.8,0.4-7.3,2.8-10.1c-1.9-2.8-3.4-5.4-5.3-7.8
		c-2-2.6-2.6-5.3-2.5-8.5c0.1-5.9-0.1-11.8-0.1-17.8c0-2.6-0.3-5.1-0.8-7.6c-5-21.8-9.4-43.8-15.3-65.4c-0.9-3.4-1.3-6.9-1.6-10.4
		c-1.5-14-2.7-28-4.3-42c-1.3-11.3-1.5-22.6-1.9-34c-0.8-26.4-1.7-52.8-2.7-79.1c-0.2-5.6-1.4-11.1-2.3-16.6
		c-3.1-18.9-6.2-37.9-9.3-56.8c-1.7-10.4-3.6-20.8-5.2-31.2c-1.5-10-2.9-19.9-4.3-29.9c-1.8-12.7-3.7-25.3-5.4-38
		c-1.2-8.9-3.4-17.6-5.1-26.4c-0.4-1.8-1.1-2.8-3-3c-9.9-1.1-6.8-2.7-12.1,5.9c-1.2,1.9-2,3.9-2.4,6.2c-1.5,9.2-4.1,18-7.5,26.7
		c-8.5,22.3-14.8,45.3-21.3,68.2c-2.6,9.1-5.1,18.2-7.7,27.2c-0.6,2.1-1.4,4.3-2.2,6.4c-19.8,53.2-39.6,106.4-59.5,159.5
		c-1.1,2.9-1.8,5.8-1.5,8.9c0.8,9.2-0.7,18.1-2.6,27.1c-1.1,5.2-2.4,10.2-4.1,15.3c-5.5,16.4-10.9,32.8-16.4,49.1
		c-2,5.9-3.1,12.1-4.6,18.1c-0.6,2.5-0.3,5.1-0.1,7.7c0.2,2.8-0.3,5.4-1.4,7.9c-3.2,7.5-6.3,15-9.4,22.6c-0.4,1-0.9,2-1.4,3
		c-0.5,1-1.3,1.4-2.3,1.1c-0.2,0-0.3-0.1-0.5-0.1c-8.5-1.7-16.9-0.2-25.3,0.7c-4.8,0.5-9.5,1.4-14.2,2.1c-1.6,0.2-3.2,0.1-4.7-0.3
		c-3.4-1-6.8-1.9-10.1-2.9c-0.6-0.2-1.2-0.4-2,0c0.8,1.5,2.4,1.9,3.6,2.7c6.7,4,6.7,3.9,14.4,3.3c10-0.7,20.1-1.3,30.2-1.9
		c0.5,0,1-0.1,1.4,0c0.7,0.1,1.3,0.4,1.3,1.1c0,4,0,8-0.3,12c-0.1,1-0.8,2-1.4,3c-1.8,3.2-3.7,6.3-5.6,9.5c-0.5,1-1.4,1.8-1.3,3.3
		c3.1,0.2,5.9-0.8,8.6-1.9c0.5-0.2,0.9-0.9,1.3-1.4c4.4-5.6,4.7-6.4,4.9-13.5c0.1-2.9,0-5.8,0-8.6c0-1.7-0.1-3.5,0.8-5.1
		c1,0.5,1.6,1.3,1.7,2.2c0.4,4,2.4,7.6,1.9,11.7c0,0.3,0,0.7,0.1,0.9c1.6,3.3,0.3,6.5-0.2,9.7c-0.2,1.3-1.3,2.7-1.2,3.9
		c0.1,1.4,0.3,2.8,0.3,4.3c-0.1,4.2-0.8,8.2-3,11.9c-0.8,1.3-1.9,2.2-3.4,2.5c-1.7,0.3-3.1-0.2-4.2-1.6c-0.1-0.1-0.2-0.2-0.5-0.4
		c-0.3,0.5-0.8,1-0.9,1.6c-0.5,3-2.2,5.2-3.9,7.5c-2.8,3.7-7,4.5-11,2c-0.5-0.3-1-0.7-1.3-1c-1,0.5-1.2,1.3-1.7,2
		c-3.1,4.3-8.5,6-13.6,4.1c-1.5-0.5-2.7-0.9-4,0.3c-1.1,1-2.6,1.1-3.8,1.9c-2.9,2.1-5.5,4.2-6.2,8c-0.1,0.6-0.5,1.1-0.8,1.7
		c-2.5,4.7-2.5,4.7-7.7,3.1c-1.1,0.2-1.3,1.3-1.8,2c-0.9,1.2-1.9,2.2-3.1,3c-2,1.3-4.1,1.8-6.3,0.4c-0.7-0.4-1.3-0.7-2.2-1.2
		c-2.9,4.8-7.3,4.5-11.5,2.9c-3.6-1.4-7.2-2.6-11-3.4c-9.5-2.1-17.3-11.8-18.4-21.1c-0.1-0.5-0.3-1-0.2-1.4
		c1.1-4.3,1.8-8.8,5.9-11.6c4.4-3.1,8-7.3,12.2-10.8c0.5-0.4,1-0.9,1.2-1.4c1.1-3.2,3.5-5.3,5.9-7.4c4.8-4.3,8.8-9.2,12.1-14.7
		c1.4-2.4,3.1-4.4,5.1-6.3c1.9-1.7,3.6-3.6,5.4-5.4c0.7-0.7,1.3-1.5,2.1-1.9c5-2.6,6.1-7.5,7.5-12.3c0.7-2.6,0.9-5.4,1.2-8.1
		c0.2-2.1,1-3.6,3.4-4c1.7-0.3,3.3-1.1,5-1.5c1.8-0.5,2.6-1.4,2.8-3.3c0.8-7.6,1.8-15.2,2.8-22.9c1.5-12.4,3-24.8,4.5-37.1
		c1.4-11.3,2.7-22.6,4.1-33.8c1.4-10.6,2.8-21.2,4.3-31.8c1.1-8.1,2.2-16.2,3.4-24.2c0.3-2.4,0.8-4.7,1.4-7c1.7-6.5,3.4-13,5.2-19.5
		c2.2-8.2,3.4-16.6,4.9-24.9c4-21.4,7.6-42.8,11.8-64.2c1.5-7.5,3.9-14.8,6-22.2c2.3-8.5,4.9-16.9,7-25.4c1.9-7.8,3.4-15.6,5-23.4
		c5.3-26.2,10.6-52.3,16-78.5c2.6-12.4,4.3-24.9,6.1-37.4c1-6.8,1.9-13.6,2.9-20.4c0.2-1.6,0.8-3.1,1.4-4.6
		c2.9-7.6,5.9-15.2,8.9-22.8c0.9-2.3,1.3-4.6,1-7c-0.7-6.8-1.3-13.7-2.1-20.5c-0.1-1.1-0.2-2.4-0.8-3.2c-1.4-1.8-1.7-3.7-1.6-5.8
		c0.1-2-1.2-4.1,0.4-6c0-2.9,1.3-5.5,2.1-8.2c1.2-4.1,2.1-8.3,0.9-12.6c-0.4-1.4-0.7-2.8-0.4-4.2c0.5-2.1,0.5-4-0.2-6.1
		c-0.4-1.1-0.1-2.5,0.1-3.8c1.6-10.6,3.3-21.1,4.9-31.7c0.2-1.1,0.4-2.2,0.3-3.3c-0.2-3.4,0.3-6.7,1.7-9.8c0.8-1.8,0.7-3.7,1.2-5.5
		c0.7-3.1,1.3-6.2,2.3-9.3c0.9-2.6,0.9-5.6,1.2-8.4c0.3-2.2,0.4-4.4,0.6-6.6c0.1-1.9,0.5-3.8,1.4-5.5c1.3-2.4,1.5-5.1,2.5-7.5
		c-1.5-0.6-2.2,0.2-3,0.6c-2,1.1-4,2-6.4,1.8c-0.7-0.1-1.6,0.2-2.3,0.5c-4.2,2.4-9.1,2.8-13.6,4.1c-1.7,0.5-3.5,0.5-5.2,0.6
		c-2.2,0.1-4.5,0.1-6.7-0.1c-2-0.2-4.1-0.4-6.1-0.8c-2-0.3-4.1-0.8-5.8-2.1c-0.4-0.3-1-0.3-1.2,0.1c-0.1,0.3,0.3,0.9,0.6,1.1
		c1.6,1.1,3.2,2.2,4.8,3.2c3.1,2,4,4.7,2.8,8.2c-0.6,1.7-1.8,3.2-1.7,5.3c0,1.3-1.2,2.2-2.5,2.6c-0.6,0.2-1.3,0.3-1.9,0.3
		c-2.4,0.1-4.9,0.4-7.1-0.5c-3.8-1.5-8.1-2.1-11-5.4c-1.9-2.2-4.8-3.1-7-4.9c-1.3-1-2.7-1.7-3.6-3.1c-0.7-1.1-1.9-1.7-3-2.3
		c-1.4-0.7-2-2-2.9-3.1c-0.2-0.3-0.8-0.4-1.3-0.4c-0.5,0-0.9,0.4-0.8,1c0.3,1.7,0.3,3.4,1.1,5.1c1,2.1,2.3,4.2,2.3,6.8
		c2.2,3,1.9,6.2,1,9.5c-0.2,0.9-0.2,2,0.2,2.8c1.6,4.2,1.8,8.7,2.6,13.1c0.5,2.5,1.9,4.4,3.1,6.4c0.8,1.4,1.3,2.8,1.7,4.3
		c1,3.7,2.1,7.3,3.9,10.7c1.1,2,1.7,4.1,1.7,6.4c0,3.9-4.4,7.4-8.5,6c-2.5-0.9-4.5-2.3-6.3-4.1c-1.3-1.3-1.7-1.2-2.6,0.5
		c-1.1,2.1-2.9,3.1-5,2.5c-3.7-1-7.2-2.2-10.2-4.9c-1.7-1.5-3.8-2.6-5.6-4.1c-1.6-1.5-3.3-3.1-5.4-3.9c-1.1-0.4-1-1.5-1.3-2.4
		c-0.5-1.5-1-1.7-2.5-1.4c-4.9,1-6.7,0.2-8.8-4.1c-1.8-3.7-3.4-7.5-5.4-11.1c-1.2-2.3-2.1-5-4.7-6.3c-1.3-0.6,0-2.7-1.8-3
		c-1.5-0.3-1-1.8-1.7-2.6c-0.8-0.9-1.2-2.2-1.7-3.4c-0.2-0.6-0.4-1.3-0.3-1.9c0.9-5.2-0.2-10.5,1.1-15.7c1.1-4.3,1.8-8.7,2.8-13
		c0.7-3.1,1.6-6.2,2.2-9.3c0.3-1.4,0.4-3,0-4.3c-0.7-2.5-0.6-5.1-0.6-7.6c0.1-1.6-0.4-2.7-1.6-3.8c-1.4-1.3-2.7-2.8-4-4.1
		c-1.9-1.9-3-4.1-3.5-6.7c-0.4-2.2-0.5-4.4-1.6-6.4c-1-1.8,0.4-3.3,2.6-3.4c3-0.2,3.3-0.6,3.3-3.5c0-1.5,0.5-2.4,1.7-2.3
		c2.2,0.2,4-0.8,5.9-1.6c0.6-0.2,1.2-0.5,1.8-0.6c4.9-0.5,9.7-1.8,14.5-2.9c1.1-0.2,2-0.6,3.1-1c1.4-0.7,3.4,0.2,4.7-1.3
		c2.3,0.6,4.3-0.7,6.5-0.9c2-0.2,4.1,0,6.2,0.2c4.9,0.5,4.3,0.2,5-4.1c0.5-3.5,0.5-7.2-1.5-10.5c-0.6-1-0.9-2-0.7-3.2
		c1-5.2,0.4-10.5,1-15.7c0.4-3.5,0.7-7,1.3-10.4c0.3-1.7,0.2-3.1-0.7-4.6c-0.8-1.4-1.4-2.8-2.2-4.3c-0.4-0.8-0.2-1.5,0.2-2.2
		c0.5-0.8,1.5-1,2-0.4c0.6,0.7,1.2,1.5,1.7,2.3c2.4,3.2,2.5,1.8,4.4,0.4c3.5-2.7,7-5.5,10.6-8.1c3.2-2.3,7-3.7,9.5-6.9
		c0.3-0.4,0.8-0.8,1.1-0.8c2.5,0.7,3.3-1.4,4.5-2.8c0.4-0.5,0.6-1.1,1.3-1.3c3.9-1,5.4-4.7,8-7.3c0.8-0.8,1.4-1.6,2.4-2.1
		c1.5-0.8,3-1.8,4.5-2.7c0.4-0.3,1-0.3,1.2,0.2c0.2,0.4,0.1,0.9,0,1.3c-0.1,1.4-1.3,1-2.1,1.3c-0.2,0.1-0.5,0.5-0.5,0.7
		c0,0.6,0.4,0.9,0.9,0.9c0.8,0,1.6-0.1,2.4-0.3c2.2-0.8,4.4-0.6,6.6-0.6c0.8,0,1.6,0.2,2.4,0.1c1.1-0.1,1.6-1,1.2-2.1
		c-0.8-1.7-1.5-3.7-2.7-5.1c-2.8-3.3-4.9-7.1-7.5-10.5c-2-2.6-4.2-5.2-5.8-8.1c-0.6-1.1-1.4-2.2-2-3.2c-0.8-1.3-1.3-2.9-3-3.6
		c-0.5-0.2-1-0.9-1.3-1.4c-1.8-3.1-4.5-5.4-6.8-8c-2.1-2.2-4.2-4.3-5.7-7.1c-1.5-2.6-4.6-3.1-7-1.3c-5.1,3.9-10,7.8-15.1,11.6
		c-1.6,1.2-2.6,2.8-4.1,4c-2,1.8-3.9,3.6-6.1,5.2c-2.2,1.6-3.8,3.9-6.4,5c-0.9,0.4-1.4,1.2-2,2c-2.3,3.3-5.4,5.8-8.8,8
		c-3.8,2.4-7.1,5.4-10.5,8.3c-4.5,3.8-8.3,8.4-12.9,12.1c-1.5,1.2-2.5,2.9-3.7,4.3c-1,1.2-1.8,2.6-2.8,3.9c-1.1,1.4-2.2,2.8-3.3,4.2
		c0.8,2.5-1.2,4.6-0.9,7c0.3,3-0.1,6.1,1.4,8.9c0.6,1.2,0.9,2.2,0.3,3.6c-0.8,1.7,0,3.5,0.8,5c1.4,2.7,2.1,5.6,2.4,8.6
		c0.3,2.5,0.8,5,2.2,7.3c0.5,0.8,0.7,1.8,0.9,2.7c0.3,0.9,0.2,2,0.7,2.8c1.4,2.4,2.4,4.7,2.6,7.5c0.2,2.6,1.4,5.1,2.1,7.7
		c0.1,0.2-0.1,0.7-0.2,0.8c-0.2,0.1-0.7,0.1-0.8,0c-0.7-1.2-3.1-1.7-1.7-3.8c0.5-0.7-0.2-1.2-0.5-1.7c-0.6-1.2-2.5-1.7-2.1-3.5
		c0.3-1.5-2.6-1.7-1.4-3.6c-1.4-1-1.9-2.5-2.8-3.8c-0.5-0.7-0.1-1.2,0.3-1.7c0.1,0.1,0.3,0.1,0.4,0.2c0.4,0.3,0.5,0.2,0.3,0
		c-0.1-0.2-0.5-0.1-0.8-0.1c-1.4-5.7-2.7-11.4-4.1-17c-0.3-1.4-0.9-2.7-1.5-4c-0.9-1.9-1.4-3.9-1.6-6c-0.1-0.8,0-1.7-0.3-2.3
		c-1.7-3.2-0.8-6.6-1.1-9.8c0-0.3-0.1-0.7,0.1-0.9c1.9-3.8,2.7-8.1,6-11.2c3.4-3.3,6.3-7.1,9.5-10.6c2.5-2.7,5.5-4.8,8.4-7
		c0.6-0.4,1.5-0.3,2.3-0.6c2.2-0.9,4.4-1.9,4.8-4.7c0.1-0.9,0.6-1.4,1.4-1.8c1-0.5,1.9-1.2,2.8-1.9c1.7-1.2,3.7-2,4-4.4
		c0-0.3,0.4-0.5,0.6-0.7c0.8-1.1,1.5-1.7,3.2-1c1.6,0.6,2.4-0.7,1.9-2.3c-0.1-0.4-0.6-0.9-0.1-1.3c1.1-0.9,1.8-2.5,3.3-2.7
		c1.9-0.3,2.8-1.1,2.7-3.1c0-0.3,0.5-0.8,0.8-1c0.2-0.2,0.6-0.3,0.9-0.2c0.2,0.1,0.4,0.4,0.5,0.7c0.2,1-1.3,2,0,3.2
		c0.4-0.5,0.8-1,1-1.5c0.4-1.4,0.1-3.4,2.4-3.5c0.1,0,0.3-0.2,0.3-0.3c1.1-4,5.6-4.5,7.7-7.4c0.3-0.4,0.8-0.4,1.2-0.1
		c0.5,0.4,1,0.4,1.1-0.2c0.9-3,3.5-4.5,5.7-6.2c1.6-1.1,2.9-2.4,4.4-3.6c0.7-0.6,1.1-1.7,2.2-1.7c1.5,0.1,2-0.9,2.5-1.9
		c1-2.1,2.5-3.7,4.7-4.5c0.4-0.2,1-0.4,1.2-0.7c2.5-4.3,6.7-7.1,9.6-11.1c2.8-3.8,6-7.3,9.8-10.1c2-1.5,3.5-3.7,5.1-5.7
		c1.6-2,2.7-4.4,5.3-5.2c3.1-3.2,6.3-6.3,9.3-9.6c1-1.1,2.2-1.8,3.3-2.7c4.4-3.6,10-5.4,14.1-9.5c0.2-0.2,0.5-0.4,0.8-0.5
		c2.6-1,5.2-2.2,7.8-3c2.2-0.7,4.6-0.5,6.8-1.4c1.4-0.6,3.1-0.2,4.7,0.5c0.7,0.3,1.6,0.8,2.2,0.6c2.6-0.9,4.9,0.1,7.4,0.3
		c2.6,0.2,5,0.9,7.4,1.7c3.2,1.1,6.5,1.4,9.7,2.6c3,1.1,5.8,2.4,8.8,3.5c5.5,2,11,4.1,17,4.6c1.6,0.1,3.1,0.2,4.6-0.6
		c1.7-0.9,3.9-0.2,5.4-1.7c-0.1-1.8-2.5-1.8-2.9-3.5c-4.5-1.9-6.8-6.4-10.9-8.8c-2.5-1.4-4.2-3.8-5.4-6.4c-0.4-0.8-1-1.7-1.7-2.3
		c-4.3-3.9-4.3-9.7-6-14.6c-0.5-1.5-0.3-3.5,0-5.1c0.7-3-0.7-5.6-1-8.4c-0.1-0.6-0.7-1.1-1-1.6c0,0,0.3,0.2,0.3,0.2l-0.2-0.2
		c-2.3-1-4.6-1.9-6.8-3.1c-0.6-0.3-1.1-1.1-1.5-1.8c-1.6-2.6-3.4-5-5.4-7.3c-2.8-3.3-3.5-7.4-2.7-11.6c0.3-1.9,1-3.7,1.8-5.4
		c0.9-2,2.2-3.5,4.9-2.6c0.8,0.3,1.5-0.6,1.3-1.5c-0.4-2.2-0.9-2.6-3-2.7c-1.6-0.1-3.2-0.1-4.7-0.7c-1-0.4-1.5-1.6-0.7-2.3
		c2.2-1.9,3.9-4.2,6.6-5.5c2.3-1.1,4.4-2.6,6.4-4.2c3.9-3.1,8.2-5.5,12.9-7.2c0.4-0.2,0.8-0.5,1.3-0.7c11.7-6.1,24.1-9.2,37.2-9.6
		c0.6,0,1.3,0,1.9,0c7.4-0.8,14.7,0.1,21.9,1.2c4.1,0.6,8.2,1.2,11.5,4.2c0.4,0.4,1.1,0.6,1.7,0.8c4.6,1.6,8.3,4.6,12.1,7.6
		c1.3,1,2.5,2,4.1,2.4c3.5,1,5.6,3.4,7.2,6.5c1.6,3.3,3.5,6.4,3.8,10.2c0.5,5.6-0.5,10.7-3.6,15.3c-1.3,1.9-2.3,3.8-2.9,6
		c-0.7,2.3-1.3,4.6-2.5,6.7c-0.4,0.7-0.5,1.5-0.5,2.3c0.1,1.3,0.1,2.6-1.4,3.2c-0.5,0.2-0.6,0.8-0.4,1.2c0.9,1.7,0.2,3-0.8,4.4
		c-0.3,0.4-0.6,0.8-0.6,1.3c-0.1,3.1-1.3,5.8-2.3,8.7c-1,2.7-1.5,5.5-2,8.4c-0.6,2.8-0.5,5.8,0,8.6c0.4,2.1,0.5,4.1-0.2,6.1
		c-0.7,2.1-0.4,4,1.1,5.8c0.7,0.8,1.1,1.9,1.6,2.9c1.7,3.8,4.4,6.9,7,10.1c2.8,3.4,5.5,7,7.7,10.9c0.5,0.8,0.6,1.9,1.8,2.1
		c2.3,0.3,3.5,2.3,4.8,3.8c2.7,3.3,6.3,5.3,9.7,7.7c1.8,1.3,4,2,5.9,3.1c0.7,0.4,1.7,0.7,1.9,1.3c0.8,2.4,3,2.8,4.8,3.6
		c2.6,1.2,5,2.8,7.9,3.2c0.7,0.1,1.6,0.5,2.1,1.1c3.5,3.6,8,5.8,12.2,8.4c2,1.3,3.9,2.6,5.7,4.2c2,1.9,3.7,4.4,6.7,5.1
		c0.8,0.2,1.5,1.1,2.1,1.8c2.1,2.6,4.4,5,6.9,7.3c1.7,1.5,2.7,3.8,4.6,5.3c0.3,0.2,0.3,0.7-0.1,0.8c-0.2,0.1-0.7,0.2-0.9,0
		c-0.8-0.8-1.5-1.5-2.8-1.5c-0.7,0-1.6-1-1.5-1.7c0.6-2.8-1.7-3.4-3.2-3.9c-1.7-0.5-2.8-1.3-3.8-2.6c-0.6-0.8-1.2-1.4-2.3-1.4
		c-1.6,0-2.2-0.8-1.8-2.5c0.2-0.7-0.4-1-1.2-0.7c-1.9,0.7-2.3,0.6-3-0.9c-0.6-1.2-1-1.9-2.4-1.5c-0.1,0-0.4-0.5-0.3-0.7
		c0-0.3,0.3-0.6,0.5-0.7c0.4-0.2,1,0,1.1-0.6c-1-0.4-1.9-0.8-2.9-1.2c-2.1-0.7-2.7-0.3-3.4,1.9c-0.2,0.8-0.6,1.6-0.5,2.3
		c0.5,3.5-1.1,6.6-1.5,9.9c-0.2,1.3-0.7,2.5-0.6,3.7c0.5,5.9-0.5,11.9,0.8,17.7c0.4,1.9-1.4,3.2-0.5,5c0.7,1.4,1.3,3.1,1.2,4.6
		c-0.3,6.9,1.7,13.6,2,20.4c0.1,2.2,0.2,4.5,0.3,6.7c0.2,4.9,1,9.8,1.9,14.7c0.1,0.3,0.1,0.6,0.1,0.9c0,5.9,1.3,11.7,1.9,17.5
		c0.2,1.4,0.3,2.9,0.7,4.2c0.6,1.9,0.7,3.9,0.1,5.7c-1,3-0.3,5.7,0.8,8.4c0.8,2,0.5,4,1.1,6c0.3,0.9-1.2,0.4-1.2,1
		c-0.1,2.7-0.5,5.4,1.3,7.8c0,0-0.2-0.1-0.2-0.1l0.1,0.2c1.5,2.2,2.5,4.5,2.4,7.3c-0.1,2.1,0.6,4.3,0.4,6.5c-0.1,1,0.4,1.8,1.1,2.5
		l0.1-0.1c-0.2,0.3-0.5,0.6-0.4,0.8c1.3,4.9,1.6,10,4,14.5c0.5,0.9,0,1.9,0.1,2.8c0.4,2.5,1.1,4.9,1.5,7.4
		c1.1,7.9,3.1,15.6,4.3,23.5c0.4,2.5,1.1,4.9,1.6,7.4c0.7,3.6,1.4,7.2,1.8,10.8c0.2,1.8,0.5,3.5,0.8,5.2c1,5.2,2,10.3,3,15.5
		c0.3,1.7,0.6,3.5,1,5.2c0.6,3,2,5.6,4.4,7.7c3.2,2.9,6.3,5.9,8.9,9.3c2.3,3.1,5.2,6,5.5,10.2c3.1,5.9,3.5,12.5,5.2,18.8
		c1,3.7,2.1,7.4,2.1,11.2c0,1,0.9,1.7,1.4,2.4c0.8,1,1.6,2,1.3,3.4L842.2,600.6z M572.7,481.4c-0.4,0.1-0.4,0-0.2-0.3
		c0.1,0.1,0.1,0.2,0.2,0.2c0.1-0.7,0.2-1.5,0.3-2.2c0.9,0.5,2.1,1.1,2.5,0.1c0.9-2.2,2.9-2.2,4.6-2.7c1.8-0.6,3.6-1.1,4.4-3.2
		c0.5-1.3,1.8-1.7,3.1-0.6c0.2,0.2,0.6,0.1,0.9,0c0.7-0.2,1.3-0.7,0.8-1.4c-0.8-1.1-0.7-1.8,0.4-2.7c0.9-0.7,1.8-1.1,2.9-1.5
		c1.4-0.5,0-2.2,1.1-2.9c0.2-0.2,0.5-0.3,0.8-0.3c0.4-0.1,0.5,0.2,0.7,0.5c0.3,0.7-0.4,1.8,0.7,2.3c1.1-1.3-0.5-3.5,2-4.1
		c0.8-0.2,0.2-1.8-0.9-2.1c-3.5-1-7-2.1-10.3-3.6c-1.1-0.5-2.2-0.3-3.2,0.2c-2.9,1.3-5.9,2.5-8.8,3.8c-6.6,2.8-13.2,5.7-19.8,8.5
		c-1.6,0.7-1.8,0.6-2.7-0.9c-3.6-5.6-7.3-11.3-10.8-17c-1.3-2.1-3-3.2-5.4-3.5c-0.9-0.1-1.9-0.3-2.8-0.4c-3.8-0.5-7.6-1.1-11.4-1.6
		c-1.1-0.1-2.3-0.2-3.2,0.6c-3.2,2.9-6.3,5.8-9.5,8.8c-0.7,0.7-0.9,1.7-0.4,2.7c1.6,3.1,2.3,6.7,4.8,9.3c0.4,0.4,0.9,1,1,1.6
		c0.7,3.6,3.5,6,5.2,9.1c0.3,0.5,0.9,1.1,1.4,1.1c3.9,0.3,7.3,2,10.9,3.3c1,0.4,2.2,0.6,3.3,0.6c1.6,0,3.2,0.3,4.7,0.4
		c2.6,0.2,5.2,0.1,7.9-0.2c4.1-0.6,8.1-1.6,12.3-1.5c1.1,0,2.2-0.2,3.2-0.8c2.9-1.8,6.4-1.7,9.6-2.8c0.4-0.1,0.5,0.7,0,1.1
		C573,480,572.9,480.7,572.7,481.4z M775.3,511.9c-0.7,0-0.7,0.7-1.1,1c-1.2,2.4-2,4.7-0.3,7.4c1,1.4,1,3.3,0.7,5.1
		c-0.5,2.5-0.1,5,0.3,7.6c0.6,4,1.4,8.1,0.1,12.2c-0.3,0.9-0.1,1.9-0.1,2.8c0,2.4,0.1,4.8,0.1,7.2c0,4-0.1,8,0,12
		c0.1,1.9,0.2,3.8-0.3,5.7c-0.5,2-0.6,4.1-0.2,6.1c0.7,3.5,0.7,7,0.5,10.5c-0.2,4.7,0.1,9.5-0.3,14.3c-0.2,2.7-0.1,5.4-0.8,8
		c-0.2,0.6-0.3,1.2-0.3,1.9c0,0.3,0.2,0.6,0.4,0.8c0.3,0.2,0.6,0,0.8-0.3c0.9-1.9,1.2-3.9,2.1-5.8c3.6-7.7,8.3-14.7,14.3-20.7
		c0.7-0.7,0.6-1.3,0.5-2.1c-0.7-5-3.3-9.7-2.8-14.9c0-0.1,0-0.4-0.1-0.5c-2-2.2-2.1-5.2-3.1-7.8c-1-2.3-1.3-4.5-1.8-6.9
		c-0.7-3.7-1-7.5-2.6-11.1c-1-2.1-1.6-4.6-1.5-6.9c0.1-3.5-0.4-7-0.9-10.5c-0.4-3-1-5.9-2.1-8.8c0.4-0.7,1.1-1.4,0-2.1
		c-0.3-0.5-0.7-1.1-0.7-1.6c-0.2-1.2-0.9-1.4-1.8-1.6c0.4-0.4,0.7-0.8,1.1-1.2c0-0.7-0.3-1.4,0.2-2c-0.1-0.4-0.2-0.9-0.2-1.3
		c0.1-1.1-0.3-2.1-0.7-3.1c-0.1-0.2-0.5-0.3-0.8-0.3c-0.2,0-0.5,0.4-0.5,0.6c0.1,0.8,0.3,1.5,0.5,2.3c0.2,0.9,0.4,1.9,1.7,1.8
		C775.4,510.4,775.3,511.1,775.3,511.9z M850.8,1275.6c-1.2,0.1-2.4,0.4-3.4,1.2c-0.3,0.2-0.3,0.5-0.1,0.8c0.7,1.1,2.5,1.3,3.1,0.1
		c0.3-0.7,0.3-1.5,0.4-2.2c0.3,0.1,0.4,0,0.2-0.2C850.9,1275.4,850.8,1275.5,850.8,1275.6z M836.3,1277.4c-0.2,0-0.3,0-0.5,0
		c-0.6,0.1-1.5,0-1.5,0.7c0,0.5,0.5,1.2,0.9,1.5c0.9,0.6,2,0.8,3.1,0.5c0.2-0.1,0.5-0.4,0.5-0.6c0-0.2-0.1-0.6-0.3-0.8
		c-0.8-0.5-1.6-1-2.3-1.4L836.3,1277.4z M756.4,1222.3c-0.1-0.4,0-0.4,0.2-0.2c-0.1,0-0.2,0.1-0.3,0.1c0.8-1.3,0.2-2.5-0.4-3.6
		c-1.5-2.8-3.1-5.6-4.6-8.4c-1.5-2.7-2.8-5.4-3.5-8.4c-0.2-0.8-0.3-1.6,0.5-2.1c3-2,5.8-4.1,10.1-3.2c3.1,0.7,6.2,1.2,9.3,2.2
		c5.8,2,11.6,3.1,17.8,3.3c4.8,0.2,9.2-0.9,13.6-2.4c1-0.3,1.7-0.8,2.1-1.8c1.1-2.5,2.2-5,3.3-7.4c0.1-0.2-0.1-0.6-0.3-0.8
		c-0.2-0.1-0.6-0.2-0.8-0.1c-4.6,2.6-9.8,3.7-14.7,5.5c-1.4,0.5-2.8,0.5-4.3,0.5c-8.1,0-16.3-0.5-24.4-1c-3-0.2-6-0.8-8.9-1.9
		c-1.5-0.6-3-1.1-4.5-1.5c-1.3-0.4-2.1,0-2.7,1.3c-0.4,0.9-0.7,1.8-0.9,2.7c-0.9,3.8-0.8,7.5,0.4,11.3c0.8,2.6,1.8,4.9,4,6.9
		C750.5,1216.1,753.4,1219.3,756.4,1222.3z M898.7,600.2l0,0.1c0.9-0.2,1.8-0.5,2.8-0.7c0.5-0.1,1-0.4,0.8-1
		c-0.1-0.2-0.5-0.4-0.8-0.3c-1.7,0.1-3.5,0.3-5.2,0.5c-0.2,1.9-0.5,3.7,0.9,5.4c0.6,0.7,0.7,1.8,0.9,2.7c0.7,3,1.9,5.7,3.3,8.4
		c0.7,1.3,1.3,2.5,1.3,4c0,0.6,0,1.4,0.4,1.8c2.4,2.5,2.2,5.8,2.8,8.9c1.1,5.3,2.2,10.6,4.5,15.6c0.5,1,1,2.1,1,3.2
		c0,2.3,1,4.4,1.9,6.4c1.8,4,3.6,8.1,4.5,12.5c0.4,2,1.4,3.9,2.7,5.9c0.9-3.3,1.6-6.5,2.1-9.5c0.6-3.2,1.2-6.5,0.6-9.9
		c-0.4-2.2-0.8-4.7-0.6-7.1c0.7-7.1-0.6-14-2-20.9c-0.8-3.7-1.8-7.5-3.6-10.8c-2.2-4.1-4.4-8.1-4.9-12.8c0-0.5-0.3-0.9-0.6-1.3
		c-0.5-0.9-1.3-1.5-2.4-1.1c-0.8,0.3-1.4,0.7-2.2,0.9C904,601.9,901.2,602,898.7,600.2z M508,363.4c-1.4,0.7-2.9,1.3-4.3,2
		c-1.1,0.6-2.4,1.1-3.2,2c-2.2,2.3-4.6,4.3-7.2,6.2c-0.5,0.3-1.1,1.1-1,1.5c0.6,2.1-0.5,4.2-0.1,6.1c0.4,2-0.2,3.8-0.4,5.6
		c-0.2,2,0.5,4.2-1.4,5.8c-0.3,0.3-0.2,1.2-0.1,1.8c0.1,0.8,0.6,1.8,0.3,2.3c-1.2,2.2-0.2,4.3,0,6.5c0.2,1.8,1.3,3.6,0.5,5.6
		c-0.4,0.9,0.4,1.5,1.3,1.4c4.1-0.2,8.3-0.5,12.4-0.6c1.8,0,3-0.8,3.9-2.2c2.2-3.2,4-6.5,5.7-9.9c0.2-0.4,0.3-0.8,0.2-1.3
		c-0.5-5.9,0.2-11.8,0.5-17.7c0.4-6.8,1.5-5.5-4.3-10.5C509.3,366.7,508.3,365.2,508,363.4c2,1.6,4.1,3.3,6.2,5.1
		c1.3,1,2.4,1.1,3.9,0.3c6.9-4,13.9-7.8,20.8-11.8c0.4-0.2,0.9-0.4,1.2-0.8c0.4-0.4,1-0.9,1.1-1.5c0.5-2.6,1-5.3,1.4-8
		c0.1-0.7-0.4-1.2-1.2-1.1c-1.7,0.3-3.4,0.6-5.2,0.9c-8.7,1.3-8.7,1.3-14.9,6.5c-0.8,0.7-1.6,1.6-2.3,2.4c-0.6,0.7-1.4,1.3-2.2,1.8
		C513.9,359.2,511,361.3,508,363.4z M603.8,454.9c0.2,0.1,0.6,0.8,0.7-0.1c-0.3,0.1-0.6,0.2-0.8,0.3c1.1-1.4,2.2-2.7,3.2-4.1
		c1.6-2.2,3.5-4.1,4.6-6.6c0.4-1,2.1-0.7,2-2.3c0-2,0.9-3.7,2.5-5c0.8-0.6,1.1-1.5,1.3-2.5c0.2-1.1,0.3-2.2,1-3.1
		c0.9-1,0.9-2.3,1.2-3.5c1-4.5,1.1-9.1,2.3-13.5c0.2-0.6,0-1.3,0-1.9c-0.1-1.6-0.5-2.1-2-2c-5.3,0.4-10.5,0.9-15.7,1.4
		c-1.1,0.1-2.1,0.6-2.9,1.6c-4.3,5.3-8.6,10.6-13,15.9c-1.3,1.5-1.7,3-1.5,4.8c0.3,4.9,0.6,9.9,0.8,14.8c0.3,6.2,0.4,6.3,6.2,8.4
		c0.3,0.1,0.6,0.2,0.9,0.3C600.3,459.4,600.3,459.4,603.8,454.9z M484,541.5c0.8-0.4,1.5-0.5,2.1,0.2c0.7,0.8,1.2,2,2.4,2.2
		c3.2,0.5,4.2,2.9,4.8,5.6c0.5,2.3,2,3.8,4,4.7c0.6,0.3,1.1-0.2,1.3-0.9l-0.2-0.1c1.4,1.6,2.8,3.1,5,3.3c1.3,0.1,2.2-0.5,2.1-1.8
		c-0.1-1.8-0.1-3.3,1.6-4.5c0.8-0.6,0.1-2.1-0.9-1.9c-1.1,0.2-1.7,0.2-2.1-1.1c-0.4-1.2-1-2.3-0.9-3.6c0.1-0.9-0.5-1.4-1.2-1.9
		c-1.8-1.3-1.8-1.3-0.6-3.5c-0.1,0.9,0.7,1.3,1.2,1.8c0.3,0.3,0.9,1.1,1.4,0.2c0.1-0.2-0.3-0.8-0.6-1.1c-0.5-0.6-1.2-0.9-2.1-0.7
		c0.1-0.9-0.6-1.4-1-2c0.5,0,0.9-0.1,0.7-0.7c0-0.1-0.5-0.2-0.7-0.2c-1.6-2.5-2.4-5.3-3.1-8.1c-0.2-0.9,0-1.4,0.4-2.1
		c0.5-0.9-0.6-1.3-1.1-1.7l-0.1,0.1c-0.5-2.5-1-5-1.5-7.5c-0.5-2.5-2.7-4.8-0.5-7.5c0.2-0.3-0.2-1.2-0.4-1.8c-0.7-2-1.1-3.9-0.8-6.1
		c0.3-2.1-2.2-3.5-2.3-5.6c-0.1-1.8-0.5-3.4-1.4-5c-0.9-1.8-0.6-3.7,0.3-5.5c0.8-1.7,1.9-2.2,3.9-1.9c1.5,0.2,7,3.6,7.8,4.9
		c2,3.2,4.6,5.6,8.3,6.7c1.4,0.4,2.4,1.4,3.4,2.5c2.1,2.3,4.7,3.7,7.8,4.4c2,0.4,4.1,0.8,6.1,1.2c0.7,0.1,1.3,0,1.8-0.3
		c1.9-0.9,3.1-2.6,2.9-4.6c-0.1-1.8-0.5-3.9-3.1-4.2c-1.2-0.1-1.9-1.2-2.6-2c-0.8-0.8-1.2-2-2.1-2.5c-3.9-2.1-4-7.2-7.6-9.5
		c-0.3-0.2-0.4-0.9-0.4-1.3c0-0.7-0.2-1.3-0.7-1.7c-1.7-1.1-2.1-3.1-3.1-4.7c-0.6-1-1-2.1-1.9-2.8c-3.3-2.8-4.7-6.9-6.1-10.7
		c-1.2-3.4-3.3-5.7-6-7.7c-1.9-1.4-3.9-2-6.3-1.7c-3.5,0.5-6.9,1-10.2,2.5c-2.7,1.3-5.6,2.2-8.7,2.5c-1.9,0.2-3.8,0.5-5.7,0.8
		c-1.6,0.2-3.1,0.4-4.7,0.1c-2.5-0.4-5.1-0.3-7.6,0.5c-2,0.7-3.8,1.6-5.9,1.7c-0.9,0-1.4,0.7-1.5,1.6c0,1.1-0.1,2.3,0.2,3.3
		c0.5,1.9,0.5,3.8,0.1,5.7c-0.2,0.8-0.3,1.6-0.1,2.4c0.9,4-0.9,7.7-1,11.7c-0.1,3.1-1.2,6.2-1.8,9.4c-0.1,0.6-0.1,1.4-0.7,1.7
		c-1.7,0.9-2,2.5-1.8,4.1c0.2,1.8-0.1,3.5-0.4,5.2c-0.2,0.9-0.2,2,0,2.8c0.6,2.1,0.9,4.3,1.1,6.6c1.3-0.9,0.6-2.3,1.2-3.2
		c0.6-0.9,0.9-2,1.4-3.1c0.1-0.2,0.5-0.5,0.7-0.5c0.2,0,0.6,0.3,0.6,0.5c0.2,1.4,0.6,2.9,0.5,4.3c-0.2,3,1,5.5,2.7,7.9
		c1.4,1.9,2.5,4,3.4,6.3c1.5,4,3.2,7.9,4.9,11.9c0.2,0.4,0.4,0.9,0.7,1.2c0.2,0.2,0.6,0.4,0.8,0.3c0.5-0.1,0.7-0.6,0.6-1.1
		c-0.4-1.4-0.7-2.8-1.4-4.1c-1.3-2.4-2-5-3-7.5c-1.4-3.5-0.4-6.9-0.7-10.3c0-0.4,0.6-0.6,1.1-0.3c0.7,0.6,1.8,1,1,2.2
		c-0.3,0.4-0.7,1-0.4,1.2c1.6,1.1,1.1,3.1,2.1,4.5c1,1.4,1.4,3.1,1.8,4.9c1.2,5.3,3.3,10.2,7.7,13.8c1.6,1.3,3.2,2.5,4.7,3.8
		c3.2,2.8,6.6,5.4,9.9,8.1c1,0.8,2,1.7,3.2,2c0.8,0.2,1.6,0.1,2.1-0.7c1.4-2.1,0.5-4.4,0.5-6.6c0-1.5-1.3-1.9-2.5-2.5
		c-1.3-0.7-2.1-1.9-2.8-3.2L484,541.5z M668.2,238.4c-4.2,0-8-1.3-11.5-3.5c-2.4-1.4-4.4-1.5-6.6,0.2c-1.1,0.9-2.3,1.7-3.4,2.6
		c-0.8,0.7-1,1.6-1,2.6c0.1,4,2.3,7.6,2.6,11.5c0,0.3,0.3,0.6,0.5,0.8c1.1,1,1.5,2.4,2,3.8c2.1,5.8,5.7,11,6.9,17.2
		c0.1,0.5,0.3,0.9,0.4,1.4c0.3,1.4,1.2,2.2,2.4,2.8c3,1.6,6,3,9.2,3.9c0.9,0.3,1.9,0.4,2.7,1c1.9,1.4,4.1,1.8,6.3,2.1
		c3.6,0.6,7.2,1.1,10.8,1.6c3.3,0.4,6.3-0.2,9.2-1.8c1-0.6,2-1,2.9-1.7c4.9-4,10.6-7,14.9-11.8c0.5-0.6,1.2-1,2.1-0.5l-0.1-0.1
		c-2.9,2.4-4.9,5.7-8,8c-1.1,0.8-2.1,1.8-3.4,2.1c-2,3.5-5.6,4.8-9.1,6.2c-3.6,1.4-7.5,1.4-11.3,0.9c-7-1.1-14.2-1.7-20.7-5
		c-1.5-0.7-3.1-1.3-5.2-0.9c0.4,0.8,0.6,1.4,0.9,1.9c1.3,2.7,2.9,5.3,3.8,8.2c0.7,2.4,1.8,4.4,3.4,6.1c0.8,0.9,1.3,1.8,1.3,3
		l0.1-0.1c-0.5,0.4-0.8,1-0.6,1.7c0.4,1.4,1.3,2.5,2.7,3.2c1.7,0.8,2.8,2.2,3.1,4c0.8,4.1,4.1,6.2,6.8,8.7c0.9,0.8,1.8,0.6,2.3-0.5
		c1.2-3,3.3-5.4,5.4-7.8c2.3-2.6,4.5-5.3,6.8-8c1.8-2,3.2-4.3,5.8-5.5c0.9-0.5,1.7-1.4,2.4-2.3c2.8-3.6,6.8-6.3,9-10.5
		c0.2-0.4,0.6-0.8,1-1c1.6-0.7,2.2-2.2,3.2-3.4c0.9-1.1,1.7-2.3,2.8-3.3c5-4.7,9.2-10,11.9-16.4c0.4-1,1-2,2.2-2.3
		c-0.2,0.9-0.2,2.1-0.8,2.7c-3,3.2-2,8.5-6,11.1c-0.2,0.1-0.1,0.6-0.3,0.9c-1.5,2.6-2.8,5.3-5.3,7.2c-1.7,1.3-3.3,3-4.3,5
		c-0.4,0.8-1,1.7-1.7,2.3c-3.2,2.4-4.9,5.8-6.6,9.2l-0.2,0.2l0.3-0.2c-1.8,2-3.5,4.1-6.3,5.1c-0.9,0.3-1.7,1-1.8,2.1
		c-0.2,1.8-1.4,2.8-2.4,4c-3.9,4.4-7.5,9.1-10.5,14.1c-1.4,2.4-2,4.6-1.3,7.2c0.8,3.2,0.3,6.4-0.4,9.5c-0.4,1.9-1.1,3.7-2.4,5.2
		c-1.5,1.7-3.5,1.7-5,0.1c-1-1.1-1.6-2.4-2.1-3.7c-1.4-4.4-1.6-8.9-0.4-13.2c0.7-2.5,0.1-4.3-1.4-6.2c-1.4-1.7-3-3.4-4.1-5.3
		c-4.3-7.4-9.2-14.6-11.9-22.9c-1.3-3.9-4-7.2-5.1-11.3c-0.5-1.8-1.4-3.7-2.7-5c-5.3-5.2-8.9-11.6-13-17.7c-3-4.5-5.6-9.3-7.1-14.6
		c-0.6-2.3-0.1-5.3-1.8-6.8c-1.6-1.5-4.4-1.8-6.6-2.6c-1-0.4-2.1-0.6-3.2-1c-5.4-2-10.8-3.8-16.1-6c-1.9-0.8-3.8-1.5-5.9-1.6
		c-3.8-0.1-7.5-0.8-11.4-0.5c-2.5,0.2-5,0.4-7.4,1.2c-3.8,1.3-7.4,2.9-11,4.8c-2.2,1.1-4.8,1.6-5.7,4.4c-0.2,0.5-0.9,0.9-1.4,1.2
		c-4.9,3-9.1,7-13.2,11c-1.2,1.1-2.1,2.4-3.3,3.4c-4.6,4-8.6,8.5-12.2,13.3c-1.3,1.7-2.6,3.2-4.6,3.9c-1.6,0.6-2.8,1.6-3.9,2.7
		c-2.8,2.8-5.3,5.9-8,8.9c-0.6,0.7-1.3,1.5-2.1,2c-2,1.1-2.4,2.7-2.2,4.9c1.6,0.4,2.7,1.6,3.9,2.7c1.8,1.7,3.7,3.5,5.1,5.6
		c4.6,2.8,7.7,7.2,10.9,11.3c3.8,4.9,6.8,10.4,10.8,15.2c0.4,0.5,0.8,1,1,1.6c0.5,1.6,1.7,2.7,3,3.6c1.4,1,2.4,1.9,1.8,3.9
		c-0.3,1,0.7,2,1.7,2.6c1.3,0.7,2.4,1.6,2.7,3.2c0.1,0.8,0.2,1.6,1.2,1.9c2.3-1.3,3.9-3.1,5.4-5.2c1.3-2,2.8-4,4.7-5.5
		c5.5-4.3,11.6-7.9,17.7-11.3c2.4-1.3,5.3-1.3,8-0.8c1.4,0.3,2.9,0.8,3.2,2.5c0.7,3.7,1.9,7.3,1,11.3c-1.1,5.1-1.6,10.4-2.5,15.6
		c-0.1,0.4-0.3,0.5-0.8,0.3c-0.6-0.7-0.6-1.6-0.3-2.6c1-3.1-0.1-6.4,0.9-9.4c-0.7-2.8-0.5-5.6-0.1-8.5c0.2-1.8-0.4-3.4-1.4-5
		c-0.9-1.3-1.8-1.8-3.2-1c-3.4,1.8-6.6,3.8-9.9,5.7c-0.1,0.1-0.3,0.2-0.3,0.4c-0.8,1.8-2.3,2.5-3.9,3.3c-1.5,0.7-2.7,1.7-3.8,2.9
		c-3.6,3.7-6.9,7.5-9.2,12.2c-0.4,0.8-1,1.7-1.6,2.4c-1.2,1.4-2.7,1.7-4.3,0.7c-1.1-0.6-2-1.6-3.1-2.3c-1.7-1-4.3-0.1-4.7,1.6
		c-0.8,3.3-1.5,6.5-2.2,9.8c-0.2,0.8,0.2,1.6,0.9,2.1c0.9,0.7,1.8,1.3,2.7,2c5.8,4,11.5,8.2,17.3,12c1.8,1.2,2.7,3.6,5.3,3.6
		c2.2,0,4.4,0.6,6.6,0.8c1.6,0.2,3.2,0,4.8,0.3c1.9,0.3,3.1-0.3,4.1-1.8c0.5-0.6,1-1.2,1.5-1.8c5.9-6.7,3.2-5.5,11.9-6.2
		c0.2,0,0.3,0,0.5,0c0.9-0.1,2.2,0.2,2.6-0.8c0.5-1.3-1-1.2-1.7-1.7c-0.6-0.5-1.4-1-1.7-1.6c-0.4-1-1-1.6-2-1.8
		c-1-0.2-1.6-0.9-2.3-1.6c-1.6-1.6-3.4-2.8-5.4-3.8c-2.9-1.6-6-3-8.5-5.3c-1-1-2.3-1.8-3.7-2.2c-1.1-0.3-2.2-0.7-3-1.5
		c-1.8-1.8-3.9-2.5-6.5-2.3c-1.3,0.1-2.9-0.1-3.9-1.4c-0.2-0.2-0.3-0.6-0.2-0.8c0.1-0.3,0.3-0.6,0.6-0.6c3.3-0.5,6.6-1,9.8,0.8
		c4,2.3,8.1,4.5,12.2,6.6c3.1,1.7,6.2,3.5,8.6,6.1c3.1,3.3,6.8,5.7,10.1,8.7c4.7,4.2,8.7,8.9,11.6,14.4c1.2,2.3,1.5,5.2,3.9,6.9
		c0.3,0.2,0.4,0.9,0.5,1.3c1.5,4.5,3,9.1,4.4,13.6c0.3,1.1,0.6,2.2,0.7,3.3c0.3,5.2,0.6,10.5,0.9,15.7c0.1,1.6,0,3.2-1.2,4.5
		c-1.1,1.2-1.5,2.7-1.9,4.3c-0.9,3.1-1.9,6.1-3,9.1c-0.4,1.2-1.6,2.2-1.6,3.4c0,2.2-1.2,3.6-2.4,5c-3.9,4.9-8,9.5-11.6,14.6
		c-3.3,4.7-6.8,9.1-11.7,12.3c-0.5,0.3-0.9,0.9-1.3,1.4c-2.3,3.3-5.4,5.4-9.3,6.2c-1.7,0.3-2.5,1.3-2.7,2.9c-0.4,2.7-1.1,5.3-1.2,8
		c-0.2,3-0.9,5.8-0.9,8.9c0,3.6,0,7.4-1,10.9c-0.6,2.1-1.1,4.3-1.6,6.5c-1,4-1.5,8.2-3,12.1c-0.4,1-0.5,1.9-0.2,2.8
		c0.5,1.7,0.8,3.3-1,4.7c-0.7,0.6-0.5,1.8,0,2.7c0.8,1.4,0.7,2.7,0,4.1c-0.5,1-0.8,2.1-0.9,3.2c-0.1,3.8-0.2,7.6-1.2,11.3
		c-0.6,2.3-0.4,4.8-1.1,7.1c-1.4,5.1-1.5,10.4-1.5,15.6c0,3.7,0.3,7.5-0.5,11c-0.9,4.3-1.7,8.7-4.1,12.7c-1.8,3.1-2.1,6.7-1.2,10.2
		c0.2,0.7,0.4,1.5,1.4,1.5c0-1.5,0.3-3.1,0.9-4.2c0.5,0.8,0.8,1.7,1.4,2.4c3.2,3.9,7.5,5.7,12.4,6.6c1.2,0.2,2.7-0.2,3.7,0.8
		c1.1,1.1,2.3,0.8,3.6,0.9c0.8,0,1.5-0.3,2.3,0c5.9,1.8,12,3.2,17.7,5.7c6,2.6,12.3,4.5,18.4,6.6c3.5,1.2,7,2.2,10.3,3.9
		c1.5,0.7,2.8,1.3,4.4,1.5c1.4,0.2,2.8,0.4,4.2,0.7c0.6,0.1,1.6,0.4,1.6,0.8c0.7,2.8,3.1,2.2,5,2.8l0,0.4l0-0.2c1.7-0.9,3.4-0.7,5,0
		c1.6,0.7,3.2,1.4,4.8,2.2c0.9,0.4,1.8,0.7,2.7,0.8c3.4,0.5,6.8,1.1,10.2,1.6c0.6,0.1,1.3,0.2,1.8,0.6c2,1.5,4.4,1.8,6.6,2.7
		c3.7,1.6,7.3,3.2,11,4.7c1.9,0.8,3.9,1.7,5.9,1.7c4.1,0,8.3-0.4,12.1-2.2c5.9-2.8,12.1-5,17.8-8.2c0.5-0.3,1.1-0.7,1.7-0.7
		c2-0.1,3.6-1.1,5.3-2.1c2.2-1.4,4.6-2.2,7.2-2.6c3.3-0.4,6.6-0.7,10-1c4.3-0.4,8.5-1.2,12.6-2.3c2.5-0.7,5.1-1.8,6.3-4.1
		c1.5-2.8,3.6-5.6,3-9.3c-0.3-1.7-0.6-3.5,0.2-5.2c0.3-0.6-0.2-1.2-0.3-1.8c-0.6-3.1-1.2-6.1-0.3-9.3c0.8-2.7,1.1-5.6,0.6-8.5
		c-0.1-0.9-0.4-2-0.2-2.8c1.2-3.5-0.1-6.9-0.5-10.3c-0.3-2.7-0.8-5.3-0.8-8c0.1-4.8-0.6-9.5-0.1-14.3c0-0.3-0.1-0.6-0.1-0.9
		c-0.8-6.9-0.8-13.7-0.3-20.6c0.4-5,0.7-9.9-0.2-14.8c-0.2-1.2-0.2-2.5-0.2-3.8c-0.1-5.1,0.1-10.2-0.6-15.3c-0.1-1.1-0.2-2.3,0-3.4
		c0.6-5,1.1-10,0.9-15.2c-0.2-3.8,0.7-7.6,1.1-11.4c0.2-1.8,0.3-3.5,0-5.2c-0.3-1.6-0.3-3.2-0.3-4.8c0-5-0.6-9.9-1.6-14.8
		c-2.1-10.5-4.3-21-6.5-31.5c-1.4-6.4-2.4-12.9-4.3-19.2c-2.2-7.6-2.3-15.4-2.4-23.2c0-2,0.2-4.1-0.7-6.1c-0.6-1.4-0.6-3.2-0.2-4.7
		c0.9-4.1,0.5-8.2,0.3-12.4c0-1,0.2-1.9,0.2-2.9c-0.1-4.1,1.2-8.2-0.9-12.2c-0.4-0.8-0.3-1.9-0.3-2.8c0.1-2.6,0.2-5.1,0.4-7.7
		c0.1-1.9,0.4-3.8,0.4-5.7c-0.1-5.9-0.6-11.7-0.1-17.7c0.3-3.8,0.2-7.7,0.6-11.5c0.2-1.7,0.2-3.5,0.2-5.2c0-4,0.2-8,0.4-12
		c0.1-1.3,0.3-2.5,1.3-3.5c2.3,0.4,1.1-1.1,1-1.9c0-0.4-0.5-0.9-0.8-1.1c-3.1-2.1-5.4-5.4-9.4-6.3c-0.5-0.1-1-0.2-1.3-0.5
		c-3.2-3.1-7.5-4.8-10-8.8c-0.4-0.6-1.1-0.6-1.7-0.6c-0.9-0.4-1.5-1.1-1.8-2.1c-0.3-1.1-0.5-2.3-1.5-2.9c-2.3-1.7-3.3-4.1-4.7-6.4
		c-1.9-3.2-3.9-6.3-6.1-9.4c-2.3-3.2-4.8-6.2-7.2-9.4c-0.3-0.4-0.6-0.8-0.6-1.3c-0.4-3.9-2.3-7.2-3.5-10.8c-0.9-2.5-1.5-5.1-3-7.5
		c-1.5,2-2.9,3.9-4.3,5.8l0.1,0.1c-0.2-1-0.4-2,0.2-2.8c2.2-2.8,2.8-6.4,3.9-9.6c1-3.2,2.1-6.7,0.9-10.3c-0.1-0.4,0-0.9,0.1-1.4
		c0.8-3.8,0.7-7.6,0.5-11.4c-0.2-3.9,1-7.2,2.8-10.5c1.1-2,2.8-3,5.1-2.8c1.3,0.1,2.5,0.3,3.8,0.3c1.3,0,2.6-0.5,3.2-1.7
		c1.6-3.1,3-6.3,4.4-9.5c0.2-0.4,0.3-1,0.3-1.4c-0.6-3.8-1-7.6-1.8-11.3c-0.5-2.7-2.5-4.1-5.1-4.2c-3.1-0.1-6.3,0.4-8.4,2.8
		c-2.6,3-6.5,3.9-9.4,6.4c-0.3,0.2-1,0.2-1.3,0c-0.3-0.2-0.4-0.9-0.3-1.3c0.6-2.5,1.4-4.9,2.1-7.4c0.7-2.9,1.6-5.9,0.7-8.9
		c-0.3-1.2-1-1.7-2.1-1.3c-1.8,0.6-3.6,1.1-5.2,2.2c-4.5,3.2-9.7,4.8-14.9,6.2c-2.3,0.6-4.7,0.7-7.1,0.9c-1.6,0.1-3.3-0.9-3.1-1.7
		c0.4-1.3,1.7-1.3,2.7-1.7c0.9-0.3,1.8-0.7,2.8-0.7c2.8-0.1,5.2-1.3,7.8-2.3c2.8-1.1,5.6-2.4,8.5-3.2c3-0.8,5.9-2.5,9.2-2
		c0.4,0.1,0.6-0.7,0.4-1.1c-0.4-0.8-1-1.2-1.8-1.5c-3.1-1.1-6.1-1.1-9.3,0.2c-5.4,2.3-10.8,2.7-16-0.6c-1.4-0.9-2.1-0.6-3.4,0.5
		c-0.4,0.3-0.7,0.7-1,1c-2.2,2.6-5,3.3-8.2,2.8c-0.2,0-0.3,0-0.5-0.1c-2.4-0.6-4.4-0.1-6.1,1.7c-2.3,2.5-5,2.6-7.9,1.2
		c-0.4-0.2-0.9-0.4-1.3-0.6c-3.7-1.6-5.1-2.2-7.5,1.7c-2.2,3.6-6,4.6-10.1,3.4c-0.6-0.2-1.2-0.4-1.8-0.7c-1.6-0.9-2.7-0.1-3.7,1.1
		c-0.9,1-1.5,2.1-1.8,3.4c-0.5,2.6-1.9,4.3-4.4,5.2c-0.8,0.3-1.3,0.9-1,1.9c1.2,4.3,1.9,8.8,3.6,12.8c1.9,4.4,3.3,8.9,5.8,13.1
		c1.8,3,2.5,6.6,2.4,10.1c-0.1,4.4,0.1,8.7,0.7,13.1c0.5,3.8,1.3,7.5,2.4,11.2c0.4,1.4,1,2.7,2.1,3.7c1.2,1.2,2.4,2.5,3.6,3.8
		c0.5,0.6,1.3,1.2,1.3,1.9c0.1,3.2,2.6,4.6,4.6,6.3c1.4,1.2,2.8,2.8,4.4,3.4c2.2,0.8,3.1,2.7,4.6,4c2.4,2.1,4.8,4.1,7.8,5.3
		c4.2,1.7,8.4,1.3,12.4-0.3c3.1-1.2,6.1-2.8,8.8-4.7c2.8-2,6.1-3.3,8.5-5.9c0.1-0.2,0.6-0.2,0.8,0c0.2,0.1,0.4,0.7,0.3,0.8
		c-0.9,0.9-1.6,1.9-1.9,3.2c-0.2,0.8-1.2,1.1-2,0.8c-0.7-0.2-1.3-0.9-1.9,0.2c-0.7,1.2-2.2,1.7-2.6,3.3c-0.5,1.7-2.7,1.3-3.8,2.5
		c-0.4,0.4-0.6,1.1-1,1.6c-1,1.4-1,1.4-2.9,0.4c-0.7-0.4-1.3-0.3-1.3,0.5c0,1.1,0,1.9-1.4,1.8c-1.4,0-2.8,0-3.5,1.7
		c-0.1,0.3-0.9,0.2-1.2-0.2c-0.2-0.3,0-0.6,0.3-0.8c0-0.4,0.1-0.9,0.1-1.3c0-0.1-0.1-0.3-0.2-0.3c-0.4,0-0.6,0.2-0.5,0.5
		C667.7,237.7,668,238,668.2,238.4z M520.7,396.9c-2.2-0.9-3.5,0.6-4.9,2.6c-2.1,3-3,6.7-5.2,9.6c-1.4,1.9-1.2,3.7-0.3,5.7
		c3.6,8,7.1,16,10.7,24c0.5,1.2,1.3,2.4,1.3,3.5c0,1.4,0.3,1.9,1.7,2.2c3.9,0.9,7.9,0.3,11.8,1.5c1.5,0.5,2.9-0.3,4-1.9
		c5-7.4,10.1-14.7,15.2-22.1c0.9-1.3,1-2.5,0.8-4c-0.7-4.9-2.8-9.5-3.5-14.4c-0.3-2.2-1.6-3.2-3.8-3.5
		C539.3,399.2,530.2,398,520.7,396.9z M567.8,376.2c-1,0-1.6,0.6-2,1.3c-4,6.9-8,13.8-12,20.7c-0.7,1.2-0.8,2.4-0.5,3.7
		c1.5,5.4,3.1,10.7,4.6,16.1c0.3,1.3,1.1,1.8,2.2,2.2c7.9,2.7,15.7,5.3,23.5,8c1.5,0.5,2.5,0.2,3.3-1c3.4-4.4,7.9-7.9,10.5-12.9
		c0.3-0.6,0.8-1,1.2-1.5c1.3-1.2,1.2-2.4,0.4-3.8c-5.3-9.6-10.6-19.3-15.8-29c-0.7-1.2-1.3-2-2.9-2c-1.7,0-3.4-0.6-5.2-0.8
		C572.7,376.9,570.2,376.6,567.8,376.2z M791.4,588.7c-0.6,1-0.8,1.4-1,1.8c-2.6,4-5.2,8-7.8,12c-0.8,1.2-1.4,2.5-2,3.8
		c-3,6.3-4.5,13.1-5.7,20c-0.2,1.3-1,2.6-0.5,4.1c1.2-0.3,1.5-1.4,1.9-2.1c2.5-4.2,4.4-8.9,8.6-11.9c0.1-0.1,0.2-0.3,0.3-0.4
		c2.5-4.2,6-7.4,10-10.1c0.5-0.4,0.9-0.8,0.8-1.5c-0.5-2.3-0.9-4.6-1.4-6.9c-1.7-0.8-0.7-2.6-1.3-3.8
		C792.7,592.4,792.3,591,791.4,588.7z M826.2,583.5c1.4-0.7,2.9-1.4,4.3-2c0.7-0.3,0.9-0.9,0.8-1.6c-0.6-3.1-0.1-6.4-2.2-9.1
		c-0.4-0.6-0.4-1.5-0.6-2.3c-1.1-3.6-1.7-7.6-4.6-10.3c-3-2.8-3.3-7.3-6.6-9.8c-0.1-0.1-0.2-0.3-0.3-0.3c-0.3-0.1-0.6-0.4-0.9-0.3
		c-0.5,0.1-0.6,0.7-0.5,1.1c1.9,6.2,3.8,12.4,5.9,18.6c1.3,3.8,2.3,7.6,2.5,11.6C824,580.9,824.7,582.3,826.2,583.5z M864.8,658.6
		c-1.9,2.4-1.7,5.4-1.3,8c0.8,4.9,0.5,9.8,0.7,14.7c0.1,1.9,0.2,3.8-0.6,5.6c-0.4,0.9-0.3,1.9,0.2,2.7c0.4,0.7,0.6,1.5,0.5,2.3
		c0,0.7-0.7,1.6,0.4,2c0.7,0.2,1.2-0.4,1.6-0.8c1.4-1.5,3.2-2,5-2.6c0.6-0.2,1.2-0.7,1.1-1.4c-0.8-5.6-1.3-11.2-3-16.6
		c-0.5-1.7-1.1-3.3-1.4-5c-0.2-1.4-0.6-2.8-1.3-4.1C865.9,661.8,865.4,660.2,864.8,658.6z M642.6,238.9c-2.6-0.6-4.8-1-6.9-1.6
		c-2.6-0.7-2.8,0.3-2.2,2.4c0.4,1.4,0.4,2.9,1,4.1c2.1,4.6,4.1,9.3,6.7,13.7c2.9,4.9,7,9,10,14c0.1,0.2,0.6,0.3,0.8,0.1
		c0.2-0.2,0.4-0.6,0.3-0.8c-0.9-1.5-1.9-2.9-2.5-4.5c-1.7-4.8-3.6-9.5-5.5-14.2c-1.1-2.9-1.8-5.8-1.4-8.9
		C643.1,241.7,642.7,240.3,642.6,238.9z M624.4,176.6c-0.7-0.9,0.7-2.1,0-3.4c-1.7-3-3.1-6.1-4.8-9.1c-1.5-2.6-3.8-4.7-3.7-8
		c0-0.1-0.1-0.3-0.2-0.4c-0.6-1.1-1.9-1.7-3.3-1.4c-1.2,0.2-1.4,1.1-1.4,2.2c0.1,1.4-0.4,2.8-0.2,4.3c0.5,3.9,1,5.2,4.3,10.1
		c0.3,2.3,2.1,3.6,3.8,4.7c1.8,1.1,2.5,3.3,4.3,4.4c0.2,0.1,0.6,0.2,0.9,0.2c0.5-0.1,0.8-0.6,0.7-1.1
		C624.7,178.2,624.6,177.5,624.4,176.6z M838.2,606.2c0.1-2.7-1.2-4.8-2.3-6.8c-0.9-1.7-1.5-3.5-1.5-5.4c0-3.4-0.7-6.5-2.6-9.5
		c-0.5,0.1-0.9,0.1-1.4,0.3c-0.8,0.2-1.5,0.5-2.3,0.8c-1.8,0.7-2.2,1.3-1.6,3.3c1.1,4.1,2.6,8.2,3.6,12.3c0.6,2.4,1.6,3.9,4.3,3.9
		C835.7,605.1,836.8,605.7,838.2,606.2z M743,1224.8c-0.5,0.2-0.8,0.4-0.7,1c0.5,2.7,4.1,8.2,6.5,9.6c0.4,0.2,0.9,0.3,1.3,0.2
		c1.3-0.5,2.6-2.6,2.4-3.8c-0.3-1.9-1.2-3.6-2.9-4.7C747.7,1225.7,745.2,1225.5,743,1224.8z M515,1208.5c-2.5,3.1-4.7,5.9-6.9,8.8
		c-1.1,1.5-0.8,3.3,0.8,4.6c0.5,0.5,1.2,0.5,1.7,0c1.3-1.2,2.2-2.7,2.7-4.4c0.7-2.3,1.2-4.6,1.8-6.9
		C515.3,1210.1,515.6,1209.6,515,1208.5z M766.5,1242.6c-0.3-0.4-0.5-1-0.9-1.2c-2.7-1.2-4.4-3.6-6.5-5.5c-0.9-0.9-1.9-2.7-2.8-2.2
		c-1.5,0.9,0.7,2,0.7,3.2c0,0.3,0.2,0.6,0.2,0.9c0.4,3,2.6,4.6,4.5,6.5c1.2,1.2,3.1,0.8,4.2-0.5
		C766.3,1243.5,766.4,1243,766.5,1242.6z M494,1232.5c1.5,0,2.6-0.6,3.6-1.4c1.5-1.3,2.5-2.8,3.5-4.5c0.3-0.4,0.4-0.9-0.1-1.2
		c-0.2-0.1-0.6-0.1-0.9,0.1c-2.3,1.5-4.7,2.7-7.5,2.6c-0.3,0-0.6,0.2-0.9,0.3c-0.7,0.3-1.7,0.6-1.7,1.5c0,0.8,0.7,1.4,1.3,1.9
		C492.3,1232.3,493.2,1232.5,494,1232.5z M473.5,1238.2c4.7,0.3,8.4-0.4,11.4-3.5c0.2-0.2,0.2-0.6,0.3-0.9c0.3-0.8-0.3-1.7-1.2-1.5
		C480.2,1233.1,476.5,1234,473.5,1238.2z M817.6,1275.9c1.4,2.2,2.9,3.2,4.4,4c1.2,0.7,2.7,0.8,4.1,0.6c1-0.1,1.9-1.4,1.7-2.5
		c-0.1-1-0.9-1.2-1.7-1.2C823.5,1276.5,821,1276.2,817.6,1275.9z M457.1,1246.8c-1.3,1-2.7,2-4.1,3c-0.5,0.4-0.7,1-0.2,1.6
		c0.5,0.6,1.2,1.2,2,0.7c1.7-1,2.5-2.7,3-4.6C457.9,1247.4,457.5,1247.2,457.1,1246.8z M445.3,1253.9c-1.3,0.5-2.6,1-3.9,1.6
		c-0.5,0.2-0.5,0.8-0.3,1.2c0.1,0.2,0.5,0.4,0.8,0.4C443.9,1257.3,445,1256.1,445.3,1253.9z M774.6,502c-0.1,0-0.2,0-0.2,0.1
		c-0.1,0.3-0.2,0.6-0.1,0.8c0.1,0.4,0.4,0.4,0.5-0.1C774.8,502.5,774.7,502.2,774.6,502z M431,1258.7c0.2,0.2,0.3,0.4,0.5,0.5
		c0.6,0.1,1.1,0.1,1.4-0.6c0-0.1-0.2-0.3-0.3-0.3C432,1258.1,431.5,1258.2,431,1258.7z"/>
	<path d="M710.7,48.6c-0.7,1.5-0.3,3,0.9,3.9c2.5,1.8,2.9,4.2,2.1,6.8c-1.3,4-1.2,8.1-1.2,12.2c0,1.1,0.5,1.8,0.9,2.7
		c2,4,5.2,7.2,8.2,10.5c3.4,3.6,6,7.8,9.7,11.2c1.3,3.4,4.3,6,4.4,9.9c0,0.6,0.3,1.3,0.6,1.8c1.8,2.9,1.9,6,1.9,9.2
		c0,5.1-0.5,10.2-2.1,15c-0.3,0.8-0.5,1.5-0.8,2.2c-0.9,1.7-3.1,2.2-4.3,0.7c-2.5-3.1-5.7-5.1-8.9-7.2c-5.3-3.5-10.7-7-16-10.5
		c-3.1-2-6.5-3.5-10.2-4c-3.2-0.5-6.3-1.2-9.5-0.9c-0.3,0-0.7,0.1-1,0c-3.6-1.6-7.2-0.3-10.8,0c-3.7,0.3-7.3,0.6-10.9,1.3
		c-4.9,0.9-9.7,2.2-14.4,3.5c-4.6,1.3-9.2,2.7-13.7,4.2c-2.9,1-5.7,2.2-8.3,3.6c-6.5,3.4-13,6.8-18.7,11.5c-0.6,0.5-1.3,0.9-2,1.3
		c-1.2-0.8-2.4-1.5-3.6-2.3c-0.4-0.3-1-0.5-1.1-0.9c-1.7-4.2-5.8-6.7-7.5-10.8c-0.6-1.5-1-2.9-1.3-4.5c-0.8-5.1-0.5-10.1-0.3-15.2
		c0-1.1,0-2.4,0.5-3.3c2.7-5,3.4-10.9,7.6-15.1c4.3-4.3,7.6-9.5,12.4-13.3c3.4-2.7,3.7-6.5,3.1-10.5c-0.1-0.9-0.6-1.8-0.8-2.8
		c-0.2-1.3-0.4-2.6-0.1-3.8c1-4.4,3.2-8.3,5.6-12c1.6-2.5,3.6-4.9,6.4-6.4c3.5-4.2,8.4-6.8,12.2-10.6c1.5-1.5,3.4-2.3,5.2-3.4
		c4-2.6,8.6-3.2,13.1-3.9c0.3,0,0.6,0,1,0c3,1.4,6.4,2,9.6,2.6c2.3,0.5,4.4,1.5,6.9,1.6c1.5,0.1,3,1,4.3,2c5,3.7,10.3,6.9,15.6,10
		c2.9,1.7,5.8,3.5,8.2,5.8c2.2,2,4.3,4.2,6.7,5.9c0.4,0.3,0.3,1.2,0.5,1.8L710.7,48.6z M667.8,77.5c-3.7-0.4-6.3-0.7-9-0.9
		c-1.9-0.1-2.3,0.1-2.8,1.8c-1.2,4-2.4,8-3.5,11.9c-0.3,1.2,0.2,1.8,1.5,1.7c2.1-0.2,4.1-0.5,6.2-0.7c2-0.2,4-0.8,6.1-0.1
		c0.1,1.8-0.9,3.2-1.3,4.7c-0.4,1.6-1.6,3-1.2,5c4.2-4,10.1-11.2,11.8-14.4c-0.6-0.8-1.4-0.5-2.2-0.5c-2.7,0-5.4,0-8.1,0
		c-0.9,0-2.1,0.4-2.6-0.5c-0.7-1.2,0.7-1.9,1.3-2.8C665,81.1,666.1,79.6,667.8,77.5z"/>
	<path d="M1098.7,1217.1c-0.5-1.4,0.3-2.5,0.8-3.6c2.1-4.3,4.2-8.5,6.2-12.8c1.4-2.8,3.1-5.5,3.8-8.7c0.2-1,0.8-2.1,2.3-1.9
		c0,0.3,0,0.6,0,1c-0.2,0.2-0.5,0.5-0.6,0.8c-1.2,6-3.7,11.4-6.6,16.7c-1.1,2.1-1.6,4.5-3.2,6.3c-0.9,1-1.7,1.9-3,2.2L1098.7,1217.1
		z"/>
	<path d="M1032.3,918.5c0.8,0.1,1.6,0.4,2.4,0.2c3.2-0.7,6.3-0.1,9.5-0.2c1.6,0,3.2,0.1,4.8-0.1c1.7-0.2,3.4-1,4.9,0.6
		c0.2,0.2,0.6,0.1,0.9,0.2c1.3,0.4,2.4-1.2,3.6-0.5c1.2,0.8,2.4,0.8,3.7,0.9c1.3,0.1,2.6,0.2,3.8,0c2-0.3,4.1-1.3,6.1-1
		c2,0.3,4,0.8,6.1,1c4.3,0.5,8.6,0.4,12.9,0.3c2.8-0.1,5.3,0.9,8,1.4c1.5,0.3,2.5,1.9,3.4,3.2c0.5,0.7,0,1.6-0.9,1.7
		c-2.2,0.2-4.3,1.2-6.6,0.2c-0.5-0.2-1.4-0.2-1.8,0.1c-1.5,1.1-3,0.8-4.6,0.6c-6.2-1-12.4-0.9-18.6-0.6c-3.5,0.2-7,0.2-10.5-0.1
		c-1.8-0.2-3.5-0.3-5.2,0.5c-1.3,0.6-2.4,0.6-3.6,0c-0.4-0.2-1-0.3-1.3-0.2c-2.3,1.4-4.7,0.7-7,0.5c-3.8-0.3-7.6,0.2-11.4-0.6
		c-0.6-0.1-1.3,0.1-1.9,0.2c-2.1,0.4-4.1,0.2-6.1-0.2c-1.6-0.3-3-1.7-4.3-1.4c-1.3,0.3-2.7,0.7-4.1,0.9c-5.4,0.6-10.8,0.4-16.3,0.2
		c-1.6-0.1-3.1-0.2-4.5,0.9c-1.2,1-2.8,0.7-4.1,0c-1.6-0.8-3.1-0.6-4.4,0.6l0.1-0.1c-0.4-0.3-0.8-0.9-1.1-0.8
		c-2.2,0.5-4.6-1-6.8,0.4c-0.7,0.4-1.9,0.2-2.8,0.1c-6.7-0.2-13.4-0.4-20.1-0.7c-1.1,0-2.2-0.4-3.3-0.6c-1.3-0.2-2.6-0.5-3.2,1.1
		c-0.2,0.7-0.8,0.4-1.2,0.3c-1.9-0.8-3.7-0.7-5.6,0.1c-1.4,0.5-2.8,0.5-4.3,0.4c-1.3-0.1-2.6-0.2-3.8,0.4c-2.1,1.1-4,0.7-5.9-0.4
		c-2.1-1.2-4.3-1.3-6.4,0c-1,0.6-1.6,0.8-2.2-0.4c-0.5-1-1.6-1.1-2.5-0.8c-1.4,0.5-2.8,0.5-4.3,0.4c-3.8-0.3-7.6-0.5-11.5,0.1
		c-2.1,0.3-4.4,0-6.6-0.6c-1.2-0.3-2.6-0.6-3.7-0.4c-4.7,0.9-9.6-0.1-14.3,0.9c-0.6,0.1-1.3,0.1-1.9,0c-4.3-0.8-8.5,0.5-12.6,1.3
		c-1.3,0.3-2.5,0.5-3.6-0.5c-0.5-0.5-1.1-0.3-1.6,0.2c-0.5,0.5-1.1,0.4-1.7-0.1c-2.1-1.7-4.7-1.8-7.1-2.5c-1.4-0.4-3.2,0-4.6,0.6
		c-5.1,2.3-9.6,0.4-14.5-1.4c1.4-2.3,2.4-4.4,5.3-4.4c0.3,0,0.7,0,0.9-0.1c3.6-1.9,7.7-1.6,11.5-1.8c1.3-0.1,2.5-1.3,3.4-0.9
		c1.6,0.7,2.9,1,4.5,0c0.6-0.4,1.2,0,1.8,0.2c1.3,0.6,2.8,0.6,4.2,0.6c0.4,0,1.2-0.1,1.3-0.3c0.8-3,1.9-1.5,3.1-0.3
		c0.5,0.5,1.2,0.6,1.8,0.3c1.2-0.4,2.1-0.2,3,0.7c0.5,0.5,1.2,0.4,1.8,0.2c2.8-0.8,5.7-0.4,8.5,0c0.8,0.1,1.7,0.5,2.3,0
		c2.3-1.8,5.1-1.3,7.7-1.9c1.8-0.5,3.8-0.7,5.4,1c0.7,0.7,1.8,0.6,2.7,0.2c1.4-0.5,2.7-0.9,4,0.4c0.2,0.2,1.1,0.2,1.3,0
		c2.1-2.1,4.7-0.7,7.1-1.1c0.5-0.1,1,0,1.4,0c3.8,0.6,7.6-0.2,11.4-0.6c1.3-0.1,2.4,0,3.7,0.3c3.2,0.8,6.4,1.6,9.8,0.6
		c1.3-0.4,2.9-0.6,4,0.8c0.4,0.5,0.8,0.4,1.3,0.3c3.9-0.9,7.9-0.6,11.8-1.8c2.9-0.9,6-0.9,9-0.3c1.7,0.4,3.5,0.4,5.2,0.7
		c4.5,1,9.1,0.4,13.7,0.9c4.1,0.4,8.3,0.2,12.4-0.5c3-0.5,5.9-0.5,8.9,0.9c1.8,0.8,4,0.5,6.1,0.7c0.2,0,0.4,0,0.5-0.1
		c3.2-3.2,6.9-0.2,10.4-0.8c1.2-0.2-0.5,2.3,1.5,1.7c0.9-0.3,1.9-0.4,2.8-0.4c1.1,0,2.2,0.3,3.3,0.4c1.5,0.1,2.6-1.2,3.9-1.6
		l-0.1-0.1c0.7,0.9,1.4,0.9,2.1,0L1032.3,918.5z M995.3,919.7c-0.2,0.2-0.5,0.3-0.6,0.6c-0.1,0.1-0.1,0.3,0,0.4
		c0.6,0.9,1.8,1.3,2.9,0.8c0.2-0.1,0.3-0.7,0.3-0.7C997.1,920.2,996.3,919.6,995.3,919.7z"/>
	<path d="M355.1,924.4c-0.2,0.6-0.5,1.2-1.2,1.4c-1.4,0.2-2.9,0.7-4.2,0.5c-3-0.5-5.9-0.2-9.1,0.9c0.4-1,0.7-1.6,0.8-2.2
		c0.1-0.5-0.4-0.9-0.9-0.8c-1,0.2-1.6,1-2.3,1.6c-2.1,1.8-2.6,1.9-5,0.3c-0.9-0.6-1.4-0.8-2.4-0.2c-1.8,1.1-3.7,1.9-5.8,0.6
		c-0.7-0.5-1.4,0-2.2,0.3c-3.4,1.4-6.9,2-10.6,1.3c-0.8-0.2-1.6-0.1-1.9,0.9c-0.3,0.8-0.7,0.3-0.9,0.1c-2.4-2.3-5.5-0.8-8.1-1.6
		c-0.4-0.1-1,0.7-1.6,0.9c-1.9,0.6-3.7,2.2-5.6,0c-1.4,0-2.9-0.5-4,0c-1.4,0.6-2.8,0.5-4.2,0.5c-0.9,0-1.9-0.1-2.8,0.1
		c-2.2,0.5-4.3,0.7-6.3-0.8c-0.6-0.4-1.2-0.4-1.8-0.1c-1,0.5-2,1.5-2.3-0.6c0-0.1-0.6-0.2-0.8-0.1c-1,0.6-2.1,0.8-3.2,0.3
		c-1.6-0.6-3-0.5-4.4,0.5c-1.2,0.8-2.7,0.7-3.9-0.3c-0.9-0.7-1.5-0.8-2.5-0.2c-1.4,0.9-2.6-0.6-4-0.9c-0.4-0.1-0.6-0.7-0.9-1.1
		c-0.3-0.4-0.9-0.7-1.2-0.2c-0.5,0.6,0,1.1,0.5,1.5l-0.1-0.2c-2.6,0.6-5,0.5-7.1-1.6c-0.6-0.6-1.2-0.2-1.9,0.6
		c-1.2,1.5-2.3,1.7-3.5,0.5c-0.9-0.9-1.6-1.1-2.4-0.4c-1.3,1-2.4,0.8-3.9,0.6c-1.9-0.3-4-0.1-6.1,0.4c-3.8,0.9-7.7,1.5-11.7,0.4
		c-2-0.5-4-0.8-6.2-0.3c-1,0.3-2.2,0.1-3.3-0.1c-2.4-0.4-4.7-0.8-7.1-0.6c-3,0.1-4.8-1.4-5.7-4.1c-0.4-1.1,0-2.1,1.1-2.2
		c2.3-0.3,4.6-1.1,6.9-0.4c1.9,0.5,3.8,0.6,5.7,0.4c2.4-0.2,4.8-0.5,7.2,0c0.3,0.1,0.7,0.1,0.9,0c4.8-1.8,9.8,0.1,14.7-0.5
		c0.2,0,0.3-0.1,0.5,0c4.4,2.4,9.1-0.2,13.6,0.8c0.2,0,0.4,0.1,0.5,0c2.6-1.7,5.5-0.2,8.1-0.7c4-0.8,7.9,0.1,11.8,0.3
		c1.9,0.1,3.8,0.5,5.2,2c0.4-0.5,0.7-1.1,1.1-1.6c1.1-1.6,2.6-2.3,4.5-1.6c3.1,1,6.4,0.1,9.4,1.4c0.3,0.2,0.9-0.2,1.4-0.2
		c3-0.1,5.9-0.8,9,0c2,0.5,4.3,0.1,6.5-0.2c1.4-0.2,2.8-0.7,4.2-0.2c1.4,0.5,2.5-0.5,3.6-1c2.3-0.9,4.3-0.9,5.7,1.4
		c0.7,1.1,1.9,1,3,1.4c0.3,0.1,0.7,0.2,0.9,0.1c2-1.6,4.3,0.1,6.5-0.5c2.4-0.6,4.8-1.8,7.4-0.6c0.8,0.4,1.5-0.2,1.9-1
		c0.5-1.1,1.3-1.3,2.3-0.9c4.8,1.5,9.8,1.5,14.6,1.9c3.5,0.2,7.2,0.9,10.7-0.7c1.2-0.6,2.7,0.4,3.7-0.6c1.2-1.2,2.4-0.3,3.6-0.1
		c1.1,0.2,2.2,0.1,3.3-0.3c0.9-0.3,1.9-0.5,2.8,0c2.1,1.2,3.9,0.6,5.8-0.5c2.8-1.7,5.6-1.5,8.7-0.6c4.3,1.2,8.7,1.7,13.1,0.4
		c1.6-0.5,3-0.3,4.4,1c1.1,1.1,2.6,1.3,3.6-0.4c0.4-0.6,1-0.7,1.6-0.5c0.9,0.3,1.8,0.5,2.8,0.7c-0.6,1.7-1,3.2-3.2,1.9
		c-0.7-0.4-1.5,0.3-2,1c-0.4,0.7-0.6,1.7-1.2,2c-1.2,0.6-2.5-0.1-3.7-0.3c-1.2-0.2-0.2-0.8-0.1-1.2c0.1-0.3,0.2-0.6,0.1-0.9
		c0-0.9-0.9-1.6-1.6-1.2c-0.7,0.4-1.4,1.3-2,1.2c-2.6-0.3-4.6,0.5-6,2.8c-0.2,0.3-0.9,0.4-1.3,0.3c-1.1-0.2-2.2-0.4-3.3-0.7
		c-1.5-0.3-2.8-0.4-3.8,1.1c-0.3,0.5-1,0.8-1.5,1.1c-1.6,0.9-2.2,0.6-2.5-1.3c-0.1-0.8-0.1-1.6-0.7-2.2c-0.3-0.3-0.7-0.6-1.2-0.7
		c-0.6-0.1-0.8,0.4-0.9,0.9c0,1.4,0,2.8,0,4.4c-1.2,0.1-2.3,0.2-3.4,0.2c-0.6,0-1.3-0.1-1.5-0.9c-0.2-0.9-0.6-1.6-1.6-1
		c-0.8,0.5-1.8,1-1,2.2c0.1,0.1,0.2,0.3,0.2,0.4c0.1,0.5-0.2,0.9-0.7,1c-0.3,0.1-0.7,0.1-0.9-0.1c-0.9-0.5-1.5-1.6-1-2.4
		c0.8-1.4,1.7-2.7,2.6-4c0.3-0.4,0.2-1-0.3-1.2c-0.2-0.1-0.7,0-0.9,0.2c-1,1.4-2,2.9-3,4.3c-0.9,0.1-1.7-2.4-3-0.2
		c-0.9,1.6-2.3,2.1-4,0.9c-1.1-0.8-2.5-0.2-3.7,0c-2.5,0.4-2.5,0.5-3.5-2c0.3,0.4,0.5,0.8,0.8,1.1c0.3,0.3,0.8,0.6,1.1,0.1
		c0.2-0.3,0.2-0.8,0.2-1.2c-0.1-0.5-0.5-0.7-1-0.5C355.8,923.9,355.5,924.2,355.1,924.4z"/>
	<path d="M682.1,918.9c1.3,1.6,2.3,3.4,2.5,5.6c0.1,1.1-0.5,1.8-1.5,2.1c-0.8,0.2-1.5,0.5-2.3,0.1c-2.3-0.9-4.8-0.5-7.1,0
		c-2.3,0.5-4.6,0.4-6.6-0.2c-2.6-0.7-5-0.5-7.5,0c-2.5,0.6-5,0.7-7.5,0.2c-0.9-0.2-1.9-0.4-2.8-0.2c-2,0.3-3.5,2.8-6,1.1
		c-1.9-1.2-4.4-0.3-6.5-0.8c-2.2-0.6-4.3-0.2-6.1,0.5c-2,0.9-3.2,1-4.5-0.7c-0.4-0.5-1.1-0.4-1.8-0.3c-1.8,0.2-2.1,0-2.2-1.2
		c-0.1-0.6-0.1-1.3-0.1-1.9c0-3.7,1.5-5.2,5.2-5.3c1.1,0,2.2,0.2,3.3,0.4c0.6,0.1,1.5,0.5,1.9,0.2c1.9-1.4,4-0.6,6-0.8
		c2.7-0.4,5.2-0.4,7.8,0.2c0.7,0.2,1.7,0.8,2.3,0.2c2-2.1,3.9-0.9,6-0.2c1.1,0.4,2.5,0.8,3.7,0.3c1.3-0.5,2.4-0.8,3.4,0.5
		c0.3,0.4,0.8,0.2,1.2-0.1c0.7-0.7,1.5-0.4,2.2,0c0.7,0.3,1,1.5,1.9,1.1c0.7-0.3,1.2-1.1,1.7-1.6c0,0-0.2-0.1-0.2-0.1
		c3.6,0.7,7.3,1.1,11,1.8C680.5,919.9,681.5,919.8,682.1,918.9L682.1,918.9z"/>
	<path d="M648.7,1154.6c-1,1-1.1,2.3-1.4,3.5c-0.3,1.4-0.8,2.8-1.8,3.9c-2.2,2.8-5.7,2.6-7.6-0.4c-0.8-1.2-1.2-2.6-1.5-4
		c-1-4.2-2.1-8.3-3.1-12.6c-1.5,1.2-1.3,2.7-1.3,4.1c0.1,3.4-0.6,6.7-1.3,9.9c-0.5,2.1-1.2,4.2-3.2,6.2c-2.1-9.2-5.1-17.7-7-26.7
		c1.1,0.2,1.4,0.9,1.6,1.6c1.2,4.5,3.4,8.6,4.4,13.1c0.2,1.2,0.7,2.5,2.2,3.2c0.9-2.3,1.1-4.6,1-7c0-5.1,0.6-10.2,1.4-15.2
		c0.1-0.7,0.4-1.2,1.3-1.7c1.2,3.3,2.7,6.4,3,9.9c0.1,1.6,0.4,3.1,1,4.6c0.6,1.5,0.8,3.1,1.3,4.6c0.6,2.2,1.1,4.3,1.8,6.5
		c0.2,0.7,0.7,1.4,1.1,2.1c0.9,1.2,2.4,1.1,3.1-0.2c1-2,1.5-4.2,1.7-6.4c0.3-3.2,0.6-6.4,0.9-9.5c0-0.4,0.1-1.1,0.7-1
		c0.4,0,0.9,0.3,1.1,0.6c1,1.5,1.7,3,2.1,4.8c0.7,3.1,1.3,6.2,2.1,9.3c0.5,2.2,1.5,4.3,3.7,5.3c0.6,0.3,1.4,0.2,1.6-0.5
		c0.7-2.1,1.3-4.3,1.9-6.4c0.6-2.6,1.1-5.2,1.6-7.9c0.9,0.4,0.8,1,0.8,1.6c-0.1,1.7-0.3,3.5-0.5,5.2c-0.4,2.9-1.3,5.6-2.3,8.3
		c-1,2.6-3,2.5-4.9,0.8c-1.5-1.4-2.6-3.2-3.4-5.2C650.2,1157.4,649.9,1155.8,648.7,1154.6z"/>
	<path d="M344.4,989.1c0.4-2.4-0.6-3.7-1.4-5.1c-0.8-1.6-0.5-3.5-1.3-5c-0.8-0.1-1.1,0.4-1.5,0.9c-2,2.9-3.8,6-6.2,8.5
		c-3.5,3.5-4.3,4.5-5.9-1.3c-1.4-5.2-1.2-10.4-1.5-15.7c0-0.5,0.1-1,0-1.4c0-0.3-0.3-0.6-0.5-0.7c-0.2-0.1-0.7,0-0.8,0.2
		c-1,1.6-1.9,3.3-2.9,4.9c-3,5.2-4.6,6.8-4.7,6c-0.3-2.8,1.9-4.5,3-6.7c2.4-4.9,4.7-9.8,7.7-14.4c0.5-0.7,0.8-2.2,1.8-1.9
		c1.6,0.5,0.3,1.9,0.2,2.8c-0.5,4-1.3,7.9-1.7,11.8c-0.5,4.8,0.8,9.5,1.6,14.2c0.2,0.9,1.1,1.2,1.8,0.6c2-1.7,3.3-3.8,4.7-6
		c0.4-0.7,0.5-1.6,1-2.2c2.8-3.1,3.5-6.7,3.4-10.6c0-2.7,0.6-3.7,1.5-3.3c1.7,0.8,0.4,2.2,0.4,3.3c-0.3,4.5-0.6,9,1,13.3
		c0.2,0.4,0.4,0.9,0.7,1.3c0.1,0.2,0.5,0.4,0.7,0.3c0.3,0,0.7-0.3,0.8-0.5c1.5-4.5,3.9-8.8,4.3-13.7c0.1-0.8,0.2-1.6,0.5-2.3
		c0-0.1,0.5-0.2,0.8-0.2c0.1,0,0.3,0.2,0.4,0.3c0.1,0.1,0.1,0.3,0.2,0.4c0.8,1.5-1.9,3.4,0.6,4.6c0.4,1.5,0.9,3,1.2,4.6
		c0.1,0.7,0.6,1.4,0,2.2c-0.9-1.2-0.8-2.8-2.3-3.7c-1-0.1-1.5,1-1.5,1.8c0,2.4-2.1,4.1-2.2,6.4c0,0.6-0.4,1.3-0.8,1.7
		C346.2,985.6,345.8,987.2,344.4,989.1z"/>
	<path d="M911.4,982.1c-1.4,9-4,17.7-6.1,26.6c-0.4,1.5-1.7,3.2-0.1,4.8c1.7-0.5,2.4-2,3.2-3.3c3.2-4.7,6.4-9.5,9.6-14.2
		c0.6-0.9,1.3-1.8,2-2.7c0.1-0.1,0.5-0.1,0.8-0.1c0.1,0,0.2,0.2,0.3,0.3c0.1,0.1,0.1,0.3,0.1,0.4c-0.6,3.5-1,6.9-1.7,10.4
		c-0.7,3.1-0.7,6.3-0.5,9.5c0,0.6,0.2,1.3,1,1.4c0.8,0.1,1.1-0.6,1.5-1c0,0-0.1-0.1-0.1-0.1c0.4,0.8,0.4,1.6,0,2.3
		c-0.7,1.3-1.8,2.2-3.4,2.3c-0.8,0.1-1.7-2.1-0.9-3.8c0.6-1.3,0.1-2.2,0-3.5c-0.3-2.1,0.1-4.4,0.5-6.6c0.2-1.3,0.5-2.4,0.1-4.1
		c-2.7,2-3.7,4.9-5.7,7.1c-2,2.3-3.5,4.9-5.4,7.3c-1.8,2.3-3.4,5-6.7,6.8c2.1-9.3,4.1-18,6-26.8c-1.4-0.1-1.7,0.9-2.1,1.7
		c-2.4,4.3-5.4,8.3-7.5,12.7c-0.4,0.9-1,1.6-1.6,2.4c-0.3,0.4-0.9,0.4-1.3,0.1c-0.3-0.3-0.5-0.8-0.5-1.2c0-0.3,0.3-0.6,0.4-0.8
		c5-8.1,9.9-16.3,14.9-24.4c0.8-1.3,1.1-3,3-3.4L911.4,982.1z"/>
	<path d="M1087.8,1214.6c-0.1-0.1-0.3-0.2-0.3-0.3c0.2-2.7,0.3-5.4,0.6-8.1c1.4-14.5,2.8-28.9,4.2-43.3c0-0.5,0.1-0.9,0.2-1.4
		c0-0.1,0.2-0.3,0.3-0.3c0.3,0.1,0.7,0.2,0.8,0.4c1.4,4.1,1.8,8.4,2.1,12.7c0.3,3.6,0.4,7.3,0.3,10.9c-0.1,3-0.7,5.9-1.1,8.9
		c-0.3,2-0.6,4.1-0.9,6.1c-0.5,3.6-1.4,7.2-3.7,10.2C1089.5,1211.7,1089.6,1213.8,1087.8,1214.6z"/>
	<path d="M267.2,1239.4c-0.3-4.2,0.8-7.6,1.1-11.1c0.7-8.9,3.7-17.4,5.8-26c0.6-2.3,1.8-4.4,2.7-6.7c1.6-4,3.8-7.7,5.1-11.8
		c0.4-1.2,1.2-2.2,1.9-3.3c0.7-1.2,1.7-1.8,2.1-1.3c0.6,0.9-0.2,1.5-0.5,2.2c-0.6,1.5-1.2,3-1.7,4.5c-4.7,15.8-9.3,31.5-14,47.3
		C269,1234.9,269.1,1237.1,267.2,1239.4z"/>
	<path d="M277.2,1239.7c-0.6-0.8-0.7-1.8-0.3-2.7c1.2-3.1,2.3-6.3,3.6-9.4c0.4-0.9,1-1.6,1.5-2.4c1.4-2.1,2.8-4.2,4.3-6.3
		c0.9-1.3,1.9-2.6,3-3.7c3.3-3.2,7.3-5.7,11-8.4c0.7-0.5,1.7-0.7,2.6-1c0.1,0,0.3,0.1,0.4,0.2c0.1,0.3,0.3,0.7,0.2,0.8
		c-5.3,5.3-9.5,11.5-14.3,17.3c-3.5,4.2-6.8,8.4-10.2,12.7C278.3,1237.7,277.8,1238.7,277.2,1239.7L277.2,1239.7z"/>
	<path d="M631.9,997.9c-1.5,0.1-2.8-0.1-3.9-1.4c-0.8-0.9-1.6-0.6-2,0.7c-0.6,2.1-1.2,4.3-1.9,6.4c-0.3,0.9-0.6,1.8-1.8,2.4
		c-1.9-3.4-3.7-6.9-5.7-10.3c-1.9-3.3-2.6-7.2-5.4-10.1c-2.7,1.3-4.3,3.4-5.6,5.8c-1.7,3.1-3.3,6.2-4.9,9.3
		c-0.3,0.5-0.8,0.9-1.2,1.3c-0.1,0.1-0.3,0-0.4,0c-0.1-0.1-0.3-0.2-0.3-0.3c-0.1-0.1-0.1-0.3,0-0.5c2.3-6.2,5.3-11.9,10.3-16.4
		c3.3-2.9,3.5-2.9,5.5,1.2c2.1,4.4,4.5,8.8,6.7,13.2c0.2,0.4,0.6,0.7,0.9,1.1c0.4,0.4,1.4,0.2,1.6-0.3c0.9-2.7,1.2-5.6,0.9-8.4
		c-0.1-0.8-0.3-1.6-0.3-2.4c0-2.7,0.9-5,1.7-4.4c1.6,1.1,1.2,2.9,1,4.4c-0.2,3.2,1.6,5.4,3.4,7.6c0.4,0.5,0.9,0.9,1.4,1.3
		L631.9,997.9z"/>
	<path d="M580.3,1257.2c0.1-2.3,0.2-4,0.4-5.7c0.4-4.2-0.2-8.3-1.2-12.3c-1.1-4.5-1.7-9.1-2.4-13.6c-1.4-9.1-2.5-18.3-4.9-27.3
		c-0.4-1.5-1.1-3-0.6-4.7c1,0.2,1.2,1,1.5,1.7c1.4,3.2,2.6,6.5,3.2,10c1.7,10.7,3.5,21.4,5.3,32c0.8,4.6,0.6,9.2,0.8,13.8
		C582.5,1253,582.1,1255.1,580.3,1257.2z"/>
	<path d="M232.1,1230.4c-2.5-9-4.7-17-7-25c-2.1-7.5-3.8-15.2-6.6-22.5c-0.2-0.6-0.3-1.2-0.3-1.9c0-0.2,0.3-0.6,0.5-0.6
		c0.3,0,0.6,0.2,0.8,0.4c0.2,0.2,0.3,0.5,0.4,0.8c2.5,5.7,4.9,11.4,6.7,17.3c2,6.5,3.8,13.1,5.6,19.6
		C233.3,1222.4,233.3,1225.4,232.1,1230.4z"/>
	<path d="M1070.4,1217.1c-1.5-1.2-2.1-2.7-2.9-4.1c-4.5-7.6-8.9-15.2-13.4-22.7c-1.1-1.8-2.2-3.5-3.3-5.3c-0.1-0.2,0.1-0.7,0.2-0.8
		c0.2-0.2,0.6-0.2,0.8-0.1c0.7,0.5,1.3,1,1.8,1.5c4,4.1,8,8.2,10.5,13.4c1.3,2.7,3,5.2,4.5,7.9
		C1070.5,1210.1,1071.5,1213.4,1070.4,1217.1z"/>
	<path d="M986.9,1106.3c-1.7,7.8-3.3,15.4-5.4,22.7c-1.3,0.3-1.5-0.6-1.9-1.2c-4.3-5.2-6.6-11.2-7.6-17.8
		c-1.1-7.1-2.2-14.2-3.3-21.2c-0.1-0.6,0-1.2,0-1.9c0-0.1,0.2-0.3,0.3-0.3c0.3,0,0.7,0.1,0.8,0.2c0.7,3.3,1.5,6.5,2,9.8
		c1,6.3,2,12.6,3.8,18.7c0.9,2.9,2.1,5.6,3.2,8.4c0.2,0.6,0.8,1.1,1.5,0.8c0.4-0.2,0.8-0.6,0.9-1c0.2-0.8,0.3-1.6,0.4-2.3
		c0.9-4.9,2.2-9.6,4.4-14C986.1,1106.9,986.4,1106.7,986.9,1106.3z"/>
	<path d="M594.9,1255.7c1.4-4.5,1.7-9,1.7-13.7c0-1.4-0.1-2.9,0.1-4.3c0.9-7.5,0.7-15,1.1-22.5c0.2-2.9-0.8-5.7-0.1-8.6
		c0.8-0.1,1.1,0.4,1.3,1c0.9,2.9,1.3,5.9,1.2,9c-0.1,3,0,6.1-0.1,9.1c-0.2,8.5-0.9,16.9-2.6,25.2c-0.3,1.2-0.7,2.4-1.1,3.6
		c-0.2,0.7-0.8,0.9-1.5,1L594.9,1255.7z"/>
	<path d="M230,1017.7c0.9,1.8,1.3,3.3,1.4,4.9c0.3,5.7,1,11.4,0.1,17.2c-0.6,4.2-2.4,7.9-3.8,11.8c-3.2,3.7-5.4,8.3-9.4,11.2
		c-0.7,0.5-1.7,0.3-1.9-0.5c-0.8-3.1-1.8-6.1-2.4-9.2c-0.3-1.5-1.9-2.9-0.9-4.7c1.6,0.9,0.8,2.9,2.1,4.2c0.8,0.8,1,2.3,1.5,3.4
		c1.6,3.4,1.4,5.4,5,0.8c2.1-2.7,3.6-5.7,4.9-8.7c1.9-4.5,3.2-9.3,3.5-14.3c0.1-2.1-0.1-4.1-0.3-6.2
		C229.5,1024.4,229,1021.3,230,1017.7z"/>
	<path d="M1065.4,988.9c-4.1,8.5-9.4,16.2-12.3,25.2c-1.1,0.1-1.4-0.6-1.8-1.3c-0.9-1.7-1.7-3.4-2.5-5.1c-1.5-3.5-2.3-7.3-2.4-11.1
		c-0.1-3.5,0.1-7,0.3-10.5c0.1-2.2,0.7-4.4,1.5-6.5c0.1-0.2,0.5-0.4,0.8-0.4c0.2,0,0.5,0.4,0.5,0.6c-0.3,3-0.8,6-1.1,9
		c-0.6,6.4,0.4,12.7,3,18.6c0.2,0.6,0.7,1,1.3,1.7c1.2-0.6,0.8-2,1.5-2.8c0.7-0.9,1.2-1.9,1.8-2.8c0.5-1,1-2,1.4-3
		C1059.2,996,1061.7,992,1065.4,988.9z"/>
	<path d="M1028,1022.4c-1.3-0.9-1.7-2.3-2.4-3.5c-3.7-7.1-7.4-14.2-11.1-21.2c-1.2-2.3-2.6-4.4-3.8-6.6c-0.2-0.4-0.4-0.9,0-1.3
		c0.4-0.3,0.9-0.2,1.2,0.2c1.8,2.2,3.7,4.4,5.4,6.7c4,5.5,6.7,11.8,9.9,17.9C1028.7,1017.2,1028.7,1019.1,1028,1022.4z"/>
	<path d="M469.3,921.2c3.1-2.8,4.5-6.3,6-9.6c1.1-2.4,2.9-4.3,4.3-6.7c0.2,0.5,0.4,0.6,0.4,0.7c-1.2,2.9-2.3,5.9-3.7,8.7
		c-1.8,3.4-3.9,6.6-5.9,9.8c-0.8,1.3-1.7,1.3-2.5-0.1c-1.5-2.6-2.9-5.4-3.5-8.3c-1.3-6.4-1.4-13-1.1-19.5c0-0.6,0.4-1.2,0.6-1.8
		c0-0.1,0.3-0.1,0.4-0.2c0.4-0.2,0.7-0.1,0.7,0.3c0.1,2.1,0.2,4.1,0.1,6.2c-0.3,5.2,0.6,10.2,1.9,15.1
		C467.3,917.7,468,919.5,469.3,921.2z"/>
	<path d="M252,1233.5c-0.4-3.1-0.8-5.1-0.9-7.2c-0.4-4.8-0.8-9.5-1-14.3c-0.3-5.4-0.6-10.8-1.6-16.2c-0.1-0.8-0.3-1.6,0.2-2.3
		c0.1-0.1,0.2-0.2,0.4-0.2c0.1,0,0.4-0.1,0.4,0c0.2,0.3,0.4,0.5,0.4,0.8c1.5,6.2,2.5,12.4,3,18.8c0.3,3.6,0.5,7.2,0.8,10.8
		C253.9,1226.8,253.9,1229.7,252,1233.5z"/>
	<path d="M820.8,330.4c-1,1.7-3,1.8-4.5,2.6c-4.5,2.6-8.9,5.5-13.7,7.6c-4,1.8-7.9,4.1-11.4,7c-0.7,0.6-1.6,1-2.4,1.5
		c-0.1,0.1-0.3,0-0.4-0.1c-0.3-0.2-0.4-0.5-0.2-0.8c1.2-1.9,2.7-3.5,4.6-4.8c5.6-3.9,11.8-7,17.9-10c2.1-1,4.5-1.5,6.5-2.9
		C818.1,329.8,819.5,330,820.8,330.4z"/>
	<path d="M1093.4,985.1c-1.5,2.1-2.3,3.4-3.3,4.7c-3.9,5.3-7.8,10.5-11.7,15.8c-1.6,2.2-3.4,4.3-4.5,6.8c-0.3,0.6-0.7,1.1-1.1,1.5
		c-0.3,0.3-0.9,0.5-1.2,0.4c-0.5-0.1-0.5-0.7-0.2-1.1c1.4-2.7,2.8-5.4,4.3-8c2.3-4,5-7.7,7.9-11.3c1.7-2.1,2.9-4.6,5-6.4
		C1089.7,986.4,1090.9,985.6,1093.4,985.1z"/>
	<path d="M1013.2,1104.8c-0.6,2.6-1.4,5.2-2.8,7.5c-1.9,3.1-3.5,6.4-4.3,10.1c-0.6,2.8-1.8,5.4-2.6,8.2c-1,3.5-2.4,6.9-2.4,10.7
		c0,1.5-0.6,3.1-1,4.6c-0.1,0.2-0.4,0.4-0.7,0.5c-0.4,0.2-0.6,0-0.6-0.5c0-1.4-0.1-2.9,0.1-4.3c0.9-6.5,2.3-12.9,4.6-19
		c2-5.3,4.6-10.4,7-15.6c0.5-1.1,1.3-2.2,2.8-2.2L1013.2,1104.8z"/>
	<path d="M446.9,985.5c-1-5.1-2-10.1-3-15c-1.2-5.9-1.8-12-3.7-17.8c-0.1-0.4-0.2-0.9-0.1-1.4c0-0.3,0.2-0.6,0.5-0.7
		c0.2-0.1,0.7,0.1,0.8,0.3c1.1,3,2.2,6,3.1,9c1.9,6.1,2.5,12.4,3.9,18.6c0.4,1.5,0.2,3.2,0.1,4.8C448.5,984.1,448.1,985,446.9,985.5
		z"/>
	<path d="M956.1,1099.1c1.4,3.7,3.2,7.2,2.9,11.3c-0.1,0.8,0,1.6,0.1,2.4c0.7,6.7,0.2,13.4-2.1,19.8c-0.7,2.1-0.6,4.4-1.8,6.4
		c-0.2,0.4-0.5,0.8-0.8,1.1c-0.2,0.2-0.6,0.3-0.8,0.1c-0.2-0.1-0.4-0.6-0.3-0.8c1-3.7,2.1-7.3,2.8-11.1c1-6,1.6-12,1.2-18
		c-0.2-3.2-1-6.3-1.5-9.4C955.6,1100.4,955.3,1099.7,956.1,1099.1z"/>
	<path d="M1043.6,1110.2c-4.5,3.5-8.2,6.5-11.9,9.5c-3.2,2.6-6.7,4.9-9.5,8c-0.4,0.5-1.1,1-1.6,0.6c-1-0.7-0.1-1.4,0.3-2
		c2.7-3.4,5.7-6.4,9-9.2c2-1.6,4-3.1,6-4.7C1038.4,1110.4,1039.5,1110,1043.6,1110.2z"/>
	<path d="M625.6,1217.8c0,0.3,0.1,0.7,0,0.9c-3.1,4.1-4.2,8.9-5.4,13.7c-0.9,3.8-2.8,7.1-5,10.3c-0.3,0.4-0.7,0.7-1,1
		c-0.2,0.2-0.6,0.3-0.9,0.2c-0.2-0.1-0.4-0.6-0.3-0.8c0.4-1.2,0.7-2.5,1.4-3.5c1.8-2.7,2.6-5.8,3.2-8.9c0.9-4.3,2.7-8.2,5.7-11.4
		C624,1218.5,624.5,1217.7,625.6,1217.8z"/>
	<path d="M354,1127.2c1.6,0.8,2.6,2.2,3.5,3.7c3.6,6.6,7.4,13.1,12,19c0.3,0.4,0.5,0.8,0.8,1.3c-1.1,0.9-1.7-0.2-2.3-0.7
		c-5-4.2-8.4-9.6-11.2-15.3c-1-2-1.9-4-2.8-6.1C353.7,1128.6,353.5,1127.9,354,1127.2z"/>
	<path d="M862.4,1126.3c-2.5,5.8-4.4,11.2-7.8,16c-2,2.9-4,5.7-6,8.6c-0.2,0.2-0.6,0.4-0.8,0.3c-0.5-0.1-0.6-0.7-0.5-1.1
		c0.4-1.4,0.9-2.7,1.7-3.9c3.4-5.6,6.8-11.2,10.1-16.8C859.8,1128.1,860.4,1126.9,862.4,1126.3z"/>
	<path d="M897,1159.6c-0.2,0.7-0.6,1.2-1.2,1.4c-5,1.7-9.9,3.5-14.9,4.9c-3.3,0.9-6.8,1.3-10.3,1.9c-0.4,0.1-1,0.1-1-0.6
		c0-0.3,0.2-0.6,0.4-0.8c1.2-0.8,2.5-1.4,3.9-1.6c2.7-0.4,5.3-1.1,7.8-2.1c4.5-1.7,9.2-2.3,13.8-3.3
		C896,1159.4,896.5,1159.6,897,1159.6z"/>
	<path d="M272.9,1023.9c0.3,1.9-0.3,3.8-0.9,5.5c-1.6,4.5-3.4,8.9-5.3,13.2c-1.3,2.9-3.2,5.4-4.2,8.5c-0.1,0.4-0.4,0.9-0.7,1.2
		c-0.4,0.5-0.7,1.2-1.4,0.9c-0.7-0.3-0.5-1-0.2-1.6c1.1-2.5,2.1-4.9,3.2-7.4c1.8-3.9,3.6-7.7,5.3-11.6c1.2-2.6,1.4-5.5,3.1-7.9
		C272.1,1024.4,272.2,1023.9,272.9,1023.9z"/>
	<path d="M1080,1209.7c-0.1,0.5-0.1,0.9-0.3,1.4c-0.1,0.3-0.3,0.5-0.6,0.7c-0.3,0.2-0.6,0.1-0.8-0.3c-0.4-0.9-0.8-1.7-1.1-2.6
		c-1.3-4.1-2.5-8.2-3.8-12.4c-0.6-2-1.1-4-2.2-5.8c-0.4-0.7-0.9-1.7-0.1-2.1c1.2-0.7,1.6,0.7,2,1.4c1.2,2.3,2.3,4.6,3.2,6.9
		c1.2,3.1,2.1,6.3,3.1,9.5C1079.8,1207.5,1079.8,1208.6,1080,1209.7z"/>
	<path d="M879.8,1134c-3.6,4.1-6.3,8.5-10.2,11.7c-2.3,1.9-4.6,3.8-7,5.7c-0.2,0.1-0.6,0.1-0.9,0c-0.4-0.1-0.5-0.5-0.2-0.8
		c0.6-0.9,1.1-1.9,1.9-2.7c4-4.1,8.1-8,12.2-12.1C876.7,1134.7,877.8,1133.8,879.8,1134z"/>
	<path d="M451.3,920.2c-0.1,1-0.3,1.5-0.8,1.5c-0.2,0-0.5-0.3-0.7-0.5c-0.2-0.2-0.3-0.5-0.5-0.8c-1.8-4.6-3.6-9.1-5.3-13.7
		c-0.8-2.2-1.2-4.6-2.5-6.7c-0.5-0.8-1-2,0.1-2.5c0.8-0.4,1.3,0.7,1.6,1.4c1.4,3,2.7,6.1,4,9.2c1.1,2.8,2.2,5.6,3.2,8.4
		C450.8,917.9,451.1,919.3,451.3,920.2z"/>
	<path d="M1035.8,1000.7c0,0.4,0,1.1-0.2,1.7c-0.1,0.4-0.5,0.8-0.9,1c-0.5,0.2-0.9-0.2-1-0.7c-0.2-0.6-0.3-1.2-0.3-1.9
		c-0.6-5.4-1.2-10.8-1.8-16.2c-0.2-1.9-0.6-3.8-0.9-5.7c-0.1-0.6,0-1.4,0.9-1.5c0.6-0.1,0.6,0.5,0.8,0.9c1.3,3.6,1.8,7.4,2.3,11.2
		C1035.1,993.2,1035.4,996.9,1035.8,1000.7z"/>
	<path d="M415.5,1114.8c0.4,0.9,0.7,1.9,0.1,2.7c-3.8,6.2-7.7,12.5-11.6,18.7c-0.2,0.3-0.4,0.5-0.7,0.6c-0.2,0.1-0.6,0-0.8,0
		c-0.1,0-0.2-0.3-0.2-0.4c0-1.7,0.8-3,1.5-4.4c3.2-6.3,7.4-11.9,11.8-17.3L415.5,1114.8z"/>
	<path d="M379.9,1149.7c-1.5-1.9-2.7-3.5-4-5.1c-2-2.4-2.6-5.4-3.2-8.4c-0.4-1.9-0.5-3.8-0.7-5.7c0-0.4,0.2-1.1,0.5-1.2
		c0.7-0.3,1.1,0.3,1.4,0.9c0.3,0.7,0.7,1.5,0.8,2.2c0.7,5,2.4,9.6,4.9,13.9C380.2,1147.2,380.6,1148.2,379.9,1149.7z"/>
	<path d="M458.4,979c-0.5-1.8-1.4-3.4-1.2-5c0.3-4.6-1.1-9.2-0.2-13.8c0.3-1.7,0.1-3.5,0.2-5.2c0-0.6,0.4-1.2,0.6-1.8
		c0-0.1,0.2-0.2,0.4-0.2c0.4-0.2,0.7-0.1,0.7,0.3c0.1,0.8,0.2,1.6,0.3,2.3c0.2,6.7-0.5,13.3,0.2,20
		C459.5,976.7,459.6,977.9,458.4,979z"/>
	<path d="M868.4,1153.3c-0.5-0.2-0.7-0.5-0.5-0.8c0.4-0.6,0.8-1.5,1.4-1.8c5.2-3.1,10.1-6.6,15.7-9c0.1-0.1,0.3-0.1,0.4-0.2
		c0.4-0.2,0.7-0.1,0.8,0.3c0.1,0.3,0,0.7-0.2,0.8c-1.9,1.5-3.7,3-5.6,4.3c-3.4,2.3-7,4.4-10.8,6.1
		C869.2,1153.2,868.7,1153.2,868.4,1153.3z"/>
	<path d="M253.2,1043.7c-1.4-2.5-1.6-4.2-1.4-5.6c0.6-4.1,0.1-8.3,1.4-12.3c0.3-1,0.4-2.2,0.6-3.3c0.2-0.9,0.2-2.3,1.4-2.1
		c1.1,0.2,0.6,1.6,0.5,2.4c-0.1,1.6-0.4,3.1-0.6,4.7c-0.4,4.1-1.4,8.1-1.3,12.2C253.8,1040.8,253.5,1041.7,253.2,1043.7z"/>
	<path d="M281.4,1116c-1.9-0.7-3-2.1-3.7-3.3c-3-5.2-6.1-10.4-8-16.2c-0.1-0.3-0.1-0.6,0-0.9c0-0.1,0.2-0.3,0.3-0.3
		c0.3-0.1,0.7-0.2,0.8-0.1c0.4,0.5,0.8,1,1.1,1.6c1.7,3.4,3.3,6.9,5,10.3c0.9,1.7,1.9,3.3,3,4.9C280.6,1113,281.3,1114.2,281.4,1116
		z"/>
	<path d="M297.1,1111.2c-0.3-2.6,0-4.9,0.3-7.2c0.5-4.2,1.9-8,3.1-11.9c0.2-0.6,0.4-1.2,0.7-1.7c0.1-0.2,0.5-0.4,0.8-0.4
		c0.2,0,0.6,0.3,0.6,0.5c0,0.6,0,1.3-0.1,1.9c-1.4,5.7-3.2,11.3-4,17.1C298.4,1110.1,298.2,1110.7,297.1,1111.2z"/>
	<path d="M391.6,1131.1c-0.7-2.7-0.2-5,0-7.4c0.4-4.8,0.6-5.5,1.1-5c1.5,1.5,1.1,3.6,1.3,5.3c0.5,4.1,0.3,8.2-0.6,12.3
		c-0.1,0.5-0.5,0.8-1,0.7c-0.3-0.1-0.6-0.3-0.6-0.6c-0.2-0.7-0.5-1.5-0.5-2.3C391.4,1133,391.6,1131.9,391.6,1131.1z"/>
	<path d="M287.4,1111.3c-1.6-1.9-2.3-3.4-2.9-5.3c-1-3.4-1.6-6.7-2-10.2c-0.1-0.6,0.1-1.2,0.2-1.8c0-0.1,0.2-0.3,0.3-0.3
		c0.3,0,0.6,0,0.8,0.2c0.2,0.2,0.4,0.5,0.4,0.8c1.2,5.1,2.4,10.1,3.6,15.2C287.9,1110.1,287.6,1110.5,287.4,1111.3z"/>
	<path d="M824.3,517.9c-0.1-0.2-0.5-0.5-0.4-0.6c0.1-0.4,0.3-0.9,0.6-1.3c2.1-2.4,4.8-3.8,8-4.4c0.2,0,0.6,0.2,0.8,0.4
		c0.3,0.4,0.2,0.9-0.3,1.2c-2.7,1.6-5.4,3.1-8.1,4.7C824.7,518,824.5,517.9,824.3,517.9z"/>
	<path d="M921.1,735.5c0,0.4-0.3,0.7-0.7,0.8c-0.5,0.1-1,0-1.1-0.5c-0.1-0.6,0-1.2,0.2-1.8c0-0.2,0.4-0.4,0.6-0.5
		c0.1,0,0.3,0.1,0.4,0.2C920.7,734.2,920.9,734.8,921.1,735.5z"/>
	<path d="M421.5,921.3c0.1,1.5-0.7,2.1-2.4,1.9c-0.4-0.1-0.7-0.4-0.5-0.6c0.7-0.8,1.6-1.6,2.4-2.4
		C421.2,920.6,421.4,921,421.5,921.3z"/>
	<path d="M922,721.4c1.8,1.7,0.9,3.7,0.6,5.6c0,0.1-0.5,0.4-0.7,0.3c-0.2-0.1-0.5-0.3-0.6-0.6c-0.1-0.3-0.1-0.6,0-0.9
		c0.3-1.5,0.5-3,0.8-4.6C922.1,721.3,922,721.4,922,721.4z"/>
	<path d="M927.3,1006.5c0.4,1.9-0.3,3.4-1.7,4.7c-0.2,0.2-0.6,0.2-0.8,0c-0.1-0.1-0.2-0.6-0.1-0.7c0.9-1.3,1.8-2.6,2.7-3.9
		C927.5,1006.7,927.3,1006.5,927.3,1006.5z"/>
	<path d="M823.8,451.7c0.5,1.6-0.5,2-1.7,2.1c-0.2,0-0.6-0.2-0.7-0.4c-0.1-0.2,0.1-0.7,0.3-0.8c0.7-0.3,1.5-0.5,2.2-0.7
		C823.9,451.8,823.8,451.7,823.8,451.7z"/>
	<path d="M631.8,998.1c1.3,0.4,2.6,0.5,3.6,1.5c-1.7,0.6-3,0.3-3.5-1.6C631.9,997.9,631.8,998.1,631.8,998.1z"/>
	<path d="M927.5,1006.7c0.6-1,1.2-2.1,1.8-3.1l-0.1-0.1c-0.1,1.4,0.1,2.9-1.8,3.1C927.3,1006.5,927.5,1006.7,927.5,1006.7z"/>
	<path d="M929.2,1003.5c0.4-0.3,0.7-0.6,1.1-0.9c0.3-0.2,0.6-0.1,0.8,0.2c0.1,0.1,0.1,0.4,0,0.5c-0.2,0.2-0.4,0.6-0.6,0.5
		c-0.5,0-0.9-0.3-1.4-0.4C929.1,1003.4,929.2,1003.5,929.2,1003.5z"/>
	<path d="M1013.3,1104.9c-0.5-1.6,0.4-2.4,1.7-3.1l0.1-0.1c-0.3,1.2-0.7,2.4-1.9,3C1013.2,1104.8,1013.3,1104.9,1013.3,1104.9z"/>
	<path d="M897.1,767.5c0.5,0.3,1.3,0.2,1.1,1.1c-0.1,0.3-0.5,0.6-0.8,0.9c-0.1-0.2-0.4-0.5-0.4-0.7c0-0.4,0.1-0.9,0.2-1.3
		L897.1,767.5z"/>
	<path d="M662.1,1142.1c-0.1-0.3-0.2-0.5-0.2-0.8c0-0.2,0.2-0.5,0.3-0.7c0.1,0.4,0.2,0.8,0.2,1.2
		C662.4,1142,662.2,1142,662.1,1142.1z"/>
	<path d="M817.1,454.3c0.2-0.2,0.4-0.4,0.6-0.6c0.1,0.2,0.2,0.5,0.2,0.7c0,0.1-0.1,0.3-0.2,0.4C817.5,454.7,817.3,454.5,817.1,454.3
		z"/>
	<path d="M425.2,919.4c-0.2,0.2-0.3,0.6-0.5,0.6c-0.4,0.1-0.6-0.2-0.4-0.5c0.1-0.2,0.4-0.3,0.7-0.4
		C425.1,919.1,425.1,919.2,425.2,919.4z"/>
	<path d="M1044.2,915.9c0,0.1,0,0.3-0.1,0.3c-0.1,0.1-0.3,0.1-0.4,0.1c-0.5-0.2-0.4-0.4,0.1-0.5
		C1044,915.7,1044.1,915.8,1044.2,915.9z"/>
	<path d="M899.1,764.2c0,0.1-0.1,0.2-0.1,0.2c-0.1,0-0.2-0.1-0.3-0.1c0-0.1,0.1-0.2,0.1-0.2C898.8,764.1,898.9,764.1,899.1,764.2z"
		/>
	<path d="M682.1,918.9c0.3,0,0.7,0.1,1,0.1C682.8,919,682.5,919,682.1,918.9C682.1,918.9,682.1,918.9,682.1,918.9z"/>
	<path d="M1030.3,918.5c0.7-1.1,1.3-0.9,2,0c0,0,0.1-0.1,0.1-0.1c-0.7,0-1.4,0-2.1,0L1030.3,918.5z"/>
	<path d="M595,1255.6c-0.2,0.3-0.2,0.5,0.1,0.6c0-0.1,0.1-0.3,0.1-0.3C595.2,1255.8,595,1255.8,595,1255.6
		C594.9,1255.7,595,1255.6,595,1255.6z"/>
	<path d="M814.5,312.9c-0.3,0.2-0.6,0.7-1.1,0.2c0,0,0.1-0.3,0.2-0.3c0.3,0,0.6,0.1,0.9,0.2L814.5,312.9z"/>
	<polygon points="442.4,422.8 442.5,423.2 442.2,423.1 	"/>
	<path d="M397.9,924.6c-0.2,0.1-0.5,0.2-0.7,0.3c-0.1,0-0.2-0.2-0.3-0.3c0.2-0.1,0.5-0.2,0.7-0.3
		C397.7,924.3,397.8,924.5,397.9,924.6z"/>
	<path d="M919.8,740.6c-0.1,0.2-0.2,0.5-0.3,0.7c-0.1-0.1-0.3-0.2-0.3-0.3c0.1-0.2,0.2-0.5,0.3-0.7
		C919.7,740.4,919.8,740.5,919.8,740.6z"/>
	<path d="M911.3,982.2c0,0,0-0.1,0-0.1C911.4,982.1,911.3,982.2,911.3,982.2z"/>
	<path d="M897.1,767.4l-0.2,0.2c0,0,0.2-0.1,0.2-0.1S897.1,767.4,897.1,767.4z"/>
	<polygon points="1068.2,917.3 1068.1,916.9 1068.4,916.9 	"/>
	<path d="M922.9,1013.4c0-0.4,0.1-0.6,0.4-0.5c0,0.1,0,0.3-0.1,0.3c-0.1,0.1-0.3,0.1-0.4,0.1L922.9,1013.4z"/>
	<path d="M922.8,1013.3c-0.2,0.8-0.7,0.9-1.4,0.7c0,0,0.1,0.1,0.1,0.1c0.5-0.2,1-0.5,1.5-0.7
		C922.9,1013.4,922.8,1013.3,922.8,1013.3z"/>
	<polygon points="984.7,927.6 984.6,927.4 984.8,927.5 	"/>
	<polygon points="367.4,927.8 367.3,927.5 367.5,927.5 	"/>
	<path d="M1015,1101.9c0.4-0.5,0.3,0.4,0.2-0.2C1015.1,1101.5,1014.9,1101.5,1015,1101.9C1015.1,1101.8,1015,1101.9,1015,1101.9z"/>
	<path d="M842.1,600.7c0.6,0.3,0.1-0.5,0.4,0.1c0,0.1,0,0.3,0,0.3c-0.3,0.1-0.4-0.1-0.3-0.5C842.2,600.6,842.1,600.7,842.1,600.7z"
		/>
	<path d="M252.1,927l-0.2,0c0,0,0.1-0.2,0.1-0.2C252,926.8,252.1,927,252.1,927z"/>
	<path d="M415.6,1114.7c0,0.6-0.5-0.1,0,0.3c-0.1-0.1-0.1-0.1-0.2-0.2C415.5,1114.8,415.6,1114.7,415.6,1114.7z"/>
	<path d="M795.6,444.7c0-0.1-0.1-0.2-0.1-0.3c-0.2,0.2-0.2,0.2,0.2,0.2C795.7,444.6,795.6,444.7,795.6,444.7z"/>
	<path d="M1098.6,1217c0,0,0.1,0.1,0.1,0.1C1098.7,1217.1,1098.6,1217,1098.6,1217z"/>
	<path d="M814.4,313l0-0.4c0,0,0,0.2,0,0.2C814.5,312.9,814.4,313,814.4,313z"/>
	<path d="M277.2,1239.6c-0.3-0.1-0.5-0.1-0.8-0.2C276.9,1238.7,276.9,1239.5,277.2,1239.6C277.2,1239.7,277.2,1239.6,277.2,1239.6z"
		/>
	<path d="M668.8,918c-0.1,0-0.2,0-0.3,0.1c0.1,0.2,0.2,0.2,0.2-0.2C668.6,917.9,668.8,918,668.8,918z"/>
	<path d="M710.6,48.7c0.1,0.1,0.3,0.2,0.4,0.3c-0.1,0-0.2,0-0.2-0.1c0-0.1,0-0.2,0-0.3C710.7,48.6,710.6,48.7,710.6,48.7z"/>
	<path d="M569.7,236c3.6,2.2,6.5,5,8.3,8.9c1.2,2.6,2.5,5.2,4.2,7.5c2.6,3.8,3.7,8.1,4.4,12.5c1,6.2,2.4,12.2,4.1,18.2
		c0.9,3,1,5.9,0.5,9.1c-0.3-0.8-0.7-1.3-0.8-1.9c-0.6-5.9-3.2-11.3-4.7-17c-1-3.5-1.7-7.1-2.3-10.8c-0.6-3.4-1.8-6.5-3.6-9.3
		c-1.4-2.3-2.8-4.7-3.8-7.2c-1.3-3-3.8-5.1-5.5-7.8C570,237.7,569.1,237.3,569.7,236z"/>
	<path d="M642.6,154.3c0.1,2.4-0.5,4.7-2.1,6.6c-2,2.2-4.6,2.2-6.6,0c-2.9-3.2-2.9-10.1,0-13.3c2-2.2,4.6-2.2,6.6,0
		C642.1,149.5,642.7,151.8,642.6,154.3z"/>
	<path d="M679.9,146c-0.1-2.1,0.3-4,1.6-5.8c1.9-2.6,4.8-2.7,6.9-0.2c2.6,3.1,2.6,8.9-0.1,12c-1.9,2.2-4.8,2.1-6.6-0.1
		C680.3,150.2,679.8,148.2,679.9,146z"/>
	<path d="M619.7,147.2c0.2-0.9,0.2-1.3,0.4-1.4c4.3-3.8,8.3-8,15-6.2c2.9,0.7,6.1,0.2,9,1c0.6,0.2,1.3,0.2,1.9,0.3
		c0.8,0.2,1.7,0.7,1.8,1.4c0.1,1.2-1.1,1.4-2,1.6c-0.8,0.2-1.6,0.6-2.3,0.4c-3.5-0.9-7,0.1-10.5-0.4c-3-0.4-5.7,0.2-8.3,1.7
		C623.3,146.3,621.8,146.7,619.7,147.2z"/>
	<path d="M662.8,200c0-0.8,0.6-1.1,1.2-1.3c2.3-0.8,4.5-1.7,6.8-2.2c8.9-2.1,15.6-7,20.4-14.7c1.2-1.9,2.4-3.7,4.2-5.2
		c0.2,0.4,0.5,0.7,0.4,0.9c-2,3.4-3.7,7-5.8,10.3c-2.7,4.2-6.7,6.8-11.1,8.8c-4.4,1.9-9.2,2.8-13.8,3.7
		C664.3,200.4,663.5,200.5,662.8,200z"/>
	<path d="M674.2,176.3c0,0.7-0.2,1.3-0.8,1.7c-1,0.5-2,1.1-3.2,0.8c-0.6-0.2-1.2-0.3-1.8-0.5c-0.8-0.2-1.3,0.2-1.6,0.7
		c-0.4,0.7-0.5,1.6-0.9,2.2c-1.8,3.1-4.8,3.5-7.6,1.1c-1.2-1-2.4-2.1-2.9-3.5c-1.3-0.5-1.9,0.3-2.7,0.7c-0.9,0.4-1.8,0.6-2.8,0.6
		c-2.6-0.1-3.8-2-2.6-4.2c0.4-0.7,0.9-1.3,1.3-2c0.8-1.1,2-1.6,2.3-1c0.5,1-0.4,1.4-0.8,2c-0.1,0.1-0.2,0.3-0.3,0.4
		c-0.5,0.8-1.1,1.6-0.4,2.6c0.6,0.7,1.8,0.5,2.9-0.6c1.7-1.7,3.3-3.4,5.8-3.9c0.8,1.2-0.3,2.1-0.2,3.2c0.1,0.8,0.1,1.6,0.4,2.3
		c0.4,1.1,3.4,3.2,4.1,2.9c1.5-0.5,1.9-2,2.5-3.3c0.3-0.7,0.3-1.6,0.5-2.3c0.4-1.7,1.5-2.3,2.6-1.2C670,176.9,672,177,674.2,176.3
		L674.2,176.3z"/>
	<path d="M655.6,159c0.2-2.3,0.2-4.2,0.7-6.1c0.7-3.1,1.2-6.2,1.1-9.4c-0.1-1.6,0.8-2.7,2.1-3.5c0.3-0.2,0.9,0.1,1.3,0.3
		c0.1,0,0.1,0.6-0.1,0.8c-0.6,0.6-1,1.1-1.1,2c-0.5,5.1-0.7,10.2-1.7,15.2c-0.3,1.4,0,2.8,0,4.3c0,0.8-0.1,1.6-0.2,2.3
		c-0.1,0.4-0.3,0.5-0.7,0.4c-0.4,0-0.6-0.1-0.6-0.5C656,162.8,655.8,160.7,655.6,159z"/>
	<path d="M696.1,191.1c-1,3.7-2.5,6.1-4.2,8.3c-2.3,2.9-5.3,4.6-8.8,5.4c-0.3,0.1-0.7,0.2-0.9,0.1c-2.2-0.6-4.4,2-6.6,0.1
		c1.7-1.8,4.1-1.1,6.1-1.7c2.7-0.7,5-2.1,7.4-3.3c1.2-0.7,2.1-1.8,2.7-3.2C692.5,194.9,693.8,193.3,696.1,191.1z"/>
	<path d="M702.1,213.8c-0.6,1.3-1.4,2.4-2.5,3.3c0.9-2,0.9-2,2.7-3.2C702.3,213.9,702.1,213.8,702.1,213.8z"/>
	<path d="M694.4,221.2c-0.6,0-0.7-0.5-0.6-0.9c0-0.2,0.3-0.5,0.5-0.5c0.5,0,0.8,0.4,0.7,0.9C694.9,220.9,694.6,221,694.4,221.2z"/>
	<path d="M718.6,270.7c0-0.4-0.1-0.9,0-1.3c0.1-0.5,0.4-0.8,0.9-0.8c0.1,0,0.3,0.2,0.3,0.2c-0.1,0.3-0.3,0.5-0.5,0.7
		c-0.3,0.4-0.6,0.7-0.8,1.1C718.5,270.6,718.6,270.7,718.6,270.7z"/>
	<path d="M674.3,176.4c0-0.3-0.1-0.6-0.1-0.8c0.1-0.2,0.4-0.6,0.5-0.6c0.5,0.2,0.5,0.7,0.2,1C674.8,176.2,674.4,176.2,674.3,176.4
		C674.2,176.3,674.3,176.4,674.3,176.4z"/>
	<path d="M670.2,301.1c0,0,0.1-0.1,0.1-0.1C670.3,301,670.2,301.1,670.2,301.1z"/>
	<path d="M804.1,731.5c-1,0.4-2.1,0.9-3.1,0c-1-0.8-2.1-1.4-3.1-2.2c-8.9-7.4-14.5-16.7-17.2-27.9c-1.8-7.6-2.7-15.3-2.4-23.2
		c0.1-3.5-0.1-7,0.9-10.4c1,0.4,0.8,1.2,0.9,1.9c0.6,4.1,0.6,8.3,0.6,12.4c0,8.2,1.6,16,4.3,23.8c1.9,5.3,4.4,10.2,7.4,14.9
		c2.8,4.4,6.9,7.5,10.8,10.7C803.4,731.6,803.8,731.5,804.1,731.5L804.1,731.5z"/>
	<path d="M827.2,623.9c2-0.5,3.1,0.6,4.3,1.2c3.4,1.6,6.1,4.1,7.7,7.6c1.7,3.6,3.3,7.2,4.9,10.9c2.2,4.8,3.1,9.9,4.3,15
		c0.4,1.5,0.6,3.1,1,4.7c1.9,7.3,1.9,14.8,2.3,22.3c0.1,1.1-0.2,2.2-0.4,3.3c0,0.1-0.3,0.3-0.4,0.3c-0.2-0.1-0.6-0.2-0.7-0.4
		c-0.1-1.1-0.3-2.2-0.3-3.3c-0.1-6.6-1.1-13-2.8-19.3c-1-3.5-1.5-7.2-2.3-10.8c-1.1-5.3-2.7-10.5-5.2-15.3c-0.7-1.3-1.1-2.7-1.7-4
		c-1.6-3.3-3.3-6.5-6.6-8.6C830.1,626.5,828.8,625.3,827.2,623.9z"/>
	<path d="M850.4,692c0.1,0.2,0.1,0.5,0.2,0.7c0,0.1-0.2,0.2-0.2,0.3c-0.1-0.2-0.1-0.5-0.2-0.7C850.1,692.2,850.3,692.1,850.4,692z"
		/>
	<path d="M804.3,733.8c0.1,0.4,0.4,0.4,0.6,0.1c0.1-0.1,0-0.3-0.1-0.4C804.5,733.3,804.3,733.4,804.3,733.8
		C804.4,733.8,804.3,733.8,804.3,733.8z"/>
	<path d="M797.8,744.2c-0.3,0.2-0.3,0.5,0,0.7c0.1,0.1,0.3,0,0.4-0.1c0.3-0.3,0.2-0.5-0.2-0.6L797.8,744.2z"/>
	<path d="M798,744.2c-0.1,0.1-0.2,0.1-0.3,0.2c0.3,0.2,0.4,0.2,0.2-0.2C797.8,744.2,798,744.2,798,744.2z"/>
	<path d="M837.4,737.8c0,0.4,0,0.8,0,1.1C837.3,738.6,837.3,738.2,837.4,737.8z"/>
	<path d="M804.1,731.5c0.1,0.8,0.2,1.5,0.2,2.3c0,0,0,0,0,0C804.3,733,804.2,732.3,804.1,731.5C804.1,731.5,804.1,731.5,804.1,731.5
		z"/>
	<path d="M482.6,536c-0.1,0.1-0.2,0.3-0.3,0.3c-0.5,0.3-1.1,0.6-1.5-0.2c0-0.1,0-0.3,0.1-0.4c0.6-0.5,1.1-0.1,1.5,0.3L482.6,536z"/>
	<path d="M484,541.4l0-0.3c0,0,0,0.4,0,0.4C484,541.5,484,541.4,484,541.4z"/>
	<path d="M498.6,553.3c-0.1,0-0.2,0.1-0.3,0.1c0.3,0.2,0.3,0.2,0.1-0.2C498.4,553.2,498.6,553.3,498.6,553.3z"/>
	<path d="M482.5,536.1c0.1,0.3,0.1,0.5,0.2,0.8c-0.8-0.2-0.3-0.5-0.1-0.9C482.6,536,482.5,536.1,482.5,536.1z"/>
	<path d="M500.4,535.3c0,0.4,0,0.7,0,1.1c0.4-0.1,0.7-0.3,0.6-0.7C500.9,535.5,500.6,535.4,500.4,535.3z"/>
	<polygon points="478.6,532.9 478.9,532.8 478.8,533.1 	"/>
	<path d="M496.4,523.5l0,0.4c0,0-0.1-0.3-0.1-0.3C496.3,523.6,496.4,523.5,496.4,523.5z"/>
	<path d="M898.7,600.2l0.1,0.4c0,0-0.1-0.2-0.1-0.2S898.7,600.2,898.7,600.2z"/>
	<path d="M776.9,516c0,0.7,0,1.4,0,2.2C775.7,517.5,776.6,516.8,776.9,516z"/>
</g>
</svg>
